<?xml version="1.0" encoding="UTF-8" standalone="no"?>
<!DOCTYPE svg PUBLIC "-//W3C//DTD SVG 1.1//EN"
 "http://www.w3.org/Graphics/SVG/1.1/DTD/svg11.dtd">
<!-- Generated by graphviz version 4.0.0 (20220529.1859)
 -->
<!-- Title: snakemake_dag Pages: 1 -->
<svg width="926pt" height="548pt"
 viewBox="0.00 0.00 926.00 548.00" xmlns="http://www.w3.org/2000/svg" xmlns:xlink="http://www.w3.org/1999/xlink">
<g id="graph0" class="graph" transform="scale(1 1) rotate(0) translate(4 544)">
<title>snakemake_dag</title>
<polygon fill="white" stroke="transparent" points="-4,4 -4,-544 922,-544 922,4 -4,4"/>
<!-- 0 -->
<g id="node1" class="node">
<title>0</title>
<path fill="none" stroke="#569ad8" stroke-width="2" d="M289,-36C289,-36 259,-36 259,-36 253,-36 247,-30 247,-24 247,-24 247,-12 247,-12 247,-6 253,0 259,0 259,0 289,0 289,0 295,0 301,-6 301,-12 301,-12 301,-24 301,-24 301,-30 295,-36 289,-36"/>
<text text-anchor="middle" x="274" y="-15.5" font-family="sans" font-size="10.00">all</text>
</g>
<!-- 1 -->
<g id="node2" class="node">
<title>1</title>
<path fill="none" stroke="#bed856" stroke-width="2" d="M276.5,-108C276.5,-108 127.5,-108 127.5,-108 121.5,-108 115.5,-102 115.5,-96 115.5,-96 115.5,-84 115.5,-84 115.5,-78 121.5,-72 127.5,-72 127.5,-72 276.5,-72 276.5,-72 282.5,-72 288.5,-78 288.5,-84 288.5,-84 288.5,-96 288.5,-96 288.5,-102 282.5,-108 276.5,-108"/>
<text text-anchor="middle" x="202" y="-87.5" font-family="sans" font-size="10.00">check_adequate_variant_counts</text>
</g>
<!-- 1&#45;&gt;0 -->
<g id="edge1" class="edge">
<title>1&#45;&gt;0</title>
<path fill="none" stroke="grey" stroke-width="2" d="M219.8,-71.7C228.6,-63.14 239.38,-52.66 249,-43.3"/>
<polygon fill="grey" stroke="grey" stroke-width="2" points="251.68,-45.58 256.41,-36.1 246.8,-40.57 251.68,-45.58"/>
</g>
<!-- 2 -->
<g id="node3" class="node">
<title>2</title>
<path fill="none" stroke="#566bd8" stroke-width="2" d="M373,-108C373,-108 319,-108 319,-108 313,-108 307,-102 307,-96 307,-96 307,-84 307,-84 307,-78 313,-72 319,-72 319,-72 373,-72 373,-72 379,-72 385,-78 385,-84 385,-84 385,-96 385,-96 385,-102 379,-108 373,-108"/>
<text text-anchor="middle" x="346" y="-87.5" font-family="sans" font-size="10.00">sphinx_build</text>
</g>
<!-- 2&#45;&gt;0 -->
<g id="edge2" class="edge">
<title>2&#45;&gt;0</title>
<path fill="none" stroke="grey" stroke-width="2" d="M328.2,-71.7C319.4,-63.14 308.62,-52.66 299,-43.3"/>
<polygon fill="grey" stroke="grey" stroke-width="2" points="301.2,-40.57 291.59,-36.1 296.32,-45.58 301.2,-40.57"/>
</g>
<!-- 3 -->
<g id="node4" class="node">
<title>3</title>
<path fill="none" stroke="#56d863" stroke-width="2" d="M245,-468C245,-468 177,-468 177,-468 171,-468 165,-462 165,-456 165,-456 165,-444 165,-444 165,-438 171,-432 177,-432 177,-432 245,-432 245,-432 251,-432 257,-438 257,-444 257,-444 257,-456 257,-456 257,-462 251,-468 245,-468"/>
<text text-anchor="middle" x="211" y="-447.5" font-family="sans" font-size="10.00">gene_sequence</text>
</g>
<!-- 3&#45;&gt;2 -->
<g id="edge3" class="edge">
<title>3&#45;&gt;2</title>
<path fill="none" stroke="grey" stroke-width="2" d="M164.65,-445.68C126.16,-440.62 72.22,-427.91 37,-396 5.26,-367.23 0,-349.84 0,-307 0,-307 0,-307 0,-233 0,-92.6 152.53,-143.99 296.91,-107.99"/>
<polygon fill="grey" stroke="grey" stroke-width="2" points="298.07,-111.3 306.85,-105.36 296.29,-104.53 298.07,-111.3"/>
</g>
<!-- 4 -->
<g id="node5" class="node">
<title>4</title>
<path fill="none" stroke="#56d8a2" stroke-width="2" d="M153.5,-396C153.5,-396 58.5,-396 58.5,-396 52.5,-396 46.5,-390 46.5,-384 46.5,-384 46.5,-372 46.5,-372 46.5,-366 52.5,-360 58.5,-360 58.5,-360 153.5,-360 153.5,-360 159.5,-360 165.5,-366 165.5,-372 165.5,-372 165.5,-384 165.5,-384 165.5,-390 159.5,-396 153.5,-396"/>
<text text-anchor="middle" x="106" y="-375.5" font-family="sans" font-size="10.00">site_numbering_map</text>
</g>
<!-- 3&#45;&gt;4 -->
<g id="edge13" class="edge">
<title>3&#45;&gt;4</title>
<path fill="none" stroke="grey" stroke-width="2" d="M185.31,-431.88C171.71,-422.81 154.83,-411.55 140.14,-401.76"/>
<polygon fill="grey" stroke="grey" stroke-width="2" points="142.05,-398.82 131.78,-396.19 138.16,-404.65 142.05,-398.82"/>
</g>
<!-- 5 -->
<g id="node6" class="node">
<title>5</title>
<path fill="none" stroke="#d89c56" stroke-width="2" d="M259,-324C259,-324 163,-324 163,-324 157,-324 151,-318 151,-312 151,-312 151,-300 151,-300 151,-294 157,-288 163,-288 163,-288 259,-288 259,-288 265,-288 271,-294 271,-300 271,-300 271,-312 271,-312 271,-318 265,-324 259,-324"/>
<text text-anchor="middle" x="211" y="-303.5" font-family="sans" font-size="10.00">build_codon_variants</text>
</g>
<!-- 3&#45;&gt;5 -->
<g id="edge15" class="edge">
<title>3&#45;&gt;5</title>
<path fill="none" stroke="grey" stroke-width="2" d="M211,-431.87C211,-407.67 211,-363.21 211,-334.39"/>
<polygon fill="grey" stroke="grey" stroke-width="2" points="214.5,-334.19 211,-324.19 207.5,-334.19 214.5,-334.19"/>
</g>
<!-- 6 -->
<g id="node7" class="node">
<title>6</title>
<path fill="none" stroke="#61d856" stroke-width="2" d="M463,-396C463,-396 353,-396 353,-396 347,-396 341,-390 341,-384 341,-384 341,-372 341,-372 341,-366 347,-360 353,-360 353,-360 463,-360 463,-360 469,-360 475,-366 475,-372 475,-372 475,-384 475,-384 475,-390 469,-396 463,-396"/>
<text text-anchor="middle" x="408" y="-375.5" font-family="sans" font-size="10.00">build_pacbio_consensus</text>
</g>
<!-- 3&#45;&gt;6 -->
<g id="edge18" class="edge">
<title>3&#45;&gt;6</title>
<path fill="none" stroke="grey" stroke-width="2" d="M257.19,-432.59C284.98,-422.71 320.6,-410.06 350.24,-399.52"/>
<polygon fill="grey" stroke="grey" stroke-width="2" points="351.79,-402.69 360.04,-396.04 349.45,-396.09 351.79,-402.69"/>
</g>
<!-- 14 -->
<g id="node15" class="node">
<title>14</title>
<path fill="none" stroke="#5682d8" stroke-width="2" d="M426.5,-180C426.5,-180 379.5,-180 379.5,-180 373.5,-180 367.5,-174 367.5,-168 367.5,-168 367.5,-156 367.5,-156 367.5,-150 373.5,-144 379.5,-144 379.5,-144 426.5,-144 426.5,-144 432.5,-144 438.5,-150 438.5,-156 438.5,-156 438.5,-168 438.5,-168 438.5,-174 432.5,-180 426.5,-180"/>
<text text-anchor="middle" x="403" y="-159.5" font-family="sans" font-size="10.00">docs_index</text>
</g>
<!-- 3&#45;&gt;14 -->
<g id="edge24" class="edge">
<title>3&#45;&gt;14</title>
<path fill="none" stroke="grey" stroke-width="2" d="M222.44,-431.97C254.77,-383.8 347.03,-246.37 385.66,-188.83"/>
<polygon fill="grey" stroke="grey" stroke-width="2" points="388.71,-190.56 391.38,-180.31 382.9,-186.66 388.71,-190.56"/>
</g>
<!-- 4&#45;&gt;2 -->
<g id="edge4" class="edge">
<title>4&#45;&gt;2</title>
<path fill="none" stroke="grey" stroke-width="2" d="M101.67,-359.57C95,-328.92 85.11,-264.08 107,-216 124.38,-177.83 132.67,-166.6 168,-144 215.94,-113.34 238.48,-124.68 297.06,-108.06"/>
<polygon fill="grey" stroke="grey" stroke-width="2" points="298.21,-111.37 306.78,-105.14 296.2,-104.67 298.21,-111.37"/>
</g>
<!-- 4&#45;&gt;5 -->
<g id="edge16" class="edge">
<title>4&#45;&gt;5</title>
<path fill="none" stroke="grey" stroke-width="2" d="M131.69,-359.88C145.29,-350.81 162.17,-339.55 176.86,-329.76"/>
<polygon fill="grey" stroke="grey" stroke-width="2" points="178.84,-332.65 185.22,-324.19 174.95,-326.82 178.84,-332.65"/>
</g>
<!-- 4&#45;&gt;14 -->
<g id="edge25" class="edge">
<title>4&#45;&gt;14</title>
<path fill="none" stroke="grey" stroke-width="2" d="M103.2,-359.93C98.9,-327.18 94.76,-255.31 133,-216 163.49,-184.65 288.49,-171.03 357.2,-165.82"/>
<polygon fill="grey" stroke="grey" stroke-width="2" points="357.6,-169.3 367.32,-165.08 357.09,-162.32 357.6,-169.3"/>
</g>
<!-- 5&#45;&gt;2 -->
<g id="edge5" class="edge">
<title>5&#45;&gt;2</title>
<path fill="none" stroke="grey" stroke-width="2" d="M170.82,-287.77C156.17,-279.28 141.2,-267.48 133,-252 125.51,-237.86 125.05,-229.88 133,-216 151.32,-184.01 241.1,-138.61 298.1,-112.24"/>
<polygon fill="grey" stroke="grey" stroke-width="2" points="299.67,-115.37 307.29,-108.02 296.75,-109.01 299.67,-115.37"/>
</g>
<!-- 12 -->
<g id="node13" class="node">
<title>12</title>
<path fill="none" stroke="#d86e56" stroke-width="2" d="M268,-252C268,-252 154,-252 154,-252 148,-252 142,-246 142,-240 142,-240 142,-228 142,-228 142,-222 148,-216 154,-216 154,-216 268,-216 268,-216 274,-216 280,-222 280,-228 280,-228 280,-240 280,-240 280,-246 274,-252 268,-252"/>
<text text-anchor="middle" x="211" y="-237" font-family="sans" font-size="10.00">make_nblink</text>
<text text-anchor="middle" x="211" y="-226" font-family="sans" font-size="10.00">nb: build_codon_variants</text>
</g>
<!-- 5&#45;&gt;12 -->
<g id="edge23" class="edge">
<title>5&#45;&gt;12</title>
<path fill="none" stroke="grey" stroke-width="2" d="M211,-287.7C211,-279.98 211,-270.71 211,-262.11"/>
<polygon fill="grey" stroke="grey" stroke-width="2" points="214.5,-262.1 211,-252.1 207.5,-262.1 214.5,-262.1"/>
</g>
<!-- 5&#45;&gt;14 -->
<g id="edge26" class="edge">
<title>5&#45;&gt;14</title>
<path fill="none" stroke="grey" stroke-width="2" d="M236.94,-288C252.26,-277.8 271.93,-264.44 289,-252 318.46,-230.53 351.16,-204.79 373.96,-186.53"/>
<polygon fill="grey" stroke="grey" stroke-width="2" points="376.29,-189.15 381.89,-180.16 371.9,-183.69 376.29,-189.15"/>
</g>
<!-- 6&#45;&gt;2 -->
<g id="edge7" class="edge">
<title>6&#45;&gt;2</title>
<path fill="none" stroke="grey" stroke-width="2" d="M403.17,-360C393.65,-326.03 372.24,-247.26 359,-180 354.95,-159.45 351.58,-135.99 349.28,-118.32"/>
<polygon fill="grey" stroke="grey" stroke-width="2" points="352.72,-117.63 347.99,-108.15 345.78,-118.51 352.72,-117.63"/>
</g>
<!-- 6&#45;&gt;5 -->
<g id="edge14" class="edge">
<title>6&#45;&gt;5</title>
<path fill="none" stroke="grey" stroke-width="2" d="M360.06,-359.97C332.53,-350.19 297.78,-337.84 268.76,-327.52"/>
<polygon fill="grey" stroke="grey" stroke-width="2" points="269.75,-324.16 259.15,-324.11 267.41,-330.76 269.75,-324.16"/>
</g>
<!-- 11 -->
<g id="node12" class="node">
<title>11</title>
<path fill="none" stroke="#d86e56" stroke-width="2" d="M628,-252C628,-252 500,-252 500,-252 494,-252 488,-246 488,-240 488,-240 488,-228 488,-228 488,-222 494,-216 500,-216 500,-216 628,-216 628,-216 634,-216 640,-222 640,-228 640,-228 640,-240 640,-240 640,-246 634,-252 628,-252"/>
<text text-anchor="middle" x="564" y="-237" font-family="sans" font-size="10.00">make_nblink</text>
<text text-anchor="middle" x="564" y="-226" font-family="sans" font-size="10.00">nb: build_pacbio_consensus</text>
</g>
<!-- 6&#45;&gt;11 -->
<g id="edge22" class="edge">
<title>6&#45;&gt;11</title>
<path fill="none" stroke="grey" stroke-width="2" d="M426.82,-359.87C454.46,-334.71 506.16,-287.65 537.59,-259.04"/>
<polygon fill="grey" stroke="grey" stroke-width="2" points="540.08,-261.51 545.12,-252.19 535.36,-256.33 540.08,-261.51"/>
</g>
<!-- 6&#45;&gt;14 -->
<g id="edge28" class="edge">
<title>6&#45;&gt;14</title>
<path fill="none" stroke="grey" stroke-width="2" d="M407.6,-359.85C406.73,-322.83 404.69,-235.18 403.64,-190.39"/>
<polygon fill="grey" stroke="grey" stroke-width="2" points="407.14,-190.15 403.4,-180.23 400.14,-190.31 407.14,-190.15"/>
</g>
<!-- 7 -->
<g id="node8" class="node">
<title>7</title>
<path fill="none" stroke="#56d892" stroke-width="2" d="M646.5,-468C646.5,-468 557.5,-468 557.5,-468 551.5,-468 545.5,-462 545.5,-456 545.5,-456 545.5,-444 545.5,-444 545.5,-438 551.5,-432 557.5,-432 557.5,-432 646.5,-432 646.5,-432 652.5,-432 658.5,-438 658.5,-444 658.5,-444 658.5,-456 658.5,-456 658.5,-462 652.5,-468 646.5,-468"/>
<text text-anchor="middle" x="602" y="-447.5" font-family="sans" font-size="10.00">analyze_pacbio_ccs</text>
</g>
<!-- 7&#45;&gt;2 -->
<g id="edge6" class="edge">
<title>7&#45;&gt;2</title>
<path fill="none" stroke="grey" stroke-width="2" d="M658.86,-448.11C749.84,-443.33 918,-419.32 918,-307 918,-307 918,-307 918,-233 918,-125.8 534.77,-98.95 395.68,-92.74"/>
<polygon fill="grey" stroke="grey" stroke-width="2" points="395.46,-89.23 385.32,-92.3 395.16,-96.22 395.46,-89.23"/>
</g>
<!-- 7&#45;&gt;6 -->
<g id="edge17" class="edge">
<title>7&#45;&gt;6</title>
<path fill="none" stroke="grey" stroke-width="2" d="M554.54,-431.88C527.43,-422.09 493.26,-409.77 464.74,-399.47"/>
<polygon fill="grey" stroke="grey" stroke-width="2" points="465.9,-396.17 455.3,-396.07 463.52,-402.75 465.9,-396.17"/>
</g>
<!-- 10 -->
<g id="node11" class="node">
<title>10</title>
<path fill="none" stroke="#d86e56" stroke-width="2" d="M877.5,-252C877.5,-252 770.5,-252 770.5,-252 764.5,-252 758.5,-246 758.5,-240 758.5,-240 758.5,-228 758.5,-228 758.5,-222 764.5,-216 770.5,-216 770.5,-216 877.5,-216 877.5,-216 883.5,-216 889.5,-222 889.5,-228 889.5,-228 889.5,-240 889.5,-240 889.5,-246 883.5,-252 877.5,-252"/>
<text text-anchor="middle" x="824" y="-237" font-family="sans" font-size="10.00">make_nblink</text>
<text text-anchor="middle" x="824" y="-226" font-family="sans" font-size="10.00">nb: analyze_pacbio_ccs</text>
</g>
<!-- 7&#45;&gt;10 -->
<g id="edge21" class="edge">
<title>7&#45;&gt;10</title>
<path fill="none" stroke="grey" stroke-width="2" d="M619.79,-431.85C659.09,-393.97 753.38,-303.08 798.76,-259.33"/>
<polygon fill="grey" stroke="grey" stroke-width="2" points="801.35,-261.69 806.12,-252.23 796.49,-256.65 801.35,-261.69"/>
</g>
<!-- 7&#45;&gt;14 -->
<g id="edge27" class="edge">
<title>7&#45;&gt;14</title>
<path fill="none" stroke="grey" stroke-width="2" d="M590.15,-431.97C556.63,-383.8 461.01,-246.37 420.97,-188.83"/>
<polygon fill="grey" stroke="grey" stroke-width="2" points="423.63,-186.52 415.04,-180.31 417.88,-190.51 423.63,-186.52"/>
</g>
<!-- 8 -->
<g id="node9" class="node">
<title>8</title>
<path fill="none" stroke="#56d8d0" stroke-width="2" d="M580.5,-540C580.5,-540 465.5,-540 465.5,-540 459.5,-540 453.5,-534 453.5,-528 453.5,-528 453.5,-516 453.5,-516 453.5,-510 459.5,-504 465.5,-504 465.5,-504 580.5,-504 580.5,-504 586.5,-504 592.5,-510 592.5,-516 592.5,-516 592.5,-528 592.5,-528 592.5,-534 586.5,-540 580.5,-540"/>
<text text-anchor="middle" x="523" y="-525" font-family="sans" font-size="10.00">align_parse_PacBio_ccs</text>
<text text-anchor="middle" x="523" y="-514" font-family="sans" font-size="10.00">pacbioRun: Lib&#45;1_220629</text>
</g>
<!-- 8&#45;&gt;7 -->
<g id="edge19" class="edge">
<title>8&#45;&gt;7</title>
<path fill="none" stroke="grey" stroke-width="2" d="M542.53,-503.7C552.38,-494.97 564.49,-484.24 575.2,-474.75"/>
<polygon fill="grey" stroke="grey" stroke-width="2" points="577.53,-477.36 582.7,-468.1 572.89,-472.12 577.53,-477.36"/>
</g>
<!-- 9 -->
<g id="node10" class="node">
<title>9</title>
<path fill="none" stroke="#56d8d0" stroke-width="2" d="M737.5,-540C737.5,-540 622.5,-540 622.5,-540 616.5,-540 610.5,-534 610.5,-528 610.5,-528 610.5,-516 610.5,-516 610.5,-510 616.5,-504 622.5,-504 622.5,-504 737.5,-504 737.5,-504 743.5,-504 749.5,-510 749.5,-516 749.5,-516 749.5,-528 749.5,-528 749.5,-534 743.5,-540 737.5,-540"/>
<text text-anchor="middle" x="680" y="-525" font-family="sans" font-size="10.00">align_parse_PacBio_ccs</text>
<text text-anchor="middle" x="680" y="-514" font-family="sans" font-size="10.00">pacbioRun: Lib&#45;2_220629</text>
</g>
<!-- 9&#45;&gt;7 -->
<g id="edge20" class="edge">
<title>9&#45;&gt;7</title>
<path fill="none" stroke="grey" stroke-width="2" d="M660.72,-503.7C651.08,-495.05 639.27,-484.45 628.77,-475.03"/>
<polygon fill="grey" stroke="grey" stroke-width="2" points="630.84,-472.18 621.06,-468.1 626.16,-477.39 630.84,-472.18"/>
</g>
<!-- 10&#45;&gt;2 -->
<g id="edge8" class="edge">
<title>10&#45;&gt;2</title>
<path fill="none" stroke="grey" stroke-width="2" d="M772.87,-215.96C716.9,-197.5 624.41,-167.53 544,-144 493.47,-129.21 435.2,-113.82 395.03,-103.45"/>
<polygon fill="grey" stroke="grey" stroke-width="2" points="395.78,-100.03 385.22,-100.93 394.03,-106.81 395.78,-100.03"/>
</g>
<!-- 10&#45;&gt;14 -->
<g id="edge29" class="edge">
<title>10&#45;&gt;14</title>
<path fill="none" stroke="grey" stroke-width="2" d="M758.21,-217.81C755.1,-217.18 752.02,-216.57 749,-216 641.89,-195.68 514.98,-177.81 448.62,-168.94"/>
<polygon fill="grey" stroke="grey" stroke-width="2" points="448.88,-165.44 438.51,-167.59 447.96,-172.38 448.88,-165.44"/>
</g>
<!-- 11&#45;&gt;2 -->
<g id="edge9" class="edge">
<title>11&#45;&gt;2</title>
<path fill="none" stroke="grey" stroke-width="2" d="M543.84,-215.78C521.31,-196.96 483.33,-166.49 448,-144 430.22,-132.68 409.76,-121.69 391.85,-112.67"/>
<polygon fill="grey" stroke="grey" stroke-width="2" points="393.25,-109.46 382.74,-108.14 390.14,-115.73 393.25,-109.46"/>
</g>
<!-- 11&#45;&gt;14 -->
<g id="edge30" class="edge">
<title>11&#45;&gt;14</title>
<path fill="none" stroke="grey" stroke-width="2" d="M524.61,-215.88C501.44,-205.8 472.05,-193.02 447.97,-182.55"/>
<polygon fill="grey" stroke="grey" stroke-width="2" points="449.25,-179.29 438.68,-178.51 446.46,-185.71 449.25,-179.29"/>
</g>
<!-- 12&#45;&gt;2 -->
<g id="edge10" class="edge">
<title>12&#45;&gt;2</title>
<path fill="none" stroke="grey" stroke-width="2" d="M226.78,-215.82C243.39,-197.8 270.34,-168.73 294,-144 303.05,-134.54 313.1,-124.24 321.94,-115.26"/>
<polygon fill="grey" stroke="grey" stroke-width="2" points="324.5,-117.66 329.03,-108.08 319.51,-112.74 324.5,-117.66"/>
</g>
<!-- 12&#45;&gt;14 -->
<g id="edge31" class="edge">
<title>12&#45;&gt;14</title>
<path fill="none" stroke="grey" stroke-width="2" d="M257.97,-215.88C288.42,-204.77 327.87,-190.39 357.94,-179.43"/>
<polygon fill="grey" stroke="grey" stroke-width="2" points="359.15,-182.71 367.35,-176 356.76,-176.13 359.15,-182.71"/>
</g>
<!-- 13 -->
<g id="node14" class="node">
<title>13</title>
<path fill="none" stroke="#8fd856" stroke-width="2" d="M728,-252C728,-252 670,-252 670,-252 664,-252 658,-246 658,-240 658,-240 658,-228 658,-228 658,-222 664,-216 670,-216 670,-216 728,-216 728,-216 734,-216 740,-222 740,-228 740,-228 740,-240 740,-240 740,-246 734,-252 728,-252"/>
<text text-anchor="middle" x="699" y="-231.5" font-family="sans" font-size="10.00">make_graphs</text>
</g>
<!-- 13&#45;&gt;2 -->
<g id="edge11" class="edge">
<title>13&#45;&gt;2</title>
<path fill="none" stroke="grey" stroke-width="2" d="M659.12,-215.86C616.45,-197.64 546.69,-168.16 486,-144 455.79,-131.97 421.66,-119.04 394.66,-108.96"/>
<polygon fill="grey" stroke="grey" stroke-width="2" points="395.65,-105.59 385.06,-105.38 393.21,-112.15 395.65,-105.59"/>
</g>
<!-- 13&#45;&gt;14 -->
<g id="edge32" class="edge">
<title>13&#45;&gt;14</title>
<path fill="none" stroke="grey" stroke-width="2" d="M657.92,-218.61C654.91,-217.69 651.92,-216.81 649,-216 580.01,-196.91 498.56,-180.55 448.86,-171.24"/>
<polygon fill="grey" stroke="grey" stroke-width="2" points="449.23,-167.75 438.76,-169.36 447.95,-174.63 449.23,-167.75"/>
</g>
<!-- 14&#45;&gt;2 -->
<g id="edge12" class="edge">
<title>14&#45;&gt;2</title>
<path fill="none" stroke="grey" stroke-width="2" d="M388.91,-143.7C382.08,-135.3 373.74,-125.07 366.24,-115.86"/>
<polygon fill="grey" stroke="grey" stroke-width="2" points="368.96,-113.65 359.93,-108.1 363.53,-118.07 368.96,-113.65"/>
</g>
</g>
</svg>
