<?xml version="1.0" encoding="UTF-8" standalone="no"?>
<!DOCTYPE svg PUBLIC "-//W3C//DTD SVG 1.1//EN"
 "http://www.w3.org/Graphics/SVG/1.1/DTD/svg11.dtd">
<!-- Generated by graphviz version 7.0.6 (20230107.1202)
 -->
<!-- Title: snakemake_dag Pages: 1 -->
<svg width="1766pt" height="1196pt"
 viewBox="0.00 0.00 1765.50 1196.00" xmlns="http://www.w3.org/2000/svg" xmlns:xlink="http://www.w3.org/1999/xlink">
<g id="graph0" class="graph" transform="scale(1 1) rotate(0) translate(4 1192)">
<title>snakemake_dag</title>
<polygon fill="white" stroke="none" points="-4,4 -4,-1192 1761.5,-1192 1761.5,4 -4,4"/>
<!-- 0 -->
<g id="node1" class="node">
<title>0</title>
<path fill="none" stroke="#61d856" stroke-width="2" d="M877,-36C877,-36 847,-36 847,-36 841,-36 835,-30 835,-24 835,-24 835,-12 835,-12 835,-6 841,0 847,0 847,0 877,0 877,0 883,0 889,-6 889,-12 889,-12 889,-24 889,-24 889,-30 883,-36 877,-36"/>
<text text-anchor="middle" x="862" y="-15.5" font-family="sans" font-size="10.00">all</text>
</g>
<!-- 1 -->
<g id="node2" class="node">
<title>1</title>
<path fill="none" stroke="#d85656" stroke-width="2" d="M1263.5,-828C1263.5,-828 1198.5,-828 1198.5,-828 1192.5,-828 1186.5,-822 1186.5,-816 1186.5,-816 1186.5,-804 1186.5,-804 1186.5,-798 1192.5,-792 1198.5,-792 1198.5,-792 1263.5,-792 1263.5,-792 1269.5,-792 1275.5,-798 1275.5,-804 1275.5,-804 1275.5,-816 1275.5,-816 1275.5,-822 1269.5,-828 1263.5,-828"/>
<text text-anchor="middle" x="1231" y="-807.5" font-family="sans" font-size="10.00">variant_counts</text>
</g>
<!-- 1&#45;&gt;0 -->
<g id="edge1" class="edge">
<title>1&#45;&gt;0</title>
<path fill="none" stroke="grey" stroke-width="2" d="M1276.47,-792C1343.45,-764.58 1467.94,-704.17 1535,-612 1659.66,-440.66 1745.93,-318.69 1626,-144 1543.2,-23.39 1048.71,-17.52 902.62,-18.46"/>
<polygon fill="grey" stroke="grey" stroke-width="2" points="902.97,-14.95 893,-18.54 903.03,-21.95 902.97,-14.95"/>
</g>
<!-- 10 -->
<g id="node11" class="node">
<title>10</title>
<path fill="none" stroke="#97d856" stroke-width="2" d="M1177,-756C1177,-756 1069,-756 1069,-756 1063,-756 1057,-750 1057,-744 1057,-744 1057,-732 1057,-732 1057,-726 1063,-720 1069,-720 1069,-720 1177,-720 1177,-720 1183,-720 1189,-726 1189,-732 1189,-732 1189,-744 1189,-744 1189,-750 1183,-756 1177,-756"/>
<text text-anchor="middle" x="1123" y="-735.5" font-family="sans" font-size="10.00">analyze_variant_counts</text>
</g>
<!-- 1&#45;&gt;10 -->
<g id="edge18" class="edge">
<title>1&#45;&gt;10</title>
<path fill="none" stroke="grey" stroke-width="2" d="M1203.47,-791.15C1190.65,-782.84 1175.18,-772.82 1161.25,-763.79"/>
<polygon fill="grey" stroke="grey" stroke-width="2" points="1163.32,-760.96 1153.02,-758.46 1159.51,-766.83 1163.32,-760.96"/>
</g>
<!-- 14 -->
<g id="node15" class="node">
<title>14</title>
<path fill="none" stroke="#d8b456" stroke-width="2" d="M936,-612C936,-612 886,-612 886,-612 880,-612 874,-606 874,-600 874,-600 874,-588 874,-588 874,-582 880,-576 886,-576 886,-576 936,-576 936,-576 942,-576 948,-582 948,-588 948,-588 948,-600 948,-600 948,-606 942,-612 936,-612"/>
<text text-anchor="middle" x="911" y="-591.5" font-family="sans" font-size="10.00">func_scores</text>
</g>
<!-- 1&#45;&gt;14 -->
<g id="edge29" class="edge">
<title>1&#45;&gt;14</title>
<path fill="none" stroke="grey" stroke-width="2" d="M1226.96,-791.17C1222.14,-772.37 1212.8,-742.41 1198,-720 1172.36,-681.18 1162.78,-670.4 1122,-648 1071.49,-620.26 1006.23,-606.76 961.75,-600.38"/>
<polygon fill="grey" stroke="grey" stroke-width="2" points="962.32,-596.92 951.94,-599.06 961.38,-603.86 962.32,-596.92"/>
</g>
<!-- 17 -->
<g id="node18" class="node">
<title>17</title>
<path fill="none" stroke="#567bd8" stroke-width="2" d="M710,-612C710,-612 656,-612 656,-612 650,-612 644,-606 644,-600 644,-600 644,-588 644,-588 644,-582 650,-576 656,-576 656,-576 710,-576 710,-576 716,-576 722,-582 722,-588 722,-588 722,-600 722,-600 722,-606 716,-612 710,-612"/>
<text text-anchor="middle" x="683" y="-591.5" font-family="sans" font-size="10.00">prob_escape</text>
</g>
<!-- 1&#45;&gt;17 -->
<g id="edge37" class="edge">
<title>1&#45;&gt;17</title>
<path fill="none" stroke="grey" stroke-width="2" d="M1185.71,-797.69C1148.35,-787.93 1094.16,-772.78 1048,-756 931.55,-713.67 799.61,-651.88 730.69,-618.49"/>
<polygon fill="grey" stroke="grey" stroke-width="2" points="732.63,-615.54 722.1,-614.32 729.57,-621.84 732.63,-615.54"/>
</g>
<!-- 18 -->
<g id="node19" class="node">
<title>18</title>
<path fill="none" stroke="#d6d856" stroke-width="2" d="M889,-108C889,-108 835,-108 835,-108 829,-108 823,-102 823,-96 823,-96 823,-84 823,-84 823,-78 829,-72 835,-72 835,-72 889,-72 889,-72 895,-72 901,-78 901,-84 901,-84 901,-96 901,-96 901,-102 895,-108 889,-108"/>
<text text-anchor="middle" x="862" y="-87.5" font-family="sans" font-size="10.00">sphinx_build</text>
</g>
<!-- 1&#45;&gt;18 -->
<g id="edge42" class="edge">
<title>1&#45;&gt;18</title>
<path fill="none" stroke="grey" stroke-width="2" d="M1254.7,-791.2C1284.27,-766.75 1331,-719.77 1331,-667 1331,-667 1331,-667 1331,-377 1331,-304.16 1411.91,-320.38 1437,-252 1456.7,-198.3 1418.46,-168.98 1367,-144 1288.22,-105.75 1027.57,-94.95 914.78,-92.03"/>
<polygon fill="grey" stroke="grey" stroke-width="2" points="914.89,-88.53 904.8,-91.78 914.72,-95.53 914.89,-88.53"/>
</g>
<!-- 26 -->
<g id="node27" class="node">
<title>26</title>
<path fill="none" stroke="#d86656" stroke-width="2" d="M961.5,-180C961.5,-180 914.5,-180 914.5,-180 908.5,-180 902.5,-174 902.5,-168 902.5,-168 902.5,-156 902.5,-156 902.5,-150 908.5,-144 914.5,-144 914.5,-144 961.5,-144 961.5,-144 967.5,-144 973.5,-150 973.5,-156 973.5,-156 973.5,-168 973.5,-168 973.5,-174 967.5,-180 961.5,-180"/>
<text text-anchor="middle" x="938" y="-159.5" font-family="sans" font-size="10.00">docs_index</text>
</g>
<!-- 1&#45;&gt;26 -->
<g id="edge77" class="edge">
<title>1&#45;&gt;26</title>
<path fill="none" stroke="grey" stroke-width="2" d="M1235.97,-791.23C1243,-764.5 1255,-712.25 1255,-667 1255,-667 1255,-667 1255,-377 1255,-352.78 1128.59,-228.75 1108,-216 1070.66,-192.88 1022.42,-179.1 986.87,-171.41"/>
<polygon fill="grey" stroke="grey" stroke-width="2" points="987.85,-168.04 977.35,-169.46 986.44,-174.9 987.85,-168.04"/>
</g>
<!-- 2 -->
<g id="node3" class="node">
<title>2</title>
<path fill="none" stroke="#56d873" stroke-width="2" d="M1117.5,-900C1117.5,-900 1048.5,-900 1048.5,-900 1042.5,-900 1036.5,-894 1036.5,-888 1036.5,-888 1036.5,-876 1036.5,-876 1036.5,-870 1042.5,-864 1048.5,-864 1048.5,-864 1117.5,-864 1117.5,-864 1123.5,-864 1129.5,-870 1129.5,-876 1129.5,-876 1129.5,-888 1129.5,-888 1129.5,-894 1123.5,-900 1117.5,-900"/>
<text text-anchor="middle" x="1083" y="-879.5" font-family="sans" font-size="10.00">count_barcodes</text>
</g>
<!-- 2&#45;&gt;1 -->
<g id="edge8" class="edge">
<title>2&#45;&gt;1</title>
<path fill="none" stroke="grey" stroke-width="2" d="M1120.73,-863.15C1139.19,-854.43 1161.64,-843.81 1181.46,-834.43"/>
<polygon fill="grey" stroke="grey" stroke-width="2" points="1182.8,-837.67 1190.35,-830.23 1179.81,-831.34 1182.8,-837.67"/>
</g>
<!-- 2&#45;&gt;10 -->
<g id="edge21" class="edge">
<title>2&#45;&gt;10</title>
<path fill="none" stroke="grey" stroke-width="2" d="M1088.07,-863.02C1094.71,-839.44 1106.46,-797.73 1114.48,-769.25"/>
<polygon fill="grey" stroke="grey" stroke-width="2" points="1117.81,-770.33 1117.15,-759.75 1111.07,-768.43 1117.81,-770.33"/>
</g>
<!-- 3 -->
<g id="node4" class="node">
<title>3</title>
<path fill="none" stroke="#56d89a" stroke-width="2" d="M1087,-972C1087,-972 991,-972 991,-972 985,-972 979,-966 979,-960 979,-960 979,-948 979,-948 979,-942 985,-936 991,-936 991,-936 1087,-936 1087,-936 1093,-936 1099,-942 1099,-948 1099,-948 1099,-960 1099,-960 1099,-966 1093,-972 1087,-972"/>
<text text-anchor="middle" x="1039" y="-951.5" font-family="sans" font-size="10.00">build_codon_variants</text>
</g>
<!-- 3&#45;&gt;1 -->
<g id="edge7" class="edge">
<title>3&#45;&gt;1</title>
<path fill="none" stroke="grey" stroke-width="2" d="M1078.98,-935.04C1097.91,-925.74 1120.4,-913.51 1139,-900 1164,-881.85 1188.98,-857.16 1206.58,-838.4"/>
<polygon fill="grey" stroke="grey" stroke-width="2" points="1209.06,-840.87 1213.27,-831.15 1203.92,-836.13 1209.06,-840.87"/>
</g>
<!-- 3&#45;&gt;2 -->
<g id="edge9" class="edge">
<title>3&#45;&gt;2</title>
<path fill="none" stroke="grey" stroke-width="2" d="M1050.1,-935.34C1054.6,-928.18 1059.91,-919.73 1064.94,-911.73"/>
<polygon fill="grey" stroke="grey" stroke-width="2" points="1067.78,-913.79 1070.14,-903.46 1061.85,-910.07 1067.78,-913.79"/>
</g>
<!-- 3&#45;&gt;10 -->
<g id="edge19" class="edge">
<title>3&#45;&gt;10</title>
<path fill="none" stroke="grey" stroke-width="2" d="M1032.27,-935.14C1026.41,-916.83 1020,-887.75 1028,-864 1041,-825.4 1071.19,-789.28 1094.07,-765.89"/>
<polygon fill="grey" stroke="grey" stroke-width="2" points="1096.27,-768.64 1100.9,-759.11 1091.34,-763.67 1096.27,-768.64"/>
</g>
<!-- 3&#45;&gt;14 -->
<g id="edge30" class="edge">
<title>3&#45;&gt;14</title>
<path fill="none" stroke="grey" stroke-width="2" d="M1030.64,-935.1C1010.97,-892.44 961.18,-781.07 931,-684 925.06,-664.91 920.12,-643 916.63,-625.7"/>
<polygon fill="grey" stroke="grey" stroke-width="2" points="920.07,-625.07 914.73,-615.92 913.2,-626.41 920.07,-625.07"/>
</g>
<!-- 3&#45;&gt;17 -->
<g id="edge38" class="edge">
<title>3&#45;&gt;17</title>
<path fill="none" stroke="grey" stroke-width="2" d="M978.14,-936.25C952.04,-927.59 921.89,-915.53 897,-900 788.64,-832.39 720.12,-687.63 694.46,-624.95"/>
<polygon fill="grey" stroke="grey" stroke-width="2" points="697.72,-623.68 690.75,-615.69 691.22,-626.27 697.72,-623.68"/>
</g>
<!-- 3&#45;&gt;18 -->
<g id="edge54" class="edge">
<title>3&#45;&gt;18</title>
<path fill="none" stroke="grey" stroke-width="2" d="M1099.98,-949.37C1179.22,-943.54 1311.94,-929.58 1350,-900 1471.37,-805.67 1495.38,-363.76 1453,-216 1442.6,-179.73 1440.08,-163.87 1408,-144 1326.45,-93.49 1035.15,-89.66 914.7,-90.31"/>
<polygon fill="grey" stroke="grey" stroke-width="2" points="914.9,-86.81 904.92,-90.38 914.95,-93.81 914.9,-86.81"/>
</g>
<!-- 22 -->
<g id="node23" class="node">
<title>22</title>
<path fill="none" stroke="#566bd8" stroke-width="2" d="M956.5,-324C956.5,-324 901.5,-324 901.5,-324 895.5,-324 889.5,-318 889.5,-312 889.5,-312 889.5,-300 889.5,-300 889.5,-294 895.5,-288 901.5,-288 901.5,-288 956.5,-288 956.5,-288 962.5,-288 968.5,-294 968.5,-300 968.5,-300 968.5,-312 968.5,-312 968.5,-318 962.5,-324 956.5,-324"/>
<text text-anchor="middle" x="929" y="-303.5" font-family="sans" font-size="10.00">make_nblink</text>
</g>
<!-- 3&#45;&gt;22 -->
<g id="edge67" class="edge">
<title>3&#45;&gt;22</title>
<path fill="none" stroke="grey" stroke-width="2" d="M1022.24,-935.29C1013.43,-925.4 1002.86,-912.58 995,-900 920.59,-780.9 894.55,-749.29 865,-612 843.24,-510.91 889.64,-390.78 914.56,-336.37"/>
<polygon fill="grey" stroke="grey" stroke-width="2" points="917.58,-338.17 918.66,-327.63 911.24,-335.19 917.58,-338.17"/>
</g>
<!-- 3&#45;&gt;26 -->
<g id="edge80" class="edge">
<title>3&#45;&gt;26</title>
<path fill="none" stroke="grey" stroke-width="2" d="M1099.91,-952.96C1195.26,-949.34 1369,-926.85 1369,-811 1369,-811 1369,-811 1369,-377 1369,-375.07 1143.75,-216.82 1142,-216 1091.75,-192.62 1029.55,-178.35 987.13,-170.6"/>
<polygon fill="grey" stroke="grey" stroke-width="2" points="987.8,-167.16 977.34,-168.88 986.58,-174.06 987.8,-167.16"/>
</g>
<!-- 4 -->
<g id="node5" class="node">
<title>4</title>
<path fill="none" stroke="#56d8c1" stroke-width="2" d="M1633,-1044C1633,-1044 1523,-1044 1523,-1044 1517,-1044 1511,-1038 1511,-1032 1511,-1032 1511,-1020 1511,-1020 1511,-1014 1517,-1008 1523,-1008 1523,-1008 1633,-1008 1633,-1008 1639,-1008 1645,-1014 1645,-1020 1645,-1020 1645,-1032 1645,-1032 1645,-1038 1639,-1044 1633,-1044"/>
<text text-anchor="middle" x="1578" y="-1023.5" font-family="sans" font-size="10.00">build_pacbio_consensus</text>
</g>
<!-- 4&#45;&gt;3 -->
<g id="edge10" class="edge">
<title>4&#45;&gt;3</title>
<path fill="none" stroke="grey" stroke-width="2" d="M1510.01,-1016.17C1408.26,-1002.96 1217.18,-978.14 1112.38,-964.53"/>
<polygon fill="grey" stroke="grey" stroke-width="2" points="1113.1,-961.09 1102.73,-963.28 1112.2,-968.04 1113.1,-961.09"/>
</g>
<!-- 4&#45;&gt;18 -->
<g id="edge55" class="edge">
<title>4&#45;&gt;18</title>
<path fill="none" stroke="grey" stroke-width="2" d="M1588.41,-1007.35C1593.99,-997.27 1600.6,-984.24 1605,-972 1652,-841.31 1673,-805.88 1673,-667 1673,-667 1673,-667 1673,-521 1673,-323.56 1610.79,-239.54 1438,-144 1348.86,-94.71 1039.31,-90.26 914.63,-90.53"/>
<polygon fill="grey" stroke="grey" stroke-width="2" points="914.78,-87.03 904.79,-90.57 914.8,-94.03 914.78,-87.03"/>
</g>
<!-- 4&#45;&gt;22 -->
<g id="edge72" class="edge">
<title>4&#45;&gt;22</title>
<path fill="none" stroke="grey" stroke-width="2" d="M1574.06,-1007.17C1568.5,-980.36 1559,-928.02 1559,-883 1559,-883 1559,-883 1559,-809 1559,-799.67 1036.17,-401.97 1029,-396 1004.52,-375.6 977.58,-351.53 957.83,-333.56"/>
<polygon fill="grey" stroke="grey" stroke-width="2" points="960.19,-330.98 950.45,-326.82 955.47,-336.15 960.19,-330.98"/>
</g>
<!-- 4&#45;&gt;26 -->
<g id="edge89" class="edge">
<title>4&#45;&gt;26</title>
<path fill="none" stroke="grey" stroke-width="2" d="M1581.94,-1007.17C1587.5,-980.36 1597,-928.02 1597,-883 1597,-883 1597,-883 1597,-809 1597,-564.59 1627.09,-419.4 1421,-288 1362.83,-250.91 1332.46,-281.31 1270,-252 1245.86,-240.67 1246.41,-226.73 1222,-216 1200.78,-206.68 1062.19,-183.19 986.75,-170.85"/>
<polygon fill="grey" stroke="grey" stroke-width="2" points="987.75,-167.47 977.32,-169.32 986.62,-174.38 987.75,-167.47"/>
</g>
<!-- 5 -->
<g id="node6" class="node">
<title>5</title>
<path fill="none" stroke="#d87d56" stroke-width="2" d="M1736.5,-1116C1736.5,-1116 1647.5,-1116 1647.5,-1116 1641.5,-1116 1635.5,-1110 1635.5,-1104 1635.5,-1104 1635.5,-1092 1635.5,-1092 1635.5,-1086 1641.5,-1080 1647.5,-1080 1647.5,-1080 1736.5,-1080 1736.5,-1080 1742.5,-1080 1748.5,-1086 1748.5,-1092 1748.5,-1092 1748.5,-1104 1748.5,-1104 1748.5,-1110 1742.5,-1116 1736.5,-1116"/>
<text text-anchor="middle" x="1692" y="-1095.5" font-family="sans" font-size="10.00">analyze_pacbio_ccs</text>
</g>
<!-- 5&#45;&gt;4 -->
<g id="edge14" class="edge">
<title>5&#45;&gt;4</title>
<path fill="none" stroke="grey" stroke-width="2" d="M1662.94,-1079.15C1649.27,-1070.76 1632.76,-1060.62 1617.94,-1051.52"/>
<polygon fill="grey" stroke="grey" stroke-width="2" points="1619.94,-1048.65 1609.59,-1046.4 1616.28,-1054.61 1619.94,-1048.65"/>
</g>
<!-- 5&#45;&gt;18 -->
<g id="edge44" class="edge">
<title>5&#45;&gt;18</title>
<path fill="none" stroke="grey" stroke-width="2" d="M1704.37,-1079.09C1721.13,-1053.03 1749,-1002.55 1749,-955 1749,-955 1749,-955 1749,-593 1749,-360.6 1698.93,-224.72 1481,-144 1377.59,-105.7 1044.46,-94.77 914.56,-91.92"/>
<polygon fill="grey" stroke="grey" stroke-width="2" points="915.01,-88.43 904.94,-91.72 914.86,-95.43 915.01,-88.43"/>
</g>
<!-- 5&#45;&gt;22 -->
<g id="edge66" class="edge">
<title>5&#45;&gt;22</title>
<path fill="none" stroke="grey" stroke-width="2" d="M1688.06,-1079.17C1682.5,-1052.36 1673,-1000.02 1673,-955 1673,-955 1673,-955 1673,-881 1673,-561.64 1368.86,-621.76 1112,-432 1089.98,-415.73 1083.32,-413.18 1062,-396 1043.38,-380.99 1041.39,-374 1022,-360 1007.59,-349.6 990.97,-339.57 975.8,-331.09"/>
<polygon fill="grey" stroke="grey" stroke-width="2" points="977.65,-328.11 967.2,-326.38 974.29,-334.25 977.65,-328.11"/>
</g>
<!-- 5&#45;&gt;26 -->
<g id="edge79" class="edge">
<title>5&#45;&gt;26</title>
<path fill="none" stroke="grey" stroke-width="2" d="M1695.94,-1079.17C1701.5,-1052.36 1711,-1000.02 1711,-955 1711,-955 1711,-955 1711,-593 1711,-417.16 1614.73,-369.66 1459,-288 1395.98,-254.96 1366.7,-283.71 1303,-252 1280.69,-240.89 1282.65,-226.39 1260,-216 1247.69,-210.35 1074.18,-183.58 987.1,-170.39"/>
<polygon fill="grey" stroke="grey" stroke-width="2" points="987.81,-166.95 977.4,-168.92 986.77,-173.88 987.81,-166.95"/>
</g>
<!-- 6 -->
<g id="node7" class="node">
<title>6</title>
<path fill="none" stroke="#d8cb56" stroke-width="2" d="M1745.5,-1188C1745.5,-1188 1638.5,-1188 1638.5,-1188 1632.5,-1188 1626.5,-1182 1626.5,-1176 1626.5,-1176 1626.5,-1164 1626.5,-1164 1626.5,-1158 1632.5,-1152 1638.5,-1152 1638.5,-1152 1745.5,-1152 1745.5,-1152 1751.5,-1152 1757.5,-1158 1757.5,-1164 1757.5,-1164 1757.5,-1176 1757.5,-1176 1757.5,-1182 1751.5,-1188 1745.5,-1188"/>
<text text-anchor="middle" x="1692" y="-1167.5" font-family="sans" font-size="10.00">align_parse_PacBio_ccs</text>
</g>
<!-- 6&#45;&gt;5 -->
<g id="edge15" class="edge">
<title>6&#45;&gt;5</title>
<path fill="none" stroke="grey" stroke-width="2" d="M1692,-1151.34C1692,-1144.75 1692,-1137.08 1692,-1129.67"/>
<polygon fill="grey" stroke="grey" stroke-width="2" points="1695.5,-1129.93 1692,-1119.93 1688.5,-1129.93 1695.5,-1129.93"/>
</g>
<!-- 7 -->
<g id="node8" class="node">
<title>7</title>
<path fill="none" stroke="#88d856" stroke-width="2" d="M1073,-1116C1073,-1116 1005,-1116 1005,-1116 999,-1116 993,-1110 993,-1104 993,-1104 993,-1092 993,-1092 993,-1086 999,-1080 1005,-1080 1005,-1080 1073,-1080 1073,-1080 1079,-1080 1085,-1086 1085,-1092 1085,-1092 1085,-1104 1085,-1104 1085,-1110 1079,-1116 1073,-1116"/>
<text text-anchor="middle" x="1039" y="-1095.5" font-family="sans" font-size="10.00">gene_sequence</text>
</g>
<!-- 7&#45;&gt;1 -->
<g id="edge6" class="edge">
<title>7&#45;&gt;1</title>
<path fill="none" stroke="grey" stroke-width="2" d="M1085.87,-1089.43C1114.63,-1082.39 1150.04,-1069.05 1172,-1044 1222.81,-986.05 1231.01,-890.43 1231.64,-841.67"/>
<polygon fill="grey" stroke="grey" stroke-width="2" points="1235.14,-841.98 1231.64,-831.98 1228.14,-841.98 1235.14,-841.98"/>
</g>
<!-- 7&#45;&gt;3 -->
<g id="edge11" class="edge">
<title>7&#45;&gt;3</title>
<path fill="none" stroke="grey" stroke-width="2" d="M1039,-1079.02C1039,-1055.54 1039,-1014.11 1039,-985.64"/>
<polygon fill="grey" stroke="grey" stroke-width="2" points="1042.5,-985.87 1039,-975.87 1035.5,-985.87 1042.5,-985.87"/>
</g>
<!-- 7&#45;&gt;4 -->
<g id="edge13" class="edge">
<title>7&#45;&gt;4</title>
<path fill="none" stroke="grey" stroke-width="2" d="M1085.68,-1093.02C1168.73,-1085.63 1347.48,-1068.29 1497,-1044 1497.13,-1043.98 1497.27,-1043.96 1497.4,-1043.93"/>
<polygon fill="grey" stroke="grey" stroke-width="2" points="1497.79,-1047.42 1507.04,-1042.26 1496.59,-1040.52 1497.79,-1047.42"/>
</g>
<!-- 8 -->
<g id="node9" class="node">
<title>8</title>
<path fill="none" stroke="#56c9d8" stroke-width="2" d="M711.5,-1044C711.5,-1044 616.5,-1044 616.5,-1044 610.5,-1044 604.5,-1038 604.5,-1032 604.5,-1032 604.5,-1020 604.5,-1020 604.5,-1014 610.5,-1008 616.5,-1008 616.5,-1008 711.5,-1008 711.5,-1008 717.5,-1008 723.5,-1014 723.5,-1020 723.5,-1020 723.5,-1032 723.5,-1032 723.5,-1038 717.5,-1044 711.5,-1044"/>
<text text-anchor="middle" x="664" y="-1023.5" font-family="sans" font-size="10.00">site_numbering_map</text>
</g>
<!-- 7&#45;&gt;8 -->
<g id="edge16" class="edge">
<title>7&#45;&gt;8</title>
<path fill="none" stroke="grey" stroke-width="2" d="M992.26,-1088.28C928.23,-1076.32 812.58,-1054.74 737.06,-1040.64"/>
<polygon fill="grey" stroke="grey" stroke-width="2" points="737.82,-1037.22 727.34,-1038.82 736.53,-1044.1 737.82,-1037.22"/>
</g>
<!-- 7&#45;&gt;10 -->
<g id="edge20" class="edge">
<title>7&#45;&gt;10</title>
<path fill="none" stroke="grey" stroke-width="2" d="M1069.03,-1079.04C1104.28,-1055.41 1158,-1010.32 1158,-955 1158,-955 1158,-955 1158,-881 1158,-841.15 1144.84,-796.78 1134.66,-768.42"/>
<polygon fill="grey" stroke="grey" stroke-width="2" points="1138.08,-767.57 1131.31,-759.43 1131.52,-770.02 1138.08,-767.57"/>
</g>
<!-- 7&#45;&gt;14 -->
<g id="edge32" class="edge">
<title>7&#45;&gt;14</title>
<path fill="none" stroke="grey" stroke-width="2" d="M1026.74,-1079.25C1011.13,-1055.78 984.44,-1012.64 970,-972 926.18,-848.71 914.86,-691.26 911.97,-625.74"/>
<polygon fill="grey" stroke="grey" stroke-width="2" points="915.47,-625.73 911.58,-615.88 908.48,-626.01 915.47,-625.73"/>
</g>
<!-- 7&#45;&gt;17 -->
<g id="edge40" class="edge">
<title>7&#45;&gt;17</title>
<path fill="none" stroke="grey" stroke-width="2" d="M992.01,-1093.56C822.15,-1080.49 250,-1030.85 250,-955 250,-955 250,-955 250,-881 250,-700.56 515.03,-627.4 630.39,-604.1"/>
<polygon fill="grey" stroke="grey" stroke-width="2" points="630.93,-607.57 640.07,-602.21 629.58,-600.7 630.93,-607.57"/>
</g>
<!-- 7&#45;&gt;18 -->
<g id="edge50" class="edge">
<title>7&#45;&gt;18</title>
<path fill="none" stroke="grey" stroke-width="2" d="M992.34,-1095.61C790.17,-1088.99 0,-1056.61 0,-955 0,-955 0,-955 0,-305 0,-218.34 34.83,-187.13 110,-144 170.28,-109.41 648.21,-95.73 809.25,-92.08"/>
<polygon fill="grey" stroke="grey" stroke-width="2" points="809.11,-95.58 819.03,-91.86 808.96,-88.58 809.11,-95.58"/>
</g>
<!-- 7&#45;&gt;26 -->
<g id="edge85" class="edge">
<title>7&#45;&gt;26</title>
<path fill="none" stroke="grey" stroke-width="2" d="M1085.68,-1092.12C1199.67,-1078.91 1483,-1037.75 1483,-955 1483,-955 1483,-955 1483,-809 1483,-604.56 1499.53,-527.98 1383,-360 1333.89,-289.2 1292.26,-301.88 1222,-252 1201.95,-237.77 1202.01,-226.96 1180,-216 1146.64,-199.39 1047.56,-180.98 987.02,-170.82"/>
<polygon fill="grey" stroke="grey" stroke-width="2" points="987.78,-167.4 977.34,-169.22 986.63,-174.3 987.78,-167.4"/>
</g>
<!-- 8&#45;&gt;3 -->
<g id="edge12" class="edge">
<title>8&#45;&gt;3</title>
<path fill="none" stroke="grey" stroke-width="2" d="M724.25,-1013.75C789.93,-1001.49 895.07,-981.87 965.54,-968.71"/>
<polygon fill="grey" stroke="grey" stroke-width="2" points="966.11,-972.17 975.3,-966.89 964.83,-965.28 966.11,-972.17"/>
</g>
<!-- 8&#45;&gt;10 -->
<g id="edge22" class="edge">
<title>8&#45;&gt;10</title>
<path fill="none" stroke="grey" stroke-width="2" d="M704.29,-1007.02C725.15,-997.31 750.83,-984.73 773,-972 897.76,-900.38 922.03,-871.38 1042,-792 1055.91,-782.8 1071.2,-772.77 1084.72,-763.93"/>
<polygon fill="grey" stroke="grey" stroke-width="2" points="1086.59,-766.89 1093.05,-758.49 1082.76,-761.03 1086.59,-766.89"/>
</g>
<!-- 11 -->
<g id="node12" class="node">
<title>11</title>
<path fill="none" stroke="#5692d8" stroke-width="2" d="M406,-396C406,-396 308,-396 308,-396 302,-396 296,-390 296,-384 296,-384 296,-372 296,-372 296,-366 302,-360 308,-360 308,-360 406,-360 406,-360 412,-360 418,-366 418,-372 418,-372 418,-384 418,-384 418,-390 412,-396 406,-396"/>
<text text-anchor="middle" x="357" y="-375.5" font-family="sans" font-size="10.00">avg_antibody_escape</text>
</g>
<!-- 8&#45;&gt;11 -->
<g id="edge25" class="edge">
<title>8&#45;&gt;11</title>
<path fill="none" stroke="grey" stroke-width="2" d="M603.87,-1019.53C509.07,-1010.39 333.42,-991.1 312,-972 281.43,-944.73 288,-923.97 288,-883 288,-883 288,-883 288,-521 288,-480.46 289.15,-467.89 308,-432 312.92,-422.64 319.91,-413.69 327.09,-405.9"/>
<polygon fill="grey" stroke="grey" stroke-width="2" points="329.49,-408.45 334,-398.87 324.5,-403.55 329.49,-408.45"/>
</g>
<!-- 13 -->
<g id="node14" class="node">
<title>13</title>
<path fill="none" stroke="#56b9d8" stroke-width="2" d="M640.5,-540C640.5,-540 559.5,-540 559.5,-540 553.5,-540 547.5,-534 547.5,-528 547.5,-528 547.5,-516 547.5,-516 547.5,-510 553.5,-504 559.5,-504 559.5,-504 640.5,-504 640.5,-504 646.5,-504 652.5,-510 652.5,-516 652.5,-516 652.5,-528 652.5,-528 652.5,-534 646.5,-540 640.5,-540"/>
<text text-anchor="middle" x="600" y="-519.5" font-family="sans" font-size="10.00">fit_globalepistasis</text>
</g>
<!-- 8&#45;&gt;13 -->
<g id="edge27" class="edge">
<title>8&#45;&gt;13</title>
<path fill="none" stroke="grey" stroke-width="2" d="M603.56,-1018.79C526.19,-1007.12 402,-974.19 402,-883 402,-883 402,-883 402,-665 402,-598.5 476.67,-560.12 534.3,-540.41"/>
<polygon fill="grey" stroke="grey" stroke-width="2" points="535.38,-543.74 543.8,-537.3 533.21,-537.08 535.38,-543.74"/>
</g>
<!-- 8&#45;&gt;14 -->
<g id="edge33" class="edge">
<title>8&#45;&gt;14</title>
<path fill="none" stroke="grey" stroke-width="2" d="M686.03,-1007.36C714.1,-982.74 759,-935.2 759,-883 759,-883 759,-883 759,-809 759,-728.46 831.44,-657.13 876.31,-620.68"/>
<polygon fill="grey" stroke="grey" stroke-width="2" points="878.2,-623.64 883.87,-614.69 873.86,-618.16 878.2,-623.64"/>
</g>
<!-- 15 -->
<g id="node16" class="node">
<title>15</title>
<path fill="none" stroke="#56d88a" stroke-width="2" d="M387,-468C387,-468 329,-468 329,-468 323,-468 317,-462 317,-456 317,-456 317,-444 317,-444 317,-438 323,-432 329,-432 329,-432 387,-432 387,-432 393,-432 399,-438 399,-444 399,-444 399,-456 399,-456 399,-462 393,-468 387,-468"/>
<text text-anchor="middle" x="358" y="-447.5" font-family="sans" font-size="10.00">fit_polyclonal</text>
</g>
<!-- 8&#45;&gt;15 -->
<g id="edge36" class="edge">
<title>8&#45;&gt;15</title>
<path fill="none" stroke="grey" stroke-width="2" d="M603.71,-1017.78C540.23,-1009.2 445.47,-993.32 416,-972 378.88,-945.15 364,-928.81 364,-883 364,-883 364,-883 364,-737 364,-643.97 360.79,-533.95 359.06,-481.62"/>
<polygon fill="grey" stroke="grey" stroke-width="2" points="362.57,-481.64 358.73,-471.76 355.57,-481.87 362.57,-481.64"/>
</g>
<!-- 8&#45;&gt;17 -->
<g id="edge41" class="edge">
<title>8&#45;&gt;17</title>
<path fill="none" stroke="grey" stroke-width="2" d="M660.06,-1007.17C654.5,-980.36 645,-928.02 645,-883 645,-883 645,-883 645,-737 645,-697.16 659.13,-653.11 670.15,-624.8"/>
<polygon fill="grey" stroke="grey" stroke-width="2" points="673.3,-626.36 673.81,-615.77 666.81,-623.73 673.3,-626.36"/>
</g>
<!-- 8&#45;&gt;18 -->
<g id="edge57" class="edge">
<title>8&#45;&gt;18</title>
<path fill="none" stroke="grey" stroke-width="2" d="M603.61,-1020.11C529.66,-1013.08 409.81,-998.03 374,-972 337.65,-945.58 326,-927.94 326,-883 326,-883 326,-883 326,-737 326,-536.56 190,-507.44 190,-307 190,-307 190,-307 190,-233 190,-178.61 225.07,-167.76 274,-144 367.72,-98.48 683.43,-91.84 809.43,-91.03"/>
<polygon fill="grey" stroke="grey" stroke-width="2" points="809.07,-94.53 819.05,-90.98 809.03,-87.53 809.07,-94.53"/>
</g>
<!-- 8&#45;&gt;26 -->
<g id="edge93" class="edge">
<title>8&#45;&gt;26</title>
<path fill="none" stroke="grey" stroke-width="2" d="M668.15,-1007.27C687.76,-924.53 774.5,-568.48 880,-288 892.61,-254.48 910.31,-217.41 922.83,-192.42"/>
<polygon fill="grey" stroke="grey" stroke-width="2" points="925.92,-194.06 927.31,-183.55 919.67,-190.9 925.92,-194.06"/>
</g>
<!-- 9 -->
<g id="node10" class="node">
<title>9</title>
<path fill="none" stroke="#56d8a9" stroke-width="2" d="M1100.5,-684C1100.5,-684 951.5,-684 951.5,-684 945.5,-684 939.5,-678 939.5,-672 939.5,-672 939.5,-660 939.5,-660 939.5,-654 945.5,-648 951.5,-648 951.5,-648 1100.5,-648 1100.5,-648 1106.5,-648 1112.5,-654 1112.5,-660 1112.5,-660 1112.5,-672 1112.5,-672 1112.5,-678 1106.5,-684 1100.5,-684"/>
<text text-anchor="middle" x="1026" y="-663.5" font-family="sans" font-size="10.00">check_adequate_variant_counts</text>
</g>
<!-- 9&#45;&gt;0 -->
<g id="edge3" class="edge">
<title>9&#45;&gt;0</title>
<path fill="none" stroke="grey" stroke-width="2" d="M1103.51,-647.02C1262.78,-604.98 1612,-484.38 1612,-235 1612,-235 1612,-235 1612,-161 1612,-88.08 1057.68,-35.59 902.14,-22.29"/>
<polygon fill="grey" stroke="grey" stroke-width="2" points="902.86,-18.84 892.6,-21.49 902.27,-25.82 902.86,-18.84"/>
</g>
<!-- 9&#45;&gt;14 -->
<g id="edge31" class="edge">
<title>9&#45;&gt;14</title>
<path fill="none" stroke="grey" stroke-width="2" d="M996.68,-647.15C982.9,-638.76 966.24,-628.62 951.29,-619.52"/>
<polygon fill="grey" stroke="grey" stroke-width="2" points="953.21,-616.6 942.85,-614.39 949.57,-622.58 953.21,-616.6"/>
</g>
<!-- 9&#45;&gt;17 -->
<g id="edge39" class="edge">
<title>9&#45;&gt;17</title>
<path fill="none" stroke="grey" stroke-width="2" d="M938.56,-647.15C874.38,-634.06 789.34,-616.7 735.38,-605.69"/>
<polygon fill="grey" stroke="grey" stroke-width="2" points="736.16,-602.28 725.67,-603.71 734.76,-609.14 736.16,-602.28"/>
</g>
<!-- 10&#45;&gt;9 -->
<g id="edge17" class="edge">
<title>10&#45;&gt;9</title>
<path fill="none" stroke="grey" stroke-width="2" d="M1098.27,-719.15C1086.98,-711.01 1073.41,-701.22 1061.1,-692.33"/>
<polygon fill="grey" stroke="grey" stroke-width="2" points="1063.29,-689.6 1053.14,-686.58 1059.2,-695.27 1063.29,-689.6"/>
</g>
<!-- 10&#45;&gt;18 -->
<g id="edge49" class="edge">
<title>10&#45;&gt;18</title>
<path fill="none" stroke="grey" stroke-width="2" d="M1174.47,-719.02C1224.5,-697.86 1293,-657.49 1293,-595 1293,-595 1293,-595 1293,-377 1293,-336.03 1289.1,-318 1317,-288 1350.02,-252.48 1391.93,-291.54 1420,-252 1429.26,-238.95 1427.49,-230.14 1420,-216 1393.34,-165.67 1367.37,-163.89 1314,-144 1241.83,-117.11 1017.45,-100.44 914.54,-94.02"/>
<polygon fill="grey" stroke="grey" stroke-width="2" points="914.94,-90.53 904.75,-93.42 914.52,-97.52 914.94,-90.53"/>
</g>
<!-- 10&#45;&gt;22 -->
<g id="edge70" class="edge">
<title>10&#45;&gt;22</title>
<path fill="none" stroke="grey" stroke-width="2" d="M1125.36,-719.25C1127.2,-701.03 1128.47,-672.02 1122,-648 1117.38,-630.86 991.93,-414.87 945.8,-335.77"/>
<polygon fill="grey" stroke="grey" stroke-width="2" points="948.94,-334.21 940.88,-327.33 942.9,-337.74 948.94,-334.21"/>
</g>
<!-- 10&#45;&gt;26 -->
<g id="edge84" class="edge">
<title>10&#45;&gt;26</title>
<path fill="none" stroke="grey" stroke-width="2" d="M1133.23,-719.18C1163.4,-664.17 1246.97,-492.73 1198,-360 1183.43,-320.52 1109.34,-240.33 1075,-216 1048.39,-197.14 1014.16,-183.89 986.58,-175.36"/>
<polygon fill="grey" stroke="grey" stroke-width="2" points="987.91,-172.11 977.33,-172.63 985.93,-178.82 987.91,-172.11"/>
</g>
<!-- 11&#45;&gt;0 -->
<g id="edge5" class="edge">
<title>11&#45;&gt;0</title>
<path fill="none" stroke="grey" stroke-width="2" d="M316.55,-359.05C235.64,-320.77 67.46,-227.76 138,-144 226.86,-38.48 682.41,-22.04 821.57,-19.47"/>
<polygon fill="grey" stroke="grey" stroke-width="2" points="821.43,-22.98 831.37,-19.31 821.31,-15.98 821.43,-22.98"/>
</g>
<!-- 11&#45;&gt;18 -->
<g id="edge59" class="edge">
<title>11&#45;&gt;18</title>
<path fill="none" stroke="grey" stroke-width="2" d="M328.91,-359.13C286.67,-329.92 214.95,-269.8 247,-216 281.4,-158.25 315.84,-164.05 380,-144 530.72,-96.91 719.34,-90.37 809.4,-90.24"/>
<polygon fill="grey" stroke="grey" stroke-width="2" points="809.19,-93.74 819.19,-90.26 809.2,-86.74 809.19,-93.74"/>
</g>
<!-- 11&#45;&gt;22 -->
<g id="edge71" class="edge">
<title>11&#45;&gt;22</title>
<path fill="none" stroke="grey" stroke-width="2" d="M418.76,-369.44C531.65,-355.63 769.46,-326.52 875.73,-313.52"/>
<polygon fill="grey" stroke="grey" stroke-width="2" points="876.12,-317 885.62,-312.31 875.27,-310.05 876.12,-317"/>
</g>
<!-- 25 -->
<g id="node26" class="node">
<title>25</title>
<path fill="none" stroke="#56d8d0" stroke-width="2" d="M405.5,-252C405.5,-252 268.5,-252 268.5,-252 262.5,-252 256.5,-246 256.5,-240 256.5,-240 256.5,-228 256.5,-228 256.5,-222 262.5,-216 268.5,-216 268.5,-216 405.5,-216 405.5,-216 411.5,-216 417.5,-222 417.5,-228 417.5,-228 417.5,-240 417.5,-240 417.5,-246 411.5,-252 405.5,-252"/>
<text text-anchor="middle" x="337" y="-231.5" font-family="sans" font-size="10.00">format_antibody_escape_plot</text>
</g>
<!-- 11&#45;&gt;25 -->
<g id="edge75" class="edge">
<title>11&#45;&gt;25</title>
<path fill="none" stroke="grey" stroke-width="2" d="M354.47,-359.02C351.16,-335.54 345.32,-294.11 341.32,-265.64"/>
<polygon fill="grey" stroke="grey" stroke-width="2" points="344.8,-265.25 339.93,-255.84 337.86,-266.23 344.8,-265.25"/>
</g>
<!-- 11&#45;&gt;26 -->
<g id="edge86" class="edge">
<title>11&#45;&gt;26</title>
<path fill="none" stroke="grey" stroke-width="2" d="M367.1,-359.17C387.67,-324.76 437.99,-249.66 503,-216 569.29,-181.68 789.54,-168.83 888.78,-164.71"/>
<polygon fill="grey" stroke="grey" stroke-width="2" points="888.79,-168.21 898.64,-164.31 888.51,-161.21 888.79,-168.21"/>
</g>
<!-- 12 -->
<g id="node13" class="node">
<title>12</title>
<path fill="none" stroke="#afd856" stroke-width="2" d="M557,-468C557,-468 489,-468 489,-468 483,-468 477,-462 477,-456 477,-456 477,-444 477,-444 477,-438 483,-432 489,-432 489,-432 557,-432 557,-432 563,-432 569,-438 569,-444 569,-444 569,-456 569,-456 569,-462 563,-468 557,-468"/>
<text text-anchor="middle" x="523" y="-447.5" font-family="sans" font-size="10.00">avg_muteffects</text>
</g>
<!-- 12&#45;&gt;0 -->
<g id="edge4" class="edge">
<title>12&#45;&gt;0</title>
<path fill="none" stroke="grey" stroke-width="2" d="M476.07,-440.91C417.25,-430.34 320.14,-411.39 287,-396 164.69,-339.2 68.18,-269.31 118,-144 134.26,-103.1 146.29,-90.99 186,-72 299.23,-17.85 692.82,-17.14 821.18,-18.41"/>
<polygon fill="grey" stroke="grey" stroke-width="2" points="821.06,-21.91 831.1,-18.52 821.14,-14.91 821.06,-21.91"/>
</g>
<!-- 12&#45;&gt;11 -->
<g id="edge24" class="edge">
<title>12&#45;&gt;11</title>
<path fill="none" stroke="grey" stroke-width="2" d="M480.68,-431.15C459.59,-422.26 433.85,-411.41 411.32,-401.91"/>
<polygon fill="grey" stroke="grey" stroke-width="2" points="412.89,-398.77 402.32,-398.11 410.17,-405.22 412.89,-398.77"/>
</g>
<!-- 12&#45;&gt;18 -->
<g id="edge48" class="edge">
<title>12&#45;&gt;18</title>
<path fill="none" stroke="grey" stroke-width="2" d="M505.91,-431.39C483.23,-406.07 446,-356.92 446,-307 446,-307 446,-307 446,-233 446,-157.02 697.67,-113.33 809.51,-97.66"/>
<polygon fill="grey" stroke="grey" stroke-width="2" points="809.68,-101.17 819.11,-96.35 808.73,-94.24 809.68,-101.17"/>
</g>
<!-- 12&#45;&gt;22 -->
<g id="edge69" class="edge">
<title>12&#45;&gt;22</title>
<path fill="none" stroke="grey" stroke-width="2" d="M569.56,-445.15C624.24,-439.43 716.9,-425.94 791,-396 830.03,-380.23 869.95,-353.04 896.74,-332.86"/>
<polygon fill="grey" stroke="grey" stroke-width="2" points="898.83,-335.67 904.63,-326.8 894.57,-330.11 898.83,-335.67"/>
</g>
<!-- 23 -->
<g id="node24" class="node">
<title>23</title>
<path fill="none" stroke="#d8a456" stroke-width="2" d="M631.5,-252C631.5,-252 524.5,-252 524.5,-252 518.5,-252 512.5,-246 512.5,-240 512.5,-240 512.5,-228 512.5,-228 512.5,-222 518.5,-216 524.5,-216 524.5,-216 631.5,-216 631.5,-216 637.5,-216 643.5,-222 643.5,-228 643.5,-228 643.5,-240 643.5,-240 643.5,-246 637.5,-252 631.5,-252"/>
<text text-anchor="middle" x="578" y="-231.5" font-family="sans" font-size="10.00">format_muteffects_plot</text>
</g>
<!-- 12&#45;&gt;23 -->
<g id="edge74" class="edge">
<title>12&#45;&gt;23</title>
<path fill="none" stroke="grey" stroke-width="2" d="M527.59,-431.12C537,-394.54 558.53,-310.77 570.17,-265.45"/>
<polygon fill="grey" stroke="grey" stroke-width="2" points="573.53,-266.47 572.63,-255.91 566.75,-264.72 573.53,-266.47"/>
</g>
<!-- 12&#45;&gt;26 -->
<g id="edge83" class="edge">
<title>12&#45;&gt;26</title>
<path fill="none" stroke="grey" stroke-width="2" d="M533.26,-431.19C552.47,-399.09 596.72,-330.88 649,-288 697.98,-247.83 714.14,-241.79 772,-216 810.22,-198.96 855.61,-184.86 889.25,-175.5"/>
<polygon fill="grey" stroke="grey" stroke-width="2" points="889.89,-178.95 898.61,-172.94 888.04,-172.2 889.89,-178.95"/>
</g>
<!-- 13&#45;&gt;12 -->
<g id="edge26" class="edge">
<title>13&#45;&gt;12</title>
<path fill="none" stroke="grey" stroke-width="2" d="M580.57,-503.34C571.97,-495.52 561.68,-486.16 552.19,-477.53"/>
<polygon fill="grey" stroke="grey" stroke-width="2" points="554.69,-475.07 544.93,-470.94 549.98,-480.25 554.69,-475.07"/>
</g>
<!-- 13&#45;&gt;18 -->
<g id="edge58" class="edge">
<title>13&#45;&gt;18</title>
<path fill="none" stroke="grey" stroke-width="2" d="M549.98,-503.06C524.95,-493.55 494.43,-481.13 468,-468 440.15,-454.16 436.46,-444.53 408,-432 356.65,-409.39 330.18,-431.83 287,-396 192.82,-317.85 92.86,-233.81 176,-144 218.78,-97.79 656.47,-91.75 809.51,-91.05"/>
<polygon fill="grey" stroke="grey" stroke-width="2" points="809.14,-94.55 819.13,-91.02 809.11,-87.55 809.14,-94.55"/>
</g>
<!-- 13&#45;&gt;22 -->
<g id="edge65" class="edge">
<title>13&#45;&gt;22</title>
<path fill="none" stroke="grey" stroke-width="2" d="M642.33,-503.1C691.43,-481.36 773.72,-441.86 837,-396 862.02,-377.87 886.99,-353.19 904.59,-334.41"/>
<polygon fill="grey" stroke="grey" stroke-width="2" points="907.07,-336.89 911.28,-327.16 901.93,-332.14 907.07,-336.89"/>
</g>
<!-- 13&#45;&gt;26 -->
<g id="edge78" class="edge">
<title>13&#45;&gt;26</title>
<path fill="none" stroke="grey" stroke-width="2" d="M597.4,-503.04C593.79,-471.56 590.5,-405.49 618,-360 649.86,-307.31 808.72,-225.21 889.97,-185.73"/>
<polygon fill="grey" stroke="grey" stroke-width="2" points="891.39,-188.92 898.88,-181.42 888.35,-182.62 891.39,-188.92"/>
</g>
<!-- 14&#45;&gt;13 -->
<g id="edge28" class="edge">
<title>14&#45;&gt;13</title>
<path fill="none" stroke="grey" stroke-width="2" d="M873.18,-584.49C821.76,-572.91 729.01,-552.04 665.99,-537.85"/>
<polygon fill="grey" stroke="grey" stroke-width="2" points="666.89,-534.47 656.37,-535.69 665.36,-541.3 666.89,-534.47"/>
</g>
<!-- 19 -->
<g id="node20" class="node">
<title>19</title>
<path fill="none" stroke="#d88d56" stroke-width="2" d="M1177,-396C1177,-396 1083,-396 1083,-396 1077,-396 1071,-390 1071,-384 1071,-384 1071,-372 1071,-372 1071,-366 1077,-360 1083,-360 1083,-360 1177,-360 1177,-360 1183,-360 1189,-366 1189,-372 1189,-372 1189,-384 1189,-384 1189,-390 1183,-396 1177,-396"/>
<text text-anchor="middle" x="1130" y="-375.5" font-family="sans" font-size="10.00">analyze_func_scores</text>
</g>
<!-- 14&#45;&gt;19 -->
<g id="edge61" class="edge">
<title>14&#45;&gt;19</title>
<path fill="none" stroke="grey" stroke-width="2" d="M929.3,-575.12C967.7,-537.59 1056.92,-450.41 1102.35,-406.02"/>
<polygon fill="grey" stroke="grey" stroke-width="2" points="1104.73,-408.58 1109.44,-399.09 1099.84,-403.58 1104.73,-408.58"/>
</g>
<!-- 15&#45;&gt;11 -->
<g id="edge23" class="edge">
<title>15&#45;&gt;11</title>
<path fill="none" stroke="grey" stroke-width="2" d="M357.75,-431.34C357.65,-424.75 357.54,-417.08 357.44,-409.67"/>
<polygon fill="grey" stroke="grey" stroke-width="2" points="360.94,-409.88 357.3,-399.93 353.94,-409.98 360.94,-409.88"/>
</g>
<!-- 15&#45;&gt;18 -->
<g id="edge53" class="edge">
<title>15&#45;&gt;18</title>
<path fill="none" stroke="grey" stroke-width="2" d="M316.14,-439.32C263.36,-424.58 175.03,-390.87 138,-324 99.25,-254.01 83.54,-202.6 138,-144 183.54,-95.01 651.39,-90.82 809.85,-90.82"/>
<polygon fill="grey" stroke="grey" stroke-width="2" points="809.44,-94.32 819.44,-90.83 809.44,-87.32 809.44,-94.32"/>
</g>
<!-- 15&#45;&gt;22 -->
<g id="edge64" class="edge">
<title>15&#45;&gt;22</title>
<path fill="none" stroke="grey" stroke-width="2" d="M399.74,-442.25C420.28,-439 445.42,-435.15 468,-432 596.64,-414.08 642.57,-455.53 758,-396 777.29,-386.05 773.06,-372.22 791,-360 816.82,-342.42 849.29,-329.57 876.24,-320.94"/>
<polygon fill="grey" stroke="grey" stroke-width="2" points="877.16,-324.32 885.69,-318.04 875.1,-317.62 877.16,-324.32"/>
</g>
<!-- 15&#45;&gt;26 -->
<g id="edge76" class="edge">
<title>15&#45;&gt;26</title>
<path fill="none" stroke="grey" stroke-width="2" d="M386.59,-431.13C439.86,-397.55 557.49,-322.08 652,-252 672.3,-236.95 673.26,-227.01 696,-216 758.55,-185.73 838.54,-172.56 889.04,-166.96"/>
<polygon fill="grey" stroke="grey" stroke-width="2" points="889.24,-170.46 898.82,-165.95 888.52,-163.49 889.24,-170.46"/>
</g>
<!-- 16 -->
<g id="node17" class="node">
<title>16</title>
<path fill="none" stroke="#56a2d8" stroke-width="2" d="M478.5,-540C478.5,-540 401.5,-540 401.5,-540 395.5,-540 389.5,-534 389.5,-528 389.5,-528 389.5,-516 389.5,-516 389.5,-510 395.5,-504 401.5,-504 401.5,-504 478.5,-504 478.5,-504 484.5,-504 490.5,-510 490.5,-516 490.5,-516 490.5,-528 490.5,-528 490.5,-534 484.5,-540 478.5,-540"/>
<text text-anchor="middle" x="440" y="-519.5" font-family="sans" font-size="10.00">spatial_distances</text>
</g>
<!-- 16&#45;&gt;15 -->
<g id="edge35" class="edge">
<title>16&#45;&gt;15</title>
<path fill="none" stroke="grey" stroke-width="2" d="M419.31,-503.34C410.06,-495.44 398.96,-485.96 388.76,-477.26"/>
<polygon fill="grey" stroke="grey" stroke-width="2" points="391.15,-474.7 381.27,-470.87 386.61,-480.02 391.15,-474.7"/>
</g>
<!-- 17&#45;&gt;15 -->
<g id="edge34" class="edge">
<title>17&#45;&gt;15</title>
<path fill="none" stroke="grey" stroke-width="2" d="M643.26,-583.08C613,-574.46 571.06,-560.17 538,-540 517.86,-527.71 519.08,-516.38 499,-504 483.9,-494.69 445.2,-480.36 412.16,-468.95"/>
<polygon fill="grey" stroke="grey" stroke-width="2" points="413.3,-465.64 402.7,-465.72 411.03,-472.26 413.3,-465.64"/>
</g>
<!-- 20 -->
<g id="node21" class="node">
<title>20</title>
<path fill="none" stroke="#bed856" stroke-width="2" d="M737,-396C737,-396 639,-396 639,-396 633,-396 627,-390 627,-384 627,-384 627,-372 627,-372 627,-366 633,-360 639,-360 639,-360 737,-360 737,-360 743,-360 749,-366 749,-372 749,-372 749,-384 749,-384 749,-390 743,-396 737,-396"/>
<text text-anchor="middle" x="688" y="-375.5" font-family="sans" font-size="10.00">analyze_prob_escape</text>
</g>
<!-- 17&#45;&gt;20 -->
<g id="edge62" class="edge">
<title>17&#45;&gt;20</title>
<path fill="none" stroke="grey" stroke-width="2" d="M683.42,-575.12C684.27,-538.62 686.22,-455.13 687.28,-409.74"/>
<polygon fill="grey" stroke="grey" stroke-width="2" points="690.77,-410.08 687.51,-400 683.78,-409.92 690.77,-410.08"/>
</g>
<!-- 18&#45;&gt;0 -->
<g id="edge2" class="edge">
<title>18&#45;&gt;0</title>
<path fill="none" stroke="grey" stroke-width="2" d="M862,-71.34C862,-64.75 862,-57.08 862,-49.67"/>
<polygon fill="grey" stroke="grey" stroke-width="2" points="865.5,-49.93 862,-39.93 858.5,-49.93 865.5,-49.93"/>
</g>
<!-- 19&#45;&gt;18 -->
<g id="edge45" class="edge">
<title>19&#45;&gt;18</title>
<path fill="none" stroke="grey" stroke-width="2" d="M1155.29,-359.14C1184.1,-339.46 1233.14,-307.96 1279,-288 1331.62,-265.1 1368.54,-297.89 1403,-252 1412.61,-239.21 1412.78,-228.66 1403,-216 1343.22,-138.63 1038.48,-105.39 914.53,-94.92"/>
<polygon fill="grey" stroke="grey" stroke-width="2" points="914.99,-91.45 904.74,-94.11 914.42,-98.42 914.99,-91.45"/>
</g>
<!-- 19&#45;&gt;22 -->
<g id="edge73" class="edge">
<title>19&#45;&gt;22</title>
<path fill="none" stroke="grey" stroke-width="2" d="M1078.5,-359.06C1048.65,-348.67 1011.16,-335.61 981.19,-325.18"/>
<polygon fill="grey" stroke="grey" stroke-width="2" points="982.73,-322 972.13,-322.02 980.42,-328.62 982.73,-322"/>
</g>
<!-- 19&#45;&gt;26 -->
<g id="edge90" class="edge">
<title>19&#45;&gt;26</title>
<path fill="none" stroke="grey" stroke-width="2" d="M1108.04,-359.39C1080.16,-336.41 1031.41,-294.14 996,-252 980.23,-233.24 965.21,-209.97 954.4,-191.93"/>
<polygon fill="grey" stroke="grey" stroke-width="2" points="957.56,-190.4 949.48,-183.55 951.52,-193.94 957.56,-190.4"/>
</g>
<!-- 20&#45;&gt;18 -->
<g id="edge47" class="edge">
<title>20&#45;&gt;18</title>
<path fill="none" stroke="grey" stroke-width="2" d="M698.88,-359.11C728.12,-311.06 808.55,-178.85 844.38,-119.96"/>
<polygon fill="grey" stroke="grey" stroke-width="2" points="847.34,-121.83 849.55,-111.47 841.36,-118.19 847.34,-121.83"/>
</g>
<!-- 20&#45;&gt;22 -->
<g id="edge68" class="edge">
<title>20&#45;&gt;22</title>
<path fill="none" stroke="grey" stroke-width="2" d="M749.75,-359.06C788.97,-347.67 839.18,-333.09 876.48,-322.26"/>
<polygon fill="grey" stroke="grey" stroke-width="2" points="877.06,-325.73 885.69,-319.58 875.11,-319.01 877.06,-325.73"/>
</g>
<!-- 20&#45;&gt;26 -->
<g id="edge81" class="edge">
<title>20&#45;&gt;26</title>
<path fill="none" stroke="grey" stroke-width="2" d="M708.88,-359.12C753,-321.36 855.86,-233.32 907.41,-189.19"/>
<polygon fill="grey" stroke="grey" stroke-width="2" points="909.38,-192.11 914.7,-182.95 904.83,-186.79 909.38,-192.11"/>
</g>
<!-- 21 -->
<g id="node22" class="node">
<title>21</title>
<path fill="none" stroke="#56d863" stroke-width="2" d="M1053.5,-252C1053.5,-252 1016.5,-252 1016.5,-252 1010.5,-252 1004.5,-246 1004.5,-240 1004.5,-240 1004.5,-228 1004.5,-228 1004.5,-222 1010.5,-216 1016.5,-216 1016.5,-216 1053.5,-216 1053.5,-216 1059.5,-216 1065.5,-222 1065.5,-228 1065.5,-228 1065.5,-240 1065.5,-240 1065.5,-246 1059.5,-252 1053.5,-252"/>
<text text-anchor="middle" x="1035" y="-231.5" font-family="sans" font-size="10.00">subindex</text>
</g>
<!-- 21&#45;&gt;18 -->
<g id="edge52" class="edge">
<title>21&#45;&gt;18</title>
<path fill="none" stroke="grey" stroke-width="2" d="M1028.46,-215.06C1020.46,-195.31 1005.19,-163.75 983,-144 963.33,-126.48 936.95,-114.02 913.84,-105.59"/>
<polygon fill="grey" stroke="grey" stroke-width="2" points="915.22,-102.37 904.62,-102.42 912.94,-108.99 915.22,-102.37"/>
</g>
<!-- 21&#45;&gt;26 -->
<g id="edge88" class="edge">
<title>21&#45;&gt;26</title>
<path fill="none" stroke="grey" stroke-width="2" d="M1010.27,-215.15C998.98,-207.01 985.41,-197.22 973.1,-188.33"/>
<polygon fill="grey" stroke="grey" stroke-width="2" points="975.29,-185.6 965.14,-182.58 971.2,-191.27 975.29,-185.6"/>
</g>
<!-- 22&#45;&gt;18 -->
<g id="edge60" class="edge">
<title>22&#45;&gt;18</title>
<path fill="none" stroke="grey" stroke-width="2" d="M923.4,-287.12C911.92,-250.46 885.61,-166.41 871.44,-121.16"/>
<polygon fill="grey" stroke="grey" stroke-width="2" points="874.86,-120.36 868.53,-111.87 868.18,-122.45 874.86,-120.36"/>
</g>
<!-- 22&#45;&gt;21 -->
<g id="edge63" class="edge">
<title>22&#45;&gt;21</title>
<path fill="none" stroke="grey" stroke-width="2" d="M956.02,-287.15C968.61,-278.84 983.79,-268.82 997.46,-259.79"/>
<polygon fill="grey" stroke="grey" stroke-width="2" points="999.08,-262.91 1005.5,-254.48 995.23,-257.07 999.08,-262.91"/>
</g>
<!-- 22&#45;&gt;26 -->
<g id="edge82" class="edge">
<title>22&#45;&gt;26</title>
<path fill="none" stroke="grey" stroke-width="2" d="M930.14,-287.02C931.63,-263.54 934.25,-222.11 936.06,-193.64"/>
<polygon fill="grey" stroke="grey" stroke-width="2" points="939.54,-194.06 936.68,-183.86 932.55,-193.62 939.54,-194.06"/>
</g>
<!-- 23&#45;&gt;18 -->
<g id="edge46" class="edge">
<title>23&#45;&gt;18</title>
<path fill="none" stroke="grey" stroke-width="2" d="M597.07,-215.35C619.32,-195.57 657.94,-163.7 696,-144 732.21,-125.26 776.31,-111.56 809.95,-102.79"/>
<polygon fill="grey" stroke="grey" stroke-width="2" points="810.52,-106.25 819.35,-100.41 808.8,-99.47 810.52,-106.25"/>
</g>
<!-- 23&#45;&gt;26 -->
<g id="edge91" class="edge">
<title>23&#45;&gt;26</title>
<path fill="none" stroke="grey" stroke-width="2" d="M644.33,-218.79C648.95,-217.83 653.55,-216.89 658,-216 738.83,-199.76 833.07,-182.21 889.01,-171.93"/>
<polygon fill="grey" stroke="grey" stroke-width="2" points="889.52,-175.4 898.73,-170.15 888.26,-168.51 889.52,-175.4"/>
</g>
<!-- 24 -->
<g id="node25" class="node">
<title>24</title>
<path fill="none" stroke="#70d856" stroke-width="2" d="M1382,-252C1382,-252 1324,-252 1324,-252 1318,-252 1312,-246 1312,-240 1312,-240 1312,-228 1312,-228 1312,-222 1318,-216 1324,-216 1324,-216 1382,-216 1382,-216 1388,-216 1394,-222 1394,-228 1394,-228 1394,-240 1394,-240 1394,-246 1388,-252 1382,-252"/>
<text text-anchor="middle" x="1353" y="-231.5" font-family="sans" font-size="10.00">make_graphs</text>
</g>
<!-- 24&#45;&gt;18 -->
<g id="edge51" class="edge">
<title>24&#45;&gt;18</title>
<path fill="none" stroke="grey" stroke-width="2" d="M1311.29,-220.01C1306.8,-218.64 1302.31,-217.28 1298,-216 1159.74,-174.82 996.08,-128.56 914.18,-105.59"/>
<polygon fill="grey" stroke="grey" stroke-width="2" points="915.24,-102.25 904.67,-102.92 913.35,-108.99 915.24,-102.25"/>
</g>
<!-- 24&#45;&gt;26 -->
<g id="edge87" class="edge">
<title>24&#45;&gt;26</title>
<path fill="none" stroke="grey" stroke-width="2" d="M1311.14,-219.33C1306.73,-218.11 1302.29,-216.97 1298,-216 1188.17,-191.1 1056.74,-175.18 987.05,-167.8"/>
<polygon fill="grey" stroke="grey" stroke-width="2" points="987.68,-164.35 977.37,-166.8 986.96,-171.31 987.68,-164.35"/>
</g>
<!-- 25&#45;&gt;18 -->
<g id="edge56" class="edge">
<title>25&#45;&gt;18</title>
<path fill="none" stroke="grey" stroke-width="2" d="M350.18,-215.13C366.73,-194.19 397.2,-160.29 432,-144 497.87,-113.18 709.55,-98.68 809.2,-93.43"/>
<polygon fill="grey" stroke="grey" stroke-width="2" points="809.37,-96.93 819.18,-92.92 809.01,-89.93 809.37,-96.93"/>
</g>
<!-- 25&#45;&gt;26 -->
<g id="edge92" class="edge">
<title>25&#45;&gt;26</title>
<path fill="none" stroke="grey" stroke-width="2" d="M418.21,-222.43C435.31,-220.26 453.24,-218.02 470,-216 622.58,-197.61 803.37,-177.66 888.71,-168.35"/>
<polygon fill="grey" stroke="grey" stroke-width="2" points="889,-171.84 898.56,-167.27 888.24,-164.88 889,-171.84"/>
</g>
<!-- 26&#45;&gt;18 -->
<g id="edge43" class="edge">
<title>26&#45;&gt;18</title>
<path fill="none" stroke="grey" stroke-width="2" d="M918.82,-143.34C910.34,-135.52 900.18,-126.16 890.81,-117.53"/>
<polygon fill="grey" stroke="grey" stroke-width="2" points="893.39,-115.15 883.66,-110.95 888.65,-120.3 893.39,-115.15"/>
</g>
</g>
</svg>
