<?xml version="1.0" encoding="UTF-8" standalone="no"?>
<!DOCTYPE svg PUBLIC "-//W3C//DTD SVG 1.1//EN"
 "http://www.w3.org/Graphics/SVG/1.1/DTD/svg11.dtd">
<!-- Generated by graphviz version 7.1.0 (20230122.1345)
 -->
<!-- Title: snakemake_dag Pages: 1 -->
<svg width="1783pt" height="1124pt"
 viewBox="0.00 0.00 1783.00 1124.00" xmlns="http://www.w3.org/2000/svg" xmlns:xlink="http://www.w3.org/1999/xlink">
<g id="graph0" class="graph" transform="scale(1 1) rotate(0) translate(4 1120)">
<title>snakemake_dag</title>
<polygon fill="white" stroke="none" points="-4,4 -4,-1120 1779,-1120 1779,4 -4,4"/>
<!-- 0 -->
<g id="node1" class="node">
<title>0</title>
<path fill="none" stroke="#afd856" stroke-width="2" d="M1201,-36C1201,-36 1171,-36 1171,-36 1165,-36 1159,-30 1159,-24 1159,-24 1159,-12 1159,-12 1159,-6 1165,0 1171,0 1171,0 1201,0 1201,0 1207,0 1213,-6 1213,-12 1213,-12 1213,-24 1213,-24 1213,-30 1207,-36 1201,-36"/>
<text text-anchor="middle" x="1186" y="-15.5" font-family="sans" font-size="10.00">all</text>
</g>
<!-- 1 -->
<g id="node2" class="node">
<title>1</title>
<path fill="none" stroke="#56a2d8" stroke-width="2" d="M1270.5,-756C1270.5,-756 1205.5,-756 1205.5,-756 1199.5,-756 1193.5,-750 1193.5,-744 1193.5,-744 1193.5,-732 1193.5,-732 1193.5,-726 1199.5,-720 1205.5,-720 1205.5,-720 1270.5,-720 1270.5,-720 1276.5,-720 1282.5,-726 1282.5,-732 1282.5,-732 1282.5,-744 1282.5,-744 1282.5,-750 1276.5,-756 1270.5,-756"/>
<text text-anchor="middle" x="1238" y="-735.5" font-family="sans" font-size="10.00">variant_counts</text>
</g>
<!-- 1&#45;&gt;0 -->
<g id="edge3" class="edge">
<title>1&#45;&gt;0</title>
<path fill="none" stroke="grey" stroke-width="2" d="M1264.29,-719.02C1292.02,-700.35 1337.27,-670.76 1378,-648 1409.93,-630.16 1428.71,-640.2 1452,-612 1545.24,-499.07 1529.89,-433.35 1512,-288 1498.63,-179.43 1487.66,-128.52 1394,-72 1341.52,-40.33 1270.61,-27.48 1226.62,-22.33"/>
<polygon fill="grey" stroke="grey" stroke-width="2" points="1227.21,-18.88 1216.89,-21.3 1226.46,-25.84 1227.21,-18.88"/>
</g>
<!-- 10 -->
<g id="node11" class="node">
<title>10</title>
<path fill="none" stroke="#d8a456" stroke-width="2" d="M1507,-684C1507,-684 1399,-684 1399,-684 1393,-684 1387,-678 1387,-672 1387,-672 1387,-660 1387,-660 1387,-654 1393,-648 1399,-648 1399,-648 1507,-648 1507,-648 1513,-648 1519,-654 1519,-660 1519,-660 1519,-672 1519,-672 1519,-678 1513,-684 1507,-684"/>
<text text-anchor="middle" x="1453" y="-663.5" font-family="sans" font-size="10.00">analyze_variant_counts</text>
</g>
<!-- 1&#45;&gt;10 -->
<g id="edge19" class="edge">
<title>1&#45;&gt;10</title>
<path fill="none" stroke="grey" stroke-width="2" d="M1283.33,-722.24C1313.07,-712.56 1352.47,-699.73 1385.82,-688.87"/>
<polygon fill="grey" stroke="grey" stroke-width="2" points="1386.5,-692.33 1394.93,-685.91 1384.34,-685.68 1386.5,-692.33"/>
</g>
<!-- 14 -->
<g id="node15" class="node">
<title>14</title>
<path fill="none" stroke="#567bd8" stroke-width="2" d="M783,-684C783,-684 733,-684 733,-684 727,-684 721,-678 721,-672 721,-672 721,-660 721,-660 721,-654 727,-648 733,-648 733,-648 783,-648 783,-648 789,-648 795,-654 795,-660 795,-660 795,-672 795,-672 795,-678 789,-684 783,-684"/>
<text text-anchor="middle" x="758" y="-663.5" font-family="sans" font-size="10.00">func_scores</text>
</g>
<!-- 1&#45;&gt;14 -->
<g id="edge32" class="edge">
<title>1&#45;&gt;14</title>
<path fill="none" stroke="grey" stroke-width="2" d="M1192.84,-730.41C1103.11,-717.33 902.91,-688.13 808.77,-674.4"/>
<polygon fill="grey" stroke="grey" stroke-width="2" points="809.34,-670.95 798.94,-672.97 808.33,-677.88 809.34,-670.95"/>
</g>
<!-- 17 -->
<g id="node18" class="node">
<title>17</title>
<path fill="none" stroke="#56d8c1" stroke-width="2" d="M1189,-540C1189,-540 1135,-540 1135,-540 1129,-540 1123,-534 1123,-528 1123,-528 1123,-516 1123,-516 1123,-510 1129,-504 1135,-504 1135,-504 1189,-504 1189,-504 1195,-504 1201,-510 1201,-516 1201,-516 1201,-528 1201,-528 1201,-534 1195,-540 1189,-540"/>
<text text-anchor="middle" x="1162" y="-519.5" font-family="sans" font-size="10.00">prob_escape</text>
</g>
<!-- 1&#45;&gt;17 -->
<g id="edge38" class="edge">
<title>1&#45;&gt;17</title>
<path fill="none" stroke="grey" stroke-width="2" d="M1216.56,-719.21C1206.62,-709.78 1195.57,-697.39 1189,-684 1168.37,-641.96 1163.12,-587.12 1162,-553.51"/>
<polygon fill="grey" stroke="grey" stroke-width="2" points="1165.5,-553.87 1161.8,-543.95 1158.51,-554.02 1165.5,-553.87"/>
</g>
<!-- 18 -->
<g id="node19" class="node">
<title>18</title>
<path fill="none" stroke="#56d863" stroke-width="2" d="M1213,-108C1213,-108 1159,-108 1159,-108 1153,-108 1147,-102 1147,-96 1147,-96 1147,-84 1147,-84 1147,-78 1153,-72 1159,-72 1159,-72 1213,-72 1213,-72 1219,-72 1225,-78 1225,-84 1225,-84 1225,-96 1225,-96 1225,-102 1219,-108 1213,-108"/>
<text text-anchor="middle" x="1186" y="-87.5" font-family="sans" font-size="10.00">sphinx_build</text>
</g>
<!-- 1&#45;&gt;18 -->
<g id="edge58" class="edge">
<title>1&#45;&gt;18</title>
<path fill="none" stroke="grey" stroke-width="2" d="M1236.41,-719.18C1234.47,-687.93 1234.26,-622.18 1261,-576 1306.21,-497.9 1421,-541.24 1421,-451 1421,-451 1421,-451 1421,-233 1421,-148.19 1307.48,-112.67 1238.24,-98.9"/>
<polygon fill="grey" stroke="grey" stroke-width="2" points="1239.31,-95.54 1228.84,-97.13 1238.02,-102.42 1239.31,-95.54"/>
</g>
<!-- 26 -->
<g id="node27" class="node">
<title>26</title>
<path fill="none" stroke="#97d856" stroke-width="2" d="M884.5,-180C884.5,-180 837.5,-180 837.5,-180 831.5,-180 825.5,-174 825.5,-168 825.5,-168 825.5,-156 825.5,-156 825.5,-150 831.5,-144 837.5,-144 837.5,-144 884.5,-144 884.5,-144 890.5,-144 896.5,-150 896.5,-156 896.5,-156 896.5,-168 896.5,-168 896.5,-174 890.5,-180 884.5,-180"/>
<text text-anchor="middle" x="861" y="-159.5" font-family="sans" font-size="10.00">docs_index</text>
</g>
<!-- 1&#45;&gt;26 -->
<g id="edge81" class="edge">
<title>1&#45;&gt;26</title>
<path fill="none" stroke="grey" stroke-width="2" d="M1192.94,-719.12C1108.97,-682.51 937,-590.48 937,-451 937,-451 937,-451 937,-305 937,-264.03 933.34,-251.56 913,-216 907.58,-206.53 900.07,-197.54 892.43,-189.73"/>
<polygon fill="grey" stroke="grey" stroke-width="2" points="895.01,-187.35 885.38,-182.95 890.16,-192.4 895.01,-187.35"/>
</g>
<!-- 2 -->
<g id="node3" class="node">
<title>2</title>
<path fill="none" stroke="#566bd8" stroke-width="2" d="M1312.5,-828C1312.5,-828 1243.5,-828 1243.5,-828 1237.5,-828 1231.5,-822 1231.5,-816 1231.5,-816 1231.5,-804 1231.5,-804 1231.5,-798 1237.5,-792 1243.5,-792 1243.5,-792 1312.5,-792 1312.5,-792 1318.5,-792 1324.5,-798 1324.5,-804 1324.5,-804 1324.5,-816 1324.5,-816 1324.5,-822 1318.5,-828 1312.5,-828"/>
<text text-anchor="middle" x="1278" y="-807.5" font-family="sans" font-size="10.00">count_barcodes</text>
</g>
<!-- 2&#45;&gt;1 -->
<g id="edge8" class="edge">
<title>2&#45;&gt;1</title>
<path fill="none" stroke="grey" stroke-width="2" d="M1267.91,-791.34C1263.86,-784.26 1259.1,-775.92 1254.57,-768"/>
<polygon fill="grey" stroke="grey" stroke-width="2" points="1257.73,-766.48 1249.73,-759.53 1251.65,-769.95 1257.73,-766.48"/>
</g>
<!-- 2&#45;&gt;10 -->
<g id="edge22" class="edge">
<title>2&#45;&gt;10</title>
<path fill="none" stroke="grey" stroke-width="2" d="M1300.16,-791.02C1330.8,-766.16 1386.27,-721.15 1421.29,-692.73"/>
<polygon fill="grey" stroke="grey" stroke-width="2" points="1423.11,-695.76 1428.67,-686.75 1418.69,-690.33 1423.11,-695.76"/>
</g>
<!-- 3 -->
<g id="node4" class="node">
<title>3</title>
<path fill="none" stroke="#88d856" stroke-width="2" d="M1213,-900C1213,-900 1117,-900 1117,-900 1111,-900 1105,-894 1105,-888 1105,-888 1105,-876 1105,-876 1105,-870 1111,-864 1117,-864 1117,-864 1213,-864 1213,-864 1219,-864 1225,-870 1225,-876 1225,-876 1225,-888 1225,-888 1225,-894 1219,-900 1213,-900"/>
<text text-anchor="middle" x="1165" y="-879.5" font-family="sans" font-size="10.00">build_codon_variants</text>
</g>
<!-- 3&#45;&gt;1 -->
<g id="edge7" class="edge">
<title>3&#45;&gt;1</title>
<path fill="none" stroke="grey" stroke-width="2" d="M1174.25,-863.02C1186.53,-839.12 1208.39,-796.59 1223.04,-768.1"/>
<polygon fill="grey" stroke="grey" stroke-width="2" points="1225.99,-770.02 1227.45,-759.53 1219.76,-766.82 1225.99,-770.02"/>
</g>
<!-- 3&#45;&gt;2 -->
<g id="edge9" class="edge">
<title>3&#45;&gt;2</title>
<path fill="none" stroke="grey" stroke-width="2" d="M1193.81,-863.15C1207.35,-854.76 1223.72,-844.62 1238.41,-835.52"/>
<polygon fill="grey" stroke="grey" stroke-width="2" points="1240.01,-838.65 1246.67,-830.41 1236.33,-832.7 1240.01,-838.65"/>
</g>
<!-- 3&#45;&gt;10 -->
<g id="edge18" class="edge">
<title>3&#45;&gt;10</title>
<path fill="none" stroke="grey" stroke-width="2" d="M1225.86,-871.54C1260.03,-863.99 1302.07,-850.75 1334,-828 1382.83,-793.21 1419.88,-732.2 1438.86,-696.11"/>
<polygon fill="grey" stroke="grey" stroke-width="2" points="1441.78,-698.09 1443.22,-687.59 1435.55,-694.9 1441.78,-698.09"/>
</g>
<!-- 3&#45;&gt;14 -->
<g id="edge29" class="edge">
<title>3&#45;&gt;14</title>
<path fill="none" stroke="grey" stroke-width="2" d="M1131,-863.12C1057.98,-824.73 886.12,-734.37 803.68,-691.02"/>
<polygon fill="grey" stroke="grey" stroke-width="2" points="805.35,-687.94 794.87,-686.39 802.09,-694.14 805.35,-687.94"/>
</g>
<!-- 3&#45;&gt;17 -->
<g id="edge36" class="edge">
<title>3&#45;&gt;17</title>
<path fill="none" stroke="grey" stroke-width="2" d="M1159.03,-863.08C1155.96,-852.92 1152.54,-839.89 1151,-828 1138.04,-728.21 1150.36,-608.63 1157.59,-553.54"/>
<polygon fill="grey" stroke="grey" stroke-width="2" points="1161.01,-554.35 1158.89,-543.97 1154.07,-553.41 1161.01,-554.35"/>
</g>
<!-- 3&#45;&gt;18 -->
<g id="edge48" class="edge">
<title>3&#45;&gt;18</title>
<path fill="none" stroke="grey" stroke-width="2" d="M1225.8,-865.06C1284.67,-849.61 1365.19,-828.43 1366,-828 1522.22,-744.23 1623,-700.26 1623,-523 1623,-523 1623,-523 1623,-233 1623,-168.72 1567.88,-169.78 1509,-144 1419.52,-104.81 1304.56,-94.36 1238.69,-91.71"/>
<polygon fill="grey" stroke="grey" stroke-width="2" points="1238.94,-88.22 1228.83,-91.38 1238.7,-95.22 1238.94,-88.22"/>
</g>
<!-- 22 -->
<g id="node23" class="node">
<title>22</title>
<path fill="none" stroke="#56d89a" stroke-width="2" d="M1222.5,-324C1222.5,-324 1167.5,-324 1167.5,-324 1161.5,-324 1155.5,-318 1155.5,-312 1155.5,-312 1155.5,-300 1155.5,-300 1155.5,-294 1161.5,-288 1167.5,-288 1167.5,-288 1222.5,-288 1222.5,-288 1228.5,-288 1234.5,-294 1234.5,-300 1234.5,-300 1234.5,-312 1234.5,-312 1234.5,-318 1228.5,-324 1222.5,-324"/>
<text text-anchor="middle" x="1195" y="-303.5" font-family="sans" font-size="10.00">make_nblink</text>
</g>
<!-- 3&#45;&gt;22 -->
<g id="edge67" class="edge">
<title>3&#45;&gt;22</title>
<path fill="none" stroke="grey" stroke-width="2" d="M1165,-863.07C1165,-836.13 1165,-783.62 1165,-739 1165,-739 1165,-739 1165,-665 1165,-624.03 1173.21,-613.8 1189,-576 1196.14,-558.91 1204.43,-557.66 1210,-540 1229.32,-478.75 1219.33,-460.17 1222,-396 1222.66,-380.01 1225.73,-375.56 1222,-360 1220.06,-351.93 1216.68,-343.7 1212.95,-336.2"/>
<polygon fill="grey" stroke="grey" stroke-width="2" points="1216.05,-334.58 1208.2,-327.47 1209.9,-337.93 1216.05,-334.58"/>
</g>
<!-- 3&#45;&gt;26 -->
<g id="edge80" class="edge">
<title>3&#45;&gt;26</title>
<path fill="none" stroke="grey" stroke-width="2" d="M1144.1,-863.14C1075.42,-803.59 861,-610.65 861,-523 861,-523 861,-523 861,-305 861,-266.65 861,-222.48 861,-193.72"/>
<polygon fill="grey" stroke="grey" stroke-width="2" points="864.5,-193.96 861,-183.96 857.5,-193.96 864.5,-193.96"/>
</g>
<!-- 4 -->
<g id="node5" class="node">
<title>4</title>
<path fill="none" stroke="#d88d56" stroke-width="2" d="M1404,-972C1404,-972 1294,-972 1294,-972 1288,-972 1282,-966 1282,-960 1282,-960 1282,-948 1282,-948 1282,-942 1288,-936 1294,-936 1294,-936 1404,-936 1404,-936 1410,-936 1416,-942 1416,-948 1416,-948 1416,-960 1416,-960 1416,-966 1410,-972 1404,-972"/>
<text text-anchor="middle" x="1349" y="-951.5" font-family="sans" font-size="10.00">build_pacbio_consensus</text>
</g>
<!-- 4&#45;&gt;3 -->
<g id="edge12" class="edge">
<title>4&#45;&gt;3</title>
<path fill="none" stroke="grey" stroke-width="2" d="M1302.09,-935.15C1278.39,-926.14 1249.39,-915.11 1224.18,-905.51"/>
<polygon fill="grey" stroke="grey" stroke-width="2" points="1225.56,-902.29 1214.97,-902.01 1223.07,-908.84 1225.56,-902.29"/>
</g>
<!-- 4&#45;&gt;18 -->
<g id="edge43" class="edge">
<title>4&#45;&gt;18</title>
<path fill="none" stroke="grey" stroke-width="2" d="M1416.9,-942.76C1518.68,-923.12 1699,-869.87 1699,-739 1699,-739 1699,-739 1699,-449 1699,-301.29 1698.77,-210.74 1567,-144 1538.24,-129.43 1336.04,-106.68 1238.46,-96.38"/>
<polygon fill="grey" stroke="grey" stroke-width="2" points="1239.01,-92.92 1228.7,-95.36 1238.28,-99.89 1239.01,-92.92"/>
</g>
<!-- 4&#45;&gt;22 -->
<g id="edge68" class="edge">
<title>4&#45;&gt;22</title>
<path fill="none" stroke="grey" stroke-width="2" d="M1372.67,-935.19C1429.14,-890.36 1564.44,-767.83 1528,-648 1483.17,-500.58 1455.66,-455.82 1335,-360 1309.67,-339.89 1275.89,-326.8 1247.85,-318.67"/>
<polygon fill="grey" stroke="grey" stroke-width="2" points="1248.92,-315.33 1238.35,-316.07 1247.07,-322.08 1248.92,-315.33"/>
</g>
<!-- 4&#45;&gt;26 -->
<g id="edge84" class="edge">
<title>4&#45;&gt;26</title>
<path fill="none" stroke="grey" stroke-width="2" d="M1281.19,-951.34C1227.37,-947.2 1152.1,-934.92 1096,-900 920.36,-790.69 823,-729.87 823,-523 823,-523 823,-523 823,-305 823,-265.16 837.13,-221.11 848.15,-192.8"/>
<polygon fill="grey" stroke="grey" stroke-width="2" points="851.3,-194.36 851.81,-183.77 844.81,-191.73 851.3,-194.36"/>
</g>
<!-- 5 -->
<g id="node6" class="node">
<title>5</title>
<path fill="none" stroke="#bed856" stroke-width="2" d="M1570.5,-1044C1570.5,-1044 1481.5,-1044 1481.5,-1044 1475.5,-1044 1469.5,-1038 1469.5,-1032 1469.5,-1032 1469.5,-1020 1469.5,-1020 1469.5,-1014 1475.5,-1008 1481.5,-1008 1481.5,-1008 1570.5,-1008 1570.5,-1008 1576.5,-1008 1582.5,-1014 1582.5,-1020 1582.5,-1020 1582.5,-1032 1582.5,-1032 1582.5,-1038 1576.5,-1044 1570.5,-1044"/>
<text text-anchor="middle" x="1526" y="-1023.5" font-family="sans" font-size="10.00">analyze_pacbio_ccs</text>
</g>
<!-- 5&#45;&gt;4 -->
<g id="edge14" class="edge">
<title>5&#45;&gt;4</title>
<path fill="none" stroke="grey" stroke-width="2" d="M1480.88,-1007.15C1458.18,-998.18 1430.43,-987.21 1406.26,-977.64"/>
<polygon fill="grey" stroke="grey" stroke-width="2" points="1407.75,-974.47 1397.16,-974.05 1405.17,-980.98 1407.75,-974.47"/>
</g>
<!-- 5&#45;&gt;18 -->
<g id="edge46" class="edge">
<title>5&#45;&gt;18</title>
<path fill="none" stroke="grey" stroke-width="2" d="M1583.44,-1017.78C1656.97,-1004.96 1775,-970.71 1775,-883 1775,-883 1775,-883 1775,-377 1775,-259.48 1756.19,-194.34 1650,-144 1613.49,-126.69 1352.46,-104.2 1238.73,-95.09"/>
<polygon fill="grey" stroke="grey" stroke-width="2" points="1239.2,-91.62 1228.96,-94.32 1238.65,-98.6 1239.2,-91.62"/>
</g>
<!-- 5&#45;&gt;22 -->
<g id="edge65" class="edge">
<title>5&#45;&gt;22</title>
<path fill="none" stroke="grey" stroke-width="2" d="M1541.22,-1007.32C1576.53,-964.42 1661,-850.19 1661,-739 1661,-739 1661,-739 1661,-449 1661,-363.42 1369.78,-324.41 1247.77,-311.82"/>
<polygon fill="grey" stroke="grey" stroke-width="2" points="1248.45,-308.37 1238.15,-310.85 1247.75,-315.33 1248.45,-308.37"/>
</g>
<!-- 5&#45;&gt;26 -->
<g id="edge79" class="edge">
<title>5&#45;&gt;26</title>
<path fill="none" stroke="grey" stroke-width="2" d="M1468.85,-1024.29C1378.02,-1020.06 1200.31,-998.74 1096,-900 1017.57,-825.76 899,-879.57 899,-451 899,-451 899,-451 899,-305 899,-265.16 884.87,-221.11 873.85,-192.8"/>
<polygon fill="grey" stroke="grey" stroke-width="2" points="877.19,-191.73 870.19,-183.77 870.7,-194.36 877.19,-191.73"/>
</g>
<!-- 6 -->
<g id="node7" class="node">
<title>6</title>
<path fill="none" stroke="#d8cb56" stroke-width="2" d="M1579.5,-1116C1579.5,-1116 1472.5,-1116 1472.5,-1116 1466.5,-1116 1460.5,-1110 1460.5,-1104 1460.5,-1104 1460.5,-1092 1460.5,-1092 1460.5,-1086 1466.5,-1080 1472.5,-1080 1472.5,-1080 1579.5,-1080 1579.5,-1080 1585.5,-1080 1591.5,-1086 1591.5,-1092 1591.5,-1092 1591.5,-1104 1591.5,-1104 1591.5,-1110 1585.5,-1116 1579.5,-1116"/>
<text text-anchor="middle" x="1526" y="-1095.5" font-family="sans" font-size="10.00">align_parse_PacBio_ccs</text>
</g>
<!-- 6&#45;&gt;5 -->
<g id="edge15" class="edge">
<title>6&#45;&gt;5</title>
<path fill="none" stroke="grey" stroke-width="2" d="M1526,-1079.34C1526,-1072.75 1526,-1065.08 1526,-1057.67"/>
<polygon fill="grey" stroke="grey" stroke-width="2" points="1529.5,-1057.93 1526,-1047.93 1522.5,-1057.93 1529.5,-1057.93"/>
</g>
<!-- 7 -->
<g id="node8" class="node">
<title>7</title>
<path fill="none" stroke="#d8b456" stroke-width="2" d="M1009,-1044C1009,-1044 941,-1044 941,-1044 935,-1044 929,-1038 929,-1032 929,-1032 929,-1020 929,-1020 929,-1014 935,-1008 941,-1008 941,-1008 1009,-1008 1009,-1008 1015,-1008 1021,-1014 1021,-1020 1021,-1020 1021,-1032 1021,-1032 1021,-1038 1015,-1044 1009,-1044"/>
<text text-anchor="middle" x="975" y="-1023.5" font-family="sans" font-size="10.00">gene_sequence</text>
</g>
<!-- 7&#45;&gt;1 -->
<g id="edge6" class="edge">
<title>7&#45;&gt;1</title>
<path fill="none" stroke="grey" stroke-width="2" d="M986.63,-1007.17C1007.02,-976.46 1051.35,-912.24 1096,-864 1130.42,-826.81 1174.94,-789.03 1204.88,-764.9"/>
<polygon fill="grey" stroke="grey" stroke-width="2" points="1206.83,-767.82 1212.45,-758.84 1202.46,-762.35 1206.83,-767.82"/>
</g>
<!-- 7&#45;&gt;3 -->
<g id="edge11" class="edge">
<title>7&#45;&gt;3</title>
<path fill="none" stroke="grey" stroke-width="2" d="M999.06,-1007.02C1032.47,-982.05 1093.07,-936.76 1131.06,-908.37"/>
<polygon fill="grey" stroke="grey" stroke-width="2" points="1132.79,-911.44 1138.71,-902.65 1128.6,-905.83 1132.79,-911.44"/>
</g>
<!-- 7&#45;&gt;4 -->
<g id="edge13" class="edge">
<title>7&#45;&gt;4</title>
<path fill="none" stroke="grey" stroke-width="2" d="M1021.99,-1016.21C1083.84,-1004.63 1193.51,-984.1 1268.65,-970.04"/>
<polygon fill="grey" stroke="grey" stroke-width="2" points="1269.17,-973.5 1278.36,-968.22 1267.88,-966.62 1269.17,-973.5"/>
</g>
<!-- 8 -->
<g id="node9" class="node">
<title>8</title>
<path fill="none" stroke="#61d856" stroke-width="2" d="M782.5,-972C782.5,-972 687.5,-972 687.5,-972 681.5,-972 675.5,-966 675.5,-960 675.5,-960 675.5,-948 675.5,-948 675.5,-942 681.5,-936 687.5,-936 687.5,-936 782.5,-936 782.5,-936 788.5,-936 794.5,-942 794.5,-948 794.5,-948 794.5,-960 794.5,-960 794.5,-966 788.5,-972 782.5,-972"/>
<text text-anchor="middle" x="735" y="-951.5" font-family="sans" font-size="10.00">site_numbering_map</text>
</g>
<!-- 7&#45;&gt;8 -->
<g id="edge16" class="edge">
<title>7&#45;&gt;8</title>
<path fill="none" stroke="grey" stroke-width="2" d="M928.16,-1011.34C893.94,-1001.36 846.88,-987.63 807.78,-976.23"/>
<polygon fill="grey" stroke="grey" stroke-width="2" points="808.88,-972.9 798.3,-973.46 806.92,-979.62 808.88,-972.9"/>
</g>
<!-- 7&#45;&gt;10 -->
<g id="edge20" class="edge">
<title>7&#45;&gt;10</title>
<path fill="none" stroke="grey" stroke-width="2" d="M1021.66,-1023.36C1151.08,-1017.64 1508.78,-993.47 1566,-900 1609.72,-828.59 1530.01,-737.75 1483.33,-693.56"/>
<polygon fill="grey" stroke="grey" stroke-width="2" points="1485.87,-691.14 1476.15,-686.92 1481.11,-696.28 1485.87,-691.14"/>
</g>
<!-- 7&#45;&gt;14 -->
<g id="edge31" class="edge">
<title>7&#45;&gt;14</title>
<path fill="none" stroke="grey" stroke-width="2" d="M932.44,-1007.15C915.89,-998.51 897.86,-986.77 885,-972 811.95,-888.14 776.7,-756.34 763.9,-697.33"/>
<polygon fill="grey" stroke="grey" stroke-width="2" points="767.4,-696.96 761.93,-687.89 760.55,-698.39 767.4,-696.96"/>
</g>
<!-- 7&#45;&gt;17 -->
<g id="edge39" class="edge">
<title>7&#45;&gt;17</title>
<path fill="none" stroke="grey" stroke-width="2" d="M958.13,-1007.35C935.74,-981.98 899,-932.77 899,-883 899,-883 899,-883 899,-809 899,-741.79 1058.35,-605.92 1128.98,-549.01"/>
<polygon fill="grey" stroke="grey" stroke-width="2" points="1131.14,-551.76 1136.76,-542.78 1126.76,-546.3 1131.14,-551.76"/>
</g>
<!-- 7&#45;&gt;18 -->
<g id="edge45" class="edge">
<title>7&#45;&gt;18</title>
<path fill="none" stroke="grey" stroke-width="2" d="M1021.71,-1023.07C1132.17,-1018.05 1406.68,-1002.79 1493,-972 1615.37,-928.35 1737,-940.92 1737,-811 1737,-811 1737,-811 1737,-377 1737,-258.63 1714.32,-196.04 1608,-144 1575.44,-128.07 1344.57,-105.4 1238.75,-95.7"/>
<polygon fill="grey" stroke="grey" stroke-width="2" points="1239.18,-92.22 1228.9,-94.8 1238.54,-99.19 1239.18,-92.22"/>
</g>
<!-- 7&#45;&gt;26 -->
<g id="edge88" class="edge">
<title>7&#45;&gt;26</title>
<path fill="none" stroke="grey" stroke-width="2" d="M928.32,-1019.8C806.05,-1005.43 479.93,-962.1 393,-900 361.71,-877.64 358.66,-863.95 345,-828 327.88,-782.94 322.7,-766.61 335,-720 367.87,-595.49 416.69,-581.25 478,-468 538,-357.17 507.71,-292.32 608,-216 639.49,-192.04 747.65,-175.94 811.91,-168.24"/>
<polygon fill="grey" stroke="grey" stroke-width="2" points="811.99,-171.75 821.52,-167.12 811.18,-164.8 811.99,-171.75"/>
</g>
<!-- 8&#45;&gt;3 -->
<g id="edge10" class="edge">
<title>8&#45;&gt;3</title>
<path fill="none" stroke="grey" stroke-width="2" d="M795.24,-943.19C872.88,-930.55 1007.79,-908.59 1091.41,-894.98"/>
<polygon fill="grey" stroke="grey" stroke-width="2" points="1091.83,-898.46 1101.14,-893.4 1090.7,-891.55 1091.83,-898.46"/>
</g>
<!-- 8&#45;&gt;10 -->
<g id="edge21" class="edge">
<title>8&#45;&gt;10</title>
<path fill="none" stroke="grey" stroke-width="2" d="M795.32,-949.56C909.62,-942.54 1153.54,-925.12 1234,-900 1336.16,-868.11 1376.3,-850.25 1427,-756 1436.84,-737.7 1443.37,-715.22 1447.42,-697.44"/>
<polygon fill="grey" stroke="grey" stroke-width="2" points="1450.81,-698.37 1449.43,-687.86 1443.96,-696.93 1450.81,-698.37"/>
</g>
<!-- 11 -->
<g id="node12" class="node">
<title>11</title>
<path fill="none" stroke="#56d8a9" stroke-width="2" d="M392,-396C392,-396 294,-396 294,-396 288,-396 282,-390 282,-384 282,-384 282,-372 282,-372 282,-366 288,-360 294,-360 294,-360 392,-360 392,-360 398,-360 404,-366 404,-372 404,-372 404,-384 404,-384 404,-390 398,-396 392,-396"/>
<text text-anchor="middle" x="343" y="-375.5" font-family="sans" font-size="10.00">avg_antibody_escape</text>
</g>
<!-- 8&#45;&gt;11 -->
<g id="edge23" class="edge">
<title>8&#45;&gt;11</title>
<path fill="none" stroke="grey" stroke-width="2" d="M674.69,-943.67C566.12,-925.15 349,-879.55 349,-811 349,-811 349,-811 349,-521 349,-482.62 346.78,-438.45 345.05,-409.71"/>
<polygon fill="grey" stroke="grey" stroke-width="2" points="348.55,-409.7 344.43,-399.94 341.57,-410.14 348.55,-409.7"/>
</g>
<!-- 13 -->
<g id="node14" class="node">
<title>13</title>
<path fill="none" stroke="#56b9d8" stroke-width="2" d="M732.5,-540C732.5,-540 651.5,-540 651.5,-540 645.5,-540 639.5,-534 639.5,-528 639.5,-528 639.5,-516 639.5,-516 639.5,-510 645.5,-504 651.5,-504 651.5,-504 732.5,-504 732.5,-504 738.5,-504 744.5,-510 744.5,-516 744.5,-516 744.5,-528 744.5,-528 744.5,-534 738.5,-540 732.5,-540"/>
<text text-anchor="middle" x="692" y="-519.5" font-family="sans" font-size="10.00">fit_globalepistasis</text>
</g>
<!-- 8&#45;&gt;13 -->
<g id="edge27" class="edge">
<title>8&#45;&gt;13</title>
<path fill="none" stroke="grey" stroke-width="2" d="M725.88,-935.14C713.26,-908.73 692,-857.36 692,-811 692,-811 692,-811 692,-665 692,-626.65 692,-582.48 692,-553.72"/>
<polygon fill="grey" stroke="grey" stroke-width="2" points="695.5,-553.96 692,-543.96 688.5,-553.96 695.5,-553.96"/>
</g>
<!-- 8&#45;&gt;14 -->
<g id="edge30" class="edge">
<title>8&#45;&gt;14</title>
<path fill="none" stroke="grey" stroke-width="2" d="M736.44,-935.11C740.26,-887.56 750.71,-757.6 755.52,-697.83"/>
<polygon fill="grey" stroke="grey" stroke-width="2" points="759.01,-698.15 756.32,-687.9 752.03,-697.59 759.01,-698.15"/>
</g>
<!-- 15 -->
<g id="node16" class="node">
<title>15</title>
<path fill="none" stroke="#56d8d0" stroke-width="2" d="M1156,-468C1156,-468 1098,-468 1098,-468 1092,-468 1086,-462 1086,-456 1086,-456 1086,-444 1086,-444 1086,-438 1092,-432 1098,-432 1098,-432 1156,-432 1156,-432 1162,-432 1168,-438 1168,-444 1168,-444 1168,-456 1168,-456 1168,-462 1162,-468 1156,-468"/>
<text text-anchor="middle" x="1127" y="-447.5" font-family="sans" font-size="10.00">fit_polyclonal</text>
</g>
<!-- 8&#45;&gt;15 -->
<g id="edge33" class="edge">
<title>8&#45;&gt;15</title>
<path fill="none" stroke="grey" stroke-width="2" d="M767.45,-935.07C804.78,-911.78 861,-867.36 861,-811 861,-811 861,-811 861,-737 861,-617.76 904.02,-582.23 994,-504 1016.33,-484.59 1046.64,-471.77 1072.69,-463.61"/>
<polygon fill="grey" stroke="grey" stroke-width="2" points="1073.57,-467 1082.18,-460.82 1071.6,-460.28 1073.57,-467"/>
</g>
<!-- 8&#45;&gt;17 -->
<g id="edge40" class="edge">
<title>8&#45;&gt;17</title>
<path fill="none" stroke="grey" stroke-width="2" d="M743.93,-935.11C775.16,-874.47 885.8,-675 1037,-576 1049.81,-567.61 1081.82,-554.08 1110.24,-542.8"/>
<polygon fill="grey" stroke="grey" stroke-width="2" points="1111.29,-546.14 1119.32,-539.22 1108.73,-539.63 1111.29,-546.14"/>
</g>
<!-- 8&#45;&gt;18 -->
<g id="edge50" class="edge">
<title>8&#45;&gt;18</title>
<path fill="none" stroke="grey" stroke-width="2" d="M674.52,-949.45C589.14,-943.48 438.58,-929.1 393,-900 241.59,-803.32 0,-1244.01 0,-307 0,-307 0,-307 0,-233 0,-151.63 81.79,-166.46 160,-144 345.44,-90.75 950.16,-89.65 1133.1,-90.59"/>
<polygon fill="grey" stroke="grey" stroke-width="2" points="1132.98,-94.09 1143,-90.64 1133.02,-87.09 1132.98,-94.09"/>
</g>
<!-- 8&#45;&gt;26 -->
<g id="edge92" class="edge">
<title>8&#45;&gt;26</title>
<path fill="none" stroke="grey" stroke-width="2" d="M703.39,-935.15C666.65,-911.78 611,-867.13 611,-811 611,-811 611,-811 611,-449 611,-328.87 652.31,-288.63 748,-216 767.48,-201.22 791.74,-189.17 812.79,-180.31"/>
<polygon fill="grey" stroke="grey" stroke-width="2" points="813.98,-183.61 821.94,-176.61 811.36,-177.12 813.98,-183.61"/>
</g>
<!-- 9 -->
<g id="node10" class="node">
<title>9</title>
<path fill="none" stroke="#d85656" stroke-width="2" d="M1430.5,-612C1430.5,-612 1281.5,-612 1281.5,-612 1275.5,-612 1269.5,-606 1269.5,-600 1269.5,-600 1269.5,-588 1269.5,-588 1269.5,-582 1275.5,-576 1281.5,-576 1281.5,-576 1430.5,-576 1430.5,-576 1436.5,-576 1442.5,-582 1442.5,-588 1442.5,-588 1442.5,-600 1442.5,-600 1442.5,-606 1436.5,-612 1430.5,-612"/>
<text text-anchor="middle" x="1356" y="-591.5" font-family="sans" font-size="10.00">check_adequate_variant_counts</text>
</g>
<!-- 9&#45;&gt;0 -->
<g id="edge2" class="edge">
<title>9&#45;&gt;0</title>
<path fill="none" stroke="grey" stroke-width="2" d="M1397.93,-575.16C1412.36,-566.74 1426.92,-555.16 1435,-540 1517.82,-384.7 1527.41,-293.79 1435,-144 1389.17,-69.72 1284.24,-38.05 1226.29,-25.83"/>
<polygon fill="grey" stroke="grey" stroke-width="2" points="1227.11,-22.42 1216.62,-23.9 1225.75,-29.29 1227.11,-22.42"/>
</g>
<!-- 9&#45;&gt;17 -->
<g id="edge37" class="edge">
<title>9&#45;&gt;17</title>
<path fill="none" stroke="grey" stroke-width="2" d="M1306.29,-575.06C1278.03,-564.87 1242.68,-552.11 1214.04,-541.78"/>
<polygon fill="grey" stroke="grey" stroke-width="2" points="1215.25,-538.49 1204.66,-538.39 1212.87,-545.08 1215.25,-538.49"/>
</g>
<!-- 10&#45;&gt;9 -->
<g id="edge17" class="edge">
<title>10&#45;&gt;9</title>
<path fill="none" stroke="grey" stroke-width="2" d="M1428.27,-647.15C1416.98,-639.01 1403.41,-629.22 1391.1,-620.33"/>
<polygon fill="grey" stroke="grey" stroke-width="2" points="1393.29,-617.6 1383.14,-614.58 1389.2,-623.27 1393.29,-617.6"/>
</g>
<!-- 10&#45;&gt;18 -->
<g id="edge44" class="edge">
<title>10&#45;&gt;18</title>
<path fill="none" stroke="grey" stroke-width="2" d="M1473.92,-647.01C1511.14,-612.87 1585,-534.59 1585,-451 1585,-451 1585,-451 1585,-233 1585,-160.3 1346.91,-115.18 1238.57,-98.42"/>
<polygon fill="grey" stroke="grey" stroke-width="2" points="1239.12,-94.96 1228.71,-96.92 1238.07,-101.88 1239.12,-94.96"/>
</g>
<!-- 10&#45;&gt;22 -->
<g id="edge69" class="edge">
<title>10&#45;&gt;22</title>
<path fill="none" stroke="grey" stroke-width="2" d="M1386.09,-655.27C1337,-646.6 1276.34,-632.15 1261,-612 1226.19,-566.28 1350.66,-407.96 1319,-360 1303.15,-335.99 1273.94,-322.82 1247.86,-315.61"/>
<polygon fill="grey" stroke="grey" stroke-width="2" points="1248.86,-312.25 1238.31,-313.26 1247.18,-319.05 1248.86,-312.25"/>
</g>
<!-- 10&#45;&gt;26 -->
<g id="edge85" class="edge">
<title>10&#45;&gt;26</title>
<path fill="none" stroke="grey" stroke-width="2" d="M1455.27,-647.28C1457.03,-629.07 1458.25,-600.08 1452,-576 1424.58,-470.32 1405.25,-443.58 1335,-360 1301.82,-320.52 1288.99,-313.21 1244,-288 1203.52,-265.32 1189,-269.43 1146,-252 1109.49,-237.2 1102.19,-229 1065,-216 1012.99,-197.82 951.59,-182.69 909.84,-173.32"/>
<polygon fill="grey" stroke="grey" stroke-width="2" points="910.75,-169.93 900.23,-171.19 909.24,-176.77 910.75,-169.93"/>
</g>
<!-- 11&#45;&gt;0 -->
<g id="edge1" class="edge">
<title>11&#45;&gt;0</title>
<path fill="none" stroke="grey" stroke-width="2" d="M281.05,-371.27C246.43,-364.95 204.97,-351.71 178,-324 121.66,-266.12 134.76,-187.2 203,-144 363.82,-42.19 981.06,-22.99 1145.53,-19.66"/>
<polygon fill="grey" stroke="grey" stroke-width="2" points="1145.35,-23.16 1155.28,-19.47 1145.22,-16.16 1145.35,-23.16"/>
</g>
<!-- 11&#45;&gt;18 -->
<g id="edge54" class="edge">
<title>11&#45;&gt;18</title>
<path fill="none" stroke="grey" stroke-width="2" d="M295.98,-359.01C231.41,-331.57 127.9,-276.07 171,-216 229.26,-134.81 285.98,-163.46 384,-144 528.3,-115.35 978.97,-97.94 1133.43,-92.69"/>
<polygon fill="grey" stroke="grey" stroke-width="2" points="1133.27,-96.2 1143.15,-92.36 1133.03,-89.2 1133.27,-96.2"/>
</g>
<!-- 11&#45;&gt;22 -->
<g id="edge63" class="edge">
<title>11&#45;&gt;22</title>
<path fill="none" stroke="grey" stroke-width="2" d="M404.96,-371.91C565.35,-358.73 992.06,-323.67 1142,-311.35"/>
<polygon fill="grey" stroke="grey" stroke-width="2" points="1142.11,-314.86 1151.79,-310.55 1141.54,-307.88 1142.11,-314.86"/>
</g>
<!-- 25 -->
<g id="node26" class="node">
<title>25</title>
<path fill="none" stroke="#56d88a" stroke-width="2" d="M329.5,-252C329.5,-252 192.5,-252 192.5,-252 186.5,-252 180.5,-246 180.5,-240 180.5,-240 180.5,-228 180.5,-228 180.5,-222 186.5,-216 192.5,-216 192.5,-216 329.5,-216 329.5,-216 335.5,-216 341.5,-222 341.5,-228 341.5,-228 341.5,-240 341.5,-240 341.5,-246 335.5,-252 329.5,-252"/>
<text text-anchor="middle" x="261" y="-231.5" font-family="sans" font-size="10.00">format_antibody_escape_plot</text>
</g>
<!-- 11&#45;&gt;25 -->
<g id="edge74" class="edge">
<title>11&#45;&gt;25</title>
<path fill="none" stroke="grey" stroke-width="2" d="M332.61,-359.02C318.81,-335.12 294.26,-292.59 277.8,-264.1"/>
<polygon fill="grey" stroke="grey" stroke-width="2" points="280.85,-262.37 272.81,-255.46 274.78,-265.87 280.85,-262.37"/>
</g>
<!-- 11&#45;&gt;26 -->
<g id="edge75" class="edge">
<title>11&#45;&gt;26</title>
<path fill="none" stroke="grey" stroke-width="2" d="M365.53,-359.06C395.91,-334.85 451.66,-290.33 499,-252 518.64,-236.1 519.99,-226.43 543,-216 632,-175.67 747.51,-165.7 811.97,-163.44"/>
<polygon fill="grey" stroke="grey" stroke-width="2" points="812,-166.94 821.9,-163.15 811.8,-159.94 812,-166.94"/>
</g>
<!-- 12 -->
<g id="node13" class="node">
<title>12</title>
<path fill="none" stroke="#56d873" stroke-width="2" d="M457,-468C457,-468 389,-468 389,-468 383,-468 377,-462 377,-456 377,-456 377,-444 377,-444 377,-438 383,-432 389,-432 389,-432 457,-432 457,-432 463,-432 469,-438 469,-444 469,-444 469,-456 469,-456 469,-462 463,-468 457,-468"/>
<text text-anchor="middle" x="423" y="-447.5" font-family="sans" font-size="10.00">avg_muteffects</text>
</g>
<!-- 12&#45;&gt;0 -->
<g id="edge4" class="edge">
<title>12&#45;&gt;0</title>
<path fill="none" stroke="grey" stroke-width="2" d="M376.18,-441.88C273.57,-424.95 38,-378.33 38,-307 38,-307 38,-307 38,-161 38,-42.64 173,-95.5 289,-72 456.34,-38.1 993.32,-23.42 1145.47,-19.88"/>
<polygon fill="grey" stroke="grey" stroke-width="2" points="1145.23,-23.39 1155.15,-19.66 1145.07,-16.39 1145.23,-23.39"/>
</g>
<!-- 12&#45;&gt;11 -->
<g id="edge25" class="edge">
<title>12&#45;&gt;11</title>
<path fill="none" stroke="grey" stroke-width="2" d="M402.81,-431.34C393.79,-423.44 382.96,-413.96 373.01,-405.26"/>
<polygon fill="grey" stroke="grey" stroke-width="2" points="375.57,-402.85 365.74,-398.9 370.96,-408.11 375.57,-402.85"/>
</g>
<!-- 12&#45;&gt;18 -->
<g id="edge51" class="edge">
<title>12&#45;&gt;18</title>
<path fill="none" stroke="grey" stroke-width="2" d="M376.22,-439.31C319.17,-424.82 224.58,-391.65 178,-324 132.19,-257.48 133.23,-184.7 203,-144 283.55,-97.01 941.21,-91.62 1133.43,-91.05"/>
<polygon fill="grey" stroke="grey" stroke-width="2" points="1133.17,-94.55 1143.16,-91.03 1133.15,-87.55 1133.17,-94.55"/>
</g>
<!-- 12&#45;&gt;22 -->
<g id="edge72" class="edge">
<title>12&#45;&gt;22</title>
<path fill="none" stroke="grey" stroke-width="2" d="M469.76,-447.85C618.86,-443.86 1076.64,-429.01 1134,-396 1156.99,-382.77 1173.21,-356.94 1183.12,-336.5"/>
<polygon fill="grey" stroke="grey" stroke-width="2" points="1186.31,-337.95 1187.23,-327.39 1179.93,-335.07 1186.31,-337.95"/>
</g>
<!-- 23 -->
<g id="node24" class="node">
<title>23</title>
<path fill="none" stroke="#56c9d8" stroke-width="2" d="M478.5,-252C478.5,-252 371.5,-252 371.5,-252 365.5,-252 359.5,-246 359.5,-240 359.5,-240 359.5,-228 359.5,-228 359.5,-222 365.5,-216 371.5,-216 371.5,-216 478.5,-216 478.5,-216 484.5,-216 490.5,-222 490.5,-228 490.5,-228 490.5,-240 490.5,-240 490.5,-246 484.5,-252 478.5,-252"/>
<text text-anchor="middle" x="425" y="-231.5" font-family="sans" font-size="10.00">format_muteffects_plot</text>
</g>
<!-- 12&#45;&gt;23 -->
<g id="edge73" class="edge">
<title>12&#45;&gt;23</title>
<path fill="none" stroke="grey" stroke-width="2" d="M423.17,-431.12C423.51,-394.62 424.29,-311.13 424.71,-265.74"/>
<polygon fill="grey" stroke="grey" stroke-width="2" points="428.21,-266.04 424.8,-256 421.21,-265.97 428.21,-266.04"/>
</g>
<!-- 12&#45;&gt;26 -->
<g id="edge90" class="edge">
<title>12&#45;&gt;26</title>
<path fill="none" stroke="grey" stroke-width="2" d="M438.5,-431.33C481.93,-382.2 604.97,-245.7 657,-216 705.53,-188.3 768.75,-174.79 811.86,-168.39"/>
<polygon fill="grey" stroke="grey" stroke-width="2" points="812.14,-171.89 821.56,-167.05 811.18,-164.95 812.14,-171.89"/>
</g>
<!-- 13&#45;&gt;12 -->
<g id="edge26" class="edge">
<title>13&#45;&gt;12</title>
<path fill="none" stroke="grey" stroke-width="2" d="M638.53,-507.09C593.34,-495.33 528.69,-478.5 481.99,-466.35"/>
<polygon fill="grey" stroke="grey" stroke-width="2" points="483.12,-463.03 472.56,-463.9 481.36,-469.8 483.12,-463.03"/>
</g>
<!-- 13&#45;&gt;18 -->
<g id="edge57" class="edge">
<title>13&#45;&gt;18</title>
<path fill="none" stroke="grey" stroke-width="2" d="M677.94,-503.23C640.53,-453.67 545.61,-311.25 609,-216 667.19,-128.55 1002.06,-101.01 1133.28,-93.5"/>
<polygon fill="grey" stroke="grey" stroke-width="2" points="1133.24,-97 1143.04,-92.96 1132.86,-90.01 1133.24,-97"/>
</g>
<!-- 13&#45;&gt;22 -->
<g id="edge66" class="edge">
<title>13&#45;&gt;22</title>
<path fill="none" stroke="grey" stroke-width="2" d="M745.11,-509.93C862.06,-485.14 1133.95,-425.05 1165,-396 1181.18,-380.87 1188.63,-356.74 1192.07,-337.41"/>
<polygon fill="grey" stroke="grey" stroke-width="2" points="1195.51,-338.08 1193.46,-327.68 1188.58,-337.08 1195.51,-338.08"/>
</g>
<!-- 13&#45;&gt;26 -->
<g id="edge78" class="edge">
<title>13&#45;&gt;26</title>
<path fill="none" stroke="grey" stroke-width="2" d="M683.83,-503.06C671.22,-472.73 650.21,-409.76 668,-360 681.92,-321.04 755.72,-244.19 786,-216 796.72,-206.02 809.41,-196.37 821.27,-188.11"/>
<polygon fill="grey" stroke="grey" stroke-width="2" points="823.02,-191.15 829.34,-182.64 819.1,-185.35 823.02,-191.15"/>
</g>
<!-- 14&#45;&gt;13 -->
<g id="edge28" class="edge">
<title>14&#45;&gt;13</title>
<path fill="none" stroke="grey" stroke-width="2" d="M749.64,-647.02C738.58,-623.22 718.95,-580.97 705.7,-552.48"/>
<polygon fill="grey" stroke="grey" stroke-width="2" points="708.96,-551.18 701.57,-543.58 702.61,-554.13 708.96,-551.18"/>
</g>
<!-- 19 -->
<g id="node20" class="node">
<title>19</title>
<path fill="none" stroke="#70d856" stroke-width="2" d="M783,-396C783,-396 689,-396 689,-396 683,-396 677,-390 677,-384 677,-384 677,-372 677,-372 677,-366 683,-360 689,-360 689,-360 783,-360 783,-360 789,-360 795,-366 795,-372 795,-372 795,-384 795,-384 795,-390 789,-396 783,-396"/>
<text text-anchor="middle" x="736" y="-375.5" font-family="sans" font-size="10.00">analyze_func_scores</text>
</g>
<!-- 14&#45;&gt;19 -->
<g id="edge60" class="edge">
<title>14&#45;&gt;19</title>
<path fill="none" stroke="grey" stroke-width="2" d="M758.05,-647.1C758,-617.34 757.32,-555.84 753,-504 750.3,-471.59 745.01,-434.72 741.05,-409.47"/>
<polygon fill="grey" stroke="grey" stroke-width="2" points="744.52,-409.05 739.48,-399.73 737.61,-410.15 744.52,-409.05"/>
</g>
<!-- 15&#45;&gt;11 -->
<g id="edge24" class="edge">
<title>15&#45;&gt;11</title>
<path fill="none" stroke="grey" stroke-width="2" d="M1085.13,-445.26C958.69,-433.97 579.57,-400.12 417.65,-385.66"/>
<polygon fill="grey" stroke="grey" stroke-width="2" points="418.27,-382.21 407.99,-384.8 417.64,-389.18 418.27,-382.21"/>
</g>
<!-- 15&#45;&gt;18 -->
<g id="edge55" class="edge">
<title>15&#45;&gt;18</title>
<path fill="none" stroke="grey" stroke-width="2" d="M1166.5,-431.1C1184.41,-421.97 1205.28,-409.87 1222,-396 1286.12,-342.81 1313.64,-330.33 1342,-252 1359.53,-203.57 1338.07,-178.69 1300,-144 1282.33,-127.9 1258.92,-115.88 1237.91,-107.39"/>
<polygon fill="grey" stroke="grey" stroke-width="2" points="1239.3,-104.17 1228.71,-103.87 1236.8,-110.71 1239.3,-104.17"/>
</g>
<!-- 15&#45;&gt;22 -->
<g id="edge64" class="edge">
<title>15&#45;&gt;22</title>
<path fill="none" stroke="grey" stroke-width="2" d="M1168.41,-431.05C1182.66,-422.62 1197.03,-411.05 1205,-396 1214.54,-377.98 1211.68,-355.06 1206.62,-336.99"/>
<polygon fill="grey" stroke="grey" stroke-width="2" points="1210.03,-336.16 1203.63,-327.72 1203.37,-338.31 1210.03,-336.16"/>
</g>
<!-- 15&#45;&gt;26 -->
<g id="edge76" class="edge">
<title>15&#45;&gt;26</title>
<path fill="none" stroke="grey" stroke-width="2" d="M1085.1,-442.71C1055.48,-436.08 1017.09,-422.7 994,-396 940.2,-333.79 999.89,-282.14 951,-216 940.35,-201.59 924.51,-190.41 909.08,-182.11"/>
<polygon fill="grey" stroke="grey" stroke-width="2" points="910.67,-178.99 900.16,-177.67 907.55,-185.26 910.67,-178.99"/>
</g>
<!-- 16 -->
<g id="node17" class="node">
<title>16</title>
<path fill="none" stroke="#d6d856" stroke-width="2" d="M1092.5,-540C1092.5,-540 1015.5,-540 1015.5,-540 1009.5,-540 1003.5,-534 1003.5,-528 1003.5,-528 1003.5,-516 1003.5,-516 1003.5,-510 1009.5,-504 1015.5,-504 1015.5,-504 1092.5,-504 1092.5,-504 1098.5,-504 1104.5,-510 1104.5,-516 1104.5,-516 1104.5,-528 1104.5,-528 1104.5,-534 1098.5,-540 1092.5,-540"/>
<text text-anchor="middle" x="1054" y="-519.5" font-family="sans" font-size="10.00">spatial_distances</text>
</g>
<!-- 16&#45;&gt;15 -->
<g id="edge35" class="edge">
<title>16&#45;&gt;15</title>
<path fill="none" stroke="grey" stroke-width="2" d="M1072.42,-503.34C1080.49,-495.6 1090.13,-486.36 1099.04,-477.81"/>
<polygon fill="grey" stroke="grey" stroke-width="2" points="1101.35,-480.44 1106.15,-471 1096.51,-475.39 1101.35,-480.44"/>
</g>
<!-- 17&#45;&gt;15 -->
<g id="edge34" class="edge">
<title>17&#45;&gt;15</title>
<path fill="none" stroke="grey" stroke-width="2" d="M1153.17,-503.34C1149.67,-496.34 1145.56,-488.12 1141.64,-480.28"/>
<polygon fill="grey" stroke="grey" stroke-width="2" points="1144.91,-478.99 1137.3,-471.61 1138.65,-482.12 1144.91,-478.99"/>
</g>
<!-- 20 -->
<g id="node21" class="node">
<title>20</title>
<path fill="none" stroke="#5692d8" stroke-width="2" d="M1113,-396C1113,-396 1015,-396 1015,-396 1009,-396 1003,-390 1003,-384 1003,-384 1003,-372 1003,-372 1003,-366 1009,-360 1015,-360 1015,-360 1113,-360 1113,-360 1119,-360 1125,-366 1125,-372 1125,-372 1125,-384 1125,-384 1125,-390 1119,-396 1113,-396"/>
<text text-anchor="middle" x="1064" y="-375.5" font-family="sans" font-size="10.00">analyze_prob_escape</text>
</g>
<!-- 17&#45;&gt;20 -->
<g id="edge61" class="edge">
<title>17&#45;&gt;20</title>
<path fill="none" stroke="grey" stroke-width="2" d="M1171.76,-503.18C1180.75,-484.11 1190.78,-453.69 1177,-432 1167.65,-417.28 1153.01,-406.58 1137.33,-398.83"/>
<polygon fill="grey" stroke="grey" stroke-width="2" points="1139.12,-395.79 1128.56,-394.92 1136.27,-402.18 1139.12,-395.79"/>
</g>
<!-- 18&#45;&gt;0 -->
<g id="edge5" class="edge">
<title>18&#45;&gt;0</title>
<path fill="none" stroke="grey" stroke-width="2" d="M1186,-71.34C1186,-64.75 1186,-57.08 1186,-49.67"/>
<polygon fill="grey" stroke="grey" stroke-width="2" points="1189.5,-49.93 1186,-39.93 1182.5,-49.93 1189.5,-49.93"/>
</g>
<!-- 19&#45;&gt;18 -->
<g id="edge49" class="edge">
<title>19&#45;&gt;18</title>
<path fill="none" stroke="grey" stroke-width="2" d="M736.02,-359.01C737.13,-314.24 746.86,-197.57 816,-144 864.48,-106.44 1043.05,-95.45 1133.2,-92.27"/>
<polygon fill="grey" stroke="grey" stroke-width="2" points="1133.19,-95.78 1143.07,-91.95 1132.96,-88.78 1133.19,-95.78"/>
</g>
<!-- 19&#45;&gt;22 -->
<g id="edge70" class="edge">
<title>19&#45;&gt;22</title>
<path fill="none" stroke="grey" stroke-width="2" d="M795.54,-367.92C885.66,-354.18 1055.32,-328.3 1141.64,-315.14"/>
<polygon fill="grey" stroke="grey" stroke-width="2" points="1142.15,-318.6 1151.51,-313.63 1141.1,-311.68 1142.15,-318.6"/>
</g>
<!-- 19&#45;&gt;26 -->
<g id="edge87" class="edge">
<title>19&#45;&gt;26</title>
<path fill="none" stroke="grey" stroke-width="2" d="M744.43,-359.38C749.33,-349.09 755.58,-335.84 761,-324 782.87,-276.24 779.47,-259.44 809,-216 815.23,-206.83 823.15,-197.84 830.91,-189.94"/>
<polygon fill="grey" stroke="grey" stroke-width="2" points="833.29,-192.51 838.02,-183.02 828.41,-187.49 833.29,-192.51"/>
</g>
<!-- 20&#45;&gt;18 -->
<g id="edge59" class="edge">
<title>20&#45;&gt;18</title>
<path fill="none" stroke="grey" stroke-width="2" d="M1071.63,-359.11C1092.04,-311.26 1148.05,-179.96 1173.33,-120.7"/>
<polygon fill="grey" stroke="grey" stroke-width="2" points="1176.48,-122.24 1177.18,-111.67 1170.04,-119.49 1176.48,-122.24"/>
</g>
<!-- 20&#45;&gt;22 -->
<g id="edge71" class="edge">
<title>20&#45;&gt;22</title>
<path fill="none" stroke="grey" stroke-width="2" d="M1097.4,-359.15C1113.56,-350.52 1133.2,-340.02 1150.61,-330.72"/>
<polygon fill="grey" stroke="grey" stroke-width="2" points="1151.83,-334.04 1159,-326.24 1148.53,-327.87 1151.83,-334.04"/>
</g>
<!-- 20&#45;&gt;26 -->
<g id="edge89" class="edge">
<title>20&#45;&gt;26</title>
<path fill="none" stroke="grey" stroke-width="2" d="M1060.18,-359.01C1052.35,-326.31 1031.54,-256.73 989,-216 967.13,-195.06 935.81,-181.9 909.63,-173.93"/>
<polygon fill="grey" stroke="grey" stroke-width="2" points="910.74,-170.6 900.17,-171.24 908.83,-177.34 910.74,-170.6"/>
</g>
<!-- 21 -->
<g id="node22" class="node">
<title>21</title>
<path fill="none" stroke="#d86656" stroke-width="2" d="M1204.5,-252C1204.5,-252 1167.5,-252 1167.5,-252 1161.5,-252 1155.5,-246 1155.5,-240 1155.5,-240 1155.5,-228 1155.5,-228 1155.5,-222 1161.5,-216 1167.5,-216 1167.5,-216 1204.5,-216 1204.5,-216 1210.5,-216 1216.5,-222 1216.5,-228 1216.5,-228 1216.5,-240 1216.5,-240 1216.5,-246 1210.5,-252 1204.5,-252"/>
<text text-anchor="middle" x="1186" y="-231.5" font-family="sans" font-size="10.00">subindex</text>
</g>
<!-- 21&#45;&gt;18 -->
<g id="edge41" class="edge">
<title>21&#45;&gt;18</title>
<path fill="none" stroke="grey" stroke-width="2" d="M1186,-215.02C1186,-191.54 1186,-150.11 1186,-121.64"/>
<polygon fill="grey" stroke="grey" stroke-width="2" points="1189.5,-121.87 1186,-111.87 1182.5,-121.87 1189.5,-121.87"/>
</g>
<!-- 21&#45;&gt;26 -->
<g id="edge82" class="edge">
<title>21&#45;&gt;26</title>
<path fill="none" stroke="grey" stroke-width="2" d="M1154.54,-226.22C1097.67,-213.98 977.4,-188.07 909.79,-173.51"/>
<polygon fill="grey" stroke="grey" stroke-width="2" points="910.87,-170.16 900.36,-171.48 909.4,-177 910.87,-170.16"/>
</g>
<!-- 22&#45;&gt;18 -->
<g id="edge53" class="edge">
<title>22&#45;&gt;18</title>
<path fill="none" stroke="grey" stroke-width="2" d="M1235.45,-294.02C1269.88,-283.77 1315.41,-267.71 1326,-252 1334.94,-238.73 1332.54,-230.6 1326,-216 1306.38,-172.18 1262.97,-137.39 1229.65,-115.76"/>
<polygon fill="grey" stroke="grey" stroke-width="2" points="1231.68,-112.9 1221.35,-110.54 1227.95,-118.83 1231.68,-112.9"/>
</g>
<!-- 22&#45;&gt;21 -->
<g id="edge62" class="edge">
<title>22&#45;&gt;21</title>
<path fill="none" stroke="grey" stroke-width="2" d="M1192.73,-287.34C1191.88,-280.75 1190.9,-273.08 1189.94,-265.67"/>
<polygon fill="grey" stroke="grey" stroke-width="2" points="1193.43,-265.38 1188.69,-255.9 1186.49,-266.27 1193.43,-265.38"/>
</g>
<!-- 22&#45;&gt;26 -->
<g id="edge86" class="edge">
<title>22&#45;&gt;26</title>
<path fill="none" stroke="grey" stroke-width="2" d="M1154.7,-289.88C1130.86,-280.29 1100.45,-266.9 1075,-252 1051.99,-238.53 1050.7,-228.23 1027,-216 989.57,-196.69 943.76,-182.71 909.75,-173.97"/>
<polygon fill="grey" stroke="grey" stroke-width="2" points="910.82,-170.63 900.27,-171.61 909.13,-177.42 910.82,-170.63"/>
</g>
<!-- 23&#45;&gt;18 -->
<g id="edge56" class="edge">
<title>23&#45;&gt;18</title>
<path fill="none" stroke="grey" stroke-width="2" d="M448.6,-215.16C477.91,-194.07 530.26,-159.86 581,-144 683.54,-111.95 1006.21,-97.34 1133.56,-92.72"/>
<polygon fill="grey" stroke="grey" stroke-width="2" points="1133.44,-96.22 1143.31,-92.37 1133.19,-89.23 1133.44,-96.22"/>
</g>
<!-- 23&#45;&gt;26 -->
<g id="edge77" class="edge">
<title>23&#45;&gt;26</title>
<path fill="none" stroke="grey" stroke-width="2" d="M491.29,-218.58C495.93,-217.68 500.53,-216.81 505,-216 614.33,-196.26 743.51,-178.38 812.23,-169.29"/>
<polygon fill="grey" stroke="grey" stroke-width="2" points="812.29,-172.81 821.75,-168.04 811.38,-165.87 812.29,-172.81"/>
</g>
<!-- 24 -->
<g id="node25" class="node">
<title>24</title>
<path fill="none" stroke="#d87d56" stroke-width="2" d="M1305,-252C1305,-252 1247,-252 1247,-252 1241,-252 1235,-246 1235,-240 1235,-240 1235,-228 1235,-228 1235,-222 1241,-216 1247,-216 1247,-216 1305,-216 1305,-216 1311,-216 1317,-222 1317,-228 1317,-228 1317,-240 1317,-240 1317,-246 1311,-252 1305,-252"/>
<text text-anchor="middle" x="1276" y="-231.5" font-family="sans" font-size="10.00">make_graphs</text>
</g>
<!-- 24&#45;&gt;18 -->
<g id="edge42" class="edge">
<title>24&#45;&gt;18</title>
<path fill="none" stroke="grey" stroke-width="2" d="M1264.6,-215.02C1249.39,-191.01 1222.26,-148.21 1204.2,-119.72"/>
<polygon fill="grey" stroke="grey" stroke-width="2" points="1207.24,-117.97 1198.93,-111.4 1201.32,-121.72 1207.24,-117.97"/>
</g>
<!-- 24&#45;&gt;26 -->
<g id="edge83" class="edge">
<title>24&#45;&gt;26</title>
<path fill="none" stroke="grey" stroke-width="2" d="M1234.15,-218.15C1231.41,-217.37 1228.67,-216.64 1226,-216 1114.73,-189.24 980.91,-174.01 910.27,-167.26"/>
<polygon fill="grey" stroke="grey" stroke-width="2" points="910.72,-163.78 900.44,-166.34 910.07,-170.75 910.72,-163.78"/>
</g>
<!-- 25&#45;&gt;18 -->
<g id="edge52" class="edge">
<title>25&#45;&gt;18</title>
<path fill="none" stroke="grey" stroke-width="2" d="M299.24,-215.11C345.96,-194.14 427.93,-160.22 502,-144 733.11,-93.4 1017.38,-89.41 1133.17,-90.17"/>
<polygon fill="grey" stroke="grey" stroke-width="2" points="1133.06,-93.67 1143.09,-90.25 1133.12,-86.67 1133.06,-93.67"/>
</g>
<!-- 25&#45;&gt;26 -->
<g id="edge91" class="edge">
<title>25&#45;&gt;26</title>
<path fill="none" stroke="grey" stroke-width="2" d="M342.43,-217.16C344.98,-216.75 347.51,-216.37 350,-216 518.67,-191.19 720.34,-173.88 811.7,-166.7"/>
<polygon fill="grey" stroke="grey" stroke-width="2" points="811.91,-170.2 821.6,-165.93 811.36,-163.22 811.91,-170.2"/>
</g>
<!-- 26&#45;&gt;18 -->
<g id="edge47" class="edge">
<title>26&#45;&gt;18</title>
<path fill="none" stroke="grey" stroke-width="2" d="M897.34,-153.17C954.87,-140.78 1067.19,-116.59 1133.49,-102.31"/>
<polygon fill="grey" stroke="grey" stroke-width="2" points="1134.11,-105.76 1143.15,-100.23 1132.63,-98.91 1134.11,-105.76"/>
</g>
</g>
</svg>
