<?xml version="1.0" encoding="UTF-8" standalone="no"?>
<!DOCTYPE svg PUBLIC "-//W3C//DTD SVG 1.1//EN"
 "http://www.w3.org/Graphics/SVG/1.1/DTD/svg11.dtd">
<!-- Generated by graphviz version 6.0.1 (20220911.2005)
 -->
<!-- Title: snakemake_dag Pages: 1 -->
<svg width="1640pt" height="1196pt"
 viewBox="0.00 0.00 1640.00 1196.00" xmlns="http://www.w3.org/2000/svg" xmlns:xlink="http://www.w3.org/1999/xlink">
<g id="graph0" class="graph" transform="scale(1 1) rotate(0) translate(4 1192)">
<title>snakemake_dag</title>
<polygon fill="white" stroke="none" points="-4,4 -4,-1192 1636,-1192 1636,4 -4,4"/>
<!-- 0 -->
<g id="node1" class="node">
<title>0</title>
<path fill="none" stroke="#b6d856" stroke-width="2" d="M1533,-36C1533,-36 1503,-36 1503,-36 1497,-36 1491,-30 1491,-24 1491,-24 1491,-12 1491,-12 1491,-6 1497,0 1503,0 1503,0 1533,0 1533,0 1539,0 1545,-6 1545,-12 1545,-12 1545,-24 1545,-24 1545,-30 1539,-36 1533,-36"/>
<text text-anchor="middle" x="1518" y="-15.5" font-family="sans" font-size="10.00">all</text>
</g>
<!-- 1 -->
<g id="node2" class="node">
<title>1</title>
<path fill="none" stroke="#d89556" stroke-width="2" d="M943.5,-828C943.5,-828 878.5,-828 878.5,-828 872.5,-828 866.5,-822 866.5,-816 866.5,-816 866.5,-804 866.5,-804 866.5,-798 872.5,-792 878.5,-792 878.5,-792 943.5,-792 943.5,-792 949.5,-792 955.5,-798 955.5,-804 955.5,-804 955.5,-816 955.5,-816 955.5,-822 949.5,-828 943.5,-828"/>
<text text-anchor="middle" x="911" y="-807.5" font-family="sans" font-size="10.00">variant_counts</text>
</g>
<!-- 1&#45;&gt;0 -->
<g id="edge2" class="edge">
<title>1&#45;&gt;0</title>
<path fill="none" stroke="grey" stroke-width="2" d="M955.56,-809.75C1112.75,-811.22 1632,-805.58 1632,-667 1632,-667 1632,-667 1632,-161 1632,-110 1586.73,-66.88 1553.24,-41.97"/>
<polygon fill="grey" stroke="grey" stroke-width="2" points="1555.17,-39.05 1545.02,-36.04 1551.08,-44.73 1555.17,-39.05"/>
</g>
<!-- 9 -->
<g id="node10" class="node">
<title>9</title>
<path fill="none" stroke="#566bd8" stroke-width="2" d="M1194,-756C1194,-756 1086,-756 1086,-756 1080,-756 1074,-750 1074,-744 1074,-744 1074,-732 1074,-732 1074,-726 1080,-720 1086,-720 1086,-720 1194,-720 1194,-720 1200,-720 1206,-726 1206,-732 1206,-732 1206,-744 1206,-744 1206,-750 1200,-756 1194,-756"/>
<text text-anchor="middle" x="1140" y="-735.5" font-family="sans" font-size="10.00">analyze_variant_counts</text>
</g>
<!-- 1&#45;&gt;9 -->
<g id="edge17" class="edge">
<title>1&#45;&gt;9</title>
<path fill="none" stroke="grey" stroke-width="2" d="M955.7,-795.34C989.39,-785.04 1036.13,-770.75 1074.1,-759.14"/>
<polygon fill="grey" stroke="grey" stroke-width="2" points="1075.52,-762.37 1084.06,-756.1 1073.47,-755.68 1075.52,-762.37"/>
</g>
<!-- 13 -->
<g id="node14" class="node">
<title>13</title>
<path fill="none" stroke="#56b9d8" stroke-width="2" d="M954,-612C954,-612 904,-612 904,-612 898,-612 892,-606 892,-600 892,-600 892,-588 892,-588 892,-582 898,-576 904,-576 904,-576 954,-576 954,-576 960,-576 966,-582 966,-588 966,-588 966,-600 966,-600 966,-606 960,-612 954,-612"/>
<text text-anchor="middle" x="929" y="-591.5" font-family="sans" font-size="10.00">func_scores</text>
</g>
<!-- 1&#45;&gt;13 -->
<g id="edge25" class="edge">
<title>1&#45;&gt;13</title>
<path fill="none" stroke="grey" stroke-width="2" d="M912.44,-791.85C915.56,-754.83 922.93,-667.18 926.7,-622.39"/>
<polygon fill="grey" stroke="grey" stroke-width="2" points="930.2,-622.49 927.55,-612.23 923.22,-621.9 930.2,-622.49"/>
</g>
<!-- 15 -->
<g id="node16" class="node">
<title>15</title>
<path fill="none" stroke="#ced856" stroke-width="2" d="M624,-612C624,-612 570,-612 570,-612 564,-612 558,-606 558,-600 558,-600 558,-588 558,-588 558,-582 564,-576 570,-576 570,-576 624,-576 624,-576 630,-576 636,-582 636,-588 636,-588 636,-600 636,-600 636,-606 630,-612 624,-612"/>
<text text-anchor="middle" x="597" y="-591.5" font-family="sans" font-size="10.00">prob_escape</text>
</g>
<!-- 1&#45;&gt;15 -->
<g id="edge30" class="edge">
<title>1&#45;&gt;15</title>
<path fill="none" stroke="grey" stroke-width="2" d="M885.83,-791.85C829.68,-753.58 694.12,-661.19 630.73,-617.99"/>
<polygon fill="grey" stroke="grey" stroke-width="2" points="632.52,-614.97 622.28,-612.23 628.58,-620.76 632.52,-614.97"/>
</g>
<!-- 16 -->
<g id="node17" class="node">
<title>16</title>
<path fill="none" stroke="#56d8a9" stroke-width="2" d="M839,-108C839,-108 785,-108 785,-108 779,-108 773,-102 773,-96 773,-96 773,-84 773,-84 773,-78 779,-72 785,-72 785,-72 839,-72 839,-72 845,-72 851,-78 851,-84 851,-84 851,-96 851,-96 851,-102 845,-108 839,-108"/>
<text text-anchor="middle" x="812" y="-87.5" font-family="sans" font-size="10.00">sphinx_build</text>
</g>
<!-- 1&#45;&gt;16 -->
<g id="edge39" class="edge">
<title>1&#45;&gt;16</title>
<path fill="none" stroke="grey" stroke-width="2" d="M940.73,-791.81C1047.32,-730.17 1404,-523.84 1404,-523 1404,-523 1404,-523 1404,-377 1404,-265.5 1406.93,-200.83 1311,-144 1235.85,-99.48 972.25,-92.19 861.54,-91.12"/>
<polygon fill="grey" stroke="grey" stroke-width="2" points="861.35,-87.61 851.32,-91.03 861.29,-94.61 861.35,-87.61"/>
</g>
<!-- 24 -->
<g id="node25" class="node">
<title>24</title>
<path fill="none" stroke="#56a9d8" stroke-width="2" d="M835.5,-180C835.5,-180 788.5,-180 788.5,-180 782.5,-180 776.5,-174 776.5,-168 776.5,-168 776.5,-156 776.5,-156 776.5,-150 782.5,-144 788.5,-144 788.5,-144 835.5,-144 835.5,-144 841.5,-144 847.5,-150 847.5,-156 847.5,-156 847.5,-168 847.5,-168 847.5,-174 841.5,-180 835.5,-180"/>
<text text-anchor="middle" x="812" y="-159.5" font-family="sans" font-size="10.00">docs_index</text>
</g>
<!-- 1&#45;&gt;24 -->
<g id="edge72" class="edge">
<title>1&#45;&gt;24</title>
<path fill="none" stroke="grey" stroke-width="2" d="M908.55,-791.8C894.77,-695.12 827.49,-223.32 826,-216 824.27,-207.47 821.99,-198.28 819.77,-189.98"/>
<polygon fill="grey" stroke="grey" stroke-width="2" points="823.07,-188.78 817.05,-180.07 816.32,-190.64 823.07,-188.78"/>
</g>
<!-- 2 -->
<g id="node3" class="node">
<title>2</title>
<path fill="none" stroke="#d8cb56" stroke-width="2" d="M981.5,-900C981.5,-900 912.5,-900 912.5,-900 906.5,-900 900.5,-894 900.5,-888 900.5,-888 900.5,-876 900.5,-876 900.5,-870 906.5,-864 912.5,-864 912.5,-864 981.5,-864 981.5,-864 987.5,-864 993.5,-870 993.5,-876 993.5,-876 993.5,-888 993.5,-888 993.5,-894 987.5,-900 981.5,-900"/>
<text text-anchor="middle" x="947" y="-879.5" font-family="sans" font-size="10.00">count_barcodes</text>
</g>
<!-- 2&#45;&gt;1 -->
<g id="edge8" class="edge">
<title>2&#45;&gt;1</title>
<path fill="none" stroke="grey" stroke-width="2" d="M938.1,-863.7C934,-855.73 929.05,-846.1 924.51,-837.26"/>
<polygon fill="grey" stroke="grey" stroke-width="2" points="927.48,-835.4 919.8,-828.1 921.26,-838.6 927.48,-835.4"/>
</g>
<!-- 2&#45;&gt;9 -->
<g id="edge19" class="edge">
<title>2&#45;&gt;9</title>
<path fill="none" stroke="grey" stroke-width="2" d="M954.97,-863.66C964.85,-843.86 983.45,-811.69 1008,-792 1025.13,-778.26 1046.29,-767.68 1066.6,-759.71"/>
<polygon fill="grey" stroke="grey" stroke-width="2" points="1068.04,-762.9 1076.17,-756.11 1065.58,-756.35 1068.04,-762.9"/>
</g>
<!-- 3 -->
<g id="node4" class="node">
<title>3</title>
<path fill="none" stroke="#56d892" stroke-width="2" d="M781,-972C781,-972 685,-972 685,-972 679,-972 673,-966 673,-960 673,-960 673,-948 673,-948 673,-942 679,-936 685,-936 685,-936 781,-936 781,-936 787,-936 793,-942 793,-948 793,-948 793,-960 793,-960 793,-966 787,-972 781,-972"/>
<text text-anchor="middle" x="733" y="-951.5" font-family="sans" font-size="10.00">build_codon_variants</text>
</g>
<!-- 3&#45;&gt;1 -->
<g id="edge6" class="edge">
<title>3&#45;&gt;1</title>
<path fill="none" stroke="grey" stroke-width="2" d="M754.47,-935.87C786.14,-910.6 845.5,-863.25 881.32,-834.68"/>
<polygon fill="grey" stroke="grey" stroke-width="2" points="883.82,-837.16 889.45,-828.19 879.45,-831.69 883.82,-837.16"/>
</g>
<!-- 3&#45;&gt;2 -->
<g id="edge9" class="edge">
<title>3&#45;&gt;2</title>
<path fill="none" stroke="grey" stroke-width="2" d="M785.08,-935.97C816.92,-925.55 857.66,-912.22 890.32,-901.54"/>
<polygon fill="grey" stroke="grey" stroke-width="2" points="891.75,-904.75 900.17,-898.32 889.58,-898.1 891.75,-904.75"/>
</g>
<!-- 3&#45;&gt;9 -->
<g id="edge16" class="edge">
<title>3&#45;&gt;9</title>
<path fill="none" stroke="grey" stroke-width="2" d="M793.05,-952.4C850.56,-949.36 937.97,-938.08 1003,-900 1032.57,-882.68 1091.88,-804.98 1121.83,-764.19"/>
<polygon fill="grey" stroke="grey" stroke-width="2" points="1124.68,-766.22 1127.75,-756.08 1119.02,-762.09 1124.68,-766.22"/>
</g>
<!-- 3&#45;&gt;13 -->
<g id="edge24" class="edge">
<title>3&#45;&gt;13</title>
<path fill="none" stroke="grey" stroke-width="2" d="M738.06,-935.68C745.36,-909.11 758,-856.56 758,-811 758,-811 758,-811 758,-737 758,-672.11 831.79,-631.2 882.42,-610.76"/>
<polygon fill="grey" stroke="grey" stroke-width="2" points="883.85,-613.96 891.9,-607.06 881.31,-607.44 883.85,-613.96"/>
</g>
<!-- 3&#45;&gt;15 -->
<g id="edge29" class="edge">
<title>3&#45;&gt;15</title>
<path fill="none" stroke="grey" stroke-width="2" d="M706.22,-935.91C672.8,-912.25 620,-866.14 620,-811 620,-811 620,-811 620,-737 620,-696.7 610.86,-650.78 604.1,-622.34"/>
<polygon fill="grey" stroke="grey" stroke-width="2" points="607.43,-621.22 601.65,-612.34 600.63,-622.89 607.43,-621.22"/>
</g>
<!-- 3&#45;&gt;16 -->
<g id="edge37" class="edge">
<title>3&#45;&gt;16</title>
<path fill="none" stroke="grey" stroke-width="2" d="M672.95,-948.51C510.77,-932.82 76,-865.51 76,-595 76,-595 76,-595 76,-233 76,-152.02 157.66,-168.01 235,-144 333.14,-113.54 642.11,-97.94 762.91,-92.89"/>
<polygon fill="grey" stroke="grey" stroke-width="2" points="763.13,-96.38 772.98,-92.47 762.84,-89.38 763.13,-96.38"/>
</g>
<!-- 20 -->
<g id="node21" class="node">
<title>20</title>
<path fill="none" stroke="#56d8d0" stroke-width="2" d="M401.5,-324C401.5,-324 346.5,-324 346.5,-324 340.5,-324 334.5,-318 334.5,-312 334.5,-312 334.5,-300 334.5,-300 334.5,-294 340.5,-288 346.5,-288 346.5,-288 401.5,-288 401.5,-288 407.5,-288 413.5,-294 413.5,-300 413.5,-300 413.5,-312 413.5,-312 413.5,-318 407.5,-324 401.5,-324"/>
<text text-anchor="middle" x="374" y="-303.5" font-family="sans" font-size="10.00">make_nblink</text>
</g>
<!-- 3&#45;&gt;20 -->
<g id="edge61" class="edge">
<title>3&#45;&gt;20</title>
<path fill="none" stroke="grey" stroke-width="2" d="M682.51,-935.94C609.21,-907.59 482,-843.36 482,-739 482,-739 482,-739 482,-593 482,-527.04 428.9,-528.22 402,-468 388.45,-437.68 387.96,-428.67 382,-396 378.27,-375.52 376.25,-352.07 375.18,-334.38"/>
<polygon fill="grey" stroke="grey" stroke-width="2" points="378.66,-333.98 374.62,-324.19 371.67,-334.36 378.66,-333.98"/>
</g>
<!-- 3&#45;&gt;24 -->
<g id="edge70" class="edge">
<title>3&#45;&gt;24</title>
<path fill="none" stroke="grey" stroke-width="2" d="M730.43,-936C726.64,-909.4 720,-856.3 720,-811 720,-811 720,-811 720,-737 720,-572.72 812,-543.28 812,-379 812,-379 812,-379 812,-305 812,-265 812,-218.65 812,-190.08"/>
<polygon fill="grey" stroke="grey" stroke-width="2" points="815.5,-190.05 812,-180.05 808.5,-190.05 815.5,-190.05"/>
</g>
<!-- 4 -->
<g id="node5" class="node">
<title>4</title>
<path fill="none" stroke="#d85656" stroke-width="2" d="M423,-1044C423,-1044 313,-1044 313,-1044 307,-1044 301,-1038 301,-1032 301,-1032 301,-1020 301,-1020 301,-1014 307,-1008 313,-1008 313,-1008 423,-1008 423,-1008 429,-1008 435,-1014 435,-1020 435,-1020 435,-1032 435,-1032 435,-1038 429,-1044 423,-1044"/>
<text text-anchor="middle" x="368" y="-1023.5" font-family="sans" font-size="10.00">build_pacbio_consensus</text>
</g>
<!-- 4&#45;&gt;3 -->
<g id="edge10" class="edge">
<title>4&#45;&gt;3</title>
<path fill="none" stroke="grey" stroke-width="2" d="M435.37,-1012.08C500.13,-999.66 597.56,-980.97 663.14,-968.4"/>
<polygon fill="grey" stroke="grey" stroke-width="2" points="663.82,-971.83 672.98,-966.51 662.5,-964.96 663.82,-971.83"/>
</g>
<!-- 4&#45;&gt;16 -->
<g id="edge33" class="edge">
<title>4&#45;&gt;16</title>
<path fill="none" stroke="grey" stroke-width="2" d="M340.43,-1007.85C261.12,-956.15 38,-793.09 38,-595 38,-595 38,-595 38,-233 38,-185.54 56.05,-167.98 97,-144 154.16,-110.53 610.59,-96.08 762.8,-92.16"/>
<polygon fill="grey" stroke="grey" stroke-width="2" points="762.89,-95.66 772.8,-91.9 762.71,-88.66 762.89,-95.66"/>
</g>
<!-- 4&#45;&gt;20 -->
<g id="edge54" class="edge">
<title>4&#45;&gt;20</title>
<path fill="none" stroke="grey" stroke-width="2" d="M360.31,-1007.91C349.21,-981.62 330,-929.45 330,-883 330,-883 330,-883 330,-449 330,-407.21 347.6,-361.48 360.54,-333.51"/>
<polygon fill="grey" stroke="grey" stroke-width="2" points="363.74,-334.93 364.88,-324.39 357.42,-331.92 363.74,-334.93"/>
</g>
<!-- 4&#45;&gt;24 -->
<g id="edge66" class="edge">
<title>4&#45;&gt;24</title>
<path fill="none" stroke="grey" stroke-width="2" d="M375.69,-1007.91C386.79,-981.62 406,-929.45 406,-883 406,-883 406,-883 406,-593 406,-416.82 642.62,-535.68 750,-396 774.99,-363.49 798.05,-244.25 807.49,-190.09"/>
<polygon fill="grey" stroke="grey" stroke-width="2" points="810.95,-190.62 809.19,-180.17 804.05,-189.43 810.95,-190.62"/>
</g>
<!-- 5 -->
<g id="node6" class="node">
<title>5</title>
<path fill="none" stroke="#56d86b" stroke-width="2" d="M181.5,-1116C181.5,-1116 92.5,-1116 92.5,-1116 86.5,-1116 80.5,-1110 80.5,-1104 80.5,-1104 80.5,-1092 80.5,-1092 80.5,-1086 86.5,-1080 92.5,-1080 92.5,-1080 181.5,-1080 181.5,-1080 187.5,-1080 193.5,-1086 193.5,-1092 193.5,-1092 193.5,-1104 193.5,-1104 193.5,-1110 187.5,-1116 181.5,-1116"/>
<text text-anchor="middle" x="137" y="-1095.5" font-family="sans" font-size="10.00">analyze_pacbio_ccs</text>
</g>
<!-- 5&#45;&gt;4 -->
<g id="edge13" class="edge">
<title>5&#45;&gt;4</title>
<path fill="none" stroke="grey" stroke-width="2" d="M193.21,-1079.97C225.91,-1070.06 267.3,-1057.51 301.6,-1047.12"/>
<polygon fill="grey" stroke="grey" stroke-width="2" points="302.98,-1050.36 311.53,-1044.11 300.95,-1043.66 302.98,-1050.36"/>
</g>
<!-- 5&#45;&gt;16 -->
<g id="edge42" class="edge">
<title>5&#45;&gt;16</title>
<path fill="none" stroke="grey" stroke-width="2" d="M101.72,-1079.81C61.13,-1057.26 0,-1013.58 0,-955 0,-955 0,-955 0,-233 0,-187.85 10.95,-168.31 49,-144 108.93,-105.72 602.76,-94.39 762.42,-91.72"/>
<polygon fill="grey" stroke="grey" stroke-width="2" points="762.94,-95.21 772.88,-91.54 762.83,-88.21 762.94,-95.21"/>
</g>
<!-- 5&#45;&gt;20 -->
<g id="edge57" class="edge">
<title>5&#45;&gt;20</title>
<path fill="none" stroke="grey" stroke-width="2" d="M132.35,-1079.66C125.62,-1053.05 114,-1000.45 114,-955 114,-955 114,-955 114,-449 114,-354.32 248.45,-322.38 323.98,-311.91"/>
<polygon fill="grey" stroke="grey" stroke-width="2" points="324.77,-315.33 334.23,-310.57 323.86,-308.39 324.77,-315.33"/>
</g>
<!-- 5&#45;&gt;24 -->
<g id="edge75" class="edge">
<title>5&#45;&gt;24</title>
<path fill="none" stroke="grey" stroke-width="2" d="M139.87,-1079.95C153.93,-1001.61 222.84,-672.92 414,-504 452.86,-469.66 476.04,-485.11 525,-468 525,-468 717,-396 717,-396 724.87,-388.35 778.88,-249.24 801.78,-189.69"/>
<polygon fill="grey" stroke="grey" stroke-width="2" points="805.11,-190.79 805.42,-180.2 798.57,-188.28 805.11,-190.79"/>
</g>
<!-- 6 -->
<g id="node7" class="node">
<title>6</title>
<path fill="none" stroke="#d8bc56" stroke-width="2" d="M190.5,-1188C190.5,-1188 83.5,-1188 83.5,-1188 77.5,-1188 71.5,-1182 71.5,-1176 71.5,-1176 71.5,-1164 71.5,-1164 71.5,-1158 77.5,-1152 83.5,-1152 83.5,-1152 190.5,-1152 190.5,-1152 196.5,-1152 202.5,-1158 202.5,-1164 202.5,-1164 202.5,-1176 202.5,-1176 202.5,-1182 196.5,-1188 190.5,-1188"/>
<text text-anchor="middle" x="137" y="-1167.5" font-family="sans" font-size="10.00">align_parse_PacBio_ccs</text>
</g>
<!-- 6&#45;&gt;5 -->
<g id="edge14" class="edge">
<title>6&#45;&gt;5</title>
<path fill="none" stroke="grey" stroke-width="2" d="M137,-1151.7C137,-1143.98 137,-1134.71 137,-1126.11"/>
<polygon fill="grey" stroke="grey" stroke-width="2" points="140.5,-1126.1 137,-1116.1 133.5,-1126.1 140.5,-1126.1"/>
</g>
<!-- 7 -->
<g id="node8" class="node">
<title>7</title>
<path fill="none" stroke="#8fd856" stroke-width="2" d="M981,-1116C981,-1116 913,-1116 913,-1116 907,-1116 901,-1110 901,-1104 901,-1104 901,-1092 901,-1092 901,-1086 907,-1080 913,-1080 913,-1080 981,-1080 981,-1080 987,-1080 993,-1086 993,-1092 993,-1092 993,-1104 993,-1104 993,-1110 987,-1116 981,-1116"/>
<text text-anchor="middle" x="947" y="-1095.5" font-family="sans" font-size="10.00">gene_sequence</text>
</g>
<!-- 7&#45;&gt;1 -->
<g id="edge7" class="edge">
<title>7&#45;&gt;1</title>
<path fill="none" stroke="grey" stroke-width="2" d="M959.04,-1079.98C985.87,-1039.77 1045.05,-936.76 1003,-864 994.44,-849.2 980.01,-838.16 965.08,-830.11"/>
<polygon fill="grey" stroke="grey" stroke-width="2" points="966.29,-826.8 955.77,-825.48 963.17,-833.07 966.29,-826.8"/>
</g>
<!-- 7&#45;&gt;3 -->
<g id="edge11" class="edge">
<title>7&#45;&gt;3</title>
<path fill="none" stroke="grey" stroke-width="2" d="M900.98,-1082.85C875.82,-1073.9 844.81,-1060.83 820,-1044 793.71,-1026.17 768.93,-999.47 752.59,-979.97"/>
<polygon fill="grey" stroke="grey" stroke-width="2" points="755.18,-977.6 746.12,-972.1 749.77,-982.04 755.18,-977.6"/>
</g>
<!-- 7&#45;&gt;4 -->
<g id="edge12" class="edge">
<title>7&#45;&gt;4</title>
<path fill="none" stroke="grey" stroke-width="2" d="M900.97,-1091.51C820.74,-1081.94 650.1,-1061.54 506,-1044 486.22,-1041.59 464.84,-1038.97 444.96,-1036.52"/>
<polygon fill="grey" stroke="grey" stroke-width="2" points="445.38,-1033.05 435.03,-1035.3 444.52,-1039.99 445.38,-1033.05"/>
</g>
<!-- 7&#45;&gt;9 -->
<g id="edge18" class="edge">
<title>7&#45;&gt;9</title>
<path fill="none" stroke="grey" stroke-width="2" d="M993.09,-1081.62C1044.04,-1061.36 1119,-1020.44 1119,-955 1119,-955 1119,-955 1119,-881 1119,-840.78 1127.35,-794.84 1133.51,-766.37"/>
<polygon fill="grey" stroke="grey" stroke-width="2" points="1136.99,-766.89 1135.75,-756.37 1130.15,-765.36 1136.99,-766.89"/>
</g>
<!-- 7&#45;&gt;13 -->
<g id="edge27" class="edge">
<title>7&#45;&gt;13</title>
<path fill="none" stroke="grey" stroke-width="2" d="M920.22,-1079.91C886.8,-1056.25 834,-1010.14 834,-955 834,-955 834,-955 834,-737 834,-689.01 871.94,-644.96 899.87,-619.04"/>
<polygon fill="grey" stroke="grey" stroke-width="2" points="902.35,-621.52 907.44,-612.22 897.67,-616.31 902.35,-621.52"/>
</g>
<!-- 7&#45;&gt;15 -->
<g id="edge32" class="edge">
<title>7&#45;&gt;15</title>
<path fill="none" stroke="grey" stroke-width="2" d="M900.9,-1091.61C790.48,-1077.44 520,-1034.59 520,-955 520,-955 520,-955 520,-737 520,-691.51 550.92,-646.65 573.57,-619.89"/>
<polygon fill="grey" stroke="grey" stroke-width="2" points="576.36,-622.02 580.29,-612.19 571.08,-617.42 576.36,-622.02"/>
</g>
<!-- 7&#45;&gt;16 -->
<g id="edge49" class="edge">
<title>7&#45;&gt;16</title>
<path fill="none" stroke="grey" stroke-width="2" d="M993.02,-1096.11C1134.9,-1092.12 1556,-1070.55 1556,-955 1556,-955 1556,-955 1556,-233 1556,-181.27 1527.01,-167.65 1481,-144 1426.35,-115.91 1007.42,-98.12 861.74,-92.73"/>
<polygon fill="grey" stroke="grey" stroke-width="2" points="861.45,-89.22 851.33,-92.35 861.19,-96.22 861.45,-89.22"/>
</g>
<!-- 7&#45;&gt;24 -->
<g id="edge81" class="edge">
<title>7&#45;&gt;24</title>
<path fill="none" stroke="grey" stroke-width="2" d="M993.33,-1092.57C1109.52,-1080.18 1404,-1040.37 1404,-955 1404,-955 1404,-955 1404,-737 1404,-640.4 1366,-619.6 1366,-523 1366,-523 1366,-523 1366,-377 1366,-230.09 1188.16,-323.81 1060,-252 1036.42,-238.79 1035.37,-227.68 1011,-216 961.22,-192.14 899.09,-177.78 857.62,-170.14"/>
<polygon fill="grey" stroke="grey" stroke-width="2" points="858,-166.65 847.54,-168.34 856.77,-173.55 858,-166.65"/>
</g>
<!-- 8 -->
<g id="node9" class="node">
<title>8</title>
<path fill="none" stroke="#d87d56" stroke-width="2" d="M1099.5,-684C1099.5,-684 950.5,-684 950.5,-684 944.5,-684 938.5,-678 938.5,-672 938.5,-672 938.5,-660 938.5,-660 938.5,-654 944.5,-648 950.5,-648 950.5,-648 1099.5,-648 1099.5,-648 1105.5,-648 1111.5,-654 1111.5,-660 1111.5,-660 1111.5,-672 1111.5,-672 1111.5,-678 1105.5,-684 1099.5,-684"/>
<text text-anchor="middle" x="1025" y="-663.5" font-family="sans" font-size="10.00">check_adequate_variant_counts</text>
</g>
<!-- 8&#45;&gt;0 -->
<g id="edge1" class="edge">
<title>8&#45;&gt;0</title>
<path fill="none" stroke="grey" stroke-width="2" d="M1111.73,-651.49C1271.01,-621.23 1594,-532.11 1594,-307 1594,-307 1594,-307 1594,-161 1594,-115.64 1563.48,-70.75 1541.12,-43.95"/>
<polygon fill="grey" stroke="grey" stroke-width="2" points="1543.66,-41.53 1534.49,-36.23 1538.36,-46.09 1543.66,-41.53"/>
</g>
<!-- 8&#45;&gt;13 -->
<g id="edge26" class="edge">
<title>8&#45;&gt;13</title>
<path fill="none" stroke="grey" stroke-width="2" d="M1001.27,-647.7C989.06,-638.8 974.01,-627.82 960.82,-618.2"/>
<polygon fill="grey" stroke="grey" stroke-width="2" points="962.6,-615.17 952.46,-612.1 958.48,-620.82 962.6,-615.17"/>
</g>
<!-- 8&#45;&gt;15 -->
<g id="edge31" class="edge">
<title>8&#45;&gt;15</title>
<path fill="none" stroke="grey" stroke-width="2" d="M938.39,-650.83C850.5,-636.46 717.54,-614.72 646.27,-603.06"/>
<polygon fill="grey" stroke="grey" stroke-width="2" points="646.64,-599.57 636.21,-601.41 645.51,-606.48 646.64,-599.57"/>
</g>
<!-- 9&#45;&gt;8 -->
<g id="edge15" class="edge">
<title>9&#45;&gt;8</title>
<path fill="none" stroke="grey" stroke-width="2" d="M1111.87,-719.88C1096.83,-710.72 1078.13,-699.34 1061.94,-689.48"/>
<polygon fill="grey" stroke="grey" stroke-width="2" points="1063.6,-686.4 1053.24,-684.19 1059.96,-692.38 1063.6,-686.4"/>
</g>
<!-- 9&#45;&gt;16 -->
<g id="edge50" class="edge">
<title>9&#45;&gt;16</title>
<path fill="none" stroke="grey" stroke-width="2" d="M1206.36,-728.2C1247.38,-720.72 1300.01,-707.35 1342,-684 1447.19,-625.51 1480,-571.36 1480,-451 1480,-451 1480,-451 1480,-233 1480,-192.03 1487.47,-170.23 1456,-144 1410.65,-106.21 1004.52,-94.73 861.54,-91.85"/>
<polygon fill="grey" stroke="grey" stroke-width="2" points="861.37,-88.34 851.31,-91.65 861.24,-95.34 861.37,-88.34"/>
</g>
<!-- 9&#45;&gt;20 -->
<g id="edge63" class="edge">
<title>9&#45;&gt;20</title>
<path fill="none" stroke="grey" stroke-width="2" d="M1140.58,-719.76C1140.36,-700.35 1137.21,-668.82 1121,-648 1076.56,-590.91 1043.54,-599.17 975,-576 916,-556.05 471.45,-509.48 425,-468 404.93,-450.08 387.43,-375.11 379.12,-334.1"/>
<polygon fill="grey" stroke="grey" stroke-width="2" points="382.54,-333.35 377.17,-324.22 375.68,-334.71 382.54,-333.35"/>
</g>
<!-- 9&#45;&gt;24 -->
<g id="edge82" class="edge">
<title>9&#45;&gt;24</title>
<path fill="none" stroke="grey" stroke-width="2" d="M1180.2,-719.94C1224.63,-698.08 1290,-655.6 1290,-595 1290,-595 1290,-595 1290,-449 1290,-438.05 981.73,-221.02 972,-216 935.23,-197.04 890.28,-182.86 857.39,-173.96"/>
<polygon fill="grey" stroke="grey" stroke-width="2" points="858.16,-170.54 847.6,-171.37 856.37,-177.31 858.16,-170.54"/>
</g>
<!-- 10 -->
<g id="node11" class="node">
<title>10</title>
<path fill="none" stroke="#59d856" stroke-width="2" d="M696,-396C696,-396 598,-396 598,-396 592,-396 586,-390 586,-384 586,-384 586,-372 586,-372 586,-366 592,-360 598,-360 598,-360 696,-360 696,-360 702,-360 708,-366 708,-372 708,-372 708,-384 708,-384 708,-390 702,-396 696,-396"/>
<text text-anchor="middle" x="647" y="-375.5" font-family="sans" font-size="10.00">avg_antibody_escape</text>
</g>
<!-- 10&#45;&gt;0 -->
<g id="edge3" class="edge">
<title>10&#45;&gt;0</title>
<path fill="none" stroke="grey" stroke-width="2" d="M600.12,-359.98C572.58,-349.84 537.18,-336.53 506,-324 468.31,-308.85 460.13,-301.99 422,-288 370.92,-269.26 337.32,-295.76 305,-252 295.49,-239.13 297.77,-230.28 305,-216 329.41,-167.78 353.55,-165.8 403,-144 603.11,-55.77 1310.03,-26.15 1480.71,-20.2"/>
<polygon fill="grey" stroke="grey" stroke-width="2" points="1480.84,-23.7 1490.71,-19.86 1480.6,-16.7 1480.84,-23.7"/>
</g>
<!-- 10&#45;&gt;16 -->
<g id="edge41" class="edge">
<title>10&#45;&gt;16</title>
<path fill="none" stroke="grey" stroke-width="2" d="M609.75,-359.99C554.23,-332.22 460.25,-274.36 499,-216 557.69,-127.61 690.28,-101.72 762.63,-94.14"/>
<polygon fill="grey" stroke="grey" stroke-width="2" points="763.24,-97.6 772.85,-93.15 762.56,-90.63 763.24,-97.6"/>
</g>
<!-- 10&#45;&gt;20 -->
<g id="edge56" class="edge">
<title>10&#45;&gt;20</title>
<path fill="none" stroke="grey" stroke-width="2" d="M585.73,-361.29C536.77,-348.74 469.03,-331.37 423.47,-319.69"/>
<polygon fill="grey" stroke="grey" stroke-width="2" points="424.09,-316.23 413.54,-317.14 422.35,-323.01 424.09,-316.23"/>
</g>
<!-- 23 -->
<g id="node24" class="node">
<title>23</title>
<path fill="none" stroke="#d86e56" stroke-width="2" d="M657.5,-252C657.5,-252 520.5,-252 520.5,-252 514.5,-252 508.5,-246 508.5,-240 508.5,-240 508.5,-228 508.5,-228 508.5,-222 514.5,-216 520.5,-216 520.5,-216 657.5,-216 657.5,-216 663.5,-216 669.5,-222 669.5,-228 669.5,-228 669.5,-240 669.5,-240 669.5,-246 663.5,-252 657.5,-252"/>
<text text-anchor="middle" x="589" y="-231.5" font-family="sans" font-size="10.00">format_antibody_escape_plot</text>
</g>
<!-- 10&#45;&gt;23 -->
<g id="edge65" class="edge">
<title>10&#45;&gt;23</title>
<path fill="none" stroke="grey" stroke-width="2" d="M640,-359.87C630.03,-335.46 611.64,-290.43 599.88,-261.64"/>
<polygon fill="grey" stroke="grey" stroke-width="2" points="603.04,-260.12 596.02,-252.19 596.56,-262.77 603.04,-260.12"/>
</g>
<!-- 10&#45;&gt;24 -->
<g id="edge74" class="edge">
<title>10&#45;&gt;24</title>
<path fill="none" stroke="grey" stroke-width="2" d="M651.32,-359.81C660.03,-328.12 682.3,-259.72 722,-216 734.43,-202.31 751.24,-191.12 766.97,-182.6"/>
<polygon fill="grey" stroke="grey" stroke-width="2" points="768.79,-185.6 776.06,-177.9 765.57,-179.38 768.79,-185.6"/>
</g>
<!-- 11 -->
<g id="node12" class="node">
<title>11</title>
<path fill="none" stroke="#56d87b" stroke-width="2" d="M1132,-468C1132,-468 1064,-468 1064,-468 1058,-468 1052,-462 1052,-456 1052,-456 1052,-444 1052,-444 1052,-438 1058,-432 1064,-432 1064,-432 1132,-432 1132,-432 1138,-432 1144,-438 1144,-444 1144,-444 1144,-456 1144,-456 1144,-462 1138,-468 1132,-468"/>
<text text-anchor="middle" x="1098" y="-447.5" font-family="sans" font-size="10.00">avg_muteffects</text>
</g>
<!-- 11&#45;&gt;0 -->
<g id="edge4" class="edge">
<title>11&#45;&gt;0</title>
<path fill="none" stroke="grey" stroke-width="2" d="M1139.56,-431.98C1160.74,-422.57 1186.49,-409.97 1208,-396 1256.56,-364.47 1439.96,-203.08 1456,-180 1485.31,-137.83 1503.17,-79.94 1511.77,-46.29"/>
<polygon fill="grey" stroke="grey" stroke-width="2" points="1515.24,-46.81 1514.24,-36.27 1508.45,-45.14 1515.24,-46.81"/>
</g>
<!-- 11&#45;&gt;10 -->
<g id="edge20" class="edge">
<title>11&#45;&gt;10</title>
<path fill="none" stroke="grey" stroke-width="2" d="M1051.85,-441.84C972.9,-429.58 811.4,-404.52 718,-390.02"/>
<polygon fill="grey" stroke="grey" stroke-width="2" points="718.49,-386.55 708.07,-388.48 717.41,-393.47 718.49,-386.55"/>
</g>
<!-- 11&#45;&gt;16 -->
<g id="edge47" class="edge">
<title>11&#45;&gt;16</title>
<path fill="none" stroke="grey" stroke-width="2" d="M1122.43,-431.96C1176.68,-393.52 1304.18,-299.69 1326,-252 1332.66,-237.45 1333.52,-230.12 1326,-216 1299.06,-165.4 1272.63,-164.24 1219,-144 1096.18,-97.65 939.35,-90.56 861.07,-90.23"/>
<polygon fill="grey" stroke="grey" stroke-width="2" points="861.02,-86.73 851.01,-90.22 861.01,-93.73 861.02,-86.73"/>
</g>
<!-- 11&#45;&gt;20 -->
<g id="edge55" class="edge">
<title>11&#45;&gt;20</title>
<path fill="none" stroke="grey" stroke-width="2" d="M1051.83,-449.16C959.86,-448.42 747.9,-441.43 577,-396 538.93,-385.88 532.07,-375.85 496,-360 471.95,-349.43 445.19,-337.79 422.87,-328.12"/>
<polygon fill="grey" stroke="grey" stroke-width="2" points="424.16,-324.87 413.6,-324.1 421.38,-331.29 424.16,-324.87"/>
</g>
<!-- 21 -->
<g id="node22" class="node">
<title>21</title>
<path fill="none" stroke="#56d8b9" stroke-width="2" d="M1187.5,-252C1187.5,-252 1080.5,-252 1080.5,-252 1074.5,-252 1068.5,-246 1068.5,-240 1068.5,-240 1068.5,-228 1068.5,-228 1068.5,-222 1074.5,-216 1080.5,-216 1080.5,-216 1187.5,-216 1187.5,-216 1193.5,-216 1199.5,-222 1199.5,-228 1199.5,-228 1199.5,-240 1199.5,-240 1199.5,-246 1193.5,-252 1187.5,-252"/>
<text text-anchor="middle" x="1134" y="-231.5" font-family="sans" font-size="10.00">format_muteffects_plot</text>
</g>
<!-- 11&#45;&gt;21 -->
<g id="edge64" class="edge">
<title>11&#45;&gt;21</title>
<path fill="none" stroke="grey" stroke-width="2" d="M1100.89,-431.85C1107.13,-394.75 1121.92,-306.81 1129.44,-262.1"/>
<polygon fill="grey" stroke="grey" stroke-width="2" points="1132.89,-262.67 1131.1,-252.23 1125.99,-261.51 1132.89,-262.67"/>
</g>
<!-- 11&#45;&gt;24 -->
<g id="edge79" class="edge">
<title>11&#45;&gt;24</title>
<path fill="none" stroke="grey" stroke-width="2" d="M1090.66,-431.85C1071.75,-389.52 1017.35,-278.92 940,-216 915.85,-196.35 883.39,-183.02 857.2,-174.64"/>
<polygon fill="grey" stroke="grey" stroke-width="2" points="858.09,-171.26 847.5,-171.67 856.04,-177.95 858.09,-171.26"/>
</g>
<!-- 12 -->
<g id="node13" class="node">
<title>12</title>
<path fill="none" stroke="#5692d8" stroke-width="2" d="M1064.5,-540C1064.5,-540 983.5,-540 983.5,-540 977.5,-540 971.5,-534 971.5,-528 971.5,-528 971.5,-516 971.5,-516 971.5,-510 977.5,-504 983.5,-504 983.5,-504 1064.5,-504 1064.5,-504 1070.5,-504 1076.5,-510 1076.5,-516 1076.5,-516 1076.5,-528 1076.5,-528 1076.5,-534 1070.5,-540 1064.5,-540"/>
<text text-anchor="middle" x="1024" y="-519.5" font-family="sans" font-size="10.00">fit_globalepistasis</text>
</g>
<!-- 12&#45;&gt;11 -->
<g id="edge22" class="edge">
<title>12&#45;&gt;11</title>
<path fill="none" stroke="grey" stroke-width="2" d="M1042.29,-503.7C1051.43,-495.05 1062.64,-484.45 1072.6,-475.03"/>
<polygon fill="grey" stroke="grey" stroke-width="2" points="1075.06,-477.52 1079.92,-468.1 1070.25,-472.43 1075.06,-477.52"/>
</g>
<!-- 12&#45;&gt;16 -->
<g id="edge46" class="edge">
<title>12&#45;&gt;16</title>
<path fill="none" stroke="grey" stroke-width="2" d="M1076.67,-504.9C1101.07,-496.09 1129.73,-483.73 1153,-468 1268.97,-389.57 1394.66,-345.72 1342,-216 1325.21,-174.65 1312.05,-163.7 1272,-144 1200.6,-108.88 964.58,-96.39 861.22,-92.52"/>
<polygon fill="grey" stroke="grey" stroke-width="2" points="861.17,-89.02 851.05,-92.15 860.91,-96.01 861.17,-89.02"/>
</g>
<!-- 12&#45;&gt;20 -->
<g id="edge60" class="edge">
<title>12&#45;&gt;20</title>
<path fill="none" stroke="grey" stroke-width="2" d="M971.14,-515.56C873.41,-504.01 659.53,-471.6 496,-396 471.47,-384.66 468.82,-375.94 447,-360 433.64,-350.24 418.88,-339.52 406.14,-330.28"/>
<polygon fill="grey" stroke="grey" stroke-width="2" points="407.85,-327.19 397.7,-324.15 403.74,-332.86 407.85,-327.19"/>
</g>
<!-- 12&#45;&gt;24 -->
<g id="edge78" class="edge">
<title>12&#45;&gt;24</title>
<path fill="none" stroke="grey" stroke-width="2" d="M1025.03,-503.76C1026.2,-473.4 1025.71,-409 1005,-360 972.9,-284.04 948.41,-272.13 888,-216 876.22,-205.06 862.06,-194.58 849.17,-185.87"/>
<polygon fill="grey" stroke="grey" stroke-width="2" points="850.76,-182.73 840.49,-180.15 846.91,-188.58 850.76,-182.73"/>
</g>
<!-- 13&#45;&gt;12 -->
<g id="edge23" class="edge">
<title>13&#45;&gt;12</title>
<path fill="none" stroke="grey" stroke-width="2" d="M952.48,-575.7C964.56,-566.8 979.45,-555.82 992.52,-546.2"/>
<polygon fill="grey" stroke="grey" stroke-width="2" points="994.81,-548.85 1000.79,-540.1 990.66,-543.22 994.81,-548.85"/>
</g>
<!-- 17 -->
<g id="node18" class="node">
<title>17</title>
<path fill="none" stroke="#a7d856" stroke-width="2" d="M984,-396C984,-396 890,-396 890,-396 884,-396 878,-390 878,-384 878,-384 878,-372 878,-372 878,-366 884,-360 890,-360 890,-360 984,-360 984,-360 990,-360 996,-366 996,-372 996,-372 996,-384 996,-384 996,-390 990,-396 984,-396"/>
<text text-anchor="middle" x="937" y="-375.5" font-family="sans" font-size="10.00">analyze_func_scores</text>
</g>
<!-- 13&#45;&gt;17 -->
<g id="edge51" class="edge">
<title>13&#45;&gt;17</title>
<path fill="none" stroke="grey" stroke-width="2" d="M929.64,-575.85C931.02,-538.83 934.3,-451.18 935.98,-406.39"/>
<polygon fill="grey" stroke="grey" stroke-width="2" points="939.48,-406.36 936.36,-396.23 932.48,-406.09 939.48,-406.36"/>
</g>
<!-- 14 -->
<g id="node15" class="node">
<title>14</title>
<path fill="none" stroke="#d8a456" stroke-width="2" d="M504,-468C504,-468 446,-468 446,-468 440,-468 434,-462 434,-456 434,-456 434,-444 434,-444 434,-438 440,-432 446,-432 446,-432 504,-432 504,-432 510,-432 516,-438 516,-444 516,-444 516,-456 516,-456 516,-462 510,-468 504,-468"/>
<text text-anchor="middle" x="475" y="-447.5" font-family="sans" font-size="10.00">fit_polyclonal</text>
</g>
<!-- 14&#45;&gt;10 -->
<g id="edge21" class="edge">
<title>14&#45;&gt;10</title>
<path fill="none" stroke="grey" stroke-width="2" d="M516.2,-432.23C539.99,-422.55 570.13,-410.28 595.48,-399.97"/>
<polygon fill="grey" stroke="grey" stroke-width="2" points="597,-403.13 604.94,-396.12 594.36,-396.64 597,-403.13"/>
</g>
<!-- 14&#45;&gt;16 -->
<g id="edge43" class="edge">
<title>14&#45;&gt;16</title>
<path fill="none" stroke="grey" stroke-width="2" d="M434,-448.11C358.95,-445.52 204.14,-435.42 171,-396 136.96,-355.52 131.31,-246.92 283,-144 322.2,-117.41 638.64,-99.38 762.53,-93.29"/>
<polygon fill="grey" stroke="grey" stroke-width="2" points="763.04,-96.77 772.86,-92.78 762.7,-89.77 763.04,-96.77"/>
</g>
<!-- 14&#45;&gt;20 -->
<g id="edge58" class="edge">
<title>14&#45;&gt;20</title>
<path fill="none" stroke="grey" stroke-width="2" d="M465.44,-431.74C455.04,-413.41 437.54,-383.85 420,-360 412.93,-350.38 404.53,-340.36 396.85,-331.65"/>
<polygon fill="grey" stroke="grey" stroke-width="2" points="399.35,-329.19 390.07,-324.08 394.13,-333.86 399.35,-329.19"/>
</g>
<!-- 14&#45;&gt;24 -->
<g id="edge76" class="edge">
<title>14&#45;&gt;24</title>
<path fill="none" stroke="grey" stroke-width="2" d="M470.62,-431.87C460.81,-389.1 442.14,-276.69 499,-216 534.61,-177.99 688.27,-167.22 766.24,-164.18"/>
<polygon fill="grey" stroke="grey" stroke-width="2" points="766.4,-167.68 776.27,-163.82 766.15,-160.68 766.4,-167.68"/>
</g>
<!-- 15&#45;&gt;14 -->
<g id="edge28" class="edge">
<title>15&#45;&gt;14</title>
<path fill="none" stroke="grey" stroke-width="2" d="M582.28,-575.87C560.94,-551.03 521.26,-504.85 496.6,-476.14"/>
<polygon fill="grey" stroke="grey" stroke-width="2" points="498.94,-473.49 489.77,-468.19 493.63,-478.06 498.94,-473.49"/>
</g>
<!-- 18 -->
<g id="node19" class="node">
<title>18</title>
<path fill="none" stroke="#567bd8" stroke-width="2" d="M290,-396C290,-396 192,-396 192,-396 186,-396 180,-390 180,-384 180,-384 180,-372 180,-372 180,-366 186,-360 192,-360 192,-360 290,-360 290,-360 296,-360 302,-366 302,-372 302,-372 302,-384 302,-384 302,-390 296,-396 290,-396"/>
<text text-anchor="middle" x="241" y="-375.5" font-family="sans" font-size="10.00">analyze_prob_escape</text>
</g>
<!-- 15&#45;&gt;18 -->
<g id="edge52" class="edge">
<title>15&#45;&gt;18</title>
<path fill="none" stroke="grey" stroke-width="2" d="M568.47,-575.85C504.54,-537.42 349.86,-444.44 278.37,-401.46"/>
<polygon fill="grey" stroke="grey" stroke-width="2" points="280.04,-398.38 269.67,-396.23 276.43,-404.38 280.04,-398.38"/>
</g>
<!-- 16&#45;&gt;0 -->
<g id="edge5" class="edge">
<title>16&#45;&gt;0</title>
<path fill="none" stroke="grey" stroke-width="2" d="M851.22,-85.11C975.39,-72.8 1358.86,-34.78 1480.54,-22.71"/>
<polygon fill="grey" stroke="grey" stroke-width="2" points="1481.22,-26.16 1490.83,-21.69 1480.53,-19.2 1481.22,-26.16"/>
</g>
<!-- 17&#45;&gt;16 -->
<g id="edge45" class="edge">
<title>17&#45;&gt;16</title>
<path fill="none" stroke="grey" stroke-width="2" d="M996.24,-361.17C1096.4,-333.81 1290.21,-278.14 1309,-252 1318.34,-239.01 1318.64,-228.77 1309,-216 1254.8,-144.22 976.19,-107.85 861.46,-95.73"/>
<polygon fill="grey" stroke="grey" stroke-width="2" points="861.52,-92.22 851.21,-94.67 860.79,-99.18 861.52,-92.22"/>
</g>
<!-- 17&#45;&gt;20 -->
<g id="edge59" class="edge">
<title>17&#45;&gt;20</title>
<path fill="none" stroke="grey" stroke-width="2" d="M877.81,-369.64C766.45,-355.79 527.65,-326.1 423.86,-313.2"/>
<polygon fill="grey" stroke="grey" stroke-width="2" points="424.01,-309.69 413.66,-311.93 423.15,-316.64 424.01,-309.69"/>
</g>
<!-- 17&#45;&gt;24 -->
<g id="edge77" class="edge">
<title>17&#45;&gt;24</title>
<path fill="none" stroke="grey" stroke-width="2" d="M931.35,-359.52C920.95,-328.8 896.79,-263.85 864,-216 857.01,-205.8 847.96,-195.81 839.37,-187.29"/>
<polygon fill="grey" stroke="grey" stroke-width="2" points="841.65,-184.63 832.01,-180.23 836.8,-189.68 841.65,-184.63"/>
</g>
<!-- 18&#45;&gt;16 -->
<g id="edge48" class="edge">
<title>18&#45;&gt;16</title>
<path fill="none" stroke="grey" stroke-width="2" d="M239.43,-359.89C238.29,-341.68 238,-312.22 245,-288 265.44,-217.25 265.44,-184.42 327,-144 397.82,-97.5 654.12,-91.31 762.77,-90.82"/>
<polygon fill="grey" stroke="grey" stroke-width="2" points="762.82,-94.32 772.81,-90.79 762.8,-87.32 762.82,-94.32"/>
</g>
<!-- 18&#45;&gt;20 -->
<g id="edge62" class="edge">
<title>18&#45;&gt;20</title>
<path fill="none" stroke="grey" stroke-width="2" d="M273.54,-359.88C291.25,-350.55 313.35,-338.92 332.32,-328.94"/>
<polygon fill="grey" stroke="grey" stroke-width="2" points="334.12,-331.94 341.34,-324.19 330.86,-325.75 334.12,-331.94"/>
</g>
<!-- 18&#45;&gt;24 -->
<g id="edge80" class="edge">
<title>18&#45;&gt;24</title>
<path fill="none" stroke="grey" stroke-width="2" d="M242.21,-359.97C245.59,-326.29 258.25,-251.42 305,-216 341.38,-188.44 648.3,-170.88 766.16,-165.1"/>
<polygon fill="grey" stroke="grey" stroke-width="2" points="766.49,-168.59 776.3,-164.61 766.15,-161.6 766.49,-168.59"/>
</g>
<!-- 19 -->
<g id="node20" class="node">
<title>19</title>
<path fill="none" stroke="#80d856" stroke-width="2" d="M363.5,-252C363.5,-252 326.5,-252 326.5,-252 320.5,-252 314.5,-246 314.5,-240 314.5,-240 314.5,-228 314.5,-228 314.5,-222 320.5,-216 326.5,-216 326.5,-216 363.5,-216 363.5,-216 369.5,-216 375.5,-222 375.5,-228 375.5,-228 375.5,-240 375.5,-240 375.5,-246 369.5,-252 363.5,-252"/>
<text text-anchor="middle" x="345" y="-231.5" font-family="sans" font-size="10.00">subindex</text>
</g>
<!-- 19&#45;&gt;16 -->
<g id="edge38" class="edge">
<title>19&#45;&gt;16</title>
<path fill="none" stroke="grey" stroke-width="2" d="M362.54,-215.73C384.66,-195.05 424.81,-161.08 466,-144 565.71,-102.65 693.63,-93.17 762.61,-91.23"/>
<polygon fill="grey" stroke="grey" stroke-width="2" points="762.84,-94.73 772.76,-90.99 762.68,-87.73 762.84,-94.73"/>
</g>
<!-- 19&#45;&gt;24 -->
<g id="edge71" class="edge">
<title>19&#45;&gt;24</title>
<path fill="none" stroke="grey" stroke-width="2" d="M375.68,-220.31C380.42,-218.68 385.3,-217.17 390,-216 524.16,-182.73 687.76,-169.78 766.01,-165.22"/>
<polygon fill="grey" stroke="grey" stroke-width="2" points="766.68,-168.69 776.47,-164.63 766.29,-161.7 766.68,-168.69"/>
</g>
<!-- 20&#45;&gt;16 -->
<g id="edge34" class="edge">
<title>20&#45;&gt;16</title>
<path fill="none" stroke="grey" stroke-width="2" d="M340.16,-287.96C326.62,-279.22 312.48,-267.17 305,-252 297.93,-237.65 297.77,-230.28 305,-216 329.41,-167.78 352.83,-164.11 403,-144 467.38,-118.19 668.56,-101.09 762.61,-94.3"/>
<polygon fill="grey" stroke="grey" stroke-width="2" points="763,-97.78 772.73,-93.58 762.5,-90.8 763,-97.78"/>
</g>
<!-- 20&#45;&gt;19 -->
<g id="edge53" class="edge">
<title>20&#45;&gt;19</title>
<path fill="none" stroke="grey" stroke-width="2" d="M366.83,-287.7C363.57,-279.81 359.63,-270.3 356,-261.55"/>
<polygon fill="grey" stroke="grey" stroke-width="2" points="359.15,-260 352.09,-252.1 352.68,-262.68 359.15,-260"/>
</g>
<!-- 20&#45;&gt;24 -->
<g id="edge67" class="edge">
<title>20&#45;&gt;24</title>
<path fill="none" stroke="grey" stroke-width="2" d="M379.36,-287.69C386.75,-266.98 402.17,-232.97 428,-216 482.85,-179.96 676.99,-168.07 766.36,-164.45"/>
<polygon fill="grey" stroke="grey" stroke-width="2" points="766.61,-167.95 776.47,-164.06 766.34,-160.95 766.61,-167.95"/>
</g>
<!-- 21&#45;&gt;16 -->
<g id="edge40" class="edge">
<title>21&#45;&gt;16</title>
<path fill="none" stroke="grey" stroke-width="2" d="M1095.16,-215.87C1036.21,-189.88 924.26,-140.51 860.2,-112.26"/>
<polygon fill="grey" stroke="grey" stroke-width="2" points="861.29,-108.91 850.73,-108.08 858.47,-115.32 861.29,-108.91"/>
</g>
<!-- 21&#45;&gt;24 -->
<g id="edge73" class="edge">
<title>21&#45;&gt;24</title>
<path fill="none" stroke="grey" stroke-width="2" d="M1068.45,-218.75C1005.61,-205.09 912.41,-184.83 857.37,-172.86"/>
<polygon fill="grey" stroke="grey" stroke-width="2" points="858.07,-169.43 847.56,-170.73 856.58,-176.27 858.07,-169.43"/>
</g>
<!-- 22 -->
<g id="node23" class="node">
<title>22</title>
<path fill="none" stroke="#56d0d8" stroke-width="2" d="M1288,-252C1288,-252 1230,-252 1230,-252 1224,-252 1218,-246 1218,-240 1218,-240 1218,-228 1218,-228 1218,-222 1224,-216 1230,-216 1230,-216 1288,-216 1288,-216 1294,-216 1300,-222 1300,-228 1300,-228 1300,-240 1300,-240 1300,-246 1294,-252 1288,-252"/>
<text text-anchor="middle" x="1259" y="-231.5" font-family="sans" font-size="10.00">make_graphs</text>
</g>
<!-- 22&#45;&gt;16 -->
<g id="edge35" class="edge">
<title>22&#45;&gt;16</title>
<path fill="none" stroke="grey" stroke-width="2" d="M1217.81,-218.95C1214.83,-217.94 1211.87,-216.95 1209,-216 1110.56,-183.3 1085.97,-175.03 987,-144 944.68,-130.73 896.43,-116.16 861.33,-105.66"/>
<polygon fill="grey" stroke="grey" stroke-width="2" points="861.92,-102.18 851.34,-102.67 859.92,-108.89 861.92,-102.18"/>
</g>
<!-- 22&#45;&gt;24 -->
<g id="edge68" class="edge">
<title>22&#45;&gt;24</title>
<path fill="none" stroke="grey" stroke-width="2" d="M1217.98,-218.35C1214.96,-217.49 1211.95,-216.69 1209,-216 1083.72,-186.64 932.13,-172.03 857.72,-166.19"/>
<polygon fill="grey" stroke="grey" stroke-width="2" points="857.98,-162.7 847.74,-165.42 857.44,-169.68 857.98,-162.7"/>
</g>
<!-- 23&#45;&gt;16 -->
<g id="edge36" class="edge">
<title>23&#45;&gt;16</title>
<path fill="none" stroke="grey" stroke-width="2" d="M615.9,-215.87C656.08,-190.28 731.83,-142.05 776.5,-113.6"/>
<polygon fill="grey" stroke="grey" stroke-width="2" points="778.45,-116.51 785.01,-108.19 774.69,-110.61 778.45,-116.51"/>
</g>
<!-- 23&#45;&gt;24 -->
<g id="edge69" class="edge">
<title>23&#45;&gt;24</title>
<path fill="none" stroke="grey" stroke-width="2" d="M643.27,-215.97C681.09,-204.09 730.98,-188.43 766.68,-177.23"/>
<polygon fill="grey" stroke="grey" stroke-width="2" points="767.86,-180.52 776.35,-174.19 765.76,-173.85 767.86,-180.52"/>
</g>
<!-- 24&#45;&gt;16 -->
<g id="edge44" class="edge">
<title>24&#45;&gt;16</title>
<path fill="none" stroke="grey" stroke-width="2" d="M812,-143.7C812,-135.98 812,-126.71 812,-118.11"/>
<polygon fill="grey" stroke="grey" stroke-width="2" points="815.5,-118.1 812,-108.1 808.5,-118.1 815.5,-118.1"/>
</g>
</g>
</svg>
