<?xml version="1.0" encoding="UTF-8" standalone="no"?>
<!DOCTYPE svg PUBLIC "-//W3C//DTD SVG 1.1//EN"
 "http://www.w3.org/Graphics/SVG/1.1/DTD/svg11.dtd">
<!-- Generated by graphviz version 6.0.1 (20220911.2005)
 -->
<!-- Title: snakemake_dag Pages: 1 -->
<svg width="1469pt" height="1196pt"
 viewBox="0.00 0.00 1468.50 1196.00" xmlns="http://www.w3.org/2000/svg" xmlns:xlink="http://www.w3.org/1999/xlink">
<g id="graph0" class="graph" transform="scale(1 1) rotate(0) translate(4 1192)">
<title>snakemake_dag</title>
<polygon fill="white" stroke="none" points="-4,4 -4,-1192 1464.5,-1192 1464.5,4 -4,4"/>
<!-- 0 -->
<g id="node1" class="node">
<title>0</title>
<path fill="none" stroke="#56a9d8" stroke-width="2" d="M1361.5,-36C1361.5,-36 1331.5,-36 1331.5,-36 1325.5,-36 1319.5,-30 1319.5,-24 1319.5,-24 1319.5,-12 1319.5,-12 1319.5,-6 1325.5,0 1331.5,0 1331.5,0 1361.5,0 1361.5,0 1367.5,0 1373.5,-6 1373.5,-12 1373.5,-12 1373.5,-24 1373.5,-24 1373.5,-30 1367.5,-36 1361.5,-36"/>
<text text-anchor="middle" x="1346.5" y="-15.5" font-family="sans" font-size="10.00">all</text>
</g>
<!-- 1 -->
<g id="node2" class="node">
<title>1</title>
<path fill="none" stroke="#d86e56" stroke-width="2" d="M1160,-828C1160,-828 1095,-828 1095,-828 1089,-828 1083,-822 1083,-816 1083,-816 1083,-804 1083,-804 1083,-798 1089,-792 1095,-792 1095,-792 1160,-792 1160,-792 1166,-792 1172,-798 1172,-804 1172,-804 1172,-816 1172,-816 1172,-822 1166,-828 1160,-828"/>
<text text-anchor="middle" x="1127.5" y="-807.5" font-family="sans" font-size="10.00">variant_counts</text>
</g>
<!-- 1&#45;&gt;0 -->
<g id="edge2" class="edge">
<title>1&#45;&gt;0</title>
<path fill="none" stroke="grey" stroke-width="2" d="M1149.9,-791.91C1161.69,-782.21 1175.87,-769.36 1186.5,-756 1349.4,-551.28 1460.5,-496.63 1460.5,-235 1460.5,-235 1460.5,-235 1460.5,-161 1460.5,-110 1415.23,-66.88 1381.74,-41.97"/>
<polygon fill="grey" stroke="grey" stroke-width="2" points="1383.67,-39.05 1373.52,-36.04 1379.58,-44.73 1383.67,-39.05"/>
</g>
<!-- 9 -->
<g id="node10" class="node">
<title>9</title>
<path fill="none" stroke="#d8ac56" stroke-width="2" d="M926.5,-756C926.5,-756 818.5,-756 818.5,-756 812.5,-756 806.5,-750 806.5,-744 806.5,-744 806.5,-732 806.5,-732 806.5,-726 812.5,-720 818.5,-720 818.5,-720 926.5,-720 926.5,-720 932.5,-720 938.5,-726 938.5,-732 938.5,-732 938.5,-744 938.5,-744 938.5,-750 932.5,-756 926.5,-756"/>
<text text-anchor="middle" x="872.5" y="-735.5" font-family="sans" font-size="10.00">analyze_variant_counts</text>
</g>
<!-- 1&#45;&gt;9 -->
<g id="edge18" class="edge">
<title>1&#45;&gt;9</title>
<path fill="none" stroke="grey" stroke-width="2" d="M1082.74,-796.02C1077.94,-794.65 1073.12,-793.29 1068.5,-792 1028.31,-780.78 983.38,-768.6 946.69,-758.75"/>
<polygon fill="grey" stroke="grey" stroke-width="2" points="947.14,-755.25 936.57,-756.04 945.32,-762.01 947.14,-755.25"/>
</g>
<!-- 13 -->
<g id="node14" class="node">
<title>13</title>
<path fill="none" stroke="#56d89a" stroke-width="2" d="M655.5,-612C655.5,-612 605.5,-612 605.5,-612 599.5,-612 593.5,-606 593.5,-600 593.5,-600 593.5,-588 593.5,-588 593.5,-582 599.5,-576 605.5,-576 605.5,-576 655.5,-576 655.5,-576 661.5,-576 667.5,-582 667.5,-588 667.5,-588 667.5,-600 667.5,-600 667.5,-606 661.5,-612 655.5,-612"/>
<text text-anchor="middle" x="630.5" y="-591.5" font-family="sans" font-size="10.00">func_scores</text>
</g>
<!-- 1&#45;&gt;13 -->
<g id="edge27" class="edge">
<title>1&#45;&gt;13</title>
<path fill="none" stroke="grey" stroke-width="2" d="M1095.04,-791.93C1059.3,-773.37 999.92,-743.25 947.5,-720 852.79,-678 739.31,-634.96 677.06,-611.97"/>
<polygon fill="grey" stroke="grey" stroke-width="2" points="678.11,-608.63 667.52,-608.45 675.69,-615.19 678.11,-608.63"/>
</g>
<!-- 15 -->
<g id="node16" class="node">
<title>15</title>
<path fill="none" stroke="#56d8d8" stroke-width="2" d="M1132.5,-612C1132.5,-612 1078.5,-612 1078.5,-612 1072.5,-612 1066.5,-606 1066.5,-600 1066.5,-600 1066.5,-588 1066.5,-588 1066.5,-582 1072.5,-576 1078.5,-576 1078.5,-576 1132.5,-576 1132.5,-576 1138.5,-576 1144.5,-582 1144.5,-588 1144.5,-588 1144.5,-600 1144.5,-600 1144.5,-606 1138.5,-612 1132.5,-612"/>
<text text-anchor="middle" x="1105.5" y="-591.5" font-family="sans" font-size="10.00">prob_escape</text>
</g>
<!-- 1&#45;&gt;15 -->
<g id="edge32" class="edge">
<title>1&#45;&gt;15</title>
<path fill="none" stroke="grey" stroke-width="2" d="M1125.74,-791.85C1121.93,-754.83 1112.92,-667.18 1108.32,-622.39"/>
<polygon fill="grey" stroke="grey" stroke-width="2" points="1111.78,-621.82 1107.27,-612.23 1104.81,-622.54 1111.78,-621.82"/>
</g>
<!-- 16 -->
<g id="node17" class="node">
<title>16</title>
<path fill="none" stroke="#d88556" stroke-width="2" d="M1076.5,-108C1076.5,-108 1022.5,-108 1022.5,-108 1016.5,-108 1010.5,-102 1010.5,-96 1010.5,-96 1010.5,-84 1010.5,-84 1010.5,-78 1016.5,-72 1022.5,-72 1022.5,-72 1076.5,-72 1076.5,-72 1082.5,-72 1088.5,-78 1088.5,-84 1088.5,-84 1088.5,-96 1088.5,-96 1088.5,-102 1082.5,-108 1076.5,-108"/>
<text text-anchor="middle" x="1049.5" y="-87.5" font-family="sans" font-size="10.00">sphinx_build</text>
</g>
<!-- 1&#45;&gt;16 -->
<g id="edge40" class="edge">
<title>1&#45;&gt;16</title>
<path fill="none" stroke="grey" stroke-width="2" d="M1139.5,-791.94C1179.29,-733.38 1302.81,-534.48 1274.5,-360 1258.27,-259.97 1273.11,-215.7 1201.5,-144 1174.03,-116.49 1131.53,-103.23 1098.45,-96.85"/>
<polygon fill="grey" stroke="grey" stroke-width="2" points="1098.97,-93.39 1088.51,-95.09 1097.74,-100.28 1098.97,-93.39"/>
</g>
<!-- 22 -->
<g id="node23" class="node">
<title>22</title>
<path fill="none" stroke="#afd856" stroke-width="2" d="M795,-180C795,-180 748,-180 748,-180 742,-180 736,-174 736,-168 736,-168 736,-156 736,-156 736,-150 742,-144 748,-144 748,-144 795,-144 795,-144 801,-144 807,-150 807,-156 807,-156 807,-168 807,-168 807,-174 801,-180 795,-180"/>
<text text-anchor="middle" x="771.5" y="-159.5" font-family="sans" font-size="10.00">docs_index</text>
</g>
<!-- 1&#45;&gt;22 -->
<g id="edge69" class="edge">
<title>1&#45;&gt;22</title>
<path fill="none" stroke="grey" stroke-width="2" d="M1133.37,-791.83C1153.86,-728.61 1216.3,-504.89 1127.5,-360 1082.47,-286.54 1036.77,-301.87 966.5,-252 944.75,-236.57 941.97,-228.66 918.5,-216 886.11,-198.52 846.77,-184.69 816.94,-175.54"/>
<polygon fill="grey" stroke="grey" stroke-width="2" points="817.79,-172.14 807.21,-172.62 815.78,-178.85 817.79,-172.14"/>
</g>
<!-- 2 -->
<g id="node3" class="node">
<title>2</title>
<path fill="none" stroke="#59d856" stroke-width="2" d="M938,-900C938,-900 869,-900 869,-900 863,-900 857,-894 857,-888 857,-888 857,-876 857,-876 857,-870 863,-864 869,-864 869,-864 938,-864 938,-864 944,-864 950,-870 950,-876 950,-876 950,-888 950,-888 950,-894 944,-900 938,-900"/>
<text text-anchor="middle" x="903.5" y="-879.5" font-family="sans" font-size="10.00">count_barcodes</text>
</g>
<!-- 2&#45;&gt;1 -->
<g id="edge8" class="edge">
<title>2&#45;&gt;1</title>
<path fill="none" stroke="grey" stroke-width="2" d="M950.19,-866.41C985.97,-855.23 1035.42,-839.78 1073.01,-828.03"/>
<polygon fill="grey" stroke="grey" stroke-width="2" points="1074.28,-831.3 1082.78,-824.97 1072.2,-824.62 1074.28,-831.3"/>
</g>
<!-- 2&#45;&gt;9 -->
<g id="edge19" class="edge">
<title>2&#45;&gt;9</title>
<path fill="none" stroke="grey" stroke-width="2" d="M899.76,-863.87C894.45,-839.56 884.69,-794.82 878.4,-766.01"/>
<polygon fill="grey" stroke="grey" stroke-width="2" points="881.8,-765.21 876.25,-756.19 874.97,-766.71 881.8,-765.21"/>
</g>
<!-- 3 -->
<g id="node4" class="node">
<title>3</title>
<path fill="none" stroke="#d8c356" stroke-width="2" d="M982.5,-972C982.5,-972 886.5,-972 886.5,-972 880.5,-972 874.5,-966 874.5,-960 874.5,-960 874.5,-948 874.5,-948 874.5,-942 880.5,-936 886.5,-936 886.5,-936 982.5,-936 982.5,-936 988.5,-936 994.5,-942 994.5,-948 994.5,-948 994.5,-960 994.5,-960 994.5,-966 988.5,-972 982.5,-972"/>
<text text-anchor="middle" x="934.5" y="-951.5" font-family="sans" font-size="10.00">build_codon_variants</text>
</g>
<!-- 3&#45;&gt;1 -->
<g id="edge6" class="edge">
<title>3&#45;&gt;1</title>
<path fill="none" stroke="grey" stroke-width="2" d="M957.78,-935.87C992.27,-910.5 1057.02,-862.85 1095.81,-834.32"/>
<polygon fill="grey" stroke="grey" stroke-width="2" points="1098.16,-836.93 1104.14,-828.19 1094.01,-831.3 1098.16,-836.93"/>
</g>
<!-- 3&#45;&gt;2 -->
<g id="edge9" class="edge">
<title>3&#45;&gt;2</title>
<path fill="none" stroke="grey" stroke-width="2" d="M926.84,-935.7C923.31,-927.73 919.04,-918.1 915.13,-909.26"/>
<polygon fill="grey" stroke="grey" stroke-width="2" points="918.32,-907.83 911.07,-900.1 911.92,-910.67 918.32,-907.83"/>
</g>
<!-- 3&#45;&gt;9 -->
<g id="edge16" class="edge">
<title>3&#45;&gt;9</title>
<path fill="none" stroke="grey" stroke-width="2" d="M888.95,-935.98C873.25,-927.66 857.39,-915.93 848.5,-900 824.67,-857.33 843.99,-798.84 859.03,-765.38"/>
<polygon fill="grey" stroke="grey" stroke-width="2" points="862.24,-766.78 863.32,-756.24 855.9,-763.81 862.24,-766.78"/>
</g>
<!-- 3&#45;&gt;13 -->
<g id="edge24" class="edge">
<title>3&#45;&gt;13</title>
<path fill="none" stroke="grey" stroke-width="2" d="M874.5,-947.58C747.79,-934.48 464.5,-895.71 464.5,-811 464.5,-811 464.5,-811 464.5,-737 464.5,-673.89 534.64,-632.83 583.74,-611.81"/>
<polygon fill="grey" stroke="grey" stroke-width="2" points="585.34,-614.94 593.25,-607.88 582.67,-608.47 585.34,-614.94"/>
</g>
<!-- 3&#45;&gt;15 -->
<g id="edge29" class="edge">
<title>3&#45;&gt;15</title>
<path fill="none" stroke="grey" stroke-width="2" d="M945.02,-935.92C970.4,-894.15 1036.02,-783.03 1077.5,-684 1086.03,-663.64 1093.41,-639.74 1098.45,-621.84"/>
<polygon fill="grey" stroke="grey" stroke-width="2" points="1101.86,-622.63 1101.14,-612.06 1095.11,-620.78 1101.86,-622.63"/>
</g>
<!-- 3&#45;&gt;16 -->
<g id="edge45" class="edge">
<title>3&#45;&gt;16</title>
<path fill="none" stroke="grey" stroke-width="2" d="M994.52,-945.51C1035.98,-938.39 1091.23,-924.91 1134.5,-900 1233.86,-842.82 1246.24,-794.85 1275.5,-684 1328.59,-482.87 1337.06,-412.74 1269.5,-216 1257.68,-181.58 1258.81,-166.87 1230.5,-144 1192.86,-113.59 1138.35,-100.62 1099,-95.1"/>
<polygon fill="grey" stroke="grey" stroke-width="2" points="1099.2,-91.6 1088.84,-93.79 1098.31,-98.54 1099.2,-91.6"/>
</g>
<!-- 20 -->
<g id="node21" class="node">
<title>20</title>
<path fill="none" stroke="#56d8c1" stroke-width="2" d="M492,-324C492,-324 437,-324 437,-324 431,-324 425,-318 425,-312 425,-312 425,-300 425,-300 425,-294 431,-288 437,-288 437,-288 492,-288 492,-288 498,-288 504,-294 504,-300 504,-300 504,-312 504,-312 504,-318 498,-324 492,-324"/>
<text text-anchor="middle" x="464.5" y="-303.5" font-family="sans" font-size="10.00">make_nblink</text>
</g>
<!-- 3&#45;&gt;20 -->
<g id="edge59" class="edge">
<title>3&#45;&gt;20</title>
<path fill="none" stroke="grey" stroke-width="2" d="M874.15,-950.33C772.54,-945.03 572.28,-930.94 509.5,-900 419.29,-855.55 350.5,-839.57 350.5,-739 350.5,-739 350.5,-739 350.5,-521 350.5,-444.76 407.56,-369.28 440.94,-331.65"/>
<polygon fill="grey" stroke="grey" stroke-width="2" points="443.56,-333.97 447.68,-324.21 438.37,-329.27 443.56,-333.97"/>
</g>
<!-- 3&#45;&gt;22 -->
<g id="edge74" class="edge">
<title>3&#45;&gt;22</title>
<path fill="none" stroke="grey" stroke-width="2" d="M994.61,-939.35C1052.08,-922.99 1136.45,-889.72 1181.5,-828 1243.49,-743.07 1222.5,-700.15 1222.5,-595 1222.5,-595 1222.5,-595 1222.5,-521 1222.5,-442.43 1193.53,-425.07 1149.5,-360 1124.66,-323.29 1116.77,-313.48 1080.5,-288 1048.26,-265.35 1032.93,-272.85 999.5,-252 978.35,-238.81 978.51,-227.69 956.5,-216 912.07,-192.42 855.92,-178.24 817.2,-170.57"/>
<polygon fill="grey" stroke="grey" stroke-width="2" points="817.73,-167.1 807.25,-168.66 816.42,-173.98 817.73,-167.1"/>
</g>
<!-- 4 -->
<g id="node5" class="node">
<title>4</title>
<path fill="none" stroke="#d89556" stroke-width="2" d="M243.5,-1044C243.5,-1044 133.5,-1044 133.5,-1044 127.5,-1044 121.5,-1038 121.5,-1032 121.5,-1032 121.5,-1020 121.5,-1020 121.5,-1014 127.5,-1008 133.5,-1008 133.5,-1008 243.5,-1008 243.5,-1008 249.5,-1008 255.5,-1014 255.5,-1020 255.5,-1020 255.5,-1032 255.5,-1032 255.5,-1038 249.5,-1044 243.5,-1044"/>
<text text-anchor="middle" x="188.5" y="-1023.5" font-family="sans" font-size="10.00">build_pacbio_consensus</text>
</g>
<!-- 4&#45;&gt;3 -->
<g id="edge11" class="edge">
<title>4&#45;&gt;3</title>
<path fill="none" stroke="grey" stroke-width="2" d="M255.69,-1018.7C396.46,-1005.49 721.17,-975.02 864.42,-961.58"/>
<polygon fill="grey" stroke="grey" stroke-width="2" points="864.79,-965.06 874.42,-960.64 864.13,-958.09 864.79,-965.06"/>
</g>
<!-- 4&#45;&gt;16 -->
<g id="edge41" class="edge">
<title>4&#45;&gt;16</title>
<path fill="none" stroke="grey" stroke-width="2" d="M174.5,-1007.82C155.13,-982.26 122.5,-931.93 122.5,-883 122.5,-883 122.5,-883 122.5,-449 122.5,-294.03 153.98,-215.45 291.5,-144 354.12,-111.47 841.55,-96.29 999.95,-92.19"/>
<polygon fill="grey" stroke="grey" stroke-width="2" points="1000.43,-95.68 1010.34,-91.92 1000.26,-88.68 1000.43,-95.68"/>
</g>
<!-- 4&#45;&gt;20 -->
<g id="edge56" class="edge">
<title>4&#45;&gt;20</title>
<path fill="none" stroke="grey" stroke-width="2" d="M202.71,-1007.86C222.38,-982.34 255.5,-932.07 255.5,-883 255.5,-883 255.5,-883 255.5,-737 255.5,-641.51 274.5,-618.49 274.5,-523 274.5,-523 274.5,-523 274.5,-449 274.5,-378.88 358.56,-339.22 414.85,-320.52"/>
<polygon fill="grey" stroke="grey" stroke-width="2" points="416.21,-323.76 424.67,-317.37 414.08,-317.09 416.21,-323.76"/>
</g>
<!-- 4&#45;&gt;22 -->
<g id="edge70" class="edge">
<title>4&#45;&gt;22</title>
<path fill="none" stroke="grey" stroke-width="2" d="M182.83,-1007.73C174.65,-981.21 160.5,-928.73 160.5,-883 160.5,-883 160.5,-883 160.5,-377 160.5,-334.88 224.8,-238.34 260.5,-216 337.5,-167.82 615.44,-162.75 725.84,-162.7"/>
<polygon fill="grey" stroke="grey" stroke-width="2" points="725.99,-166.2 735.99,-162.71 725.99,-159.2 725.99,-166.2"/>
</g>
<!-- 5 -->
<g id="node6" class="node">
<title>5</title>
<path fill="none" stroke="#56d86b" stroke-width="2" d="M110,-1116C110,-1116 21,-1116 21,-1116 15,-1116 9,-1110 9,-1104 9,-1104 9,-1092 9,-1092 9,-1086 15,-1080 21,-1080 21,-1080 110,-1080 110,-1080 116,-1080 122,-1086 122,-1092 122,-1092 122,-1104 122,-1104 122,-1110 116,-1116 110,-1116"/>
<text text-anchor="middle" x="65.5" y="-1095.5" font-family="sans" font-size="10.00">analyze_pacbio_ccs</text>
</g>
<!-- 5&#45;&gt;4 -->
<g id="edge13" class="edge">
<title>5&#45;&gt;4</title>
<path fill="none" stroke="grey" stroke-width="2" d="M95.59,-1079.88C111.82,-1070.64 132.04,-1059.13 149.47,-1049.21"/>
<polygon fill="grey" stroke="grey" stroke-width="2" points="151.34,-1052.18 158.3,-1044.19 147.87,-1046.09 151.34,-1052.18"/>
</g>
<!-- 5&#45;&gt;16 -->
<g id="edge44" class="edge">
<title>5&#45;&gt;16</title>
<path fill="none" stroke="grey" stroke-width="2" d="M53.69,-1079.96C36.99,-1054.16 8.5,-1003.08 8.5,-955 8.5,-955 8.5,-955 8.5,-377 8.5,-234.58 95.91,-195.99 228.5,-144 300.19,-115.89 833.64,-97.53 1000.06,-92.44"/>
<polygon fill="grey" stroke="grey" stroke-width="2" points="1000.59,-95.93 1010.48,-92.12 1000.38,-88.93 1000.59,-95.93"/>
</g>
<!-- 5&#45;&gt;20 -->
<g id="edge58" class="edge">
<title>5&#45;&gt;20</title>
<path fill="none" stroke="grey" stroke-width="2" d="M69.34,-1079.61C74.9,-1052.94 84.5,-1000.27 84.5,-955 84.5,-955 84.5,-955 84.5,-449 84.5,-379.29 311.71,-332.48 414.75,-314.84"/>
<polygon fill="grey" stroke="grey" stroke-width="2" points="415.63,-318.24 424.91,-313.13 414.47,-311.34 415.63,-318.24"/>
</g>
<!-- 5&#45;&gt;22 -->
<g id="edge73" class="edge">
<title>5&#45;&gt;22</title>
<path fill="none" stroke="grey" stroke-width="2" d="M61.66,-1079.61C56.1,-1052.94 46.5,-1000.27 46.5,-955 46.5,-955 46.5,-955 46.5,-377 46.5,-271.31 125,-259.09 221.5,-216 311.33,-175.9 610.24,-166.03 725.57,-163.7"/>
<polygon fill="grey" stroke="grey" stroke-width="2" points="725.89,-167.19 735.82,-163.5 725.75,-160.19 725.89,-167.19"/>
</g>
<!-- 6 -->
<g id="node7" class="node">
<title>6</title>
<path fill="none" stroke="#97d856" stroke-width="2" d="M119,-1188C119,-1188 12,-1188 12,-1188 6,-1188 0,-1182 0,-1176 0,-1176 0,-1164 0,-1164 0,-1158 6,-1152 12,-1152 12,-1152 119,-1152 119,-1152 125,-1152 131,-1158 131,-1164 131,-1164 131,-1176 131,-1176 131,-1182 125,-1188 119,-1188"/>
<text text-anchor="middle" x="65.5" y="-1167.5" font-family="sans" font-size="10.00">align_parse_PacBio_ccs</text>
</g>
<!-- 6&#45;&gt;5 -->
<g id="edge14" class="edge">
<title>6&#45;&gt;5</title>
<path fill="none" stroke="grey" stroke-width="2" d="M65.5,-1151.7C65.5,-1143.98 65.5,-1134.71 65.5,-1126.11"/>
<polygon fill="grey" stroke="grey" stroke-width="2" points="69,-1126.1 65.5,-1116.1 62,-1126.1 69,-1126.1"/>
</g>
<!-- 7 -->
<g id="node8" class="node">
<title>7</title>
<path fill="none" stroke="#56c1d8" stroke-width="2" d="M1058.5,-1116C1058.5,-1116 990.5,-1116 990.5,-1116 984.5,-1116 978.5,-1110 978.5,-1104 978.5,-1104 978.5,-1092 978.5,-1092 978.5,-1086 984.5,-1080 990.5,-1080 990.5,-1080 1058.5,-1080 1058.5,-1080 1064.5,-1080 1070.5,-1086 1070.5,-1092 1070.5,-1092 1070.5,-1104 1070.5,-1104 1070.5,-1110 1064.5,-1116 1058.5,-1116"/>
<text text-anchor="middle" x="1024.5" y="-1095.5" font-family="sans" font-size="10.00">gene_sequence</text>
</g>
<!-- 7&#45;&gt;1 -->
<g id="edge7" class="edge">
<title>7&#45;&gt;1</title>
<path fill="none" stroke="grey" stroke-width="2" d="M1042.17,-1079.8C1051.24,-1070.07 1061.78,-1057.22 1068.5,-1044 1103.62,-974.93 1118.83,-883.47 1124.54,-838.44"/>
<polygon fill="grey" stroke="grey" stroke-width="2" points="1128.04,-838.64 1125.76,-828.29 1121.09,-837.8 1128.04,-838.64"/>
</g>
<!-- 7&#45;&gt;3 -->
<g id="edge10" class="edge">
<title>7&#45;&gt;3</title>
<path fill="none" stroke="grey" stroke-width="2" d="M1013.64,-1079.87C998.03,-1055.24 969.13,-1009.64 950.91,-980.88"/>
<polygon fill="grey" stroke="grey" stroke-width="2" points="953.7,-978.76 945.39,-972.19 947.79,-982.51 953.7,-978.76"/>
</g>
<!-- 7&#45;&gt;4 -->
<g id="edge12" class="edge">
<title>7&#45;&gt;4</title>
<path fill="none" stroke="grey" stroke-width="2" d="M978.11,-1095.53C860.72,-1091.42 542.51,-1077.81 279.5,-1044 275.08,-1043.43 270.54,-1042.79 265.97,-1042.09"/>
<polygon fill="grey" stroke="grey" stroke-width="2" points="266.38,-1038.61 255.95,-1040.48 265.27,-1045.52 266.38,-1038.61"/>
</g>
<!-- 7&#45;&gt;9 -->
<g id="edge17" class="edge">
<title>7&#45;&gt;9</title>
<path fill="none" stroke="grey" stroke-width="2" d="M1030.57,-1079.76C1039.34,-1053.28 1054.5,-1000.86 1054.5,-955 1054.5,-955 1054.5,-955 1054.5,-881 1054.5,-819.88 989.91,-781.19 937.68,-759.89"/>
<polygon fill="grey" stroke="grey" stroke-width="2" points="938.68,-756.52 928.09,-756.12 936.12,-763.04 938.68,-756.52"/>
</g>
<!-- 7&#45;&gt;13 -->
<g id="edge25" class="edge">
<title>7&#45;&gt;13</title>
<path fill="none" stroke="grey" stroke-width="2" d="M978.25,-1096.55C831.89,-1093.91 388.5,-1075.91 388.5,-955 388.5,-955 388.5,-955 388.5,-737 388.5,-647.51 513.13,-613.33 583.51,-601.17"/>
<polygon fill="grey" stroke="grey" stroke-width="2" points="584.18,-604.6 593.48,-599.53 583.05,-597.7 584.18,-604.6"/>
</g>
<!-- 7&#45;&gt;15 -->
<g id="edge30" class="edge">
<title>7&#45;&gt;15</title>
<path fill="none" stroke="grey" stroke-width="2" d="M1070.79,-1097.82C1163.36,-1096.8 1362.5,-1080.07 1362.5,-955 1362.5,-955 1362.5,-955 1362.5,-881 1362.5,-754.25 1221.11,-658.18 1148.08,-617.01"/>
<polygon fill="grey" stroke="grey" stroke-width="2" points="1149.54,-613.82 1139.1,-612.04 1146.15,-619.95 1149.54,-613.82"/>
</g>
<!-- 7&#45;&gt;16 -->
<g id="edge33" class="edge">
<title>7&#45;&gt;16</title>
<path fill="none" stroke="grey" stroke-width="2" d="M1070.62,-1093.42C1147.35,-1086.78 1297.29,-1070.78 1342.5,-1044 1385.8,-1018.35 1412.5,-1005.32 1412.5,-955 1412.5,-955 1412.5,-955 1412.5,-449 1412.5,-296.94 1376.21,-239.03 1257.5,-144 1212.02,-107.59 1144.53,-95.89 1098.86,-92.29"/>
<polygon fill="grey" stroke="grey" stroke-width="2" points="1098.82,-88.78 1088.61,-91.59 1098.35,-95.76 1098.82,-88.78"/>
</g>
<!-- 7&#45;&gt;22 -->
<g id="edge62" class="edge">
<title>7&#45;&gt;22</title>
<path fill="none" stroke="grey" stroke-width="2" d="M978.07,-1095.8C856.25,-1092.18 529.89,-1079.38 428.5,-1044 360.65,-1020.32 293.5,-1026.87 293.5,-955 293.5,-955 293.5,-955 293.5,-737 293.5,-638.57 236.5,-621.43 236.5,-523 236.5,-523 236.5,-523 236.5,-449 236.5,-366.64 431.74,-219.39 438.5,-216 488.08,-191.14 646.71,-174.04 725.79,-166.84"/>
<polygon fill="grey" stroke="grey" stroke-width="2" points="726.3,-170.31 735.94,-165.93 725.67,-163.34 726.3,-170.31"/>
</g>
<!-- 8 -->
<g id="node9" class="node">
<title>8</title>
<path fill="none" stroke="#d6d856" stroke-width="2" d="M1056,-684C1056,-684 907,-684 907,-684 901,-684 895,-678 895,-672 895,-672 895,-660 895,-660 895,-654 901,-648 907,-648 907,-648 1056,-648 1056,-648 1062,-648 1068,-654 1068,-660 1068,-660 1068,-672 1068,-672 1068,-678 1062,-684 1056,-684"/>
<text text-anchor="middle" x="981.5" y="-663.5" font-family="sans" font-size="10.00">check_adequate_variant_counts</text>
</g>
<!-- 8&#45;&gt;0 -->
<g id="edge3" class="edge">
<title>8&#45;&gt;0</title>
<path fill="none" stroke="grey" stroke-width="2" d="M995.24,-647.77C1010.06,-629.47 1034.61,-599.94 1057.5,-576 1210.94,-415.56 1422.5,-457 1422.5,-235 1422.5,-235 1422.5,-235 1422.5,-161 1422.5,-115.64 1391.98,-70.75 1369.62,-43.95"/>
<polygon fill="grey" stroke="grey" stroke-width="2" points="1372.16,-41.53 1362.99,-36.23 1366.86,-46.09 1372.16,-41.53"/>
</g>
<!-- 8&#45;&gt;13 -->
<g id="edge26" class="edge">
<title>8&#45;&gt;13</title>
<path fill="none" stroke="grey" stroke-width="2" d="M896.08,-647.97C827.31,-634.25 733.22,-615.49 677.46,-604.37"/>
<polygon fill="grey" stroke="grey" stroke-width="2" points="678,-600.9 667.51,-602.38 676.63,-607.77 678,-600.9"/>
</g>
<!-- 8&#45;&gt;15 -->
<g id="edge31" class="edge">
<title>8&#45;&gt;15</title>
<path fill="none" stroke="grey" stroke-width="2" d="M1011.83,-647.88C1028.2,-638.64 1048.58,-627.13 1066.15,-617.21"/>
<polygon fill="grey" stroke="grey" stroke-width="2" points="1068.06,-620.15 1075.05,-612.19 1064.62,-614.06 1068.06,-620.15"/>
</g>
<!-- 9&#45;&gt;8 -->
<g id="edge15" class="edge">
<title>9&#45;&gt;8</title>
<path fill="none" stroke="grey" stroke-width="2" d="M899.16,-719.88C913.28,-710.81 930.81,-699.55 946.06,-689.76"/>
<polygon fill="grey" stroke="grey" stroke-width="2" points="948.21,-692.54 954.73,-684.19 944.43,-686.65 948.21,-692.54"/>
</g>
<!-- 9&#45;&gt;16 -->
<g id="edge43" class="edge">
<title>9&#45;&gt;16</title>
<path fill="none" stroke="grey" stroke-width="2" d="M871.98,-719.91C872.11,-701.2 874.44,-670.82 886.5,-648 979.32,-472.33 1136.71,-514.09 1194.5,-324 1217.91,-246.99 1229.85,-202.45 1174.5,-144 1154.33,-122.7 1124.22,-109.58 1098.6,-101.72"/>
<polygon fill="grey" stroke="grey" stroke-width="2" points="1099.25,-98.27 1088.68,-98.87 1097.32,-105 1099.25,-98.27"/>
</g>
<!-- 9&#45;&gt;20 -->
<g id="edge57" class="edge">
<title>9&#45;&gt;20</title>
<path fill="none" stroke="grey" stroke-width="2" d="M806.35,-728.49C707.48,-711.85 523.86,-664.98 440.5,-540 396.1,-473.43 416.71,-437.53 436.5,-360 438.86,-350.77 443.11,-341.36 447.6,-333.09"/>
<polygon fill="grey" stroke="grey" stroke-width="2" points="450.71,-334.7 452.68,-324.29 444.65,-331.2 450.71,-334.7"/>
</g>
<!-- 9&#45;&gt;22 -->
<g id="edge72" class="edge">
<title>9&#45;&gt;22</title>
<path fill="none" stroke="grey" stroke-width="2" d="M854.3,-719.6C830.14,-694.53 790.5,-645.67 790.5,-595 790.5,-595 790.5,-595 790.5,-305 790.5,-264.86 782.95,-218.9 777.37,-190.4"/>
<polygon fill="grey" stroke="grey" stroke-width="2" points="780.76,-189.5 775.34,-180.39 773.89,-190.88 780.76,-189.5"/>
</g>
<!-- 10 -->
<g id="node11" class="node">
<title>10</title>
<path fill="none" stroke="#566bd8" stroke-width="2" d="M928.5,-396C928.5,-396 830.5,-396 830.5,-396 824.5,-396 818.5,-390 818.5,-384 818.5,-384 818.5,-372 818.5,-372 818.5,-366 824.5,-360 830.5,-360 830.5,-360 928.5,-360 928.5,-360 934.5,-360 940.5,-366 940.5,-372 940.5,-372 940.5,-384 940.5,-384 940.5,-390 934.5,-396 928.5,-396"/>
<text text-anchor="middle" x="879.5" y="-375.5" font-family="sans" font-size="10.00">avg_antibody_escape</text>
</g>
<!-- 10&#45;&gt;0 -->
<g id="edge5" class="edge">
<title>10&#45;&gt;0</title>
<path fill="none" stroke="grey" stroke-width="2" d="M921.54,-359.86C971.17,-338.56 1054.98,-299.2 1118.5,-252 1205.31,-187.49 1289.57,-89.45 1326.71,-43.89"/>
<polygon fill="grey" stroke="grey" stroke-width="2" points="1329.51,-45.99 1333.09,-36.01 1324.07,-41.58 1329.51,-45.99"/>
</g>
<!-- 10&#45;&gt;16 -->
<g id="edge48" class="edge">
<title>10&#45;&gt;16</title>
<path fill="none" stroke="grey" stroke-width="2" d="M896.9,-359.7C917.62,-339.94 954.03,-307.8 990.5,-288 1035.34,-263.66 1069.61,-293.35 1099.5,-252 1129.56,-210.41 1094.99,-150.27 1070.22,-116.5"/>
<polygon fill="grey" stroke="grey" stroke-width="2" points="1072.69,-113.96 1063.87,-108.11 1067.11,-118.19 1072.69,-113.96"/>
</g>
<!-- 10&#45;&gt;20 -->
<g id="edge61" class="edge">
<title>10&#45;&gt;20</title>
<path fill="none" stroke="grey" stroke-width="2" d="M818.27,-366.67C735.79,-352.76 590.59,-328.27 514.39,-315.42"/>
<polygon fill="grey" stroke="grey" stroke-width="2" points="514.55,-311.89 504.11,-313.68 513.39,-318.8 514.55,-311.89"/>
</g>
<!-- 10&#45;&gt;22 -->
<g id="edge76" class="edge">
<title>10&#45;&gt;22</title>
<path fill="none" stroke="grey" stroke-width="2" d="M872.28,-359.75C859.62,-329.91 832.11,-266.97 804.5,-216 799.65,-207.04 793.91,-197.52 788.59,-189.05"/>
<polygon fill="grey" stroke="grey" stroke-width="2" points="791.37,-186.9 783.04,-180.35 785.47,-190.66 791.37,-186.9"/>
</g>
<!-- 11 -->
<g id="node12" class="node">
<title>11</title>
<path fill="none" stroke="#56d882" stroke-width="2" d="M536.5,-468C536.5,-468 468.5,-468 468.5,-468 462.5,-468 456.5,-462 456.5,-456 456.5,-456 456.5,-444 456.5,-444 456.5,-438 462.5,-432 468.5,-432 468.5,-432 536.5,-432 536.5,-432 542.5,-432 548.5,-438 548.5,-444 548.5,-444 548.5,-456 548.5,-456 548.5,-462 542.5,-468 536.5,-468"/>
<text text-anchor="middle" x="502.5" y="-447.5" font-family="sans" font-size="10.00">avg_muteffects</text>
</g>
<!-- 11&#45;&gt;0 -->
<g id="edge4" class="edge">
<title>11&#45;&gt;0</title>
<path fill="none" stroke="grey" stroke-width="2" d="M474.47,-431.93C398.84,-383.89 202.22,-244.48 291.5,-144 360.72,-66.1 1129.93,-28.32 1309.28,-20.54"/>
<polygon fill="grey" stroke="grey" stroke-width="2" points="1309.44,-24.03 1319.28,-20.11 1309.14,-17.04 1309.44,-24.03"/>
</g>
<!-- 11&#45;&gt;10 -->
<g id="edge21" class="edge">
<title>11&#45;&gt;10</title>
<path fill="none" stroke="grey" stroke-width="2" d="M548.73,-440.42C613.55,-428.38 732.05,-406.38 808.21,-392.24"/>
<polygon fill="grey" stroke="grey" stroke-width="2" points="809.01,-395.65 818.21,-390.38 807.74,-388.77 809.01,-395.65"/>
</g>
<!-- 11&#45;&gt;16 -->
<g id="edge46" class="edge">
<title>11&#45;&gt;16</title>
<path fill="none" stroke="grey" stroke-width="2" d="M507.04,-431.87C522.06,-378.87 575.51,-216.74 684.5,-144 735.23,-110.14 912.59,-97.33 1000.02,-92.98"/>
<polygon fill="grey" stroke="grey" stroke-width="2" points="1000.4,-96.47 1010.22,-92.5 1000.06,-89.48 1000.4,-96.47"/>
</g>
<!-- 11&#45;&gt;20 -->
<g id="edge60" class="edge">
<title>11&#45;&gt;20</title>
<path fill="none" stroke="grey" stroke-width="2" d="M497.92,-431.87C491.41,-407.56 479.44,-362.82 471.73,-334.01"/>
<polygon fill="grey" stroke="grey" stroke-width="2" points="475.07,-332.94 469.1,-324.19 468.3,-334.75 475.07,-332.94"/>
</g>
<!-- 11&#45;&gt;22 -->
<g id="edge75" class="edge">
<title>11&#45;&gt;22</title>
<path fill="none" stroke="grey" stroke-width="2" d="M548.5,-449.02C592.35,-446.47 657.21,-435.59 695.5,-396 752.68,-336.87 706.8,-291.9 738.5,-216 742.37,-206.75 747.75,-197.26 753.05,-188.91"/>
<polygon fill="grey" stroke="grey" stroke-width="2" points="756.1,-190.65 758.69,-180.37 750.25,-186.79 756.1,-190.65"/>
</g>
<!-- 12 -->
<g id="node13" class="node">
<title>12</title>
<path fill="none" stroke="#56d8a9" stroke-width="2" d="M543,-540C543,-540 462,-540 462,-540 456,-540 450,-534 450,-528 450,-528 450,-516 450,-516 450,-510 456,-504 462,-504 462,-504 543,-504 543,-504 549,-504 555,-510 555,-516 555,-516 555,-528 555,-528 555,-534 549,-540 543,-540"/>
<text text-anchor="middle" x="502.5" y="-519.5" font-family="sans" font-size="10.00">fit_globalepistasis</text>
</g>
<!-- 12&#45;&gt;11 -->
<g id="edge22" class="edge">
<title>12&#45;&gt;11</title>
<path fill="none" stroke="grey" stroke-width="2" d="M502.5,-503.7C502.5,-495.98 502.5,-486.71 502.5,-478.11"/>
<polygon fill="grey" stroke="grey" stroke-width="2" points="506,-478.1 502.5,-468.1 499,-478.1 506,-478.1"/>
</g>
<!-- 12&#45;&gt;16 -->
<g id="edge36" class="edge">
<title>12&#45;&gt;16</title>
<path fill="none" stroke="grey" stroke-width="2" d="M469.6,-503.88C386.6,-458.43 180.8,-330.39 260.5,-216 313.31,-140.2 365.37,-164.28 455.5,-144 653.98,-99.33 897.74,-92.01 1000.32,-91.02"/>
<polygon fill="grey" stroke="grey" stroke-width="2" points="1000.41,-94.52 1010.38,-90.94 1000.35,-87.52 1000.41,-94.52"/>
</g>
<!-- 12&#45;&gt;20 -->
<g id="edge53" class="edge">
<title>12&#45;&gt;20</title>
<path fill="none" stroke="grey" stroke-width="2" d="M477.12,-503.95C465.79,-494.79 453.62,-482.4 447.5,-468 428.75,-423.89 442.52,-367.1 453.81,-334.1"/>
<polygon fill="grey" stroke="grey" stroke-width="2" points="457.26,-334.86 457.35,-324.27 450.67,-332.49 457.26,-334.86"/>
</g>
<!-- 12&#45;&gt;22 -->
<g id="edge65" class="edge">
<title>12&#45;&gt;22</title>
<path fill="none" stroke="grey" stroke-width="2" d="M555.44,-504.96C606.18,-486.79 680.99,-452.17 722.5,-396 768.67,-333.52 773.46,-237.21 772.74,-190.41"/>
<polygon fill="grey" stroke="grey" stroke-width="2" points="776.23,-190.06 772.48,-180.15 769.24,-190.23 776.23,-190.06"/>
</g>
<!-- 13&#45;&gt;12 -->
<g id="edge23" class="edge">
<title>13&#45;&gt;12</title>
<path fill="none" stroke="grey" stroke-width="2" d="M599.19,-575.88C582.3,-566.64 561.25,-555.13 543.12,-545.21"/>
<polygon fill="grey" stroke="grey" stroke-width="2" points="544.39,-541.92 533.93,-540.19 541.03,-548.06 544.39,-541.92"/>
</g>
<!-- 17 -->
<g id="node18" class="node">
<title>17</title>
<path fill="none" stroke="#569ad8" stroke-width="2" d="M674.5,-396C674.5,-396 580.5,-396 580.5,-396 574.5,-396 568.5,-390 568.5,-384 568.5,-384 568.5,-372 568.5,-372 568.5,-366 574.5,-360 580.5,-360 580.5,-360 674.5,-360 674.5,-360 680.5,-360 686.5,-366 686.5,-372 686.5,-372 686.5,-384 686.5,-384 686.5,-390 680.5,-396 674.5,-396"/>
<text text-anchor="middle" x="627.5" y="-375.5" font-family="sans" font-size="10.00">analyze_func_scores</text>
</g>
<!-- 13&#45;&gt;17 -->
<g id="edge49" class="edge">
<title>13&#45;&gt;17</title>
<path fill="none" stroke="grey" stroke-width="2" d="M630.26,-575.85C629.74,-538.83 628.51,-451.18 627.88,-406.39"/>
<polygon fill="grey" stroke="grey" stroke-width="2" points="631.38,-406.18 627.74,-396.23 624.38,-406.28 631.38,-406.18"/>
</g>
<!-- 14 -->
<g id="node15" class="node">
<title>14</title>
<path fill="none" stroke="#80d856" stroke-width="2" d="M997.5,-468C997.5,-468 939.5,-468 939.5,-468 933.5,-468 927.5,-462 927.5,-456 927.5,-456 927.5,-444 927.5,-444 927.5,-438 933.5,-432 939.5,-432 939.5,-432 997.5,-432 997.5,-432 1003.5,-432 1009.5,-438 1009.5,-444 1009.5,-444 1009.5,-456 1009.5,-456 1009.5,-462 1003.5,-468 997.5,-468"/>
<text text-anchor="middle" x="968.5" y="-447.5" font-family="sans" font-size="10.00">fit_polyclonal</text>
</g>
<!-- 14&#45;&gt;10 -->
<g id="edge20" class="edge">
<title>14&#45;&gt;10</title>
<path fill="none" stroke="grey" stroke-width="2" d="M946.5,-431.7C935.29,-422.88 921.5,-412.03 909.35,-402.47"/>
<polygon fill="grey" stroke="grey" stroke-width="2" points="911.27,-399.54 901.25,-396.1 906.94,-405.04 911.27,-399.54"/>
</g>
<!-- 14&#45;&gt;16 -->
<g id="edge34" class="edge">
<title>14&#45;&gt;16</title>
<path fill="none" stroke="grey" stroke-width="2" d="M1009.84,-446.68C1046.34,-442.33 1098.18,-430.08 1127.5,-396 1200.88,-310.71 1210.57,-239.75 1151.5,-144 1139.61,-124.72 1118.2,-112.12 1098.06,-104.06"/>
<polygon fill="grey" stroke="grey" stroke-width="2" points="1099.23,-100.76 1088.63,-100.57 1096.79,-107.32 1099.23,-100.76"/>
</g>
<!-- 14&#45;&gt;20 -->
<g id="edge52" class="edge">
<title>14&#45;&gt;20</title>
<path fill="none" stroke="grey" stroke-width="2" d="M927.31,-446.87C836.93,-441.68 624.17,-426.51 559.5,-396 528.46,-381.36 500.82,-352.77 483.47,-331.94"/>
<polygon fill="grey" stroke="grey" stroke-width="2" points="486.13,-329.67 477.12,-324.1 480.69,-334.07 486.13,-329.67"/>
</g>
<!-- 14&#45;&gt;22 -->
<g id="edge63" class="edge">
<title>14&#45;&gt;22</title>
<path fill="none" stroke="grey" stroke-width="2" d="M967.35,-431.78C965.54,-413.22 960.97,-383.23 949.5,-360 913.32,-286.73 841.89,-220.46 801.38,-186.64"/>
<polygon fill="grey" stroke="grey" stroke-width="2" points="803.41,-183.78 793.46,-180.12 798.96,-189.18 803.41,-183.78"/>
</g>
<!-- 15&#45;&gt;14 -->
<g id="edge28" class="edge">
<title>15&#45;&gt;14</title>
<path fill="none" stroke="grey" stroke-width="2" d="M1085.69,-575.83C1074.26,-565.68 1059.76,-552.43 1047.5,-540 1027,-519.2 1005.05,-494.24 989.51,-476.05"/>
<polygon fill="grey" stroke="grey" stroke-width="2" points="991.99,-473.56 982.84,-468.21 986.65,-478.09 991.99,-473.56"/>
</g>
<!-- 18 -->
<g id="node19" class="node">
<title>18</title>
<path fill="none" stroke="#5682d8" stroke-width="2" d="M1106.5,-396C1106.5,-396 1008.5,-396 1008.5,-396 1002.5,-396 996.5,-390 996.5,-384 996.5,-384 996.5,-372 996.5,-372 996.5,-366 1002.5,-360 1008.5,-360 1008.5,-360 1106.5,-360 1106.5,-360 1112.5,-360 1118.5,-366 1118.5,-372 1118.5,-372 1118.5,-384 1118.5,-384 1118.5,-390 1112.5,-396 1106.5,-396"/>
<text text-anchor="middle" x="1057.5" y="-375.5" font-family="sans" font-size="10.00">analyze_prob_escape</text>
</g>
<!-- 15&#45;&gt;18 -->
<g id="edge50" class="edge">
<title>15&#45;&gt;18</title>
<path fill="none" stroke="grey" stroke-width="2" d="M1101.65,-575.85C1093.33,-538.75 1073.61,-450.81 1063.58,-406.1"/>
<polygon fill="grey" stroke="grey" stroke-width="2" points="1066.97,-405.22 1061.37,-396.23 1060.14,-406.76 1066.97,-405.22"/>
</g>
<!-- 16&#45;&gt;0 -->
<g id="edge1" class="edge">
<title>16&#45;&gt;0</title>
<path fill="none" stroke="grey" stroke-width="2" d="M1088.63,-79.78C1146.17,-66.22 1252.85,-41.07 1309.28,-27.77"/>
<polygon fill="grey" stroke="grey" stroke-width="2" points="1310.27,-31.13 1319.21,-25.43 1308.67,-24.32 1310.27,-31.13"/>
</g>
<!-- 17&#45;&gt;16 -->
<g id="edge37" class="edge">
<title>17&#45;&gt;16</title>
<path fill="none" stroke="grey" stroke-width="2" d="M628.59,-359.71C632.5,-314.49 649.99,-192.82 726.5,-144 771.03,-115.59 921.22,-100.49 1000.13,-94.35"/>
<polygon fill="grey" stroke="grey" stroke-width="2" points="1000.6,-97.83 1010.31,-93.58 1000.07,-90.85 1000.6,-97.83"/>
</g>
<!-- 17&#45;&gt;20 -->
<g id="edge54" class="edge">
<title>17&#45;&gt;20</title>
<path fill="none" stroke="grey" stroke-width="2" d="M587.63,-359.88C565.34,-350.31 537.38,-338.3 513.74,-328.15"/>
<polygon fill="grey" stroke="grey" stroke-width="2" points="514.81,-324.8 504.24,-324.07 512.05,-331.23 514.81,-324.8"/>
</g>
<!-- 17&#45;&gt;22 -->
<g id="edge66" class="edge">
<title>17&#45;&gt;22</title>
<path fill="none" stroke="grey" stroke-width="2" d="M634,-359.87C648.03,-323.46 681.4,-239.73 700.5,-216 709.73,-204.52 721.99,-194.22 733.72,-185.81"/>
<polygon fill="grey" stroke="grey" stroke-width="2" points="735.87,-188.59 742.12,-180.04 731.9,-182.82 735.87,-188.59"/>
</g>
<!-- 18&#45;&gt;16 -->
<g id="edge38" class="edge">
<title>18&#45;&gt;16</title>
<path fill="none" stroke="grey" stroke-width="2" d="M1072.08,-359.73C1103.9,-319.82 1173.54,-218.91 1132.5,-144 1124.75,-129.86 1111.44,-118.94 1097.72,-110.79"/>
<polygon fill="grey" stroke="grey" stroke-width="2" points="1099.15,-107.58 1088.7,-105.83 1095.78,-113.72 1099.15,-107.58"/>
</g>
<!-- 18&#45;&gt;20 -->
<g id="edge55" class="edge">
<title>18&#45;&gt;20</title>
<path fill="none" stroke="grey" stroke-width="2" d="M996.46,-366.88C981.15,-364.48 964.74,-362.03 949.5,-360 790.8,-338.85 602.05,-320.04 514.14,-311.64"/>
<polygon fill="grey" stroke="grey" stroke-width="2" points="514.47,-308.16 504.18,-310.7 513.81,-315.13 514.47,-308.16"/>
</g>
<!-- 18&#45;&gt;22 -->
<g id="edge67" class="edge">
<title>18&#45;&gt;22</title>
<path fill="none" stroke="grey" stroke-width="2" d="M1044.74,-359.79C1030.32,-340.98 1005.59,-310.52 980.5,-288 959.58,-269.22 951.3,-268.44 928.5,-252 906.87,-236.41 903.26,-229.89 880.5,-216 860.19,-203.6 836.55,-191.81 816.49,-182.52"/>
<polygon fill="grey" stroke="grey" stroke-width="2" points="817.81,-179.27 807.26,-178.3 814.9,-185.64 817.81,-179.27"/>
</g>
<!-- 19 -->
<g id="node20" class="node">
<title>19</title>
<path fill="none" stroke="#d85656" stroke-width="2" d="M497,-252C497,-252 460,-252 460,-252 454,-252 448,-246 448,-240 448,-240 448,-228 448,-228 448,-222 454,-216 460,-216 460,-216 497,-216 497,-216 503,-216 509,-222 509,-228 509,-228 509,-240 509,-240 509,-246 503,-252 497,-252"/>
<text text-anchor="middle" x="478.5" y="-231.5" font-family="sans" font-size="10.00">subindex</text>
</g>
<!-- 19&#45;&gt;16 -->
<g id="edge35" class="edge">
<title>19&#45;&gt;16</title>
<path fill="none" stroke="grey" stroke-width="2" d="M488.95,-215.8C502.71,-194.85 529.01,-160.27 561.5,-144 637.55,-105.92 891.68,-95 999.96,-92.04"/>
<polygon fill="grey" stroke="grey" stroke-width="2" points="1000.37,-95.53 1010.28,-91.77 1000.19,-88.53 1000.37,-95.53"/>
</g>
<!-- 19&#45;&gt;22 -->
<g id="edge64" class="edge">
<title>19&#45;&gt;22</title>
<path fill="none" stroke="grey" stroke-width="2" d="M509.28,-220.67C514,-218.99 518.85,-217.37 523.5,-216 593.05,-195.56 675.73,-179.49 725.88,-170.62"/>
<polygon fill="grey" stroke="grey" stroke-width="2" points="726.51,-174.06 735.76,-168.89 725.31,-167.17 726.51,-174.06"/>
</g>
<!-- 20&#45;&gt;16 -->
<g id="edge39" class="edge">
<title>20&#45;&gt;16</title>
<path fill="none" stroke="grey" stroke-width="2" d="M452.59,-287.84C441.51,-269.59 428.13,-240.1 438.5,-216 456.88,-173.26 472.18,-163.34 514.5,-144 600.32,-104.79 884.3,-94.45 999.9,-91.84"/>
<polygon fill="grey" stroke="grey" stroke-width="2" points="1000.3,-95.34 1010.22,-91.62 1000.15,-88.34 1000.3,-95.34"/>
</g>
<!-- 20&#45;&gt;19 -->
<g id="edge51" class="edge">
<title>20&#45;&gt;19</title>
<path fill="none" stroke="grey" stroke-width="2" d="M467.96,-287.7C469.5,-279.98 471.36,-270.71 473.08,-262.11"/>
<polygon fill="grey" stroke="grey" stroke-width="2" points="476.55,-262.6 475.08,-252.1 469.69,-261.22 476.55,-262.6"/>
</g>
<!-- 20&#45;&gt;22 -->
<g id="edge68" class="edge">
<title>20&#45;&gt;22</title>
<path fill="none" stroke="grey" stroke-width="2" d="M501.53,-287.87C558,-261.75 665.47,-212.04 726.4,-183.86"/>
<polygon fill="grey" stroke="grey" stroke-width="2" points="728.16,-186.9 735.76,-179.53 725.22,-180.55 728.16,-186.9"/>
</g>
<!-- 21 -->
<g id="node22" class="node">
<title>21</title>
<path fill="none" stroke="#68d856" stroke-width="2" d="M1078.5,-252C1078.5,-252 1020.5,-252 1020.5,-252 1014.5,-252 1008.5,-246 1008.5,-240 1008.5,-240 1008.5,-228 1008.5,-228 1008.5,-222 1014.5,-216 1020.5,-216 1020.5,-216 1078.5,-216 1078.5,-216 1084.5,-216 1090.5,-222 1090.5,-228 1090.5,-228 1090.5,-240 1090.5,-240 1090.5,-246 1084.5,-252 1078.5,-252"/>
<text text-anchor="middle" x="1049.5" y="-231.5" font-family="sans" font-size="10.00">make_graphs</text>
</g>
<!-- 21&#45;&gt;16 -->
<g id="edge42" class="edge">
<title>21&#45;&gt;16</title>
<path fill="none" stroke="grey" stroke-width="2" d="M1049.5,-215.87C1049.5,-191.67 1049.5,-147.21 1049.5,-118.39"/>
<polygon fill="grey" stroke="grey" stroke-width="2" points="1053,-118.19 1049.5,-108.19 1046,-118.19 1053,-118.19"/>
</g>
<!-- 21&#45;&gt;22 -->
<g id="edge71" class="edge">
<title>21&#45;&gt;22</title>
<path fill="none" stroke="grey" stroke-width="2" d="M1008.44,-219.98C1003.75,-218.59 999.03,-217.24 994.5,-216 933.47,-199.34 862.24,-182.93 817.02,-172.89"/>
<polygon fill="grey" stroke="grey" stroke-width="2" points="817.74,-169.46 807.22,-170.72 816.23,-176.3 817.74,-169.46"/>
</g>
<!-- 22&#45;&gt;16 -->
<g id="edge47" class="edge">
<title>22&#45;&gt;16</title>
<path fill="none" stroke="grey" stroke-width="2" d="M807.27,-151.99C856.42,-139.62 945.01,-117.31 1000.35,-103.38"/>
<polygon fill="grey" stroke="grey" stroke-width="2" points="1001.44,-106.71 1010.28,-100.88 999.73,-99.92 1001.44,-106.71"/>
</g>
</g>
</svg>
