<?xml version="1.0" encoding="UTF-8" standalone="no"?>
<!DOCTYPE svg PUBLIC "-//W3C//DTD SVG 1.1//EN"
 "http://www.w3.org/Graphics/SVG/1.1/DTD/svg11.dtd">
<!-- Generated by graphviz version 6.0.1 (20220911.2005)
 -->
<!-- Title: snakemake_dag Pages: 1 -->
<svg width="1642pt" height="908pt"
 viewBox="0.00 0.00 1642.00 908.00" xmlns="http://www.w3.org/2000/svg" xmlns:xlink="http://www.w3.org/1999/xlink">
<g id="graph0" class="graph" transform="scale(1 1) rotate(0) translate(4 904)">
<title>snakemake_dag</title>
<polygon fill="white" stroke="none" points="-4,4 -4,-904 1638,-904 1638,4 -4,4"/>
<!-- 0 -->
<g id="node1" class="node">
<title>0</title>
<path fill="none" stroke="#a7d856" stroke-width="2" d="M1535,-36C1535,-36 1505,-36 1505,-36 1499,-36 1493,-30 1493,-24 1493,-24 1493,-12 1493,-12 1493,-6 1499,0 1505,0 1505,0 1535,0 1535,0 1541,0 1547,-6 1547,-12 1547,-12 1547,-24 1547,-24 1547,-30 1541,-36 1535,-36"/>
<text text-anchor="middle" x="1520" y="-15.5" font-family="sans" font-size="10.00">all</text>
</g>
<!-- 1 -->
<g id="node2" class="node">
<title>1</title>
<path fill="none" stroke="#56d87b" stroke-width="2" d="M773.5,-828C773.5,-828 708.5,-828 708.5,-828 702.5,-828 696.5,-822 696.5,-816 696.5,-816 696.5,-804 696.5,-804 696.5,-798 702.5,-792 708.5,-792 708.5,-792 773.5,-792 773.5,-792 779.5,-792 785.5,-798 785.5,-804 785.5,-804 785.5,-816 785.5,-816 785.5,-822 779.5,-828 773.5,-828"/>
<text text-anchor="middle" x="741" y="-807.5" font-family="sans" font-size="10.00">variant_counts</text>
</g>
<!-- 1&#45;&gt;0 -->
<g id="edge1" class="edge">
<title>1&#45;&gt;0</title>
<path fill="none" stroke="grey" stroke-width="2" d="M696.49,-800.14C541.96,-766.54 38,-632.06 38,-307 38,-307 38,-307 38,-161 38,-86.14 1251.98,-30.47 1482.47,-20.57"/>
<polygon fill="grey" stroke="grey" stroke-width="2" points="1482.85,-24.06 1492.69,-20.14 1482.55,-17.07 1482.85,-24.06"/>
</g>
<!-- 8 -->
<g id="node9" class="node">
<title>8</title>
<path fill="none" stroke="#ced856" stroke-width="2" d="M918,-756C918,-756 810,-756 810,-756 804,-756 798,-750 798,-744 798,-744 798,-732 798,-732 798,-726 804,-720 810,-720 810,-720 918,-720 918,-720 924,-720 930,-726 930,-732 930,-732 930,-744 930,-744 930,-750 924,-756 918,-756"/>
<text text-anchor="middle" x="864" y="-735.5" font-family="sans" font-size="10.00">analyze_variant_counts</text>
</g>
<!-- 1&#45;&gt;8 -->
<g id="edge13" class="edge">
<title>1&#45;&gt;8</title>
<path fill="none" stroke="grey" stroke-width="2" d="M771.09,-791.88C787.32,-782.64 807.54,-771.13 824.97,-761.21"/>
<polygon fill="grey" stroke="grey" stroke-width="2" points="826.84,-764.18 833.8,-756.19 823.37,-758.09 826.84,-764.18"/>
</g>
<!-- 12 -->
<g id="node13" class="node">
<title>12</title>
<path fill="none" stroke="#59d856" stroke-width="2" d="M860,-612C860,-612 810,-612 810,-612 804,-612 798,-606 798,-600 798,-600 798,-588 798,-588 798,-582 804,-576 810,-576 810,-576 860,-576 860,-576 866,-576 872,-582 872,-588 872,-588 872,-600 872,-600 872,-606 866,-612 860,-612"/>
<text text-anchor="middle" x="835" y="-591.5" font-family="sans" font-size="10.00">func_scores</text>
</g>
<!-- 1&#45;&gt;12 -->
<g id="edge19" class="edge">
<title>1&#45;&gt;12</title>
<path fill="none" stroke="grey" stroke-width="2" d="M743.69,-791.62C748.95,-761.05 762.46,-696.32 789,-648 794.57,-637.86 802.33,-627.95 809.9,-619.5"/>
<polygon fill="grey" stroke="grey" stroke-width="2" points="812.46,-621.88 816.72,-612.18 807.34,-617.11 812.46,-621.88"/>
</g>
<!-- 14 -->
<g id="node15" class="node">
<title>14</title>
<path fill="none" stroke="#56d8a9" stroke-width="2" d="M578,-612C578,-612 524,-612 524,-612 518,-612 512,-606 512,-600 512,-600 512,-588 512,-588 512,-582 518,-576 524,-576 524,-576 578,-576 578,-576 584,-576 590,-582 590,-588 590,-588 590,-600 590,-600 590,-606 584,-612 578,-612"/>
<text text-anchor="middle" x="551" y="-591.5" font-family="sans" font-size="10.00">prob_escape</text>
</g>
<!-- 1&#45;&gt;14 -->
<g id="edge23" class="edge">
<title>1&#45;&gt;14</title>
<path fill="none" stroke="grey" stroke-width="2" d="M719.55,-791.98C707.45,-781.99 692.35,-768.85 680,-756 636.94,-711.19 593,-653.17 569.14,-620.43"/>
<polygon fill="grey" stroke="grey" stroke-width="2" points="571.94,-618.33 563.24,-612.28 566.28,-622.43 571.94,-618.33"/>
</g>
<!-- 15 -->
<g id="node16" class="node">
<title>15</title>
<path fill="none" stroke="#d8bc56" stroke-width="2" d="M1064,-108C1064,-108 1010,-108 1010,-108 1004,-108 998,-102 998,-96 998,-96 998,-84 998,-84 998,-78 1004,-72 1010,-72 1010,-72 1064,-72 1064,-72 1070,-72 1076,-78 1076,-84 1076,-84 1076,-96 1076,-96 1076,-102 1070,-108 1064,-108"/>
<text text-anchor="middle" x="1037" y="-87.5" font-family="sans" font-size="10.00">sphinx_build</text>
</g>
<!-- 1&#45;&gt;15 -->
<g id="edge26" class="edge">
<title>1&#45;&gt;15</title>
<path fill="none" stroke="grey" stroke-width="2" d="M785.51,-806.02C956,-794.03 1558,-746.09 1558,-667 1558,-667 1558,-667 1558,-233 1558,-170.8 1507.08,-168.7 1450,-144 1385.57,-116.12 1181.19,-100.04 1086.29,-93.9"/>
<polygon fill="grey" stroke="grey" stroke-width="2" points="1086.3,-90.39 1076.1,-93.25 1085.85,-97.38 1086.3,-90.39"/>
</g>
<!-- 23 -->
<g id="node24" class="node">
<title>23</title>
<path fill="none" stroke="#567bd8" stroke-width="2" d="M733.5,-180C733.5,-180 686.5,-180 686.5,-180 680.5,-180 674.5,-174 674.5,-168 674.5,-168 674.5,-156 674.5,-156 674.5,-150 680.5,-144 686.5,-144 686.5,-144 733.5,-144 733.5,-144 739.5,-144 745.5,-150 745.5,-156 745.5,-156 745.5,-168 745.5,-168 745.5,-174 739.5,-180 733.5,-180"/>
<text text-anchor="middle" x="710" y="-159.5" font-family="sans" font-size="10.00">docs_index</text>
</g>
<!-- 1&#45;&gt;23 -->
<g id="edge57" class="edge">
<title>1&#45;&gt;23</title>
<path fill="none" stroke="grey" stroke-width="2" d="M731.26,-791.68C717.49,-765.53 694,-714 694,-667 694,-667 694,-667 694,-521 694,-397.42 703.63,-250.08 707.95,-190.25"/>
<polygon fill="grey" stroke="grey" stroke-width="2" points="711.45,-190.36 708.69,-180.13 704.47,-189.85 711.45,-190.36"/>
</g>
<!-- 2 -->
<g id="node3" class="node">
<title>2</title>
<path fill="none" stroke="#68d856" stroke-width="2" d="M835.5,-900C835.5,-900 766.5,-900 766.5,-900 760.5,-900 754.5,-894 754.5,-888 754.5,-888 754.5,-876 754.5,-876 754.5,-870 760.5,-864 766.5,-864 766.5,-864 835.5,-864 835.5,-864 841.5,-864 847.5,-870 847.5,-876 847.5,-876 847.5,-888 847.5,-888 847.5,-894 841.5,-900 835.5,-900"/>
<text text-anchor="middle" x="801" y="-879.5" font-family="sans" font-size="10.00">count_barcodes</text>
</g>
<!-- 2&#45;&gt;1 -->
<g id="edge6" class="edge">
<title>2&#45;&gt;1</title>
<path fill="none" stroke="grey" stroke-width="2" d="M786.17,-863.7C778.98,-855.3 770.2,-845.07 762.31,-835.86"/>
<polygon fill="grey" stroke="grey" stroke-width="2" points="764.83,-833.42 755.66,-828.1 759.51,-837.97 764.83,-833.42"/>
</g>
<!-- 2&#45;&gt;8 -->
<g id="edge12" class="edge">
<title>2&#45;&gt;8</title>
<path fill="none" stroke="grey" stroke-width="2" d="M813.06,-863.91C819.83,-853.8 828.08,-840.55 834,-828 843.48,-807.91 851.37,-783.99 856.67,-766.01"/>
<polygon fill="grey" stroke="grey" stroke-width="2" points="860.1,-766.76 859.49,-756.19 853.37,-764.84 860.1,-766.76"/>
</g>
<!-- 3 -->
<g id="node4" class="node">
<title>3</title>
<path fill="none" stroke="#d8cb56" stroke-width="2" d="M226,-396C226,-396 116,-396 116,-396 110,-396 104,-390 104,-384 104,-384 104,-372 104,-372 104,-366 110,-360 116,-360 116,-360 226,-360 226,-360 232,-360 238,-366 238,-372 238,-372 238,-384 238,-384 238,-390 232,-396 226,-396"/>
<text text-anchor="middle" x="171" y="-375.5" font-family="sans" font-size="10.00">build_pacbio_consensus</text>
</g>
<!-- 3&#45;&gt;15 -->
<g id="edge28" class="edge">
<title>3&#45;&gt;15</title>
<path fill="none" stroke="grey" stroke-width="2" d="M169.77,-359.73C167.69,-315.61 169.02,-198.43 236,-144 294.27,-96.64 822.13,-91.46 987.62,-91"/>
<polygon fill="grey" stroke="grey" stroke-width="2" points="987.99,-94.5 997.98,-90.98 987.98,-87.5 987.99,-94.5"/>
</g>
<!-- 19 -->
<g id="node20" class="node">
<title>19</title>
<path fill="none" stroke="#8fd856" stroke-width="2" d="M551.5,-324C551.5,-324 496.5,-324 496.5,-324 490.5,-324 484.5,-318 484.5,-312 484.5,-312 484.5,-300 484.5,-300 484.5,-294 490.5,-288 496.5,-288 496.5,-288 551.5,-288 551.5,-288 557.5,-288 563.5,-294 563.5,-300 563.5,-300 563.5,-312 563.5,-312 563.5,-318 557.5,-324 551.5,-324"/>
<text text-anchor="middle" x="524" y="-303.5" font-family="sans" font-size="10.00">make_nblink</text>
</g>
<!-- 3&#45;&gt;19 -->
<g id="edge47" class="edge">
<title>3&#45;&gt;19</title>
<path fill="none" stroke="grey" stroke-width="2" d="M238.23,-363.67C307.2,-349.99 412.88,-329.03 474.55,-316.81"/>
<polygon fill="grey" stroke="grey" stroke-width="2" points="475.29,-320.23 484.42,-314.85 473.93,-313.36 475.29,-320.23"/>
</g>
<!-- 3&#45;&gt;23 -->
<g id="edge59" class="edge">
<title>3&#45;&gt;23</title>
<path fill="none" stroke="grey" stroke-width="2" d="M184.08,-359.84C210.99,-325.94 276.24,-250.67 350,-216 404.95,-190.17 580.37,-173.25 664.35,-166.42"/>
<polygon fill="grey" stroke="grey" stroke-width="2" points="664.67,-169.9 674.36,-165.62 664.11,-162.93 664.67,-169.9"/>
</g>
<!-- 4 -->
<g id="node5" class="node">
<title>4</title>
<path fill="none" stroke="#d8a456" stroke-width="2" d="M328.5,-468C328.5,-468 239.5,-468 239.5,-468 233.5,-468 227.5,-462 227.5,-456 227.5,-456 227.5,-444 227.5,-444 227.5,-438 233.5,-432 239.5,-432 239.5,-432 328.5,-432 328.5,-432 334.5,-432 340.5,-438 340.5,-444 340.5,-444 340.5,-456 340.5,-456 340.5,-462 334.5,-468 328.5,-468"/>
<text text-anchor="middle" x="284" y="-447.5" font-family="sans" font-size="10.00">analyze_pacbio_ccs</text>
</g>
<!-- 4&#45;&gt;3 -->
<g id="edge9" class="edge">
<title>4&#45;&gt;3</title>
<path fill="none" stroke="grey" stroke-width="2" d="M256.36,-431.88C241.58,-422.72 223.21,-411.34 207.3,-401.48"/>
<polygon fill="grey" stroke="grey" stroke-width="2" points="209.09,-398.48 198.75,-396.19 205.41,-404.43 209.09,-398.48"/>
</g>
<!-- 4&#45;&gt;15 -->
<g id="edge39" class="edge">
<title>4&#45;&gt;15</title>
<path fill="none" stroke="grey" stroke-width="2" d="M227.29,-448.07C184.96,-444.24 128.82,-432.02 95,-396 67.32,-366.51 76,-347.45 76,-307 76,-307 76,-307 76,-233 76,-164.44 137.34,-166.81 202,-144 348.12,-92.45 830.63,-90.01 987.36,-90.63"/>
<polygon fill="grey" stroke="grey" stroke-width="2" points="987.62,-94.13 997.64,-90.68 987.65,-87.13 987.62,-94.13"/>
</g>
<!-- 4&#45;&gt;19 -->
<g id="edge53" class="edge">
<title>4&#45;&gt;19</title>
<path fill="none" stroke="grey" stroke-width="2" d="M340.8,-442.22C378.35,-435.46 427.09,-422.12 463,-396 485.13,-379.9 501.87,-353.19 512.16,-333.23"/>
<polygon fill="grey" stroke="grey" stroke-width="2" points="515.41,-334.56 516.69,-324.04 509.13,-331.46 515.41,-334.56"/>
</g>
<!-- 4&#45;&gt;23 -->
<g id="edge70" class="edge">
<title>4&#45;&gt;23</title>
<path fill="none" stroke="grey" stroke-width="2" d="M288.72,-431.81C301.9,-387.35 343.7,-268.43 426,-216 464.83,-191.27 594.01,-174.75 663.99,-167.39"/>
<polygon fill="grey" stroke="grey" stroke-width="2" points="664.7,-170.83 674.28,-166.32 663.98,-163.87 664.7,-170.83"/>
</g>
<!-- 5 -->
<g id="node6" class="node">
<title>5</title>
<path fill="none" stroke="#56a9d8" stroke-width="2" d="M337.5,-540C337.5,-540 230.5,-540 230.5,-540 224.5,-540 218.5,-534 218.5,-528 218.5,-528 218.5,-516 218.5,-516 218.5,-510 224.5,-504 230.5,-504 230.5,-504 337.5,-504 337.5,-504 343.5,-504 349.5,-510 349.5,-516 349.5,-516 349.5,-528 349.5,-528 349.5,-534 343.5,-540 337.5,-540"/>
<text text-anchor="middle" x="284" y="-519.5" font-family="sans" font-size="10.00">align_parse_PacBio_ccs</text>
</g>
<!-- 5&#45;&gt;4 -->
<g id="edge10" class="edge">
<title>5&#45;&gt;4</title>
<path fill="none" stroke="grey" stroke-width="2" d="M284,-503.7C284,-495.98 284,-486.71 284,-478.11"/>
<polygon fill="grey" stroke="grey" stroke-width="2" points="287.5,-478.1 284,-468.1 280.5,-478.1 287.5,-478.1"/>
</g>
<!-- 6 -->
<g id="node7" class="node">
<title>6</title>
<path fill="none" stroke="#56d0d8" stroke-width="2" d="M614,-900C614,-900 546,-900 546,-900 540,-900 534,-894 534,-888 534,-888 534,-876 534,-876 534,-870 540,-864 546,-864 546,-864 614,-864 614,-864 620,-864 626,-870 626,-876 626,-876 626,-888 626,-888 626,-894 620,-900 614,-900"/>
<text text-anchor="middle" x="580" y="-879.5" font-family="sans" font-size="10.00">gene_sequence</text>
</g>
<!-- 6&#45;&gt;1 -->
<g id="edge7" class="edge">
<title>6&#45;&gt;1</title>
<path fill="none" stroke="grey" stroke-width="2" d="M619.39,-863.88C641.39,-854.31 669.01,-842.3 692.36,-832.15"/>
<polygon fill="grey" stroke="grey" stroke-width="2" points="693.97,-835.27 701.74,-828.07 691.18,-828.85 693.97,-835.27"/>
</g>
<!-- 6&#45;&gt;3 -->
<g id="edge8" class="edge">
<title>6&#45;&gt;3</title>
<path fill="none" stroke="grey" stroke-width="2" d="M533.88,-874.96C426.91,-859.66 171,-815.1 171,-739 171,-739 171,-739 171,-521 171,-481 171,-434.65 171,-406.08"/>
<polygon fill="grey" stroke="grey" stroke-width="2" points="174.5,-406.05 171,-396.05 167.5,-406.05 174.5,-406.05"/>
</g>
<!-- 6&#45;&gt;8 -->
<g id="edge14" class="edge">
<title>6&#45;&gt;8</title>
<path fill="none" stroke="grey" stroke-width="2" d="M626.01,-878.25C671.83,-873.63 742.56,-861.23 794,-828 818.34,-812.27 837.86,-785.15 850.04,-764.96"/>
<polygon fill="grey" stroke="grey" stroke-width="2" points="853.11,-766.65 855.11,-756.24 847.06,-763.13 853.11,-766.65"/>
</g>
<!-- 6&#45;&gt;12 -->
<g id="edge20" class="edge">
<title>6&#45;&gt;12</title>
<path fill="none" stroke="grey" stroke-width="2" d="M591.94,-863.88C620.23,-823.87 694.6,-722.03 769,-648 779.56,-637.49 792.11,-626.99 803.41,-618.14"/>
<polygon fill="grey" stroke="grey" stroke-width="2" points="805.59,-620.89 811.38,-612.02 801.32,-615.34 805.59,-620.89"/>
</g>
<!-- 6&#45;&gt;14 -->
<g id="edge24" class="edge">
<title>6&#45;&gt;14</title>
<path fill="none" stroke="grey" stroke-width="2" d="M574.61,-864C571.57,-853.69 567.99,-840.21 566,-828 554,-754.23 551.5,-665.86 551.05,-622.19"/>
<polygon fill="grey" stroke="grey" stroke-width="2" points="554.55,-622.06 550.97,-612.08 547.55,-622.11 554.55,-622.06"/>
</g>
<!-- 6&#45;&gt;15 -->
<g id="edge29" class="edge">
<title>6&#45;&gt;15</title>
<path fill="none" stroke="grey" stroke-width="2" d="M533.52,-879.56C395.88,-874.04 0,-848.63 0,-739 0,-739 0,-739 0,-233 0,-174.16 43.74,-166.74 98,-144 180.26,-109.53 806.2,-95.29 987.77,-91.86"/>
<polygon fill="grey" stroke="grey" stroke-width="2" points="987.9,-95.36 997.84,-91.67 987.77,-88.36 987.9,-95.36"/>
</g>
<!-- 6&#45;&gt;23 -->
<g id="edge60" class="edge">
<title>6&#45;&gt;23</title>
<path fill="none" stroke="grey" stroke-width="2" d="M583.22,-863.73C594.84,-799.76 634,-570.09 634,-379 634,-379 634,-379 634,-305 634,-259.64 664.52,-214.75 686.88,-187.95"/>
<polygon fill="grey" stroke="grey" stroke-width="2" points="689.64,-190.09 693.51,-180.23 684.34,-185.53 689.64,-190.09"/>
</g>
<!-- 7 -->
<g id="node8" class="node">
<title>7</title>
<path fill="none" stroke="#56d8b9" stroke-width="2" d="M959.5,-684C959.5,-684 810.5,-684 810.5,-684 804.5,-684 798.5,-678 798.5,-672 798.5,-672 798.5,-660 798.5,-660 798.5,-654 804.5,-648 810.5,-648 810.5,-648 959.5,-648 959.5,-648 965.5,-648 971.5,-654 971.5,-660 971.5,-660 971.5,-672 971.5,-672 971.5,-678 965.5,-684 959.5,-684"/>
<text text-anchor="middle" x="885" y="-663.5" font-family="sans" font-size="10.00">check_adequate_variant_counts</text>
</g>
<!-- 7&#45;&gt;0 -->
<g id="edge4" class="edge">
<title>7&#45;&gt;0</title>
<path fill="none" stroke="grey" stroke-width="2" d="M971.65,-662.76C1168.81,-652.58 1634,-597.77 1634,-307 1634,-307 1634,-307 1634,-161 1634,-110 1588.73,-66.88 1555.24,-41.97"/>
<polygon fill="grey" stroke="grey" stroke-width="2" points="1557.17,-39.05 1547.02,-36.04 1553.08,-44.73 1557.17,-39.05"/>
</g>
<!-- 7&#45;&gt;12 -->
<g id="edge21" class="edge">
<title>7&#45;&gt;12</title>
<path fill="none" stroke="grey" stroke-width="2" d="M872.64,-647.7C866.77,-639.47 859.63,-629.48 853.16,-620.42"/>
<polygon fill="grey" stroke="grey" stroke-width="2" points="855.88,-618.21 847.22,-612.1 850.18,-622.28 855.88,-618.21"/>
</g>
<!-- 7&#45;&gt;14 -->
<g id="edge25" class="edge">
<title>7&#45;&gt;14</title>
<path fill="none" stroke="grey" stroke-width="2" d="M803.72,-647.97C740.05,-634.62 653.57,-616.5 600.06,-605.28"/>
<polygon fill="grey" stroke="grey" stroke-width="2" points="600.65,-601.83 590.15,-603.2 599.22,-608.68 600.65,-601.83"/>
</g>
<!-- 8&#45;&gt;7 -->
<g id="edge11" class="edge">
<title>8&#45;&gt;7</title>
<path fill="none" stroke="grey" stroke-width="2" d="M869.19,-719.7C871.53,-711.9 874.35,-702.51 876.95,-693.83"/>
<polygon fill="grey" stroke="grey" stroke-width="2" points="880.35,-694.69 879.87,-684.1 873.64,-692.68 880.35,-694.69"/>
</g>
<!-- 8&#45;&gt;15 -->
<g id="edge30" class="edge">
<title>8&#45;&gt;15</title>
<path fill="none" stroke="grey" stroke-width="2" d="M930.14,-735.7C1089.56,-730.79 1482,-707.29 1482,-595 1482,-595 1482,-595 1482,-233 1482,-182.12 1454.26,-169.1 1410,-144 1355.61,-113.16 1174.43,-98.82 1086.17,-93.54"/>
<polygon fill="grey" stroke="grey" stroke-width="2" points="1086.32,-90.04 1076.14,-92.96 1085.92,-97.03 1086.32,-90.04"/>
</g>
<!-- 8&#45;&gt;19 -->
<g id="edge48" class="edge">
<title>8&#45;&gt;19</title>
<path fill="none" stroke="grey" stroke-width="2" d="M835.73,-719.9C758.92,-672.75 549.76,-539.67 515,-468 494.05,-424.82 505.2,-367.26 514.85,-333.96"/>
<polygon fill="grey" stroke="grey" stroke-width="2" points="518.3,-334.63 517.89,-324.04 511.61,-332.58 518.3,-334.63"/>
</g>
<!-- 8&#45;&gt;23 -->
<g id="edge61" class="edge">
<title>8&#45;&gt;23</title>
<path fill="none" stroke="grey" stroke-width="2" d="M930.08,-721.98C949.84,-714.07 969.34,-702.09 981,-684 1024.35,-616.77 996.22,-582.54 981,-504 967.87,-436.26 959.11,-418.79 923,-360 900.74,-323.77 892.63,-315.27 860,-288 836.14,-268.06 823.28,-272.62 800,-252 784.83,-238.56 786,-230.66 772,-216 762.18,-205.72 750.53,-195.35 739.99,-186.54"/>
<polygon fill="grey" stroke="grey" stroke-width="2" points="742.14,-183.78 732.19,-180.14 737.7,-189.19 742.14,-183.78"/>
</g>
<!-- 9 -->
<g id="node10" class="node">
<title>9</title>
<path fill="none" stroke="#d89556" stroke-width="2" d="M1136,-396C1136,-396 1038,-396 1038,-396 1032,-396 1026,-390 1026,-384 1026,-384 1026,-372 1026,-372 1026,-366 1032,-360 1038,-360 1038,-360 1136,-360 1136,-360 1142,-360 1148,-366 1148,-372 1148,-372 1148,-384 1148,-384 1148,-390 1142,-396 1136,-396"/>
<text text-anchor="middle" x="1087" y="-375.5" font-family="sans" font-size="10.00">avg_antibody_escape</text>
</g>
<!-- 9&#45;&gt;0 -->
<g id="edge3" class="edge">
<title>9&#45;&gt;0</title>
<path fill="none" stroke="grey" stroke-width="2" d="M1148.12,-361.27C1209.58,-343.04 1304.37,-308.11 1370,-252 1439.64,-192.46 1488.68,-92.55 1509.23,-45.29"/>
<polygon fill="grey" stroke="grey" stroke-width="2" points="1512.47,-46.61 1513.18,-36.04 1506.04,-43.86 1512.47,-46.61"/>
</g>
<!-- 9&#45;&gt;15 -->
<g id="edge33" class="edge">
<title>9&#45;&gt;15</title>
<path fill="none" stroke="grey" stroke-width="2" d="M1105,-359.81C1133.32,-330.58 1182.91,-269.19 1161,-216 1143.07,-172.47 1101.83,-136.07 1071.82,-113.98"/>
<polygon fill="grey" stroke="grey" stroke-width="2" points="1073.85,-111.13 1063.68,-108.14 1069.76,-116.81 1073.85,-111.13"/>
</g>
<!-- 9&#45;&gt;19 -->
<g id="edge51" class="edge">
<title>9&#45;&gt;19</title>
<path fill="none" stroke="grey" stroke-width="2" d="M1025.95,-369.41C913.8,-355.46 677.04,-326.03 573.85,-313.2"/>
<polygon fill="grey" stroke="grey" stroke-width="2" points="574.05,-309.7 563.7,-311.94 573.19,-316.64 574.05,-309.7"/>
</g>
<!-- 22 -->
<g id="node23" class="node">
<title>22</title>
<path fill="none" stroke="#5692d8" stroke-width="2" d="M1039.5,-252C1039.5,-252 902.5,-252 902.5,-252 896.5,-252 890.5,-246 890.5,-240 890.5,-240 890.5,-228 890.5,-228 890.5,-222 896.5,-216 902.5,-216 902.5,-216 1039.5,-216 1039.5,-216 1045.5,-216 1051.5,-222 1051.5,-228 1051.5,-228 1051.5,-240 1051.5,-240 1051.5,-246 1045.5,-252 1039.5,-252"/>
<text text-anchor="middle" x="971" y="-231.5" font-family="sans" font-size="10.00">format_antibody_escape_plot</text>
</g>
<!-- 9&#45;&gt;22 -->
<g id="edge56" class="edge">
<title>9&#45;&gt;22</title>
<path fill="none" stroke="grey" stroke-width="2" d="M1073.01,-359.87C1052.72,-335.03 1014.99,-288.85 991.54,-260.14"/>
<polygon fill="grey" stroke="grey" stroke-width="2" points="994.08,-257.72 985.04,-252.19 988.66,-262.15 994.08,-257.72"/>
</g>
<!-- 9&#45;&gt;23 -->
<g id="edge64" class="edge">
<title>9&#45;&gt;23</title>
<path fill="none" stroke="grey" stroke-width="2" d="M1062.17,-359.91C1035.05,-341.47 990.1,-311.58 950,-288 920.52,-270.67 910.48,-270.92 882,-252 860.95,-238.02 859.68,-228.97 838,-216 811.94,-200.41 780.46,-187.31 755.24,-178.03"/>
<polygon fill="grey" stroke="grey" stroke-width="2" points="756.14,-174.64 745.55,-174.54 753.77,-181.22 756.14,-174.64"/>
</g>
<!-- 10 -->
<g id="node11" class="node">
<title>10</title>
<path fill="none" stroke="#d86e56" stroke-width="2" d="M1121,-468C1121,-468 1053,-468 1053,-468 1047,-468 1041,-462 1041,-456 1041,-456 1041,-444 1041,-444 1041,-438 1047,-432 1053,-432 1053,-432 1121,-432 1121,-432 1127,-432 1133,-438 1133,-444 1133,-444 1133,-456 1133,-456 1133,-462 1127,-468 1121,-468"/>
<text text-anchor="middle" x="1087" y="-447.5" font-family="sans" font-size="10.00">avg_muteffects</text>
</g>
<!-- 10&#45;&gt;0 -->
<g id="edge2" class="edge">
<title>10&#45;&gt;0</title>
<path fill="none" stroke="grey" stroke-width="2" d="M1133.07,-446.03C1258.36,-436.69 1596,-402.64 1596,-307 1596,-307 1596,-307 1596,-161 1596,-115.64 1565.48,-70.75 1543.12,-43.95"/>
<polygon fill="grey" stroke="grey" stroke-width="2" points="1545.66,-41.53 1536.49,-36.23 1540.36,-46.09 1545.66,-41.53"/>
</g>
<!-- 10&#45;&gt;9 -->
<g id="edge16" class="edge">
<title>10&#45;&gt;9</title>
<path fill="none" stroke="grey" stroke-width="2" d="M1087,-431.7C1087,-423.98 1087,-414.71 1087,-406.11"/>
<polygon fill="grey" stroke="grey" stroke-width="2" points="1090.5,-406.1 1087,-396.1 1083.5,-406.1 1090.5,-406.1"/>
</g>
<!-- 10&#45;&gt;15 -->
<g id="edge31" class="edge">
<title>10&#45;&gt;15</title>
<path fill="none" stroke="grey" stroke-width="2" d="M1133.04,-448.78C1221.39,-445.67 1406,-425.06 1406,-307 1406,-307 1406,-307 1406,-233 1406,-180.7 1374.43,-169.92 1329,-144 1252.22,-100.19 1147.2,-91.3 1086.28,-90.2"/>
<polygon fill="grey" stroke="grey" stroke-width="2" points="1086.2,-86.69 1076.16,-90.08 1086.12,-93.69 1086.2,-86.69"/>
</g>
<!-- 10&#45;&gt;19 -->
<g id="edge50" class="edge">
<title>10&#45;&gt;19</title>
<path fill="none" stroke="grey" stroke-width="2" d="M1040.86,-445.07C977.91,-438.87 862.07,-424.49 767,-396 729.26,-384.69 722.77,-374.14 686,-360 648.71,-345.65 605.68,-331.7 573.35,-321.71"/>
<polygon fill="grey" stroke="grey" stroke-width="2" points="574.26,-318.33 563.68,-318.74 572.21,-325.02 574.26,-318.33"/>
</g>
<!-- 20 -->
<g id="node21" class="node">
<title>20</title>
<path fill="none" stroke="#56b9d8" stroke-width="2" d="M1327.5,-252C1327.5,-252 1220.5,-252 1220.5,-252 1214.5,-252 1208.5,-246 1208.5,-240 1208.5,-240 1208.5,-228 1208.5,-228 1208.5,-222 1214.5,-216 1220.5,-216 1220.5,-216 1327.5,-216 1327.5,-216 1333.5,-216 1339.5,-222 1339.5,-228 1339.5,-228 1339.5,-240 1339.5,-240 1339.5,-246 1333.5,-252 1327.5,-252"/>
<text text-anchor="middle" x="1274" y="-231.5" font-family="sans" font-size="10.00">format_muteffects_plot</text>
</g>
<!-- 10&#45;&gt;20 -->
<g id="edge55" class="edge">
<title>10&#45;&gt;20</title>
<path fill="none" stroke="grey" stroke-width="2" d="M1113.42,-431.79C1127.2,-422.15 1143.87,-409.39 1157,-396 1199.01,-353.15 1237.87,-294.34 1258.52,-260.95"/>
<polygon fill="grey" stroke="grey" stroke-width="2" points="1261.61,-262.6 1263.85,-252.24 1255.64,-258.94 1261.61,-262.6"/>
</g>
<!-- 10&#45;&gt;23 -->
<g id="edge62" class="edge">
<title>10&#45;&gt;23</title>
<path fill="none" stroke="grey" stroke-width="2" d="M1062.64,-431.96C1048.85,-421.96 1031.51,-408.82 1017,-396 991.92,-373.83 939.12,-307.62 912,-288 882.36,-266.57 868.07,-272.82 838,-252 818.87,-238.76 818.59,-229.99 800,-216 785.1,-204.79 767.66,-194.03 752.11,-185.17"/>
<polygon fill="grey" stroke="grey" stroke-width="2" points="753.64,-182.02 743.21,-180.19 750.22,-188.13 753.64,-182.02"/>
</g>
<!-- 11 -->
<g id="node12" class="node">
<title>11</title>
<path fill="none" stroke="#566bd8" stroke-width="2" d="M959.5,-540C959.5,-540 878.5,-540 878.5,-540 872.5,-540 866.5,-534 866.5,-528 866.5,-528 866.5,-516 866.5,-516 866.5,-510 872.5,-504 878.5,-504 878.5,-504 959.5,-504 959.5,-504 965.5,-504 971.5,-510 971.5,-516 971.5,-516 971.5,-528 971.5,-528 971.5,-534 965.5,-540 959.5,-540"/>
<text text-anchor="middle" x="919" y="-519.5" font-family="sans" font-size="10.00">fit_globalepistasis</text>
</g>
<!-- 11&#45;&gt;10 -->
<g id="edge17" class="edge">
<title>11&#45;&gt;10</title>
<path fill="none" stroke="grey" stroke-width="2" d="M960.1,-503.88C983.17,-494.26 1012.14,-482.19 1036.57,-472.01"/>
<polygon fill="grey" stroke="grey" stroke-width="2" points="1038.15,-475.15 1046.04,-468.07 1035.46,-468.68 1038.15,-475.15"/>
</g>
<!-- 11&#45;&gt;15 -->
<g id="edge41" class="edge">
<title>11&#45;&gt;15</title>
<path fill="none" stroke="grey" stroke-width="2" d="M971.74,-517.96C1104.88,-508.86 1444,-476.14 1444,-379 1444,-379 1444,-379 1444,-233 1444,-181.56 1414.71,-169.45 1370,-144 1322.53,-116.98 1167.3,-101.19 1086.66,-94.61"/>
<polygon fill="grey" stroke="grey" stroke-width="2" points="1086.51,-91.09 1076.26,-93.78 1085.95,-98.07 1086.51,-91.09"/>
</g>
<!-- 11&#45;&gt;19 -->
<g id="edge54" class="edge">
<title>11&#45;&gt;19</title>
<path fill="none" stroke="grey" stroke-width="2" d="M886.91,-503.91C841.93,-479.94 757.61,-434.88 686,-396 644.24,-373.33 596.59,-347.11 563.83,-329.03"/>
<polygon fill="grey" stroke="grey" stroke-width="2" points="565.45,-325.92 555.01,-324.15 562.07,-332.05 565.45,-325.92"/>
</g>
<!-- 11&#45;&gt;23 -->
<g id="edge71" class="edge">
<title>11&#45;&gt;23</title>
<path fill="none" stroke="grey" stroke-width="2" d="M921.37,-503.8C924.77,-472.96 928.13,-407.08 903,-360 867.47,-293.43 823.15,-307.47 772,-252 753.9,-232.37 736.83,-207.18 725.2,-188.61"/>
<polygon fill="grey" stroke="grey" stroke-width="2" points="728.17,-186.76 719.95,-180.08 722.21,-190.43 728.17,-186.76"/>
</g>
<!-- 12&#45;&gt;11 -->
<g id="edge18" class="edge">
<title>12&#45;&gt;11</title>
<path fill="none" stroke="grey" stroke-width="2" d="M855.76,-575.7C866.24,-566.97 879.11,-556.24 890.5,-546.75"/>
<polygon fill="grey" stroke="grey" stroke-width="2" points="893.03,-549.19 898.47,-540.1 888.55,-543.82 893.03,-549.19"/>
</g>
<!-- 16 -->
<g id="node17" class="node">
<title>16</title>
<path fill="none" stroke="#56d8d0" stroke-width="2" d="M882,-396C882,-396 788,-396 788,-396 782,-396 776,-390 776,-384 776,-384 776,-372 776,-372 776,-366 782,-360 788,-360 788,-360 882,-360 882,-360 888,-360 894,-366 894,-372 894,-372 894,-384 894,-384 894,-390 888,-396 882,-396"/>
<text text-anchor="middle" x="835" y="-375.5" font-family="sans" font-size="10.00">analyze_func_scores</text>
</g>
<!-- 12&#45;&gt;16 -->
<g id="edge43" class="edge">
<title>12&#45;&gt;16</title>
<path fill="none" stroke="grey" stroke-width="2" d="M835,-575.85C835,-538.83 835,-451.18 835,-406.39"/>
<polygon fill="grey" stroke="grey" stroke-width="2" points="838.5,-406.23 835,-396.23 831.5,-406.23 838.5,-406.23"/>
</g>
<!-- 13 -->
<g id="node14" class="node">
<title>13</title>
<path fill="none" stroke="#56d892" stroke-width="2" d="M594,-468C594,-468 536,-468 536,-468 530,-468 524,-462 524,-456 524,-456 524,-444 524,-444 524,-438 530,-432 536,-432 536,-432 594,-432 594,-432 600,-432 606,-438 606,-444 606,-444 606,-456 606,-456 606,-462 600,-468 594,-468"/>
<text text-anchor="middle" x="565" y="-447.5" font-family="sans" font-size="10.00">fit_polyclonal</text>
</g>
<!-- 13&#45;&gt;9 -->
<g id="edge15" class="edge">
<title>13&#45;&gt;9</title>
<path fill="none" stroke="grey" stroke-width="2" d="M606.4,-443.45C695.26,-431.53 905.16,-403.38 1015.84,-388.54"/>
<polygon fill="grey" stroke="grey" stroke-width="2" points="1016.46,-391.99 1025.91,-387.19 1015.53,-385.05 1016.46,-391.99"/>
</g>
<!-- 13&#45;&gt;15 -->
<g id="edge32" class="edge">
<title>13&#45;&gt;15</title>
<path fill="none" stroke="grey" stroke-width="2" d="M523.97,-446.07C461.66,-440.68 347.77,-426.79 323,-396 256.62,-313.51 143.05,-339.53 435,-144 480.51,-113.52 852.29,-97.5 987.81,-92.63"/>
<polygon fill="grey" stroke="grey" stroke-width="2" points="988.04,-96.13 997.91,-92.27 987.8,-89.13 988.04,-96.13"/>
</g>
<!-- 13&#45;&gt;19 -->
<g id="edge49" class="edge">
<title>13&#45;&gt;19</title>
<path fill="none" stroke="grey" stroke-width="2" d="M560.05,-431.87C553.04,-407.56 540.12,-362.82 531.8,-334.01"/>
<polygon fill="grey" stroke="grey" stroke-width="2" points="535.1,-332.83 528.96,-324.19 528.37,-334.77 535.1,-332.83"/>
</g>
<!-- 13&#45;&gt;23 -->
<g id="edge63" class="edge">
<title>13&#45;&gt;23</title>
<path fill="none" stroke="grey" stroke-width="2" d="M564.66,-431.91C564.69,-390.63 569.94,-283.92 620,-216 631.44,-200.48 648.9,-188.71 665.4,-180.25"/>
<polygon fill="grey" stroke="grey" stroke-width="2" points="666.95,-183.39 674.43,-175.89 663.91,-177.09 666.95,-183.39"/>
</g>
<!-- 14&#45;&gt;13 -->
<g id="edge22" class="edge">
<title>14&#45;&gt;13</title>
<path fill="none" stroke="grey" stroke-width="2" d="M552.69,-575.87C555.07,-551.67 559.46,-507.21 562.3,-478.39"/>
<polygon fill="grey" stroke="grey" stroke-width="2" points="565.81,-478.48 563.31,-468.19 558.84,-477.8 565.81,-478.48"/>
</g>
<!-- 17 -->
<g id="node18" class="node">
<title>17</title>
<path fill="none" stroke="#b6d856" stroke-width="2" d="M442,-396C442,-396 344,-396 344,-396 338,-396 332,-390 332,-384 332,-384 332,-372 332,-372 332,-366 338,-360 344,-360 344,-360 442,-360 442,-360 448,-360 454,-366 454,-372 454,-372 454,-384 454,-384 454,-390 448,-396 442,-396"/>
<text text-anchor="middle" x="393" y="-375.5" font-family="sans" font-size="10.00">analyze_prob_escape</text>
</g>
<!-- 14&#45;&gt;17 -->
<g id="edge44" class="edge">
<title>14&#45;&gt;17</title>
<path fill="none" stroke="grey" stroke-width="2" d="M538.34,-575.85C510.6,-538.28 444.37,-448.58 411.77,-404.43"/>
<polygon fill="grey" stroke="grey" stroke-width="2" points="414.48,-402.2 405.72,-396.23 408.85,-406.36 414.48,-402.2"/>
</g>
<!-- 15&#45;&gt;0 -->
<g id="edge5" class="edge">
<title>15&#45;&gt;0</title>
<path fill="none" stroke="grey" stroke-width="2" d="M1076.12,-83.33C1167.39,-70.1 1393.44,-37.34 1482.8,-24.39"/>
<polygon fill="grey" stroke="grey" stroke-width="2" points="1483.35,-27.85 1492.75,-22.95 1482.35,-20.92 1483.35,-27.85"/>
</g>
<!-- 16&#45;&gt;15 -->
<g id="edge27" class="edge">
<title>16&#45;&gt;15</title>
<path fill="none" stroke="grey" stroke-width="2" d="M894.01,-371.62C1016.76,-359.08 1292.89,-323.39 1349,-252 1424.27,-156.23 1191.89,-111.87 1086.32,-97.02"/>
<polygon fill="grey" stroke="grey" stroke-width="2" points="1086.59,-93.52 1076.21,-95.63 1085.64,-100.46 1086.59,-93.52"/>
</g>
<!-- 16&#45;&gt;19 -->
<g id="edge46" class="edge">
<title>16&#45;&gt;19</title>
<path fill="none" stroke="grey" stroke-width="2" d="M775.65,-363.13C771.03,-362.06 766.44,-361.01 762,-360 696.88,-345.17 621.62,-328.49 573.46,-317.87"/>
<polygon fill="grey" stroke="grey" stroke-width="2" points="574.13,-314.43 563.61,-315.7 572.62,-321.27 574.13,-314.43"/>
</g>
<!-- 16&#45;&gt;23 -->
<g id="edge58" class="edge">
<title>16&#45;&gt;23</title>
<path fill="none" stroke="grey" stroke-width="2" d="M800.47,-359.82C785.61,-350.91 769.12,-338.79 758,-324 727.78,-283.83 716.5,-224.77 712.35,-190.47"/>
<polygon fill="grey" stroke="grey" stroke-width="2" points="715.8,-189.82 711.24,-180.26 708.84,-190.58 715.8,-189.82"/>
</g>
<!-- 17&#45;&gt;15 -->
<g id="edge34" class="edge">
<title>17&#45;&gt;15</title>
<path fill="none" stroke="grey" stroke-width="2" d="M392.38,-359.72C392.1,-341.63 392.69,-312.5 398,-288 413.89,-214.7 419.68,-179.03 486,-144 572.4,-98.36 869.24,-91.79 987.65,-91.01"/>
<polygon fill="grey" stroke="grey" stroke-width="2" points="987.9,-94.51 997.88,-90.96 987.86,-87.51 987.9,-94.51"/>
</g>
<!-- 17&#45;&gt;19 -->
<g id="edge52" class="edge">
<title>17&#45;&gt;19</title>
<path fill="none" stroke="grey" stroke-width="2" d="M425.05,-359.88C442.49,-350.55 464.27,-338.92 482.94,-328.94"/>
<polygon fill="grey" stroke="grey" stroke-width="2" points="484.66,-331.99 491.83,-324.19 481.36,-325.82 484.66,-331.99"/>
</g>
<!-- 17&#45;&gt;23 -->
<g id="edge65" class="edge">
<title>17&#45;&gt;23</title>
<path fill="none" stroke="grey" stroke-width="2" d="M394.82,-359.85C399.29,-326.64 413.99,-253.53 459,-216 489.62,-190.47 600.17,-174.73 663.88,-167.57"/>
<polygon fill="grey" stroke="grey" stroke-width="2" points="664.51,-171.02 674.06,-166.45 663.74,-164.06 664.51,-171.02"/>
</g>
<!-- 18 -->
<g id="node19" class="node">
<title>18</title>
<path fill="none" stroke="#56d86b" stroke-width="2" d="M517.5,-252C517.5,-252 480.5,-252 480.5,-252 474.5,-252 468.5,-246 468.5,-240 468.5,-240 468.5,-228 468.5,-228 468.5,-222 474.5,-216 480.5,-216 480.5,-216 517.5,-216 517.5,-216 523.5,-216 529.5,-222 529.5,-228 529.5,-228 529.5,-240 529.5,-240 529.5,-246 523.5,-252 517.5,-252"/>
<text text-anchor="middle" x="499" y="-231.5" font-family="sans" font-size="10.00">subindex</text>
</g>
<!-- 18&#45;&gt;15 -->
<g id="edge42" class="edge">
<title>18&#45;&gt;15</title>
<path fill="none" stroke="grey" stroke-width="2" d="M524.18,-215.84C555.65,-195.28 611.87,-161.42 665,-144 776.67,-107.39 915.38,-96.06 987.78,-92.56"/>
<polygon fill="grey" stroke="grey" stroke-width="2" points="988.14,-96.05 997.97,-92.1 987.82,-89.05 988.14,-96.05"/>
</g>
<!-- 18&#45;&gt;23 -->
<g id="edge72" class="edge">
<title>18&#45;&gt;23</title>
<path fill="none" stroke="grey" stroke-width="2" d="M529.91,-221.08C534.61,-219.34 539.43,-217.59 544,-216 584.39,-201.93 630.8,-187.24 664.25,-176.9"/>
<polygon fill="grey" stroke="grey" stroke-width="2" points="665.67,-180.13 674.2,-173.84 663.61,-173.44 665.67,-180.13"/>
</g>
<!-- 19&#45;&gt;15 -->
<g id="edge35" class="edge">
<title>19&#45;&gt;15</title>
<path fill="none" stroke="grey" stroke-width="2" d="M492.42,-287.78C479.55,-278.93 466.06,-266.86 459,-252 452.14,-237.55 451.04,-229.88 459,-216 490.51,-161.05 521.93,-164.09 582,-144 723.72,-96.6 902.54,-90.23 987.64,-90.19"/>
<polygon fill="grey" stroke="grey" stroke-width="2" points="987.78,-93.69 997.79,-90.22 987.8,-86.69 987.78,-93.69"/>
</g>
<!-- 19&#45;&gt;18 -->
<g id="edge45" class="edge">
<title>19&#45;&gt;18</title>
<path fill="none" stroke="grey" stroke-width="2" d="M517.82,-287.7C515,-279.81 511.61,-270.3 508.48,-261.55"/>
<polygon fill="grey" stroke="grey" stroke-width="2" points="511.77,-260.34 505.11,-252.1 505.18,-262.7 511.77,-260.34"/>
</g>
<!-- 19&#45;&gt;23 -->
<g id="edge66" class="edge">
<title>19&#45;&gt;23</title>
<path fill="none" stroke="grey" stroke-width="2" d="M531.4,-287.7C540.63,-267.94 558.16,-235.79 582,-216 605.96,-196.11 638.42,-182.78 664.66,-174.47"/>
<polygon fill="grey" stroke="grey" stroke-width="2" points="665.82,-177.77 674.38,-171.52 663.79,-171.07 665.82,-177.77"/>
</g>
<!-- 20&#45;&gt;15 -->
<g id="edge36" class="edge">
<title>20&#45;&gt;15</title>
<path fill="none" stroke="grey" stroke-width="2" d="M1262.72,-215.84C1248.8,-195.91 1223.33,-163.3 1194,-144 1161.12,-122.36 1118.53,-108.71 1086,-100.69"/>
<polygon fill="grey" stroke="grey" stroke-width="2" points="1086.79,-97.28 1076.26,-98.38 1085.18,-104.09 1086.79,-97.28"/>
</g>
<!-- 20&#45;&gt;23 -->
<g id="edge67" class="edge">
<title>20&#45;&gt;23</title>
<path fill="none" stroke="grey" stroke-width="2" d="M1208.32,-222.75C1192.82,-220.44 1176.34,-218.05 1161,-216 1013.31,-196.22 837.85,-176.75 756.14,-167.92"/>
<polygon fill="grey" stroke="grey" stroke-width="2" points="756.03,-164.39 745.71,-166.8 755.28,-171.35 756.03,-164.39"/>
</g>
<!-- 21 -->
<g id="node22" class="node">
<title>21</title>
<path fill="none" stroke="#80d856" stroke-width="2" d="M1140,-252C1140,-252 1082,-252 1082,-252 1076,-252 1070,-246 1070,-240 1070,-240 1070,-228 1070,-228 1070,-222 1076,-216 1082,-216 1082,-216 1140,-216 1140,-216 1146,-216 1152,-222 1152,-228 1152,-228 1152,-240 1152,-240 1152,-246 1146,-252 1140,-252"/>
<text text-anchor="middle" x="1111" y="-231.5" font-family="sans" font-size="10.00">make_graphs</text>
</g>
<!-- 21&#45;&gt;15 -->
<g id="edge37" class="edge">
<title>21&#45;&gt;15</title>
<path fill="none" stroke="grey" stroke-width="2" d="M1102.07,-215.87C1089.3,-191.35 1065.68,-146.03 1050.68,-117.26"/>
<polygon fill="grey" stroke="grey" stroke-width="2" points="1053.68,-115.44 1045.96,-108.19 1047.48,-118.67 1053.68,-115.44"/>
</g>
<!-- 21&#45;&gt;23 -->
<g id="edge68" class="edge">
<title>21&#45;&gt;23</title>
<path fill="none" stroke="grey" stroke-width="2" d="M1069.97,-218.4C1066.95,-217.53 1063.94,-216.72 1061,-216 953.15,-189.74 823.31,-174.2 755.81,-167.29"/>
<polygon fill="grey" stroke="grey" stroke-width="2" points="755.83,-163.77 745.53,-166.25 755.13,-170.74 755.83,-163.77"/>
</g>
<!-- 22&#45;&gt;15 -->
<g id="edge38" class="edge">
<title>22&#45;&gt;15</title>
<path fill="none" stroke="grey" stroke-width="2" d="M978.96,-215.87C990.36,-191.35 1011.42,-146.03 1024.8,-117.26"/>
<polygon fill="grey" stroke="grey" stroke-width="2" points="1027.97,-118.73 1029.01,-108.19 1021.62,-115.78 1027.97,-118.73"/>
</g>
<!-- 22&#45;&gt;23 -->
<g id="edge69" class="edge">
<title>22&#45;&gt;23</title>
<path fill="none" stroke="grey" stroke-width="2" d="M907.49,-215.97C860.41,-203.34 797.38,-186.43 755.31,-175.15"/>
<polygon fill="grey" stroke="grey" stroke-width="2" points="756.19,-171.76 745.62,-172.55 754.37,-178.52 756.19,-171.76"/>
</g>
<!-- 23&#45;&gt;15 -->
<g id="edge40" class="edge">
<title>23&#45;&gt;15</title>
<path fill="none" stroke="grey" stroke-width="2" d="M745.62,-153.38C804.35,-140.8 921.6,-115.7 988.06,-101.48"/>
<polygon fill="grey" stroke="grey" stroke-width="2" points="988.84,-104.89 997.88,-99.37 987.37,-98.04 988.84,-104.89"/>
</g>
</g>
</svg>
