<?xml version="1.0" encoding="UTF-8" standalone="no"?>
<!DOCTYPE svg PUBLIC "-//W3C//DTD SVG 1.1//EN"
 "http://www.w3.org/Graphics/SVG/1.1/DTD/svg11.dtd">
<!-- Generated by graphviz version 6.0.1 (20220911.2005)
 -->
<!-- Title: snakemake_dag Pages: 1 -->
<svg width="1412pt" height="908pt"
 viewBox="0.00 0.00 1412.00 908.00" xmlns="http://www.w3.org/2000/svg" xmlns:xlink="http://www.w3.org/1999/xlink">
<g id="graph0" class="graph" transform="scale(1 1) rotate(0) translate(4 904)">
<title>snakemake_dag</title>
<polygon fill="white" stroke="none" points="-4,4 -4,-904 1408,-904 1408,4 -4,4"/>
<!-- 0 -->
<g id="node1" class="node">
<title>0</title>
<path fill="none" stroke="#56d86b" stroke-width="2" d="M151,-36C151,-36 121,-36 121,-36 115,-36 109,-30 109,-24 109,-24 109,-12 109,-12 109,-6 115,0 121,0 121,0 151,0 151,0 157,0 163,-6 163,-12 163,-12 163,-24 163,-24 163,-30 157,-36 151,-36"/>
<text text-anchor="middle" x="136" y="-15.5" font-family="sans" font-size="10.00">all</text>
</g>
<!-- 1 -->
<g id="node2" class="node">
<title>1</title>
<path fill="none" stroke="#d86e56" stroke-width="2" d="M587.5,-828C587.5,-828 522.5,-828 522.5,-828 516.5,-828 510.5,-822 510.5,-816 510.5,-816 510.5,-804 510.5,-804 510.5,-798 516.5,-792 522.5,-792 522.5,-792 587.5,-792 587.5,-792 593.5,-792 599.5,-798 599.5,-804 599.5,-804 599.5,-816 599.5,-816 599.5,-822 593.5,-828 587.5,-828"/>
<text text-anchor="middle" x="555" y="-807.5" font-family="sans" font-size="10.00">variant_counts</text>
</g>
<!-- 1&#45;&gt;0 -->
<g id="edge1" class="edge">
<title>1&#45;&gt;0</title>
<path fill="none" stroke="grey" stroke-width="2" d="M510.22,-806.38C414.3,-800.31 192,-783.64 122,-756 59.57,-731.35 0,-734.12 0,-667 0,-667 0,-667 0,-161 0,-103.08 59.74,-59.56 100.03,-36.8"/>
<polygon fill="grey" stroke="grey" stroke-width="2" points="101.72,-39.86 108.81,-31.99 98.35,-33.72 101.72,-39.86"/>
</g>
<!-- 8 -->
<g id="node9" class="node">
<title>8</title>
<path fill="none" stroke="#56c1d8" stroke-width="2" d="M498,-756C498,-756 390,-756 390,-756 384,-756 378,-750 378,-744 378,-744 378,-732 378,-732 378,-726 384,-720 390,-720 390,-720 498,-720 498,-720 504,-720 510,-726 510,-732 510,-732 510,-744 510,-744 510,-750 504,-756 498,-756"/>
<text text-anchor="middle" x="444" y="-735.5" font-family="sans" font-size="10.00">analyze_variant_counts</text>
</g>
<!-- 1&#45;&gt;8 -->
<g id="edge14" class="edge">
<title>1&#45;&gt;8</title>
<path fill="none" stroke="grey" stroke-width="2" d="M527.85,-791.88C513.47,-782.81 495.62,-771.55 480.09,-761.76"/>
<polygon fill="grey" stroke="grey" stroke-width="2" points="481.58,-758.56 471.26,-756.19 477.85,-764.48 481.58,-758.56"/>
</g>
<!-- 12 -->
<g id="node13" class="node">
<title>12</title>
<path fill="none" stroke="#56d882" stroke-width="2" d="M467,-612C467,-612 417,-612 417,-612 411,-612 405,-606 405,-600 405,-600 405,-588 405,-588 405,-582 411,-576 417,-576 417,-576 467,-576 467,-576 473,-576 479,-582 479,-588 479,-588 479,-600 479,-600 479,-606 473,-612 467,-612"/>
<text text-anchor="middle" x="442" y="-591.5" font-family="sans" font-size="10.00">func_scores</text>
</g>
<!-- 1&#45;&gt;12 -->
<g id="edge21" class="edge">
<title>1&#45;&gt;12</title>
<path fill="none" stroke="grey" stroke-width="2" d="M557.56,-791.79C561.29,-760.35 564.85,-692.76 535,-648 523.95,-631.43 505.86,-619.45 488.55,-611.11"/>
<polygon fill="grey" stroke="grey" stroke-width="2" points="489.63,-607.76 479.07,-606.85 486.76,-614.14 489.63,-607.76"/>
</g>
<!-- 14 -->
<g id="node15" class="node">
<title>14</title>
<path fill="none" stroke="#56d89a" stroke-width="2" d="M820,-612C820,-612 766,-612 766,-612 760,-612 754,-606 754,-600 754,-600 754,-588 754,-588 754,-582 760,-576 766,-576 766,-576 820,-576 820,-576 826,-576 832,-582 832,-588 832,-588 832,-600 832,-600 832,-606 826,-612 820,-612"/>
<text text-anchor="middle" x="793" y="-591.5" font-family="sans" font-size="10.00">prob_escape</text>
</g>
<!-- 1&#45;&gt;14 -->
<g id="edge25" class="edge">
<title>1&#45;&gt;14</title>
<path fill="none" stroke="grey" stroke-width="2" d="M574.07,-791.85C616.29,-753.89 717.71,-662.7 766.24,-619.06"/>
<polygon fill="grey" stroke="grey" stroke-width="2" points="768.74,-621.52 773.83,-612.23 764.06,-616.32 768.74,-621.52"/>
</g>
<!-- 15 -->
<g id="node16" class="node">
<title>15</title>
<path fill="none" stroke="#d89556" stroke-width="2" d="M1068,-108C1068,-108 1014,-108 1014,-108 1008,-108 1002,-102 1002,-96 1002,-96 1002,-84 1002,-84 1002,-78 1008,-72 1014,-72 1014,-72 1068,-72 1068,-72 1074,-72 1080,-78 1080,-84 1080,-84 1080,-96 1080,-96 1080,-102 1074,-108 1068,-108"/>
<text text-anchor="middle" x="1041" y="-87.5" font-family="sans" font-size="10.00">sphinx_build</text>
</g>
<!-- 1&#45;&gt;15 -->
<g id="edge27" class="edge">
<title>1&#45;&gt;15</title>
<path fill="none" stroke="grey" stroke-width="2" d="M599.62,-802.39C764.23,-775.27 1328,-656.84 1328,-307 1328,-307 1328,-307 1328,-233 1328,-190.16 1323.96,-171.36 1291,-144 1287.11,-140.77 1162.01,-115.27 1090.28,-100.85"/>
<polygon fill="grey" stroke="grey" stroke-width="2" points="1090.6,-97.34 1080.11,-98.81 1089.22,-104.21 1090.6,-97.34"/>
</g>
<!-- 21 -->
<g id="node22" class="node">
<title>21</title>
<path fill="none" stroke="#56d8a9" stroke-width="2" d="M721.5,-180C721.5,-180 674.5,-180 674.5,-180 668.5,-180 662.5,-174 662.5,-168 662.5,-168 662.5,-156 662.5,-156 662.5,-150 668.5,-144 674.5,-144 674.5,-144 721.5,-144 721.5,-144 727.5,-144 733.5,-150 733.5,-156 733.5,-156 733.5,-168 733.5,-168 733.5,-174 727.5,-180 721.5,-180"/>
<text text-anchor="middle" x="698" y="-159.5" font-family="sans" font-size="10.00">docs_index</text>
</g>
<!-- 1&#45;&gt;21 -->
<g id="edge54" class="edge">
<title>1&#45;&gt;21</title>
<path fill="none" stroke="grey" stroke-width="2" d="M510.37,-805.37C391.46,-794.48 76,-757.1 76,-667 76,-667 76,-667 76,-449 76,-195.35 508.25,-165.85 652.08,-163.05"/>
<polygon fill="grey" stroke="grey" stroke-width="2" points="652.38,-166.55 662.32,-162.89 652.27,-159.55 652.38,-166.55"/>
</g>
<!-- 2 -->
<g id="node3" class="node">
<title>2</title>
<path fill="none" stroke="#d8ac56" stroke-width="2" d="M534.5,-900C534.5,-900 465.5,-900 465.5,-900 459.5,-900 453.5,-894 453.5,-888 453.5,-888 453.5,-876 453.5,-876 453.5,-870 459.5,-864 465.5,-864 465.5,-864 534.5,-864 534.5,-864 540.5,-864 546.5,-870 546.5,-876 546.5,-876 546.5,-888 546.5,-888 546.5,-894 540.5,-900 534.5,-900"/>
<text text-anchor="middle" x="500" y="-879.5" font-family="sans" font-size="10.00">count_barcodes</text>
</g>
<!-- 2&#45;&gt;1 -->
<g id="edge7" class="edge">
<title>2&#45;&gt;1</title>
<path fill="none" stroke="grey" stroke-width="2" d="M513.6,-863.7C520.12,-855.39 528.07,-845.28 535.25,-836.14"/>
<polygon fill="grey" stroke="grey" stroke-width="2" points="538.13,-838.13 541.56,-828.1 532.63,-833.81 538.13,-838.13"/>
</g>
<!-- 2&#45;&gt;8 -->
<g id="edge13" class="edge">
<title>2&#45;&gt;8</title>
<path fill="none" stroke="grey" stroke-width="2" d="M488.05,-863.99C481.4,-853.9 473.4,-840.65 468,-828 459.44,-807.94 453.2,-784.02 449.22,-766.04"/>
<polygon fill="grey" stroke="grey" stroke-width="2" points="452.64,-765.26 447.15,-756.2 445.79,-766.71 452.64,-765.26"/>
</g>
<!-- 3 -->
<g id="node4" class="node">
<title>3</title>
<path fill="none" stroke="#d88556" stroke-width="2" d="M1072,-396C1072,-396 962,-396 962,-396 956,-396 950,-390 950,-384 950,-384 950,-372 950,-372 950,-366 956,-360 962,-360 962,-360 1072,-360 1072,-360 1078,-360 1084,-366 1084,-372 1084,-372 1084,-384 1084,-384 1084,-390 1078,-396 1072,-396"/>
<text text-anchor="middle" x="1017" y="-375.5" font-family="sans" font-size="10.00">build_pacbio_consensus</text>
</g>
<!-- 3&#45;&gt;15 -->
<g id="edge30" class="edge">
<title>3&#45;&gt;15</title>
<path fill="none" stroke="grey" stroke-width="2" d="M1038.15,-359.78C1063.26,-337.83 1103.76,-297.26 1120,-252 1136.22,-206.82 1142.59,-186.35 1120,-144 1112.99,-130.86 1101.12,-120.4 1088.67,-112.36"/>
<polygon fill="grey" stroke="grey" stroke-width="2" points="1090.4,-109.31 1080.02,-107.18 1086.8,-115.32 1090.4,-109.31"/>
</g>
<!-- 19 -->
<g id="node20" class="node">
<title>19</title>
<path fill="none" stroke="#d6d856" stroke-width="2" d="M845.5,-324C845.5,-324 790.5,-324 790.5,-324 784.5,-324 778.5,-318 778.5,-312 778.5,-312 778.5,-300 778.5,-300 778.5,-294 784.5,-288 790.5,-288 790.5,-288 845.5,-288 845.5,-288 851.5,-288 857.5,-294 857.5,-300 857.5,-300 857.5,-312 857.5,-312 857.5,-318 851.5,-324 845.5,-324"/>
<text text-anchor="middle" x="818" y="-303.5" font-family="sans" font-size="10.00">make_nblink</text>
</g>
<!-- 3&#45;&gt;19 -->
<g id="edge46" class="edge">
<title>3&#45;&gt;19</title>
<path fill="none" stroke="grey" stroke-width="2" d="M968.57,-359.97C937.85,-349.16 898.2,-335.21 867.3,-324.34"/>
<polygon fill="grey" stroke="grey" stroke-width="2" points="868.2,-320.95 857.6,-320.93 865.87,-327.55 868.2,-320.95"/>
</g>
<!-- 3&#45;&gt;21 -->
<g id="edge57" class="edge">
<title>3&#45;&gt;21</title>
<path fill="none" stroke="grey" stroke-width="2" d="M1003.66,-359.87C974.37,-322.65 904.54,-236.11 873,-216 833.24,-190.65 780.71,-176.88 743.61,-169.78"/>
<polygon fill="grey" stroke="grey" stroke-width="2" points="744.04,-166.3 733.57,-167.95 742.78,-173.18 744.04,-166.3"/>
</g>
<!-- 4 -->
<g id="node5" class="node">
<title>4</title>
<path fill="none" stroke="#c6d856" stroke-width="2" d="M928.5,-468C928.5,-468 839.5,-468 839.5,-468 833.5,-468 827.5,-462 827.5,-456 827.5,-456 827.5,-444 827.5,-444 827.5,-438 833.5,-432 839.5,-432 839.5,-432 928.5,-432 928.5,-432 934.5,-432 940.5,-438 940.5,-444 940.5,-444 940.5,-456 940.5,-456 940.5,-462 934.5,-468 928.5,-468"/>
<text text-anchor="middle" x="884" y="-447.5" font-family="sans" font-size="10.00">analyze_pacbio_ccs</text>
</g>
<!-- 4&#45;&gt;3 -->
<g id="edge9" class="edge">
<title>4&#45;&gt;3</title>
<path fill="none" stroke="grey" stroke-width="2" d="M916.54,-431.88C934.25,-422.55 956.35,-410.92 975.32,-400.94"/>
<polygon fill="grey" stroke="grey" stroke-width="2" points="977.12,-403.94 984.34,-396.19 973.86,-397.75 977.12,-403.94"/>
</g>
<!-- 4&#45;&gt;15 -->
<g id="edge40" class="edge">
<title>4&#45;&gt;15</title>
<path fill="none" stroke="grey" stroke-width="2" d="M940.78,-433.89C943.89,-433.22 946.98,-432.58 950,-432 1012.26,-420.07 1186.33,-438.91 1233,-396 1262.77,-368.62 1252,-347.45 1252,-307 1252,-307 1252,-307 1252,-233 1252,-155.41 1152.59,-117.43 1090.24,-101.25"/>
<polygon fill="grey" stroke="grey" stroke-width="2" points="1090.74,-97.76 1080.19,-98.74 1089.05,-104.56 1090.74,-97.76"/>
</g>
<!-- 4&#45;&gt;19 -->
<g id="edge52" class="edge">
<title>4&#45;&gt;19</title>
<path fill="none" stroke="grey" stroke-width="2" d="M882.93,-431.74C881.2,-413.15 876.69,-383.13 865,-360 859.82,-349.75 852.16,-339.92 844.53,-331.57"/>
<polygon fill="grey" stroke="grey" stroke-width="2" points="847.04,-329.14 837.59,-324.35 841.99,-333.99 847.04,-329.14"/>
</g>
<!-- 4&#45;&gt;21 -->
<g id="edge66" class="edge">
<title>4&#45;&gt;21</title>
<path fill="none" stroke="grey" stroke-width="2" d="M827.49,-440.54C777.4,-431.81 709.56,-416.59 692,-396 642.1,-337.48 669.6,-237.43 687.08,-189.77"/>
<polygon fill="grey" stroke="grey" stroke-width="2" points="690.45,-190.75 690.73,-180.16 683.9,-188.26 690.45,-190.75"/>
</g>
<!-- 5 -->
<g id="node6" class="node">
<title>5</title>
<path fill="none" stroke="#afd856" stroke-width="2" d="M940.5,-540C940.5,-540 833.5,-540 833.5,-540 827.5,-540 821.5,-534 821.5,-528 821.5,-528 821.5,-516 821.5,-516 821.5,-510 827.5,-504 833.5,-504 833.5,-504 940.5,-504 940.5,-504 946.5,-504 952.5,-510 952.5,-516 952.5,-516 952.5,-528 952.5,-528 952.5,-534 946.5,-540 940.5,-540"/>
<text text-anchor="middle" x="887" y="-519.5" font-family="sans" font-size="10.00">align_parse_PacBio_ccs</text>
</g>
<!-- 5&#45;&gt;4 -->
<g id="edge10" class="edge">
<title>5&#45;&gt;4</title>
<path fill="none" stroke="grey" stroke-width="2" d="M886.26,-503.7C885.93,-495.98 885.53,-486.71 885.16,-478.11"/>
<polygon fill="grey" stroke="grey" stroke-width="2" points="888.66,-477.95 884.73,-468.1 881.66,-478.25 888.66,-477.95"/>
</g>
<!-- 6 -->
<g id="node7" class="node">
<title>6</title>
<path fill="none" stroke="#56d8c1" stroke-width="2" d="M741,-900C741,-900 673,-900 673,-900 667,-900 661,-894 661,-888 661,-888 661,-876 661,-876 661,-870 667,-864 673,-864 673,-864 741,-864 741,-864 747,-864 753,-870 753,-876 753,-876 753,-888 753,-888 753,-894 747,-900 741,-900"/>
<text text-anchor="middle" x="707" y="-879.5" font-family="sans" font-size="10.00">gene_sequence</text>
</g>
<!-- 6&#45;&gt;1 -->
<g id="edge6" class="edge">
<title>6&#45;&gt;1</title>
<path fill="none" stroke="grey" stroke-width="2" d="M669.82,-863.88C649.13,-854.35 623.2,-842.41 601.22,-832.28"/>
<polygon fill="grey" stroke="grey" stroke-width="2" points="602.61,-829.07 592.06,-828.07 599.68,-835.43 602.61,-829.07"/>
</g>
<!-- 6&#45;&gt;3 -->
<g id="edge8" class="edge">
<title>6&#45;&gt;3</title>
<path fill="none" stroke="grey" stroke-width="2" d="M753.22,-872.94C850.81,-854.6 1069,-806.09 1069,-739 1069,-739 1069,-739 1069,-521 1069,-480.55 1065.14,-469.51 1050,-432 1046.25,-422.7 1040.89,-413.2 1035.59,-404.86"/>
<polygon fill="grey" stroke="grey" stroke-width="2" points="1038.38,-402.72 1029.93,-396.32 1032.54,-406.59 1038.38,-402.72"/>
</g>
<!-- 6&#45;&gt;8 -->
<g id="edge12" class="edge">
<title>6&#45;&gt;8</title>
<path fill="none" stroke="grey" stroke-width="2" d="M660.75,-878.73C616.08,-874.46 548.42,-862.32 501,-828 479.28,-812.28 463.79,-785.52 454.49,-765.44"/>
<polygon fill="grey" stroke="grey" stroke-width="2" points="457.65,-763.93 450.42,-756.19 451.25,-766.75 457.65,-763.93"/>
</g>
<!-- 6&#45;&gt;12 -->
<g id="edge19" class="edge">
<title>6&#45;&gt;12</title>
<path fill="none" stroke="grey" stroke-width="2" d="M699.99,-863.72C682.1,-821.57 630.9,-712.21 557,-648 537.34,-630.92 511.25,-618.3 488.89,-609.66"/>
<polygon fill="grey" stroke="grey" stroke-width="2" points="489.83,-606.28 479.24,-606.09 487.4,-612.85 489.83,-606.28"/>
</g>
<!-- 6&#45;&gt;14 -->
<g id="edge23" class="edge">
<title>6&#45;&gt;14</title>
<path fill="none" stroke="grey" stroke-width="2" d="M712.12,-863.97C726.52,-816.09 767.42,-680.06 784.91,-621.9"/>
<polygon fill="grey" stroke="grey" stroke-width="2" points="788.27,-622.89 787.8,-612.31 781.56,-620.87 788.27,-622.89"/>
</g>
<!-- 6&#45;&gt;15 -->
<g id="edge26" class="edge">
<title>6&#45;&gt;15</title>
<path fill="none" stroke="grey" stroke-width="2" d="M753,-881.45C908.37,-881.76 1404,-872.29 1404,-739 1404,-739 1404,-739 1404,-233 1404,-178.3 1367.04,-170.15 1319,-144 1246.13,-104.34 1148.43,-93.94 1090.37,-91.46"/>
<polygon fill="grey" stroke="grey" stroke-width="2" points="1090.48,-87.96 1080.36,-91.09 1090.22,-94.95 1090.48,-87.96"/>
</g>
<!-- 6&#45;&gt;21 -->
<g id="edge53" class="edge">
<title>6&#45;&gt;21</title>
<path fill="none" stroke="grey" stroke-width="2" d="M705.01,-863.71C697.24,-795.35 668.98,-537.31 660,-324 657.98,-275.97 651.19,-261.74 666,-216 669.06,-206.54 674.09,-196.99 679.27,-188.66"/>
<polygon fill="grey" stroke="grey" stroke-width="2" points="682.29,-190.43 684.85,-180.15 676.44,-186.59 682.29,-190.43"/>
</g>
<!-- 7 -->
<g id="node8" class="node">
<title>7</title>
<path fill="none" stroke="#5682d8" stroke-width="2" d="M514.5,-684C514.5,-684 365.5,-684 365.5,-684 359.5,-684 353.5,-678 353.5,-672 353.5,-672 353.5,-660 353.5,-660 353.5,-654 359.5,-648 365.5,-648 365.5,-648 514.5,-648 514.5,-648 520.5,-648 526.5,-654 526.5,-660 526.5,-660 526.5,-672 526.5,-672 526.5,-678 520.5,-684 514.5,-684"/>
<text text-anchor="middle" x="440" y="-663.5" font-family="sans" font-size="10.00">check_adequate_variant_counts</text>
</g>
<!-- 7&#45;&gt;0 -->
<g id="edge5" class="edge">
<title>7&#45;&gt;0</title>
<path fill="none" stroke="grey" stroke-width="2" d="M411.14,-647.92C328.68,-596.72 98,-435.55 98,-235 98,-235 98,-235 98,-161 98,-119.63 113.23,-73.72 124.41,-45.61"/>
<polygon fill="grey" stroke="grey" stroke-width="2" points="127.76,-46.67 128.31,-36.09 121.28,-44.02 127.76,-46.67"/>
</g>
<!-- 7&#45;&gt;12 -->
<g id="edge20" class="edge">
<title>7&#45;&gt;12</title>
<path fill="none" stroke="grey" stroke-width="2" d="M440.49,-647.7C440.71,-639.98 440.98,-630.71 441.23,-622.11"/>
<polygon fill="grey" stroke="grey" stroke-width="2" points="444.72,-622.2 441.51,-612.1 437.73,-622 444.72,-622.2"/>
</g>
<!-- 7&#45;&gt;14 -->
<g id="edge24" class="edge">
<title>7&#45;&gt;14</title>
<path fill="none" stroke="grey" stroke-width="2" d="M525.9,-647.97C594.3,-634.4 687.6,-615.9 743.89,-604.74"/>
<polygon fill="grey" stroke="grey" stroke-width="2" points="744.83,-608.12 753.96,-602.74 743.47,-601.25 744.83,-608.12"/>
</g>
<!-- 8&#45;&gt;7 -->
<g id="edge11" class="edge">
<title>8&#45;&gt;7</title>
<path fill="none" stroke="grey" stroke-width="2" d="M443.01,-719.7C442.57,-711.98 442.04,-702.71 441.55,-694.11"/>
<polygon fill="grey" stroke="grey" stroke-width="2" points="445.04,-693.89 440.98,-684.1 438.05,-694.29 445.04,-693.89"/>
</g>
<!-- 8&#45;&gt;15 -->
<g id="edge32" class="edge">
<title>8&#45;&gt;15</title>
<path fill="none" stroke="grey" stroke-width="2" d="M377.87,-727.84C262.82,-710.03 38,-666.13 38,-595 38,-595 38,-595 38,-449 38,-261.64 152.22,-206.07 329,-144 451.65,-100.93 851.3,-92.86 991.69,-91.35"/>
<polygon fill="grey" stroke="grey" stroke-width="2" points="991.77,-94.85 1001.74,-91.25 991.7,-87.85 991.77,-94.85"/>
</g>
<!-- 8&#45;&gt;19 -->
<g id="edge47" class="edge">
<title>8&#45;&gt;19</title>
<path fill="none" stroke="grey" stroke-width="2" d="M482.86,-719.99C500.23,-711.05 520.11,-698.84 535,-684 653.22,-566.14 606.23,-477.31 725,-360 737.71,-347.45 753.99,-336.85 769.36,-328.5"/>
<polygon fill="grey" stroke="grey" stroke-width="2" points="771.03,-331.58 778.28,-323.86 767.79,-325.38 771.03,-331.58"/>
</g>
<!-- 8&#45;&gt;21 -->
<g id="edge59" class="edge">
<title>8&#45;&gt;21</title>
<path fill="none" stroke="grey" stroke-width="2" d="M377.93,-728.89C302.67,-715.53 190,-681.14 190,-595 190,-595 190,-595 190,-449 190,-380.62 331.49,-249.68 391,-216 434.95,-191.13 578.1,-174.34 652.37,-167.08"/>
<polygon fill="grey" stroke="grey" stroke-width="2" points="652.76,-170.56 662.38,-166.12 652.09,-163.59 652.76,-170.56"/>
</g>
<!-- 9 -->
<g id="node10" class="node">
<title>9</title>
<path fill="none" stroke="#d8c356" stroke-width="2" d="M1212,-396C1212,-396 1114,-396 1114,-396 1108,-396 1102,-390 1102,-384 1102,-384 1102,-372 1102,-372 1102,-366 1108,-360 1114,-360 1114,-360 1212,-360 1212,-360 1218,-360 1224,-366 1224,-372 1224,-372 1224,-384 1224,-384 1224,-390 1218,-396 1212,-396"/>
<text text-anchor="middle" x="1163" y="-375.5" font-family="sans" font-size="10.00">avg_antibody_escape</text>
</g>
<!-- 9&#45;&gt;0 -->
<g id="edge3" class="edge">
<title>9&#45;&gt;0</title>
<path fill="none" stroke="grey" stroke-width="2" d="M1224.18,-362.07C1283.95,-343.39 1366,-305 1366,-235 1366,-235 1366,-235 1366,-161 1366,-37.79 379.43,-21.38 173.42,-19.29"/>
<polygon fill="grey" stroke="grey" stroke-width="2" points="173.16,-15.79 163.12,-19.19 173.09,-22.79 173.16,-15.79"/>
</g>
<!-- 9&#45;&gt;15 -->
<g id="edge34" class="edge">
<title>9&#45;&gt;15</title>
<path fill="none" stroke="grey" stroke-width="2" d="M1166.34,-360C1173.44,-318.92 1185.83,-212.62 1140,-144 1128.14,-126.25 1108.32,-113.99 1089.51,-105.76"/>
<polygon fill="grey" stroke="grey" stroke-width="2" points="1090.69,-102.46 1080.11,-101.94 1088.05,-108.95 1090.69,-102.46"/>
</g>
<!-- 9&#45;&gt;19 -->
<g id="edge49" class="edge">
<title>9&#45;&gt;19</title>
<path fill="none" stroke="grey" stroke-width="2" d="M1101.96,-361.99C1098.93,-361.31 1095.93,-360.64 1093,-360 1014.51,-342.92 922.79,-325.81 867.61,-315.82"/>
<polygon fill="grey" stroke="grey" stroke-width="2" points="868.2,-312.37 857.74,-314.04 866.96,-319.26 868.2,-312.37"/>
</g>
<!-- 9&#45;&gt;21 -->
<g id="edge61" class="edge">
<title>9&#45;&gt;21</title>
<path fill="none" stroke="grey" stroke-width="2" d="M1130.05,-360C1087.1,-337.33 1010.24,-295.06 949,-252 928.61,-237.66 928.19,-227.36 906,-216 853.8,-189.27 787.17,-175.37 743.58,-168.63"/>
<polygon fill="grey" stroke="grey" stroke-width="2" points="743.96,-165.15 733.56,-167.15 742.94,-172.08 743.96,-165.15"/>
</g>
<!-- 10 -->
<g id="node11" class="node">
<title>10</title>
<path fill="none" stroke="#68d856" stroke-width="2" d="M514,-468C514,-468 446,-468 446,-468 440,-468 434,-462 434,-456 434,-456 434,-444 434,-444 434,-438 440,-432 446,-432 446,-432 514,-432 514,-432 520,-432 526,-438 526,-444 526,-444 526,-456 526,-456 526,-462 520,-468 514,-468"/>
<text text-anchor="middle" x="480" y="-447.5" font-family="sans" font-size="10.00">avg_muteffects</text>
</g>
<!-- 10&#45;&gt;0 -->
<g id="edge4" class="edge">
<title>10&#45;&gt;0</title>
<path fill="none" stroke="grey" stroke-width="2" d="M433.84,-446.2C387.86,-441.54 316.84,-429.11 265,-396 187.73,-346.64 136,-326.69 136,-235 136,-235 136,-235 136,-161 136,-121 136,-74.65 136,-46.08"/>
<polygon fill="grey" stroke="grey" stroke-width="2" points="139.5,-46.05 136,-36.05 132.5,-46.05 139.5,-46.05"/>
</g>
<!-- 10&#45;&gt;9 -->
<g id="edge15" class="edge">
<title>10&#45;&gt;9</title>
<path fill="none" stroke="grey" stroke-width="2" d="M526.05,-447.41C626.98,-443.41 875.29,-430.77 1091.69,-396.07"/>
<polygon fill="grey" stroke="grey" stroke-width="2" points="1092.34,-399.52 1101.65,-394.46 1091.22,-392.61 1092.34,-399.52"/>
</g>
<!-- 10&#45;&gt;15 -->
<g id="edge36" class="edge">
<title>10&#45;&gt;15</title>
<path fill="none" stroke="grey" stroke-width="2" d="M433.98,-442.96C382.22,-435.11 303,-419.55 285,-396 243.13,-341.24 282.31,-308.41 362,-216 397.06,-175.34 408.84,-163.15 459,-144 555.94,-106.99 869.5,-95.29 991.65,-92.08"/>
<polygon fill="grey" stroke="grey" stroke-width="2" points="991.93,-95.57 1001.83,-91.82 991.75,-88.57 991.93,-95.57"/>
</g>
<!-- 10&#45;&gt;19 -->
<g id="edge51" class="edge">
<title>10&#45;&gt;19</title>
<path fill="none" stroke="grey" stroke-width="2" d="M486.65,-431.88C495.56,-411.36 513.4,-377.54 540,-360 576.77,-335.75 698.4,-319.47 767.99,-311.89"/>
<polygon fill="grey" stroke="grey" stroke-width="2" points="768.7,-315.34 778.27,-310.79 767.96,-308.38 768.7,-315.34"/>
</g>
<!-- 10&#45;&gt;21 -->
<g id="edge63" class="edge">
<title>10&#45;&gt;21</title>
<path fill="none" stroke="grey" stroke-width="2" d="M482.35,-431.96C489.12,-389.38 512.54,-277.39 578,-216 598.88,-196.42 628.18,-183.29 652.6,-175"/>
<polygon fill="grey" stroke="grey" stroke-width="2" points="653.94,-178.24 662.39,-171.84 651.79,-171.58 653.94,-178.24"/>
</g>
<!-- 11 -->
<g id="node12" class="node">
<title>11</title>
<path fill="none" stroke="#80d856" stroke-width="2" d="M482.5,-540C482.5,-540 401.5,-540 401.5,-540 395.5,-540 389.5,-534 389.5,-528 389.5,-528 389.5,-516 389.5,-516 389.5,-510 395.5,-504 401.5,-504 401.5,-504 482.5,-504 482.5,-504 488.5,-504 494.5,-510 494.5,-516 494.5,-516 494.5,-528 494.5,-528 494.5,-534 488.5,-540 482.5,-540"/>
<text text-anchor="middle" x="442" y="-519.5" font-family="sans" font-size="10.00">fit_globalepistasis</text>
</g>
<!-- 11&#45;&gt;10 -->
<g id="edge17" class="edge">
<title>11&#45;&gt;10</title>
<path fill="none" stroke="grey" stroke-width="2" d="M451.39,-503.7C455.76,-495.64 461.06,-485.89 465.9,-476.98"/>
<polygon fill="grey" stroke="grey" stroke-width="2" points="469.02,-478.56 470.71,-468.1 462.87,-475.22 469.02,-478.56"/>
</g>
<!-- 11&#45;&gt;15 -->
<g id="edge29" class="edge">
<title>11&#45;&gt;15</title>
<path fill="none" stroke="grey" stroke-width="2" d="M397.68,-504C354.91,-484.91 292.69,-449.45 265,-396 207.31,-284.64 279.78,-200 392,-144 497.01,-91.6 858.59,-89.34 991.49,-90.35"/>
<polygon fill="grey" stroke="grey" stroke-width="2" points="991.74,-93.85 1001.77,-90.44 991.8,-86.85 991.74,-93.85"/>
</g>
<!-- 11&#45;&gt;19 -->
<g id="edge45" class="edge">
<title>11&#45;&gt;19</title>
<path fill="none" stroke="grey" stroke-width="2" d="M480.06,-503.81C497.86,-494.69 518.69,-482.38 535,-468 580,-428.32 566.21,-393.48 616,-360 661.96,-329.1 724.99,-316.2 768.36,-310.83"/>
<polygon fill="grey" stroke="grey" stroke-width="2" points="768.86,-314.3 778.39,-309.68 768.06,-307.34 768.86,-314.3"/>
</g>
<!-- 11&#45;&gt;21 -->
<g id="edge56" class="edge">
<title>11&#45;&gt;21</title>
<path fill="none" stroke="grey" stroke-width="2" d="M434.22,-503.79C427.11,-485.76 418.61,-456.67 425,-432 452.55,-325.69 460.9,-286.63 545,-216 575.63,-190.28 619.47,-176.78 652.38,-169.86"/>
<polygon fill="grey" stroke="grey" stroke-width="2" points="653.08,-173.28 662.22,-167.91 651.73,-166.42 653.08,-173.28"/>
</g>
<!-- 12&#45;&gt;11 -->
<g id="edge18" class="edge">
<title>12&#45;&gt;11</title>
<path fill="none" stroke="grey" stroke-width="2" d="M442,-575.7C442,-567.98 442,-558.71 442,-550.11"/>
<polygon fill="grey" stroke="grey" stroke-width="2" points="445.5,-550.1 442,-540.1 438.5,-550.1 445.5,-550.1"/>
</g>
<!-- 16 -->
<g id="node17" class="node">
<title>16</title>
<path fill="none" stroke="#56a9d8" stroke-width="2" d="M400,-396C400,-396 306,-396 306,-396 300,-396 294,-390 294,-384 294,-384 294,-372 294,-372 294,-366 300,-360 306,-360 306,-360 400,-360 400,-360 406,-360 412,-366 412,-372 412,-372 412,-384 412,-384 412,-390 406,-396 400,-396"/>
<text text-anchor="middle" x="353" y="-375.5" font-family="sans" font-size="10.00">analyze_func_scores</text>
</g>
<!-- 12&#45;&gt;16 -->
<g id="edge41" class="edge">
<title>12&#45;&gt;16</title>
<path fill="none" stroke="grey" stroke-width="2" d="M414.23,-575.85C401.81,-566.73 388.16,-554.42 380,-540 356.07,-497.71 352.09,-439.85 352.06,-406.25"/>
<polygon fill="grey" stroke="grey" stroke-width="2" points="355.56,-406.28 352.17,-396.24 348.56,-406.2 355.56,-406.28"/>
</g>
<!-- 13 -->
<g id="node14" class="node">
<title>13</title>
<path fill="none" stroke="#59d856" stroke-width="2" d="M1029,-468C1029,-468 971,-468 971,-468 965,-468 959,-462 959,-456 959,-456 959,-444 959,-444 959,-438 965,-432 971,-432 971,-432 1029,-432 1029,-432 1035,-432 1041,-438 1041,-444 1041,-444 1041,-456 1041,-456 1041,-462 1035,-468 1029,-468"/>
<text text-anchor="middle" x="1000" y="-447.5" font-family="sans" font-size="10.00">fit_polyclonal</text>
</g>
<!-- 13&#45;&gt;9 -->
<g id="edge16" class="edge">
<title>13&#45;&gt;9</title>
<path fill="none" stroke="grey" stroke-width="2" d="M1039.87,-431.88C1062.16,-422.31 1090.12,-410.3 1113.76,-400.15"/>
<polygon fill="grey" stroke="grey" stroke-width="2" points="1115.45,-403.23 1123.26,-396.07 1112.69,-396.8 1115.45,-403.23"/>
</g>
<!-- 13&#45;&gt;15 -->
<g id="edge35" class="edge">
<title>13&#45;&gt;15</title>
<path fill="none" stroke="grey" stroke-width="2" d="M1041.08,-446.03C1107.41,-440.42 1233.93,-426 1266,-396 1295.92,-368.01 1290,-347.97 1290,-307 1290,-307 1290,-307 1290,-233 1290,-192.03 1295.43,-172.5 1266,-144 1241.32,-120.1 1149,-104.46 1090.57,-96.72"/>
<polygon fill="grey" stroke="grey" stroke-width="2" points="1090.79,-93.22 1080.43,-95.42 1089.9,-100.17 1090.79,-93.22"/>
</g>
<!-- 13&#45;&gt;19 -->
<g id="edge50" class="edge">
<title>13&#45;&gt;19</title>
<path fill="none" stroke="grey" stroke-width="2" d="M978.05,-431.87C945.66,-406.6 884.97,-359.25 848.35,-330.68"/>
<polygon fill="grey" stroke="grey" stroke-width="2" points="850.07,-327.58 840.03,-324.19 845.76,-333.1 850.07,-327.58"/>
</g>
<!-- 13&#45;&gt;21 -->
<g id="edge62" class="edge">
<title>13&#45;&gt;21</title>
<path fill="none" stroke="grey" stroke-width="2" d="M958.96,-434.43C955.95,-433.55 952.94,-432.73 950,-432 900.85,-419.81 760.02,-432.57 725,-396 671.45,-340.08 682.55,-238.71 691.81,-190.24"/>
<polygon fill="grey" stroke="grey" stroke-width="2" points="695.29,-190.69 693.85,-180.19 688.43,-189.3 695.29,-190.69"/>
</g>
<!-- 14&#45;&gt;13 -->
<g id="edge22" class="edge">
<title>14&#45;&gt;13</title>
<path fill="none" stroke="grey" stroke-width="2" d="M832.14,-590.02C869.69,-585.23 925.86,-572.7 962,-540 979.84,-523.85 989.62,-497.91 994.76,-478.19"/>
<polygon fill="grey" stroke="grey" stroke-width="2" points="998.22,-478.79 997.11,-468.25 991.41,-477.18 998.22,-478.79"/>
</g>
<!-- 17 -->
<g id="node18" class="node">
<title>17</title>
<path fill="none" stroke="#97d856" stroke-width="2" d="M844,-396C844,-396 746,-396 746,-396 740,-396 734,-390 734,-384 734,-384 734,-372 734,-372 734,-366 740,-360 746,-360 746,-360 844,-360 844,-360 850,-360 856,-366 856,-372 856,-372 856,-384 856,-384 856,-390 850,-396 844,-396"/>
<text text-anchor="middle" x="795" y="-375.5" font-family="sans" font-size="10.00">analyze_prob_escape</text>
</g>
<!-- 14&#45;&gt;17 -->
<g id="edge42" class="edge">
<title>14&#45;&gt;17</title>
<path fill="none" stroke="grey" stroke-width="2" d="M793.16,-575.85C793.51,-538.83 794.33,-451.18 794.74,-406.39"/>
<polygon fill="grey" stroke="grey" stroke-width="2" points="798.25,-406.26 794.84,-396.23 791.25,-406.2 798.25,-406.26"/>
</g>
<!-- 15&#45;&gt;0 -->
<g id="edge2" class="edge">
<title>15&#45;&gt;0</title>
<path fill="none" stroke="grey" stroke-width="2" d="M1001.82,-85.97C852.55,-74.42 320.43,-33.27 173.71,-21.92"/>
<polygon fill="grey" stroke="grey" stroke-width="2" points="173.67,-18.4 163.43,-21.12 173.13,-25.38 173.67,-18.4"/>
</g>
<!-- 16&#45;&gt;15 -->
<g id="edge33" class="edge">
<title>16&#45;&gt;15</title>
<path fill="none" stroke="grey" stroke-width="2" d="M351.23,-359.94C348.82,-326.56 348.87,-252.67 391,-216 481.39,-137.32 855.94,-103.87 991.63,-94.18"/>
<polygon fill="grey" stroke="grey" stroke-width="2" points="992.01,-97.66 1001.74,-93.47 991.52,-90.68 992.01,-97.66"/>
</g>
<!-- 16&#45;&gt;19 -->
<g id="edge48" class="edge">
<title>16&#45;&gt;19</title>
<path fill="none" stroke="grey" stroke-width="2" d="M412.36,-368.06C504.95,-354.13 682.02,-327.47 768.3,-314.48"/>
<polygon fill="grey" stroke="grey" stroke-width="2" points="768.99,-317.92 778.35,-312.97 767.95,-311 768.99,-317.92"/>
</g>
<!-- 16&#45;&gt;21 -->
<g id="edge60" class="edge">
<title>16&#45;&gt;21</title>
<path fill="none" stroke="grey" stroke-width="2" d="M355.51,-360C361.36,-326.72 379.17,-253.01 426,-216 460.47,-188.76 584.18,-173.41 652.27,-166.85"/>
<polygon fill="grey" stroke="grey" stroke-width="2" points="652.67,-170.33 662.29,-165.91 652.01,-163.36 652.67,-170.33"/>
</g>
<!-- 17&#45;&gt;15 -->
<g id="edge28" class="edge">
<title>17&#45;&gt;15</title>
<path fill="none" stroke="grey" stroke-width="2" d="M856.06,-367.41C920.59,-353.79 1019.84,-322.19 1070,-252 1097.97,-212.87 1091.14,-189.98 1077,-144 1073.99,-134.22 1068.49,-124.62 1062.68,-116.33"/>
<polygon fill="grey" stroke="grey" stroke-width="2" points="1065.41,-114.13 1056.61,-108.23 1059.81,-118.33 1065.41,-114.13"/>
</g>
<!-- 17&#45;&gt;19 -->
<g id="edge44" class="edge">
<title>17&#45;&gt;19</title>
<path fill="none" stroke="grey" stroke-width="2" d="M800.69,-359.7C803.25,-351.9 806.33,-342.51 809.18,-333.83"/>
<polygon fill="grey" stroke="grey" stroke-width="2" points="812.58,-334.7 812.38,-324.1 805.93,-332.51 812.58,-334.7"/>
</g>
<!-- 17&#45;&gt;21 -->
<g id="edge55" class="edge">
<title>17&#45;&gt;21</title>
<path fill="none" stroke="grey" stroke-width="2" d="M786.81,-359.86C781.88,-349.5 775.52,-336.02 770,-324 748.43,-277.05 724.02,-222.05 709.88,-190"/>
<polygon fill="grey" stroke="grey" stroke-width="2" points="712.9,-188.18 705.66,-180.44 706.49,-191.01 712.9,-188.18"/>
</g>
<!-- 18 -->
<g id="node19" class="node">
<title>18</title>
<path fill="none" stroke="#566bd8" stroke-width="2" d="M851.5,-252C851.5,-252 814.5,-252 814.5,-252 808.5,-252 802.5,-246 802.5,-240 802.5,-240 802.5,-228 802.5,-228 802.5,-222 808.5,-216 814.5,-216 814.5,-216 851.5,-216 851.5,-216 857.5,-216 863.5,-222 863.5,-228 863.5,-228 863.5,-240 863.5,-240 863.5,-246 857.5,-252 851.5,-252"/>
<text text-anchor="middle" x="833" y="-231.5" font-family="sans" font-size="10.00">subindex</text>
</g>
<!-- 18&#45;&gt;15 -->
<g id="edge39" class="edge">
<title>18&#45;&gt;15</title>
<path fill="none" stroke="grey" stroke-width="2" d="M858.09,-215.87C895.41,-190.39 965.63,-142.45 1007.37,-113.96"/>
<polygon fill="grey" stroke="grey" stroke-width="2" points="1009.54,-116.72 1015.82,-108.19 1005.59,-110.94 1009.54,-116.72"/>
</g>
<!-- 18&#45;&gt;21 -->
<g id="edge65" class="edge">
<title>18&#45;&gt;21</title>
<path fill="none" stroke="grey" stroke-width="2" d="M802.37,-217.12C783.88,-207.53 760.08,-195.19 739.87,-184.71"/>
<polygon fill="grey" stroke="grey" stroke-width="2" points="741.36,-181.54 730.87,-180.04 738.14,-187.75 741.36,-181.54"/>
</g>
<!-- 19&#45;&gt;15 -->
<g id="edge38" class="edge">
<title>19&#45;&gt;15</title>
<path fill="none" stroke="grey" stroke-width="2" d="M857.7,-298.64C920.54,-288.16 1037.08,-266.97 1049,-252 1079.47,-213.75 1064.61,-152.7 1052.11,-117.8"/>
<polygon fill="grey" stroke="grey" stroke-width="2" points="1055.33,-116.4 1048.53,-108.28 1048.78,-118.87 1055.33,-116.4"/>
</g>
<!-- 19&#45;&gt;18 -->
<g id="edge43" class="edge">
<title>19&#45;&gt;18</title>
<path fill="none" stroke="grey" stroke-width="2" d="M821.71,-287.7C823.36,-279.98 825.35,-270.71 827.19,-262.11"/>
<polygon fill="grey" stroke="grey" stroke-width="2" points="830.66,-262.62 829.33,-252.1 823.82,-261.15 830.66,-262.62"/>
</g>
<!-- 19&#45;&gt;21 -->
<g id="edge64" class="edge">
<title>19&#45;&gt;21</title>
<path fill="none" stroke="grey" stroke-width="2" d="M805.82,-287.78C792.65,-269.48 770.76,-239.95 750,-216 741.56,-206.26 731.78,-196.04 722.99,-187.21"/>
<polygon fill="grey" stroke="grey" stroke-width="2" points="725.45,-184.72 715.89,-180.15 720.52,-189.68 725.45,-184.72"/>
</g>
<!-- 20 -->
<g id="node21" class="node">
<title>20</title>
<path fill="none" stroke="#56d8d8" stroke-width="2" d="M1028,-252C1028,-252 970,-252 970,-252 964,-252 958,-246 958,-240 958,-240 958,-228 958,-228 958,-222 964,-216 970,-216 970,-216 1028,-216 1028,-216 1034,-216 1040,-222 1040,-228 1040,-228 1040,-240 1040,-240 1040,-246 1034,-252 1028,-252"/>
<text text-anchor="middle" x="999" y="-231.5" font-family="sans" font-size="10.00">make_graphs</text>
</g>
<!-- 20&#45;&gt;15 -->
<g id="edge31" class="edge">
<title>20&#45;&gt;15</title>
<path fill="none" stroke="grey" stroke-width="2" d="M1004.07,-215.87C1011.26,-191.56 1024.49,-146.82 1033.01,-118.01"/>
<polygon fill="grey" stroke="grey" stroke-width="2" points="1036.44,-118.77 1035.92,-108.19 1029.72,-116.79 1036.44,-118.77"/>
</g>
<!-- 20&#45;&gt;21 -->
<g id="edge58" class="edge">
<title>20&#45;&gt;21</title>
<path fill="none" stroke="grey" stroke-width="2" d="M957.97,-219.89C953.27,-218.52 948.54,-217.19 944,-216 874.75,-197.88 793.38,-181.24 743.76,-171.61"/>
<polygon fill="grey" stroke="grey" stroke-width="2" points="744.15,-168.12 733.67,-169.67 742.83,-175 744.15,-168.12"/>
</g>
<!-- 21&#45;&gt;15 -->
<g id="edge37" class="edge">
<title>21&#45;&gt;15</title>
<path fill="none" stroke="grey" stroke-width="2" d="M733.74,-153.71C795.47,-141.11 922.18,-115.25 992.06,-100.99"/>
<polygon fill="grey" stroke="grey" stroke-width="2" points="992.84,-104.4 1001.94,-98.97 991.44,-97.54 992.84,-104.4"/>
</g>
</g>
</svg>
