<?xml version="1.0" encoding="UTF-8" standalone="no"?>
<!DOCTYPE svg PUBLIC "-//W3C//DTD SVG 1.1//EN"
 "http://www.w3.org/Graphics/SVG/1.1/DTD/svg11.dtd">
<!-- Generated by graphviz version 4.0.0 (20220529.1859)
 -->
<!-- Title: snakemake_dag Pages: 1 -->
<svg width="612pt" height="548pt"
 viewBox="0.00 0.00 611.78 548.00" xmlns="http://www.w3.org/2000/svg" xmlns:xlink="http://www.w3.org/1999/xlink">
<g id="graph0" class="graph" transform="scale(1 1) rotate(0) translate(4 544)">
<title>snakemake_dag</title>
<polygon fill="white" stroke="transparent" points="-4,4 -4,-544 607.78,-544 607.78,4 -4,4"/>
<!-- 0 -->
<g id="node1" class="node">
<title>0</title>
<path fill="none" stroke="#5682d8" stroke-width="2" d="M268.78,-36C268.78,-36 238.78,-36 238.78,-36 232.78,-36 226.78,-30 226.78,-24 226.78,-24 226.78,-12 226.78,-12 226.78,-6 232.78,0 238.78,0 238.78,0 268.78,0 268.78,0 274.78,0 280.78,-6 280.78,-12 280.78,-12 280.78,-24 280.78,-24 280.78,-30 274.78,-36 268.78,-36"/>
<text text-anchor="middle" x="253.78" y="-15.5" font-family="sans" font-size="10.00">all</text>
</g>
<!-- 1 -->
<g id="node2" class="node">
<title>1</title>
<path fill="none" stroke="#56d892" stroke-width="2" d="M256.28,-108C256.28,-108 107.28,-108 107.28,-108 101.28,-108 95.28,-102 95.28,-96 95.28,-96 95.28,-84 95.28,-84 95.28,-78 101.28,-72 107.28,-72 107.28,-72 256.28,-72 256.28,-72 262.28,-72 268.28,-78 268.28,-84 268.28,-84 268.28,-96 268.28,-96 268.28,-102 262.28,-108 256.28,-108"/>
<text text-anchor="middle" x="181.78" y="-87.5" font-family="sans" font-size="10.00">check_adequate_variant_counts</text>
</g>
<!-- 1&#45;&gt;0 -->
<g id="edge2" class="edge">
<title>1&#45;&gt;0</title>
<path fill="none" stroke="grey" stroke-width="2" d="M199.57,-71.7C208.38,-63.14 219.16,-52.66 228.78,-43.3"/>
<polygon fill="grey" stroke="grey" stroke-width="2" points="231.45,-45.58 236.18,-36.1 226.57,-40.57 231.45,-45.58"/>
</g>
<!-- 2 -->
<g id="node3" class="node">
<title>2</title>
<path fill="none" stroke="#d8b456" stroke-width="2" d="M352.78,-108C352.78,-108 298.78,-108 298.78,-108 292.78,-108 286.78,-102 286.78,-96 286.78,-96 286.78,-84 286.78,-84 286.78,-78 292.78,-72 298.78,-72 298.78,-72 352.78,-72 352.78,-72 358.78,-72 364.78,-78 364.78,-84 364.78,-84 364.78,-96 364.78,-96 364.78,-102 358.78,-108 352.78,-108"/>
<text text-anchor="middle" x="325.78" y="-87.5" font-family="sans" font-size="10.00">sphinx_build</text>
</g>
<!-- 2&#45;&gt;0 -->
<g id="edge1" class="edge">
<title>2&#45;&gt;0</title>
<path fill="none" stroke="grey" stroke-width="2" d="M307.98,-71.7C299.17,-63.14 288.39,-52.66 278.77,-43.3"/>
<polygon fill="grey" stroke="grey" stroke-width="2" points="280.98,-40.57 271.37,-36.1 276.1,-45.58 280.98,-40.57"/>
</g>
<!-- 3 -->
<g id="node4" class="node">
<title>3</title>
<path fill="none" stroke="#d6d856" stroke-width="2" d="M211.78,-468C211.78,-468 143.78,-468 143.78,-468 137.78,-468 131.78,-462 131.78,-456 131.78,-456 131.78,-444 131.78,-444 131.78,-438 137.78,-432 143.78,-432 143.78,-432 211.78,-432 211.78,-432 217.78,-432 223.78,-438 223.78,-444 223.78,-444 223.78,-456 223.78,-456 223.78,-462 217.78,-468 211.78,-468"/>
<text text-anchor="middle" x="177.78" y="-447.5" font-family="sans" font-size="10.00">gene_sequence</text>
</g>
<!-- 3&#45;&gt;2 -->
<g id="edge9" class="edge">
<title>3&#45;&gt;2</title>
<path fill="none" stroke="grey" stroke-width="2" d="M131.58,-445.26C96.51,-439.93 49.69,-427.06 21.78,-396 -5.33,-365.85 1.78,-347.54 1.78,-307 1.78,-307 1.78,-307 1.78,-233 1.78,-101.5 143.21,-148.41 276.91,-108.08"/>
<polygon fill="grey" stroke="grey" stroke-width="2" points="278.05,-111.39 286.52,-105.03 275.93,-104.72 278.05,-111.39"/>
</g>
<!-- 4 -->
<g id="node5" class="node">
<title>4</title>
<path fill="none" stroke="#56d8a2" stroke-width="2" d="M137.28,-396C137.28,-396 42.28,-396 42.28,-396 36.28,-396 30.28,-390 30.28,-384 30.28,-384 30.28,-372 30.28,-372 30.28,-366 36.28,-360 42.28,-360 42.28,-360 137.28,-360 137.28,-360 143.28,-360 149.28,-366 149.28,-372 149.28,-372 149.28,-384 149.28,-384 149.28,-390 143.28,-396 137.28,-396"/>
<text text-anchor="middle" x="89.78" y="-375.5" font-family="sans" font-size="10.00">site_numbering_map</text>
</g>
<!-- 3&#45;&gt;4 -->
<g id="edge11" class="edge">
<title>3&#45;&gt;4</title>
<path fill="none" stroke="grey" stroke-width="2" d="M156.02,-431.7C144.94,-422.88 131.3,-412.03 119.29,-402.47"/>
<polygon fill="grey" stroke="grey" stroke-width="2" points="121.28,-399.59 111.28,-396.1 116.93,-405.07 121.28,-399.59"/>
</g>
<!-- 5 -->
<g id="node6" class="node">
<title>5</title>
<path fill="none" stroke="#d8c356" stroke-width="2" d="M213.78,-324C213.78,-324 117.78,-324 117.78,-324 111.78,-324 105.78,-318 105.78,-312 105.78,-312 105.78,-300 105.78,-300 105.78,-294 111.78,-288 117.78,-288 117.78,-288 213.78,-288 213.78,-288 219.78,-288 225.78,-294 225.78,-300 225.78,-300 225.78,-312 225.78,-312 225.78,-318 219.78,-324 213.78,-324"/>
<text text-anchor="middle" x="165.78" y="-303.5" font-family="sans" font-size="10.00">build_codon_variants</text>
</g>
<!-- 3&#45;&gt;5 -->
<g id="edge14" class="edge">
<title>3&#45;&gt;5</title>
<path fill="none" stroke="grey" stroke-width="2" d="M176.33,-431.87C174.28,-407.67 170.53,-363.21 168.09,-334.39"/>
<polygon fill="grey" stroke="grey" stroke-width="2" points="171.56,-333.86 167.23,-324.19 164.58,-334.45 171.56,-333.86"/>
</g>
<!-- 6 -->
<g id="node7" class="node">
<title>6</title>
<path fill="none" stroke="#bed856" stroke-width="2" d="M403.78,-396C403.78,-396 293.78,-396 293.78,-396 287.78,-396 281.78,-390 281.78,-384 281.78,-384 281.78,-372 281.78,-372 281.78,-366 287.78,-360 293.78,-360 293.78,-360 403.78,-360 403.78,-360 409.78,-360 415.78,-366 415.78,-372 415.78,-372 415.78,-384 415.78,-384 415.78,-390 409.78,-396 403.78,-396"/>
<text text-anchor="middle" x="348.78" y="-375.5" font-family="sans" font-size="10.00">build_pacbio_consensus</text>
</g>
<!-- 3&#45;&gt;6 -->
<g id="edge16" class="edge">
<title>3&#45;&gt;6</title>
<path fill="none" stroke="grey" stroke-width="2" d="M219.61,-431.88C243.19,-422.22 272.84,-410.09 297.77,-399.88"/>
<polygon fill="grey" stroke="grey" stroke-width="2" points="299.15,-403.1 307.08,-396.07 296.5,-396.62 299.15,-403.1"/>
</g>
<!-- 11 -->
<g id="node12" class="node">
<title>11</title>
<path fill="none" stroke="#56d8d0" stroke-width="2" d="M316.28,-180C316.28,-180 269.28,-180 269.28,-180 263.28,-180 257.28,-174 257.28,-168 257.28,-168 257.28,-156 257.28,-156 257.28,-150 263.28,-144 269.28,-144 269.28,-144 316.28,-144 316.28,-144 322.28,-144 328.28,-150 328.28,-156 328.28,-156 328.28,-168 328.28,-168 328.28,-174 322.28,-180 316.28,-180"/>
<text text-anchor="middle" x="292.78" y="-159.5" font-family="sans" font-size="10.00">docs_index</text>
</g>
<!-- 3&#45;&gt;11 -->
<g id="edge27" class="edge">
<title>3&#45;&gt;11</title>
<path fill="none" stroke="grey" stroke-width="2" d="M186.16,-431.81C197.7,-407.89 218.85,-363.1 234.78,-324 253.79,-277.32 273.07,-221.81 283.92,-189.67"/>
<polygon fill="grey" stroke="grey" stroke-width="2" points="287.27,-190.69 287.13,-180.09 280.63,-188.46 287.27,-190.69"/>
</g>
<!-- 4&#45;&gt;2 -->
<g id="edge6" class="edge">
<title>4&#45;&gt;2</title>
<path fill="none" stroke="grey" stroke-width="2" d="M83.78,-359.94C78.3,-341.52 72.38,-311.64 81.78,-288 114.3,-206.2 146.91,-196.22 217.78,-144 235.91,-130.64 257.93,-119.13 277.35,-110.28"/>
<polygon fill="grey" stroke="grey" stroke-width="2" points="278.92,-113.41 286.64,-106.15 276.08,-107.01 278.92,-113.41"/>
</g>
<!-- 4&#45;&gt;5 -->
<g id="edge13" class="edge">
<title>4&#45;&gt;5</title>
<path fill="none" stroke="grey" stroke-width="2" d="M108.56,-359.7C117.95,-351.05 129.46,-340.45 139.69,-331.03"/>
<polygon fill="grey" stroke="grey" stroke-width="2" points="142.22,-333.45 147.2,-324.1 137.48,-328.3 142.22,-333.45"/>
</g>
<!-- 4&#45;&gt;11 -->
<g id="edge24" class="edge">
<title>4&#45;&gt;11</title>
<path fill="none" stroke="grey" stroke-width="2" d="M86.95,-359.97C84.71,-341.04 83.8,-310.22 96.78,-288 130.02,-231.06 200.66,-195.88 247.43,-177.89"/>
<polygon fill="grey" stroke="grey" stroke-width="2" points="248.88,-181.08 257.02,-174.3 246.43,-174.52 248.88,-181.08"/>
</g>
<!-- 5&#45;&gt;2 -->
<g id="edge7" class="edge">
<title>5&#45;&gt;2</title>
<path fill="none" stroke="grey" stroke-width="2" d="M171,-287.78C181.35,-256.02 207.14,-187.51 248.78,-144 259.71,-132.57 273.49,-122.15 286.35,-113.64"/>
<polygon fill="grey" stroke="grey" stroke-width="2" points="288.53,-116.41 295.07,-108.07 284.76,-110.51 288.53,-116.41"/>
</g>
<!-- 9 -->
<g id="node10" class="node">
<title>9</title>
<path fill="none" stroke="#d85656" stroke-width="2" d="M387.28,-252C387.28,-252 332.28,-252 332.28,-252 326.28,-252 320.28,-246 320.28,-240 320.28,-240 320.28,-228 320.28,-228 320.28,-222 326.28,-216 332.28,-216 332.28,-216 387.28,-216 387.28,-216 393.28,-216 399.28,-222 399.28,-228 399.28,-228 399.28,-240 399.28,-240 399.28,-246 393.28,-252 387.28,-252"/>
<text text-anchor="middle" x="359.78" y="-231.5" font-family="sans" font-size="10.00">make_nblink</text>
</g>
<!-- 5&#45;&gt;9 -->
<g id="edge20" class="edge">
<title>5&#45;&gt;9</title>
<path fill="none" stroke="grey" stroke-width="2" d="M213.23,-287.88C242.66,-277.26 280.41,-263.64 310.22,-252.88"/>
<polygon fill="grey" stroke="grey" stroke-width="2" points="311.78,-256.04 320,-249.35 309.41,-249.45 311.78,-256.04"/>
</g>
<!-- 5&#45;&gt;11 -->
<g id="edge25" class="edge">
<title>5&#45;&gt;11</title>
<path fill="none" stroke="grey" stroke-width="2" d="M179.24,-287.88C193.74,-269.66 217.7,-240.2 239.78,-216 248.55,-206.39 258.55,-196.2 267.49,-187.35"/>
<polygon fill="grey" stroke="grey" stroke-width="2" points="270.01,-189.77 274.69,-180.27 265.11,-184.78 270.01,-189.77"/>
</g>
<!-- 6&#45;&gt;2 -->
<g id="edge4" class="edge">
<title>6&#45;&gt;2</title>
<path fill="none" stroke="grey" stroke-width="2" d="M404.81,-359.92C476.12,-335 585.66,-284.1 546.78,-216 510.43,-152.35 428.06,-118.65 374.79,-102.84"/>
<polygon fill="grey" stroke="grey" stroke-width="2" points="375.45,-99.39 364.87,-100.01 373.52,-106.12 375.45,-99.39"/>
</g>
<!-- 6&#45;&gt;5 -->
<g id="edge12" class="edge">
<title>6&#45;&gt;5</title>
<path fill="none" stroke="grey" stroke-width="2" d="M304.01,-359.88C278.66,-350.18 246.76,-337.98 220,-327.74"/>
<polygon fill="grey" stroke="grey" stroke-width="2" points="220.99,-324.37 210.4,-324.07 218.49,-330.91 220.99,-324.37"/>
</g>
<!-- 6&#45;&gt;9 -->
<g id="edge19" class="edge">
<title>6&#45;&gt;9</title>
<path fill="none" stroke="grey" stroke-width="2" d="M350.1,-359.87C351.98,-335.67 355.42,-291.21 357.65,-262.39"/>
<polygon fill="grey" stroke="grey" stroke-width="2" points="361.16,-262.43 358.44,-252.19 354.18,-261.89 361.16,-262.43"/>
</g>
<!-- 6&#45;&gt;11 -->
<g id="edge22" class="edge">
<title>6&#45;&gt;11</title>
<path fill="none" stroke="grey" stroke-width="2" d="M343.2,-359.73C335.56,-335.72 321.65,-290.82 311.78,-252 306.55,-231.46 301.58,-208 298.04,-190.33"/>
<polygon fill="grey" stroke="grey" stroke-width="2" points="301.4,-189.28 296.03,-180.15 294.53,-190.64 301.4,-189.28"/>
</g>
<!-- 7 -->
<g id="node8" class="node">
<title>7</title>
<path fill="none" stroke="#566bd8" stroke-width="2" d="M526.28,-468C526.28,-468 437.28,-468 437.28,-468 431.28,-468 425.28,-462 425.28,-456 425.28,-456 425.28,-444 425.28,-444 425.28,-438 431.28,-432 437.28,-432 437.28,-432 526.28,-432 526.28,-432 532.28,-432 538.28,-438 538.28,-444 538.28,-444 538.28,-456 538.28,-456 538.28,-462 532.28,-468 526.28,-468"/>
<text text-anchor="middle" x="481.78" y="-447.5" font-family="sans" font-size="10.00">analyze_pacbio_ccs</text>
</g>
<!-- 7&#45;&gt;2 -->
<g id="edge8" class="edge">
<title>7&#45;&gt;2</title>
<path fill="none" stroke="grey" stroke-width="2" d="M511.62,-431.83C547.74,-408.57 603.78,-363.39 603.78,-307 603.78,-307 603.78,-307 603.78,-233 603.78,-131.6 455.28,-102.57 375.35,-94.29"/>
<polygon fill="grey" stroke="grey" stroke-width="2" points="375.31,-90.77 365.02,-93.29 374.63,-97.73 375.31,-90.77"/>
</g>
<!-- 7&#45;&gt;6 -->
<g id="edge15" class="edge">
<title>7&#45;&gt;6</title>
<path fill="none" stroke="grey" stroke-width="2" d="M449.24,-431.88C431.53,-422.55 409.42,-410.92 390.46,-400.94"/>
<polygon fill="grey" stroke="grey" stroke-width="2" points="391.92,-397.75 381.44,-396.19 388.66,-403.94 391.92,-397.75"/>
</g>
<!-- 7&#45;&gt;9 -->
<g id="edge18" class="edge">
<title>7&#45;&gt;9</title>
<path fill="none" stroke="grey" stroke-width="2" d="M472,-431.85C450.67,-394.44 399.87,-305.32 374.59,-260.98"/>
<polygon fill="grey" stroke="grey" stroke-width="2" points="377.59,-259.19 369.6,-252.23 371.51,-262.65 377.59,-259.19"/>
</g>
<!-- 7&#45;&gt;11 -->
<g id="edge26" class="edge">
<title>7&#45;&gt;11</title>
<path fill="none" stroke="grey" stroke-width="2" d="M481.05,-431.76C478.39,-389.7 466.03,-280.53 408.78,-216 390.31,-195.18 362.01,-182.03 337.99,-174.04"/>
<polygon fill="grey" stroke="grey" stroke-width="2" points="338.93,-170.66 328.34,-171.02 336.84,-177.34 338.93,-170.66"/>
</g>
<!-- 8 -->
<g id="node9" class="node">
<title>8</title>
<path fill="none" stroke="#61d856" stroke-width="2" d="M535.28,-540C535.28,-540 428.28,-540 428.28,-540 422.28,-540 416.28,-534 416.28,-528 416.28,-528 416.28,-516 416.28,-516 416.28,-510 422.28,-504 428.28,-504 428.28,-504 535.28,-504 535.28,-504 541.28,-504 547.28,-510 547.28,-516 547.28,-516 547.28,-528 547.28,-528 547.28,-534 541.28,-540 535.28,-540"/>
<text text-anchor="middle" x="481.78" y="-519.5" font-family="sans" font-size="10.00">align_parse_PacBio_ccs</text>
</g>
<!-- 8&#45;&gt;7 -->
<g id="edge17" class="edge">
<title>8&#45;&gt;7</title>
<path fill="none" stroke="grey" stroke-width="2" d="M481.78,-503.7C481.78,-495.98 481.78,-486.71 481.78,-478.11"/>
<polygon fill="grey" stroke="grey" stroke-width="2" points="485.28,-478.1 481.78,-468.1 478.28,-478.1 485.28,-478.1"/>
</g>
<!-- 9&#45;&gt;2 -->
<g id="edge3" class="edge">
<title>9&#45;&gt;2</title>
<path fill="none" stroke="grey" stroke-width="2" d="M355.67,-215.87C349.85,-191.56 339.14,-146.82 332.24,-118.01"/>
<polygon fill="grey" stroke="grey" stroke-width="2" points="335.62,-117.1 329.89,-108.19 328.82,-118.73 335.62,-117.1"/>
</g>
<!-- 9&#45;&gt;11 -->
<g id="edge21" class="edge">
<title>9&#45;&gt;11</title>
<path fill="none" stroke="grey" stroke-width="2" d="M343.21,-215.7C335.1,-207.22 325.19,-196.86 316.3,-187.58"/>
<polygon fill="grey" stroke="grey" stroke-width="2" points="318.59,-184.91 309.15,-180.1 313.53,-189.75 318.59,-184.91"/>
</g>
<!-- 10 -->
<g id="node11" class="node">
<title>10</title>
<path fill="none" stroke="#d89c56" stroke-width="2" d="M525.78,-252C525.78,-252 467.78,-252 467.78,-252 461.78,-252 455.78,-246 455.78,-240 455.78,-240 455.78,-228 455.78,-228 455.78,-222 461.78,-216 467.78,-216 467.78,-216 525.78,-216 525.78,-216 531.78,-216 537.78,-222 537.78,-228 537.78,-228 537.78,-240 537.78,-240 537.78,-246 531.78,-252 525.78,-252"/>
<text text-anchor="middle" x="496.78" y="-231.5" font-family="sans" font-size="10.00">make_graphs</text>
</g>
<!-- 10&#45;&gt;2 -->
<g id="edge5" class="edge">
<title>10&#45;&gt;2</title>
<path fill="none" stroke="grey" stroke-width="2" d="M476.15,-215.87C445.72,-190.6 388.7,-143.25 354.29,-114.68"/>
<polygon fill="grey" stroke="grey" stroke-width="2" points="356.4,-111.89 346.48,-108.19 351.93,-117.27 356.4,-111.89"/>
</g>
<!-- 10&#45;&gt;11 -->
<g id="edge23" class="edge">
<title>10&#45;&gt;11</title>
<path fill="none" stroke="grey" stroke-width="2" d="M455.49,-218.83C421.44,-207.15 373.19,-190.59 338.08,-178.54"/>
<polygon fill="grey" stroke="grey" stroke-width="2" points="339.14,-175.21 328.54,-175.27 336.87,-181.83 339.14,-175.21"/>
</g>
<!-- 11&#45;&gt;2 -->
<g id="edge10" class="edge">
<title>11&#45;&gt;2</title>
<path fill="none" stroke="grey" stroke-width="2" d="M300.93,-143.7C304.69,-135.73 309.23,-126.1 313.39,-117.26"/>
<polygon fill="grey" stroke="grey" stroke-width="2" points="316.61,-118.64 317.71,-108.1 310.28,-115.66 316.61,-118.64"/>
</g>
</g>
</svg>
