<?xml version="1.0" encoding="UTF-8" standalone="no"?>
<!DOCTYPE svg PUBLIC "-//W3C//DTD SVG 1.1//EN"
 "http://www.w3.org/Graphics/SVG/1.1/DTD/svg11.dtd">
<!-- Generated by graphviz version 4.0.0 (20220529.1859)
 -->
<!-- Title: snakemake_dag Pages: 1 -->
<svg width="1103pt" height="2068pt"
 viewBox="0.00 0.00 1102.98 2068.00" xmlns="http://www.w3.org/2000/svg" xmlns:xlink="http://www.w3.org/1999/xlink">
<g id="graph0" class="graph" transform="scale(1 1) rotate(0) translate(4 2064)">
<title>snakemake_dag</title>
<polygon fill="white" stroke="transparent" points="-4,4 -4,-2064 1098.98,-2064 1098.98,4 -4,4"/>
<!-- 0 -->
<g id="node1" class="node">
<title>0</title>
<text text-anchor="start" x="417.17" y="-89.6" font-family="sans" font-weight="bold" font-size="18.00">all</text>
<text text-anchor="start" x="300.17" y="-65.8" font-family="sans" font-size="10.00"> </text>
<text text-anchor="start" x="304.17" y="-65.8" font-family="sans" font-weight="bold" font-size="14.00">↪ input</text>
<text text-anchor="start" x="362.17" y="-65.8" font-family="sans" font-size="10.00"> </text>
<text text-anchor="start" x="300.17" y="-46" font-family="monospace" font-size="10.00">docs</text>
<text text-anchor="start" x="300.17" y="-28" font-family="monospace" font-size="10.00">results/variant_counts/adequate_counts.flag</text>
<text text-anchor="start" x="552.17" y="-10" font-family="sans" font-size="10.00"> &#160;</text>
<polygon fill="#576dd9" stroke="#576dd9" points="294.17,-80 294.17,-80 566.17,-80 566.17,-80 294.17,-80"/>
<polygon fill="#576dd9" stroke="#576dd9" points="294.17,-22 294.17,-22 566.17,-22 566.17,-22 294.17,-22"/>
<polygon fill="none" stroke="#576dd9" stroke-width="2" points="293.67,-1 293.67,-109 564.67,-109 564.67,-1 293.67,-1"/>
</g>
<!-- 1 -->
<g id="node2" class="node">
<title>1</title>
<text text-anchor="start" x="101.17" y="-363.6" font-family="sans" font-weight="bold" font-size="18.00">check_adequate_variant_counts</text>
<text text-anchor="start" x="101.17" y="-342" font-family="sans" font-size="10.00"> &#160;</text>
<text text-anchor="start" x="342.17" y="-321.8" font-family="sans" font-size="10.00"> </text>
<text text-anchor="start" x="346.17" y="-321.8" font-family="sans" font-weight="bold" font-size="14.00">output →</text>
<text text-anchor="start" x="416.17" y="-321.8" font-family="sans" font-size="10.00"> </text>
<text text-anchor="start" x="101.17" y="-302" font-family="monospace" font-size="10.00">results/variant_counts/adequate_counts.flag</text>
<polygon fill="#d96d57" stroke="#d96d57" points="95.17,-354 95.17,-354 427.17,-354 427.17,-354 95.17,-354"/>
<polygon fill="#d96d57" stroke="#d96d57" points="95.17,-336 95.17,-336 427.17,-336 427.17,-336 95.17,-336"/>
<polygon fill="none" stroke="#d96d57" stroke-width="2" points="94.67,-293 94.67,-383 425.67,-383 425.67,-293 94.67,-293"/>
</g>
<!-- 1&#45;&gt;0 -->
<g id="edge1" class="edge">
<title>1&#45;&gt;0</title>
<path fill="none" stroke="grey" stroke-width="2" d="M287.32,-291.85C315.46,-245.07 359.65,-171.58 391.23,-119.07"/>
<polygon fill="grey" stroke="grey" stroke-width="2" points="394.43,-120.55 396.58,-110.18 388.43,-116.94 394.43,-120.55"/>
</g>
<!-- 2 -->
<g id="node3" class="node">
<title>2</title>
<text text-anchor="start" x="536.67" y="-509.6" font-family="sans" font-weight="bold" font-size="18.00">sphinx_build</text>
<text text-anchor="start" x="452.17" y="-485.8" font-family="sans" font-size="10.00"> </text>
<text text-anchor="start" x="456.17" y="-485.8" font-family="sans" font-weight="bold" font-size="14.00">↪ input</text>
<text text-anchor="start" x="514.17" y="-485.8" font-family="sans" font-size="10.00"> </text>
<text text-anchor="start" x="452.17" y="-466" font-family="monospace" font-size="10.00">dms&#45;vep&#45;pipeline/conf.py</text>
<text text-anchor="start" x="452.17" y="-448" font-family="monospace" font-size="10.00">results/docs_source/analyze_pacbio_ccs.nblink</text>
<text text-anchor="start" x="452.17" y="-430" font-family="monospace" font-size="10.00">results/docs_source/build_codon_variants.nblink</text>
<text text-anchor="start" x="452.17" y="-412" font-family="monospace" font-size="10.00">results/docs_source/build_pacbio_consensus.nblink</text>
<text text-anchor="start" x="452.17" y="-394" font-family="monospace" font-size="10.00">results/docs_source/dag.svg</text>
<text text-anchor="start" x="452.17" y="-376" font-family="monospace" font-size="10.00">results/docs_source/filegraph.svg</text>
<text text-anchor="start" x="452.17" y="-358" font-family="monospace" font-size="10.00">results/docs_source/index.rst</text>
<text text-anchor="start" x="452.17" y="-340" font-family="monospace" font-size="10.00">results/docs_source/rulegraph.svg</text>
<text text-anchor="start" x="452.17" y="-322" font-family="monospace" font-size="10.00">results/gene_sequence/codon.fasta</text>
<text text-anchor="start" x="452.17" y="-304" font-family="monospace" font-size="10.00">results/gene_sequence/protein.fasta</text>
<text text-anchor="start" x="452.17" y="-286" font-family="monospace" font-size="10.00">results/notebooks/analyze_pacbio_ccs.ipynb</text>
<text text-anchor="start" x="452.17" y="-268" font-family="monospace" font-size="10.00">results/notebooks/build_codon_variants.ipynb</text>
<text text-anchor="start" x="452.17" y="-250" font-family="monospace" font-size="10.00">results/notebooks/build_pacbio_consensus.ipynb</text>
<text text-anchor="start" x="452.17" y="-232" font-family="monospace" font-size="10.00">results/site_numbering/site_numbering_map.csv</text>
<text text-anchor="start" x="452.17" y="-214" font-family="monospace" font-size="10.00">results/site_numbering/site_numbering_map.csv</text>
<text text-anchor="start" x="452.17" y="-196" font-family="monospace" font-size="10.00">results/variants/codon_variants.csv</text>
<text text-anchor="start" x="669.17" y="-175.8" font-family="sans" font-size="10.00"> </text>
<text text-anchor="start" x="673.17" y="-175.8" font-family="sans" font-weight="bold" font-size="14.00">output →</text>
<text text-anchor="start" x="743.17" y="-175.8" font-family="sans" font-size="10.00"> </text>
<text text-anchor="start" x="452.17" y="-156" font-family="monospace" font-size="10.00">docs</text>
<polygon fill="#d95757" stroke="#d95757" points="446.17,-500 446.17,-500 754.17,-500 754.17,-500 446.17,-500"/>
<polygon fill="#d95757" stroke="#d95757" points="446.17,-190 446.17,-190 754.17,-190 754.17,-190 446.17,-190"/>
<polygon fill="none" stroke="#d95757" stroke-width="2" points="445.67,-147 445.67,-529 752.67,-529 752.67,-147 445.67,-147"/>
</g>
<!-- 2&#45;&gt;0 -->
<g id="edge2" class="edge">
<title>2&#45;&gt;0</title>
<path fill="none" stroke="grey" stroke-width="2" d="M483.42,-145.68C477.75,-136.31 472.29,-127.28 467.16,-118.8"/>
<polygon fill="grey" stroke="grey" stroke-width="2" points="470.11,-116.92 461.94,-110.18 464.12,-120.54 470.11,-116.92"/>
</g>
<!-- 3 -->
<g id="node4" class="node">
<title>3</title>
<text text-anchor="start" x="288.67" y="-1817.6" font-family="sans" font-weight="bold" font-size="18.00">gene_sequence</text>
<text text-anchor="start" x="260.17" y="-1793.8" font-family="sans" font-size="10.00"> </text>
<text text-anchor="start" x="264.17" y="-1793.8" font-family="sans" font-weight="bold" font-size="14.00">↪ input</text>
<text text-anchor="start" x="322.17" y="-1793.8" font-family="sans" font-size="10.00"> </text>
<text text-anchor="start" x="260.17" y="-1774" font-family="monospace" font-size="10.00">data/PacBio_amplicon.gb</text>
<text text-anchor="start" x="393.17" y="-1753.8" font-family="sans" font-size="10.00"> </text>
<text text-anchor="start" x="397.17" y="-1753.8" font-family="sans" font-weight="bold" font-size="14.00">output →</text>
<text text-anchor="start" x="467.17" y="-1753.8" font-family="sans" font-size="10.00"> </text>
<text text-anchor="start" x="260.17" y="-1734" font-family="monospace" font-size="10.00">results/gene_sequence/codon.fasta</text>
<text text-anchor="start" x="260.17" y="-1716" font-family="monospace" font-size="10.00">results/gene_sequence/protein.fasta</text>
<polygon fill="#579bd9" stroke="#579bd9" points="254.17,-1808 254.17,-1808 478.17,-1808 478.17,-1808 254.17,-1808"/>
<polygon fill="#579bd9" stroke="#579bd9" points="254.17,-1768 254.17,-1768 478.17,-1768 478.17,-1768 254.17,-1768"/>
<polygon fill="none" stroke="#579bd9" stroke-width="2" points="253.67,-1707 253.67,-1837 476.67,-1837 476.67,-1707 253.67,-1707"/>
</g>
<!-- 3&#45;&gt;2 -->
<g id="edge5" class="edge">
<title>3&#45;&gt;2</title>
<path fill="none" stroke="grey" stroke-width="2" d="M252.65,-1753.87C180.37,-1736.55 91.29,-1702.1 43.17,-1634 -39.84,-1516.54 23.17,-1454.83 23.17,-1311 23.17,-1311 23.17,-1311 23.17,-1051 23.17,-831.35 -43.29,-714.93 118.17,-566 168.3,-519.76 356.97,-559.8 435.06,-529.62"/>
<polygon fill="grey" stroke="grey" stroke-width="2" points="436.8,-532.67 444.46,-525.35 433.9,-526.3 436.8,-532.67"/>
</g>
<!-- 4 -->
<g id="node5" class="node">
<title>4</title>
<text text-anchor="start" x="90.67" y="-1613.6" font-family="sans" font-weight="bold" font-size="18.00">site_numbering_map</text>
<text text-anchor="start" x="59.17" y="-1589.8" font-family="sans" font-size="10.00"> </text>
<text text-anchor="start" x="63.17" y="-1589.8" font-family="sans" font-weight="bold" font-size="14.00">↪ input</text>
<text text-anchor="start" x="121.17" y="-1589.8" font-family="sans" font-size="10.00"> </text>
<text text-anchor="start" x="59.17" y="-1570" font-family="monospace" font-size="10.00">results/gene_sequence/protein.fasta</text>
<text text-anchor="start" x="252.17" y="-1549.8" font-family="sans" font-size="10.00"> </text>
<text text-anchor="start" x="256.17" y="-1549.8" font-family="sans" font-weight="bold" font-size="14.00">output →</text>
<text text-anchor="start" x="326.17" y="-1549.8" font-family="sans" font-size="10.00"> </text>
<text text-anchor="start" x="59.17" y="-1530" font-family="monospace" font-size="10.00">results/site_numbering/alignment.fa</text>
<text text-anchor="start" x="59.17" y="-1512" font-family="monospace" font-size="10.00">results/site_numbering/numbering_reference.fa</text>
<text text-anchor="start" x="59.17" y="-1494" font-family="monospace" font-size="10.00">results/site_numbering/site_numbering_map.csv</text>
<text text-anchor="start" x="59.17" y="-1476" font-family="monospace" font-size="10.00">results/site_numbering/to_align.fa</text>
<polygon fill="#57d98f" stroke="#57d98f" points="53.17,-1604 53.17,-1604 337.17,-1604 337.17,-1604 53.17,-1604"/>
<polygon fill="#57d98f" stroke="#57d98f" points="53.17,-1564 53.17,-1564 337.17,-1564 337.17,-1564 53.17,-1564"/>
<polygon fill="none" stroke="#57d98f" stroke-width="2" points="52.67,-1467 52.67,-1633 335.67,-1633 335.67,-1467 52.67,-1467"/>
</g>
<!-- 3&#45;&gt;4 -->
<g id="edge11" class="edge">
<title>3&#45;&gt;4</title>
<path fill="none" stroke="grey" stroke-width="2" d="M314.56,-1705.89C299.1,-1686 281.8,-1663.75 265.25,-1642.46"/>
<polygon fill="grey" stroke="grey" stroke-width="2" points="267.85,-1640.1 258.95,-1634.35 262.33,-1644.39 267.85,-1640.1"/>
</g>
<!-- 5 -->
<g id="node6" class="node">
<title>5</title>
<text text-anchor="start" x="189.17" y="-1409.6" font-family="sans" font-weight="bold" font-size="18.00">build_codon_variants</text>
<text text-anchor="start" x="135.17" y="-1385.8" font-family="sans" font-size="10.00"> </text>
<text text-anchor="start" x="139.17" y="-1385.8" font-family="sans" font-weight="bold" font-size="14.00">↪ input</text>
<text text-anchor="start" x="197.17" y="-1385.8" font-family="sans" font-size="10.00"> </text>
<text text-anchor="start" x="135.17" y="-1366" font-family="monospace" font-size="10.00">data/neutralization_standard_barcodes.csv</text>
<text text-anchor="start" x="135.17" y="-1348" font-family="monospace" font-size="10.00">dms&#45;vep&#45;pipeline/notebooks/build_codon_variants.ipynb</text>
<text text-anchor="start" x="135.17" y="-1330" font-family="monospace" font-size="10.00">library_design/results/aggregated_mutations.csv</text>
<text text-anchor="start" x="135.17" y="-1312" font-family="monospace" font-size="10.00">results/gene_sequence/codon.fasta</text>
<text text-anchor="start" x="135.17" y="-1294" font-family="monospace" font-size="10.00">results/gene_sequence/protein.fasta</text>
<text text-anchor="start" x="135.17" y="-1276" font-family="monospace" font-size="10.00">results/site_numbering/site_numbering_map.csv</text>
<text text-anchor="start" x="135.17" y="-1258" font-family="monospace" font-size="10.00">results/variants/nt_variants.csv</text>
<text text-anchor="start" x="376.17" y="-1237.8" font-family="sans" font-size="10.00"> </text>
<text text-anchor="start" x="380.17" y="-1237.8" font-family="sans" font-weight="bold" font-size="14.00">output →</text>
<text text-anchor="start" x="450.17" y="-1237.8" font-family="sans" font-size="10.00"> </text>
<text text-anchor="start" x="135.17" y="-1218" font-family="monospace" font-size="10.00">results/notebooks/build_codon_variants.ipynb</text>
<text text-anchor="start" x="135.17" y="-1200" font-family="monospace" font-size="10.00">results/variants/codon_variants.csv</text>
<polygon fill="#d99b57" stroke="#d99b57" points="129.17,-1400 129.17,-1400 461.17,-1400 461.17,-1400 129.17,-1400"/>
<polygon fill="#d99b57" stroke="#d99b57" points="129.17,-1252 129.17,-1252 461.17,-1252 461.17,-1252 129.17,-1252"/>
<polygon fill="none" stroke="#d99b57" stroke-width="2" points="128.67,-1191 128.67,-1429 459.67,-1429 459.67,-1191 128.67,-1191"/>
</g>
<!-- 3&#45;&gt;5 -->
<g id="edge12" class="edge">
<title>3&#45;&gt;5</title>
<path fill="none" stroke="grey" stroke-width="2" d="M366,-1705.82C365.66,-1643.64 362.11,-1547.62 346.17,-1466 344.51,-1457.5 342.5,-1448.82 340.26,-1440.13"/>
<polygon fill="grey" stroke="grey" stroke-width="2" points="343.6,-1439.08 337.63,-1430.33 336.84,-1440.89 343.6,-1439.08"/>
</g>
<!-- 6 -->
<g id="node7" class="node">
<title>6</title>
<text text-anchor="start" x="537.17" y="-1613.6" font-family="sans" font-weight="bold" font-size="18.00">build_pacbio_consensus</text>
<text text-anchor="start" x="491.17" y="-1589.8" font-family="sans" font-size="10.00"> </text>
<text text-anchor="start" x="495.17" y="-1589.8" font-family="sans" font-weight="bold" font-size="14.00">↪ input</text>
<text text-anchor="start" x="553.17" y="-1589.8" font-family="sans" font-size="10.00"> </text>
<text text-anchor="start" x="491.17" y="-1570" font-family="monospace" font-size="10.00">dms&#45;vep&#45;pipeline/notebooks/build_pacbio_consensus.ipynb</text>
<text text-anchor="start" x="491.17" y="-1552" font-family="monospace" font-size="10.00">results/gene_sequence/codon.fasta</text>
<text text-anchor="start" x="491.17" y="-1534" font-family="monospace" font-size="10.00">results/process_ccs/CCSs_aligned_to_amplicon.csv</text>
<text text-anchor="start" x="744.17" y="-1513.8" font-family="sans" font-size="10.00"> </text>
<text text-anchor="start" x="748.17" y="-1513.8" font-family="sans" font-weight="bold" font-size="14.00">output →</text>
<text text-anchor="start" x="818.17" y="-1513.8" font-family="sans" font-size="10.00"> </text>
<text text-anchor="start" x="491.17" y="-1494" font-family="monospace" font-size="10.00">results/notebooks/build_pacbio_consensus.ipynb</text>
<text text-anchor="start" x="491.17" y="-1476" font-family="monospace" font-size="10.00">results/variants/nt_variants.csv</text>
<polygon fill="#a6d957" stroke="#a6d957" points="485.17,-1604 485.17,-1604 829.17,-1604 829.17,-1604 485.17,-1604"/>
<polygon fill="#a6d957" stroke="#a6d957" points="485.17,-1528 485.17,-1528 829.17,-1528 829.17,-1528 485.17,-1528"/>
<polygon fill="none" stroke="#a6d957" stroke-width="2" points="484.67,-1467 484.67,-1633 827.67,-1633 827.67,-1467 484.67,-1467"/>
</g>
<!-- 3&#45;&gt;6 -->
<g id="edge15" class="edge">
<title>3&#45;&gt;6</title>
<path fill="none" stroke="grey" stroke-width="2" d="M451.3,-1705.89C478.49,-1685.33 509.02,-1662.25 538.04,-1640.3"/>
<polygon fill="grey" stroke="grey" stroke-width="2" points="540.32,-1642.97 546.18,-1634.15 536.1,-1637.39 540.32,-1642.97"/>
</g>
<!-- 11 -->
<g id="node12" class="node">
<title>11</title>
<text text-anchor="start" x="453.67" y="-893.6" font-family="sans" font-weight="bold" font-size="18.00">docs_index</text>
<text text-anchor="start" x="361.17" y="-869.8" font-family="sans" font-size="10.00"> </text>
<text text-anchor="start" x="365.17" y="-869.8" font-family="sans" font-weight="bold" font-size="14.00">↪ input</text>
<text text-anchor="start" x="423.17" y="-869.8" font-family="sans" font-size="10.00"> </text>
<text text-anchor="start" x="361.17" y="-850" font-family="monospace" font-size="10.00">results/docs_source/analyze_pacbio_ccs.nblink</text>
<text text-anchor="start" x="361.17" y="-832" font-family="monospace" font-size="10.00">results/docs_source/build_codon_variants.nblink</text>
<text text-anchor="start" x="361.17" y="-814" font-family="monospace" font-size="10.00">results/docs_source/build_pacbio_consensus.nblink</text>
<text text-anchor="start" x="361.17" y="-796" font-family="monospace" font-size="10.00">results/docs_source/dag.svg</text>
<text text-anchor="start" x="361.17" y="-778" font-family="monospace" font-size="10.00">results/docs_source/filegraph.svg</text>
<text text-anchor="start" x="361.17" y="-760" font-family="monospace" font-size="10.00">results/docs_source/rulegraph.svg</text>
<text text-anchor="start" x="361.17" y="-742" font-family="monospace" font-size="10.00">results/gene_sequence/codon.fasta</text>
<text text-anchor="start" x="361.17" y="-724" font-family="monospace" font-size="10.00">results/gene_sequence/protein.fasta</text>
<text text-anchor="start" x="361.17" y="-706" font-family="monospace" font-size="10.00">results/notebooks/analyze_pacbio_ccs.ipynb</text>
<text text-anchor="start" x="361.17" y="-688" font-family="monospace" font-size="10.00">results/notebooks/build_codon_variants.ipynb</text>
<text text-anchor="start" x="361.17" y="-670" font-family="monospace" font-size="10.00">results/notebooks/build_pacbio_consensus.ipynb</text>
<text text-anchor="start" x="361.17" y="-652" font-family="monospace" font-size="10.00">results/site_numbering/site_numbering_map.csv</text>
<text text-anchor="start" x="361.17" y="-634" font-family="monospace" font-size="10.00">results/site_numbering/site_numbering_map.csv</text>
<text text-anchor="start" x="361.17" y="-616" font-family="monospace" font-size="10.00">results/variants/codon_variants.csv</text>
<text text-anchor="start" x="578.17" y="-595.8" font-family="sans" font-size="10.00"> </text>
<text text-anchor="start" x="582.17" y="-595.8" font-family="sans" font-weight="bold" font-size="14.00">output →</text>
<text text-anchor="start" x="652.17" y="-595.8" font-family="sans" font-size="10.00"> </text>
<text text-anchor="start" x="361.17" y="-576" font-family="monospace" font-size="10.00">results/docs_source/index.rst</text>
<polygon fill="#79d957" stroke="#79d957" points="355.17,-884 355.17,-884 663.17,-884 663.17,-884 355.17,-884"/>
<polygon fill="#79d957" stroke="#79d957" points="355.17,-610 355.17,-610 663.17,-610 663.17,-610 355.17,-610"/>
<polygon fill="none" stroke="#79d957" stroke-width="2" points="354.67,-567 354.67,-913 661.67,-913 661.67,-567 354.67,-567"/>
</g>
<!-- 3&#45;&gt;11 -->
<g id="edge22" class="edge">
<title>3&#45;&gt;11</title>
<path fill="none" stroke="grey" stroke-width="2" d="M390.45,-1705.85C415.5,-1638.08 452.59,-1528.33 470.17,-1430 500.48,-1260.44 508.73,-1064.01 510.14,-924.38"/>
<polygon fill="grey" stroke="grey" stroke-width="2" points="513.64,-924.03 510.23,-914 506.64,-923.97 513.64,-924.03"/>
</g>
<!-- 4&#45;&gt;2 -->
<g id="edge10" class="edge">
<title>4&#45;&gt;2</title>
<path fill="none" stroke="grey" stroke-width="2" d="M108.36,-1465.83C100.6,-1454.53 93.89,-1442.5 89.17,-1430 -4.1,-1183.34 214.71,-589.14 239.17,-566 301.54,-506.97 355.14,-569.69 435.68,-529.7"/>
<polygon fill="grey" stroke="grey" stroke-width="2" points="437.44,-532.72 444.59,-524.91 434.12,-526.56 437.44,-532.72"/>
</g>
<!-- 4&#45;&gt;5 -->
<g id="edge13" class="edge">
<title>4&#45;&gt;5</title>
<path fill="none" stroke="grey" stroke-width="2" d="M229.14,-1465.76C232.74,-1457.2 236.45,-1448.38 240.19,-1439.48"/>
<polygon fill="grey" stroke="grey" stroke-width="2" points="243.44,-1440.76 244.09,-1430.19 236.99,-1438.05 243.44,-1440.76"/>
</g>
<!-- 4&#45;&gt;11 -->
<g id="edge27" class="edge">
<title>4&#45;&gt;11</title>
<path fill="none" stroke="grey" stroke-width="2" d="M133.91,-1465.98C127.88,-1454.35 122.69,-1442.2 119.17,-1430 89.57,-1327.52 81.89,-1289.94 119.17,-1190 164.87,-1067.46 260.73,-956.15 345.86,-875.02"/>
<polygon fill="grey" stroke="grey" stroke-width="2" points="348.42,-877.42 353.27,-868 343.6,-872.33 348.42,-877.42"/>
</g>
<!-- 5&#45;&gt;2 -->
<g id="edge9" class="edge">
<title>5&#45;&gt;2</title>
<path fill="none" stroke="grey" stroke-width="2" d="M266.52,-1189.82C237.04,-1031.19 211.05,-749.44 345.17,-566 370.84,-530.89 400.78,-555.29 436.17,-530 436.26,-529.94 436.34,-529.87 436.43,-529.81"/>
<polygon fill="grey" stroke="grey" stroke-width="2" points="438.67,-532.51 444.62,-523.74 434.5,-526.88 438.67,-532.51"/>
</g>
<!-- 9 -->
<g id="node10" class="node">
<title>9</title>
<text text-anchor="start" x="593.67" y="-1088.6" font-family="sans" font-weight="bold" font-size="18.00">make_nblink</text>
<text text-anchor="start" x="563.17" y="-1064.8" font-family="sans" font-size="10.00"> </text>
<text text-anchor="start" x="567.17" y="-1064.8" font-family="sans" font-weight="bold" font-size="14.00">↪ input</text>
<text text-anchor="start" x="625.17" y="-1064.8" font-family="sans" font-size="10.00"> </text>
<text text-anchor="start" x="563.17" y="-1045" font-family="monospace" font-size="10.00">&lt;input function&gt;</text>
<text text-anchor="start" x="672.17" y="-1024.8" font-family="sans" font-size="10.00"> </text>
<text text-anchor="start" x="676.17" y="-1024.8" font-family="sans" font-weight="bold" font-size="14.00">output →</text>
<text text-anchor="start" x="746.17" y="-1024.8" font-family="sans" font-size="10.00"> </text>
<text text-anchor="start" x="563.17" y="-1005" font-family="monospace" font-size="10.00">results/docs_source/{nb}.nblink</text>
<polygon fill="#57b1d9" stroke="#57b1d9" points="557.17,-1079 557.17,-1079 757.17,-1079 757.17,-1079 557.17,-1079"/>
<polygon fill="#57b1d9" stroke="#57b1d9" points="557.17,-1039 557.17,-1039 757.17,-1039 757.17,-1039 557.17,-1039"/>
<polygon fill="none" stroke="#57b1d9" stroke-width="2" points="556.67,-996 556.67,-1108 755.67,-1108 755.67,-996 556.67,-996"/>
</g>
<!-- 5&#45;&gt;9 -->
<g id="edge19" class="edge">
<title>5&#45;&gt;9</title>
<path fill="none" stroke="grey" stroke-width="2" d="M460.86,-1191.12C498,-1164.86 535.94,-1138.02 568.38,-1115.08"/>
<polygon fill="grey" stroke="grey" stroke-width="2" points="570.8,-1117.65 576.95,-1109.02 566.76,-1111.94 570.8,-1117.65"/>
</g>
<!-- 5&#45;&gt;11 -->
<g id="edge26" class="edge">
<title>5&#45;&gt;11</title>
<path fill="none" stroke="grey" stroke-width="2" d="M339.03,-1189.93C368.09,-1112.8 406.51,-1010.82 439.38,-923.56"/>
<polygon fill="grey" stroke="grey" stroke-width="2" points="442.71,-924.67 442.96,-914.08 436.15,-922.21 442.71,-924.67"/>
</g>
<!-- 6&#45;&gt;2 -->
<g id="edge8" class="edge">
<title>6&#45;&gt;2</title>
<path fill="none" stroke="grey" stroke-width="2" d="M775.74,-1465.72C866.35,-1394.73 983.89,-1283.75 1036.17,-1154 1070.05,-1069.9 1061.65,-1037.01 1036.17,-950 985.69,-777.62 863.04,-613.88 760.49,-499.37"/>
<polygon fill="grey" stroke="grey" stroke-width="2" points="763.05,-496.98 753.76,-491.89 757.85,-501.67 763.05,-496.98"/>
</g>
<!-- 6&#45;&gt;5 -->
<g id="edge14" class="edge">
<title>6&#45;&gt;5</title>
<path fill="none" stroke="grey" stroke-width="2" d="M529.81,-1465.93C510.18,-1453.02 489.6,-1439.49 469.13,-1426.03"/>
<polygon fill="grey" stroke="grey" stroke-width="2" points="470.96,-1423.04 460.68,-1420.47 467.11,-1428.89 470.96,-1423.04"/>
</g>
<!-- 6&#45;&gt;9 -->
<g id="edge18" class="edge">
<title>6&#45;&gt;9</title>
<path fill="none" stroke="grey" stroke-width="2" d="M656.17,-1465.98C656.17,-1368.53 656.17,-1208.86 656.17,-1119.29"/>
<polygon fill="grey" stroke="grey" stroke-width="2" points="659.67,-1119.25 656.17,-1109.25 652.67,-1119.25 659.67,-1119.25"/>
</g>
<!-- 6&#45;&gt;11 -->
<g id="edge25" class="edge">
<title>6&#45;&gt;11</title>
<path fill="none" stroke="grey" stroke-width="2" d="M628.69,-1466C603.54,-1386.74 567.28,-1263.5 547.17,-1154 533.46,-1079.41 524.43,-996.31 518.55,-924.32"/>
<polygon fill="grey" stroke="grey" stroke-width="2" points="522.03,-923.92 517.74,-914.24 515.06,-924.48 522.03,-923.92"/>
</g>
<!-- 7 -->
<g id="node8" class="node">
<title>7</title>
<text text-anchor="start" x="798.17" y="-1853.6" font-family="sans" font-weight="bold" font-size="18.00">analyze_pacbio_ccs</text>
<text text-anchor="start" x="741.17" y="-1829.8" font-family="sans" font-size="10.00"> </text>
<text text-anchor="start" x="745.17" y="-1829.8" font-family="sans" font-weight="bold" font-size="14.00">↪ input</text>
<text text-anchor="start" x="803.17" y="-1829.8" font-family="sans" font-size="10.00"> </text>
<text text-anchor="start" x="741.17" y="-1810" font-family="monospace" font-size="10.00">data/PacBio_amplicon.gb</text>
<text text-anchor="start" x="741.17" y="-1792" font-family="monospace" font-size="10.00">data/PacBio_feature_parse_specs.yaml</text>
<text text-anchor="start" x="741.17" y="-1774" font-family="monospace" font-size="10.00">dms&#45;vep&#45;pipeline/notebooks/analyze_pacbio_ccs.ipynb</text>
<text text-anchor="start" x="741.17" y="-1756" font-family="monospace" font-size="10.00">results/process_ccs/Lib&#45;1_220629</text>
<text text-anchor="start" x="741.17" y="-1738" font-family="monospace" font-size="10.00">results/process_ccs/Lib&#45;2_220629</text>
<text text-anchor="start" x="970.17" y="-1717.8" font-family="sans" font-size="10.00"> </text>
<text text-anchor="start" x="974.17" y="-1717.8" font-family="sans" font-weight="bold" font-size="14.00">output →</text>
<text text-anchor="start" x="1044.17" y="-1717.8" font-family="sans" font-size="10.00"> </text>
<text text-anchor="start" x="741.17" y="-1698" font-family="monospace" font-size="10.00">results/notebooks/analyze_pacbio_ccs.ipynb</text>
<text text-anchor="start" x="741.17" y="-1680" font-family="monospace" font-size="10.00">results/process_ccs/CCSs_aligned_to_amplicon.csv</text>
<polygon fill="#d98457" stroke="#d98457" points="735.17,-1844 735.17,-1844 1055.17,-1844 1055.17,-1844 735.17,-1844"/>
<polygon fill="#d98457" stroke="#d98457" points="735.17,-1732 735.17,-1732 1055.17,-1732 1055.17,-1732 735.17,-1732"/>
<polygon fill="none" stroke="#d98457" stroke-width="2" points="734.67,-1671 734.67,-1873 1053.67,-1873 1053.67,-1671 734.67,-1671"/>
</g>
<!-- 7&#45;&gt;2 -->
<g id="edge6" class="edge">
<title>7&#45;&gt;2</title>
<path fill="none" stroke="grey" stroke-width="2" d="M966.29,-1669.97C1023.24,-1580.18 1093.17,-1443.04 1093.17,-1311 1093.17,-1311 1093.17,-1311 1093.17,-1051 1093.17,-955.97 1122.18,-813.63 935.17,-566 889.88,-506.04 823.96,-456.62 762.47,-419.38"/>
<polygon fill="grey" stroke="grey" stroke-width="2" points="764.2,-416.33 753.83,-414.2 760.61,-422.34 764.2,-416.33"/>
</g>
<!-- 7&#45;&gt;6 -->
<g id="edge16" class="edge">
<title>7&#45;&gt;6</title>
<path fill="none" stroke="grey" stroke-width="2" d="M784.57,-1669.69C774.26,-1660.16 763.86,-1650.55 753.68,-1641.13"/>
<polygon fill="grey" stroke="grey" stroke-width="2" points="756.02,-1638.54 746.3,-1634.32 751.27,-1643.68 756.02,-1638.54"/>
</g>
<!-- 7&#45;&gt;9 -->
<g id="edge20" class="edge">
<title>7&#45;&gt;9</title>
<path fill="none" stroke="grey" stroke-width="2" d="M881.67,-1670C872.75,-1609.91 858.66,-1532.64 838.17,-1466 798.97,-1338.54 731.45,-1198.02 690.59,-1118.14"/>
<polygon fill="grey" stroke="grey" stroke-width="2" points="693.67,-1116.47 685.99,-1109.17 687.44,-1119.67 693.67,-1116.47"/>
</g>
<!-- 7&#45;&gt;11 -->
<g id="edge23" class="edge">
<title>7&#45;&gt;11</title>
<path fill="none" stroke="grey" stroke-width="2" d="M889.42,-1669.67C885.83,-1610.15 879.82,-1533.57 870.17,-1466 850.13,-1325.78 832.91,-1292.9 805.17,-1154 787.09,-1063.48 821.03,-1024.24 766.17,-950 745.84,-922.5 726.14,-933.67 698.17,-914 689.06,-907.6 679.93,-900.81 670.86,-893.75"/>
<polygon fill="grey" stroke="grey" stroke-width="2" points="672.93,-890.93 662.91,-887.49 668.6,-896.43 672.93,-890.93"/>
</g>
<!-- 8 -->
<g id="node9" class="node">
<title>8</title>
<text text-anchor="start" x="778.17" y="-2039.6" font-family="sans" font-weight="bold" font-size="18.00">align_parse_PacBio_ccs</text>
<text text-anchor="start" x="778.17" y="-2015.8" font-family="sans" font-size="10.00"> </text>
<text text-anchor="start" x="782.17" y="-2015.8" font-family="sans" font-weight="bold" font-size="14.00">↪ input</text>
<text text-anchor="start" x="840.17" y="-2015.8" font-family="sans" font-size="10.00"> </text>
<text text-anchor="start" x="778.17" y="-1996" font-family="monospace" font-size="10.00">&lt;input function&gt;</text>
<text text-anchor="start" x="778.17" y="-1978" font-family="monospace" font-size="10.00">data/PacBio_amplicon.gb</text>
<text text-anchor="start" x="778.17" y="-1960" font-family="monospace" font-size="10.00">data/PacBio_feature_parse_specs.yaml</text>
<text text-anchor="start" x="932.17" y="-1939.8" font-family="sans" font-size="10.00"> </text>
<text text-anchor="start" x="936.17" y="-1939.8" font-family="sans" font-weight="bold" font-size="14.00">output →</text>
<text text-anchor="start" x="1006.17" y="-1939.8" font-family="sans" font-size="10.00"> </text>
<text text-anchor="start" x="778.17" y="-1920" font-family="monospace" font-size="10.00">results/process_ccs/{pacbioRun}</text>
<polygon fill="#d3d957" stroke="#d3d957" points="772.17,-2030 772.17,-2030 1017.17,-2030 1017.17,-2030 772.17,-2030"/>
<polygon fill="#d3d957" stroke="#d3d957" points="772.17,-1954 772.17,-1954 1017.17,-1954 1017.17,-1954 772.17,-1954"/>
<polygon fill="none" stroke="#d3d957" stroke-width="2" points="772.17,-1911 772.17,-2059 1016.17,-2059 1016.17,-1911 772.17,-1911"/>
</g>
<!-- 8&#45;&gt;7 -->
<g id="edge17" class="edge">
<title>8&#45;&gt;7</title>
<path fill="none" stroke="grey" stroke-width="2" d="M894.17,-1909.91C894.17,-1901.63 894.17,-1893.06 894.17,-1884.45"/>
<polygon fill="grey" stroke="grey" stroke-width="2" points="897.67,-1884.32 894.17,-1874.32 890.67,-1884.32 897.67,-1884.32"/>
</g>
<!-- 9&#45;&gt;2 -->
<g id="edge3" class="edge">
<title>9&#45;&gt;2</title>
<path fill="none" stroke="grey" stroke-width="2" d="M664.8,-994.94C677.26,-904.19 696.28,-719.77 672.17,-566 670.83,-557.46 669.22,-548.8 667.4,-540.1"/>
<polygon fill="grey" stroke="grey" stroke-width="2" points="670.8,-539.28 665.25,-530.26 663.96,-540.77 670.8,-539.28"/>
</g>
<!-- 9&#45;&gt;11 -->
<g id="edge21" class="edge">
<title>9&#45;&gt;11</title>
<path fill="none" stroke="grey" stroke-width="2" d="M629.36,-994.86C619.45,-974.1 607.61,-949.28 595.25,-923.41"/>
<polygon fill="grey" stroke="grey" stroke-width="2" points="598.33,-921.74 590.87,-914.22 592.02,-924.76 598.33,-921.74"/>
</g>
<!-- 10 -->
<g id="node11" class="node">
<title>10</title>
<text text-anchor="start" x="854.17" y="-1133.6" font-family="sans" font-weight="bold" font-size="18.00">make_graphs</text>
<text text-anchor="start" x="821.17" y="-1109.8" font-family="sans" font-size="10.00"> </text>
<text text-anchor="start" x="825.17" y="-1109.8" font-family="sans" font-weight="bold" font-size="14.00">↪ input</text>
<text text-anchor="start" x="883.17" y="-1109.8" font-family="sans" font-size="10.00"> </text>
<text text-anchor="start" x="821.17" y="-1090" font-family="monospace" font-size="10.00">Snakefile</text>
<text text-anchor="start" x="821.17" y="-1072" font-family="monospace" font-size="10.00">dms&#45;vep&#45;pipeline/docs.smk</text>
<text text-anchor="start" x="821.17" y="-1054" font-family="monospace" font-size="10.00">dms&#45;vep&#45;pipeline/funcs.smk</text>
<text text-anchor="start" x="821.17" y="-1036" font-family="monospace" font-size="10.00">dms&#45;vep&#45;pipeline/pipeline.smk</text>
<text text-anchor="start" x="942.17" y="-1015.8" font-family="sans" font-size="10.00"> </text>
<text text-anchor="start" x="946.17" y="-1015.8" font-family="sans" font-weight="bold" font-size="14.00">output →</text>
<text text-anchor="start" x="1016.17" y="-1015.8" font-family="sans" font-size="10.00"> </text>
<text text-anchor="start" x="821.17" y="-996" font-family="monospace" font-size="10.00">results/docs_source/dag.svg</text>
<text text-anchor="start" x="821.17" y="-978" font-family="monospace" font-size="10.00">results/docs_source/filegraph.svg</text>
<text text-anchor="start" x="821.17" y="-960" font-family="monospace" font-size="10.00">results/docs_source/rulegraph.svg</text>
<polygon fill="#bcd957" stroke="#bcd957" points="815.17,-1124 815.17,-1124 1027.17,-1124 1027.17,-1124 815.17,-1124"/>
<polygon fill="#bcd957" stroke="#bcd957" points="815.17,-1030 815.17,-1030 1027.17,-1030 1027.17,-1030 815.17,-1030"/>
<polygon fill="none" stroke="#bcd957" stroke-width="2" points="814.67,-951 814.67,-1153 1025.67,-1153 1025.67,-951 814.67,-951"/>
</g>
<!-- 10&#45;&gt;2 -->
<g id="edge7" class="edge">
<title>10&#45;&gt;2</title>
<path fill="none" stroke="grey" stroke-width="2" d="M874.52,-949.74C826.55,-843.35 749.84,-673.19 689.55,-539.48"/>
<polygon fill="grey" stroke="grey" stroke-width="2" points="692.72,-538 685.42,-530.32 686.34,-540.87 692.72,-538"/>
</g>
<!-- 10&#45;&gt;11 -->
<g id="edge24" class="edge">
<title>10&#45;&gt;11</title>
<path fill="none" stroke="grey" stroke-width="2" d="M813.62,-961.35C808.76,-957.49 803.93,-953.69 799.17,-950 758.37,-918.39 713.45,-885.32 671.37,-855.05"/>
<polygon fill="grey" stroke="grey" stroke-width="2" points="673.16,-852.02 662.99,-849.03 669.07,-857.71 673.16,-852.02"/>
</g>
<!-- 11&#45;&gt;2 -->
<g id="edge4" class="edge">
<title>11&#45;&gt;2</title>
<path fill="none" stroke="grey" stroke-width="2" d="M547.55,-565.88C549.51,-557.29 551.48,-548.63 553.45,-539.97"/>
<polygon fill="grey" stroke="grey" stroke-width="2" points="556.86,-540.72 555.67,-530.2 550.04,-539.17 556.86,-540.72"/>
</g>
</g>
</svg>
